<svg width="37" height="32" xmlns="http://www.w3.org/2000/svg"><path d="M21.28 12.11l-1.18 3.853s-.24.814-.524 1.767c-1.683-1.826-2.734-2.97-3.286-3.569-2.29-2.468-5.494-6.37-6.273-5.214-.39 1.595 2.404 4.213 4.668 6.704l1.92 2.097-3.185-.135-4.979-.2c-3.353-.121-8.566-.438-8.1.764 2.773.818 4.66 1.276 8.011 1.432l4.978.213c1.296.054 3.274.131 4.439.178-.322.282-.725.529-1.029.89-1.486 1.765-3.058 2.618-3.636 3.011-2.795 1.892-2.464 2.537-1.796 2.774 1.284-.094 2.11-.248 3.149-1.05.562-.432 2.226-1.773 3.708-3.053.005-.003.008-.007.01-.01l-.264.94c-.886 3.268-2.176 7.727-1.033 8.132 1.612.44 2.223-4.301 3.137-7.54.113-.401.284-.993.572-2.004 1.192 1.292 1.789 1.94 2.158 2.342 2.288 2.467 3.858 3.618 6.272 5.211.876-1.399-2.405-4.21-4.669-6.702l-2.312-2.53-.224-.242c1.037.045 2.105.089 2.798.12l3.412.135c3.353.121 7.377.61 8.1-.764-.06-1.242-4.659-1.276-8.01-1.431-.568-.026-1.492-.065-3.413-.148-.4-.016-.936-.04-1.512-.06l.505-.487a103.034 103.034 0 0 0 3.385-3.413c.895-.963 2.544-2.194 1.347-3.05-1.022-.619-2.017.605-2.92 1.527-.45.461-1.73 1.778-3.012 3.029l.884-2.85 1.521-4.758c1.04-3.2 3.034-7.097 1.58-8.019-1.63.058-2.575 4.12-3.653 7.326-.257.8-.749 2.323-1.545 4.784" fill="#1E5D8A" fill-rule="evenodd"/></svg>
