<svg xmlns="http://www.w3.org/2000/svg" width="236" height="233"><g fill="none" fill-rule="evenodd"><path fill="#F2C4C4" d="M7.816 104.89c.221.62.841 1.328 1.328 1.46 1.283.31 2.744.355 3.984.044 6.24-1.46 12.083-.088 17.97 1.903 10.89 3.719 20.405 9.739 29.745 16.2 8.941 6.198 17.528 12.837 27.398 17.617 3.1 1.462 5.401 1.594 8.1-2.124 5.888-8.1 10.402-16.909 14.297-26.16 3.63-8.498 4.073-16.996 2.39-25.938-2.257-11.773-5.089-23.414-8.587-34.922-3.098-10.27-4.603-20.804-3.054-31.56.62-4.25 1.505-8.454 2.125-12.704.044-.176 0-.31-.044-.486 1.284-.178 2.611-.355 3.895-.444 2.833-.264 5.665-.308 8.498-.22a12.902 12.902 0 00-.53 1.859c-1.152 5.223-.045 10.402.752 15.537 1.24 8.143 4.87 15.003 11.641 20.006 1.461 1.062 2.877 2.212 4.338 3.276 7.26 5.487 14.12 11.374 18.944 19.297 1.018 1.727 2.567 3.143 3.94 4.648 9.206 10.18 14.43 22.308 17.793 35.456 2.877 11.285 3.32 22.883 4.825 34.302.575 4.736 1.195 9.474 1.726 13.544.708 11.82-3.984 21.335-9.384 30.63-.31.577-.84 1.064-1.372 1.507-5.754 4.957-12.039 8.895-19.697 10.047-7.613 1.106-15.27 2.08-22.884 3.099-3.54.441-6.728-.62-9.738-2.392-10.09-5.93-18.723-13.588-25.672-22.972-2.478-3.275-5.223-6.153-8.188-9.03-10.226-9.915-20.849-19.43-28.373-31.869-4.293-7.126-10.756-12.394-18.723-15.138-8.543-2.966-17.263-5.444-25.938-8.1-.664-.177-1.372-.354-1.992-.22-.177.043-.398.087-.575.176-.178-2.345-.178-4.691.088-6.993l.841.088v.089c0 .132.044.31.133.486"/><path fill="#1E5D8A" d="M8.917 101.48c-1.107-.177-2.213.09-3.143.664 0 .044-.044.044-.044.044"/><path stroke="#30537A" stroke-width="4.426" d="M8.917 101.48c-1.107-.177-2.213.09-3.143.664 0 .044-.044.044-.044.044"/><path fill="#1E5D8A" d="M220.218 105.38c0-.214 0-.375.161-.536l.053-.053c.054-.268.322-.429.483-.536.107-.054.375 0 .482.107.161.161.321.268.59.268.106 0 .321.214.321.375s.107.268.16.43c.054.106.108.213.108.32 0 .107 0 .214-.054.322a.338.338 0 000 .321c.161.375.375.697.59 1.018.482.697.803 1.501 1.071 2.358.054.107.054.268.107.375.804.161 1.554.375 2.358.536l2.251.482c.321.054.643.161.964.214.054 0 .107 0 .161.054.268.268.643.214 1.018.321.053 0 .107 0 .16-.053.215-.107.215-.107.376.107.161 0 .267-.054.428.053.054.054.108.108.054.162-.054.214-.215.321-.375.428-.215.107-.429.268-.643.375.107.161.053.268-.054.43-.428.588-.964 1.07-1.554 1.553-.32.268-.696.428-1.018.643-.053 0-.053.053-.107.053-.16 0-.32.107-.428.214-.429.376-.912.697-1.393 1.072 0 .161.053.268.16.43.107.213.215.428.268.696.107.482.214.964.375 1.393.215.428.375.91.59 1.393l.321.643c.054.16.054.321-.054.428-.107.107-.267.161-.429.107h-.106c-.054.161 0 .268 0 .43l.16.803c.054.214-.107.322-.214.43-.107.106-.215.052-.32 0 0 0-.055 0-.055-.055-.107-.268-.375-.375-.59-.482-.696-.429-1.393-.858-2.089-1.34l-1.286-.804c-.214-.107-.376-.267-.536-.535-.107-.16-.16-.16-.32-.108a4.411 4.411 0 00-1.073.643 21.383 21.383 0 01-2.358 1.447c-.214.108-.482.268-.696.375-.16.108-.322.161-.536.108-.054 0-.16.053-.268.106l-.804.644c-.214.16-.482.16-.697.214 0 0-.053 0-.107-.054-.107-.16-.214-.267-.268-.429-.053-.16.054-.32.108-.48.214-.376.428-.805.482-1.288.053-.375.107-.696.214-1.07.054-.216.108-.43.161-.59 0-.054 0-.054-.053-.054-.162-.107-.215-.268-.162-.482.054-.375.054-.75.054-1.126 0-.32.054-.642.054-1.018-.322-.267-.643-.589-.965-.857a76.704 76.704 0 00-2.143-1.929c-.589-.482-1.072-1.072-1.608-1.607-.053-.054-.16-.16-.268-.16-.053 0-.107-.055-.16-.055-.107-.054-.107-.16 0-.268a.418.418 0 00.214-.214c.054-.053.161-.107.268-.053.107.053.215.053.321-.054.054-.054.161-.054.215-.108.16 0 .322-.053.482-.107.161-.053.322-.053.482-.107a8.235 8.235 0 001.126-.214c.482-.107.91-.214 1.393-.322.59-.107 1.125-.268 1.715-.428.16-.054.267-.054.428-.107.054 0 .107-.054.107-.054l.161-.804c.161-.482.322-.91.482-1.393.215-.75.536-1.447.75-2.143.054-.268.215-.536.43-.75.16-.108.267-.054.374-.054 0 .054 0 .161.107.161 0-.054-.053-.107-.107-.16m-61.864-52.809c1.026-1.843 2.285-3.413 3.612-4.899a44.592 44.592 0 014.272-4.117 44.119 44.119 0 014.772-3.526c1.687-1.06 3.446-2.037 5.438-2.736-1.023 1.847-2.28 3.417-3.609 4.903a44.004 44.004 0 01-4.275 4.114 44.854 44.854 0 01-4.775 3.521c-1.688 1.06-3.446 2.037-5.435 2.74m28.128 148.37a48.79 48.79 0 002.275 1.935c.205-.152.408-.297.603-.43a26.82 26.82 0 001.641-1.201c.182-.18.365-.355.548-.524a276.24 276.24 0 00-2.637-2.444 225.753 225.753 0 00-5.777-5.114c-1.978-1.673-3.979-3.34-6.219-4.868 1.084 2.489 2.547 4.722 4.167 6.824a46.575 46.575 0 005.399 5.822m-109.1-85.551c-3.63-1.005-7.1-2.264-10.56-3.528a376.437 376.437 0 01-10.26-4.002 361.998 361.998 0 01-10.144-4.288c-3.361-1.507-6.724-3.03-10.024-4.848 3.75.376 7.39 1.196 10.98 2.178a97.982 97.982 0 0110.546 3.618 99.128 99.128 0 0110.077 4.771c3.256 1.804 6.436 3.754 9.386 6.099m35.363 81.743c-1.246 2.325-2.725 4.443-4.273 6.5a87.289 87.289 0 01-4.935 5.913 85.995 85.995 0 01-5.437 5.467c-1.909 1.737-3.89 3.41-6.105 4.874 1.243-2.327 2.721-4.447 4.27-6.503a85.428 85.428 0 014.938-5.909 87.623 87.623 0 015.44-5.465c1.91-1.735 3.89-3.409 6.102-4.877m86.838-60.119c2.763-.201 5.467 0 8.141.353a61.02 61.02 0 017.899 1.634 60.437 60.437 0 017.617 2.651c2.475 1.07 4.898 2.289 7.164 3.885-2.765-.179-5.402-.649-8.015-1.179a121.366 121.366 0 01-7.728-1.882 123.905 123.905 0 01-7.595-2.361c-2.513-.889-5.018-1.839-7.483-3.101m1.72-46.555c1.764-1.566 3.708-2.773 5.713-3.842a44.22 44.22 0 016.233-2.675 43.755 43.755 0 016.566-1.703c2.238-.382 4.515-.615 6.87-.45-1.975 1.29-4.008 2.261-6.055 3.167a80.894 80.894 0 01-6.216 2.398 82.516 82.516 0 01-6.385 1.901c-2.173.536-4.376 1.011-6.726 1.204m-56.409 132.457c-.834-1.708-1.309-3.434-1.675-5.165a35.114 35.114 0 01-.654-5.216 34.594 34.594 0 01.12-5.255c.19-1.76.49-3.525 1.152-5.307.838 1.707 1.315 3.432 1.68 5.164.352 1.732.564 3.471.65 5.216a35.267 35.267 0 01-.126 5.256c-.19 1.76-.489 3.524-1.147 5.307M82.068 82.392c0-.17 0-.3.128-.428l.043-.043c.043-.214.257-.342.386-.428.085-.043.299 0 .385.086.128.128.257.213.47.213.087 0 .258.172.258.3 0 .13.085.214.128.342.043.086.086.172.086.257 0 .086 0 .172-.043.257a.272.272 0 000 .257c.128.3.3.557.47.813.386.557.643 1.2.857 1.884.043.086.043.214.085.3.643.128 1.242.3 1.884.428l1.798.385c.257.043.514.128.77.171.043 0 .086 0 .129.043.214.214.514.171.813.257.043 0 .086 0 .128-.043.172-.086.172-.086.3.086.129 0 .214-.043.343.042.042.043.085.086.042.13-.042.17-.171.255-.3.341-.17.086-.342.214-.513.3.086.13.043.214-.043.342-.342.471-.77.856-1.241 1.242-.257.214-.556.342-.813.513-.043 0-.043.043-.086.043-.13 0-.257.086-.342.172-.343.3-.728.556-1.113.856 0 .128.042.214.128.342.086.171.17.343.214.557.086.385.17.77.3 1.112.17.343.299.728.47 1.114l.257.513c.043.13.043.257-.043.343a.332.332 0 01-.342.085h-.085c-.043.13 0 .214 0 .343l.128.642c.043.171-.086.257-.171.342-.086.086-.172.043-.257 0 0 0-.043 0-.043-.042-.086-.215-.3-.3-.471-.386a36.197 36.197 0 01-1.67-1.07l-1.027-.642c-.171-.086-.3-.214-.428-.428-.085-.129-.128-.129-.257-.086-.3.13-.6.3-.856.514a17.16 17.16 0 01-1.883 1.156c-.171.085-.386.214-.556.3-.13.085-.257.128-.43.085-.042 0-.127.043-.213.086l-.642.513c-.171.13-.385.13-.556.172 0 0-.043 0-.086-.043-.086-.129-.171-.214-.214-.343-.043-.128.043-.256.086-.385.17-.3.342-.642.385-1.027.043-.3.086-.557.17-.857.044-.17.087-.342.129-.47 0-.043 0-.043-.042-.043-.13-.086-.171-.214-.13-.386.044-.299.044-.599.044-.899 0-.256.043-.513.043-.813-.257-.214-.514-.47-.771-.685-.556-.513-1.112-1.027-1.712-1.54-.471-.386-.856-.857-1.284-1.285-.043-.043-.13-.128-.214-.128-.043 0-.086-.043-.128-.043-.086-.043-.086-.129 0-.214a.33.33 0 00.17-.17c.043-.044.129-.087.215-.044.085.043.17.043.257-.043.043-.043.128-.043.17-.086.129 0 .258-.042.386-.085.129-.043.257-.043.386-.086.299-.043.599-.086.898-.17.386-.087.728-.172 1.113-.258.47-.085.899-.214 1.37-.342.128-.043.214-.043.343-.086.042 0 .085-.043.085-.043l.129-.642c.128-.385.256-.728.385-1.113.17-.599.428-1.156.599-1.712.043-.214.17-.428.343-.6.128-.085.214-.042.299-.042 0 .042 0 .128.086.128 0-.043-.043-.086-.086-.128m115.843 80.506c2.304.506 4.424 1.369 6.467 2.36a44.204 44.204 0 015.829 3.469 43.808 43.808 0 015.239 4.309c1.625 1.587 3.153 3.29 4.405 5.292-2.205-.84-4.187-1.912-6.123-3.035a80.485 80.485 0 01-5.595-3.617 83.05 83.05 0 01-5.293-4.046c-1.711-1.443-3.391-2.945-4.93-4.732M46.859 191.099c-.198.198-.347.347-.644.347h-.099c-.298.198-.694.099-.942.049-.148-.049-.347-.346-.347-.544 0-.298-.049-.545-.297-.793-.099-.1-.099-.496.05-.644.148-.149.148-.347.247-.545.05-.149.1-.298.2-.397.098-.099.197-.198.346-.247a.45.45 0 00.297-.298c.198-.495.297-.99.396-1.486.198-1.09.644-2.131 1.19-3.171.05-.149.198-.297.247-.446-.595-.892-1.09-1.784-1.685-2.676l-1.635-2.527c-.247-.347-.446-.743-.693-1.09-.05-.05-.099-.099-.099-.198 0-.496-.397-.793-.645-1.239-.049-.049-.098-.099-.198-.099-.297-.099-.297-.099-.248-.446-.148-.148-.297-.198-.346-.446 0-.099 0-.198.1-.198.246-.149.494-.099.742-.05.297.1.644.149.941.248.05-.248.2-.297.446-.347.942-.148 1.883-.099 2.874 0 .545.05 1.041.248 1.536.347.05.05.1 0 .15.05.147.149.395.198.594.198.743.05 1.486.198 2.278.297.15-.148.2-.297.248-.545.1-.297.2-.594.397-.892.347-.545.693-1.089.941-1.634.198-.595.495-1.19.743-1.834.1-.297.2-.595.297-.892.1-.198.248-.347.447-.347.198 0 .396.099.495.298l.1.099c.197-.099.247-.248.395-.397.2-.297.397-.594.595-.891.15-.248.397-.198.595-.198.198 0 .247.148.297.297 0 0 .05.049 0 .099-.149.347 0 .693.1.991.247 1.04.494 2.081.693 3.171l.445 1.932c.1.298.1.595 0 .991-.049.248 0 .297.2.396a5.71 5.71 0 001.584.397c1.19.198 2.38.496 3.518.842.298.099.694.198.991.298.248.049.446.148.595.396.05.049.198.099.347.149l1.337.148c.347.05.595.297.842.446 0 0 .05.05.05.149-.05.247-.05.445-.149.644-.099.198-.346.248-.545.347-.544.148-1.139.347-1.634.743-.397.297-.744.545-1.19.793-.247.148-.495.297-.693.396-.05.05-.05.05 0 .099.05.248-.05.446-.297.595-.397.297-.744.644-1.09.991-.298.297-.645.545-.992.892.05.545.05 1.139.1 1.684a100.1 100.1 0 00.198 3.766c.1.991 0 1.982 0 2.973 0 .099 0 .297.1.396.048.05.048.149.098.198.05.149-.05.248-.248.248a.541.541 0 00-.396 0c-.1 0-.248-.05-.297-.198-.05-.149-.149-.248-.348-.248-.099 0-.198-.099-.297-.099-.148-.149-.347-.248-.545-.347-.198-.099-.346-.248-.545-.346-.396-.298-.793-.595-1.238-.843-.545-.347-1.04-.644-1.586-.991-.644-.446-1.288-.793-1.982-1.189-.198-.099-.297-.198-.495-.297-.05-.05-.149-.05-.149-.05l-.892.595c-.594.297-1.14.545-1.734.842-.892.496-1.833.842-2.676 1.288-.297.198-.694.297-1.09.297-.248-.049-.297-.198-.396-.297.05-.049.148-.148.05-.248-.05.05-.05.149-.05.248M185.676 71.462c-.203.193-.355.339-.652.332l-.099-.002c-.302.19-.696.083-.942.027-.148-.052-.339-.355-.335-.552.007-.298-.036-.547-.279-.8-.096-.101-.087-.498.065-.643.152-.145.157-.343.26-.54.053-.146.106-.294.207-.39.102-.098.203-.194.353-.24a.446.446 0 00.304-.291c.21-.49.32-.984.43-1.477.223-1.085.693-2.115 1.262-3.142.053-.148.205-.293.258-.441-.574-.905-1.049-1.808-1.623-2.713l-1.576-2.564c-.24-.353-.429-.753-.669-1.106-.048-.05-.097-.101-.094-.2.011-.495-.378-.802-.616-1.254-.048-.05-.097-.101-.195-.103-.295-.106-.295-.106-.238-.451-.145-.153-.293-.205-.337-.454.003-.1.005-.2.104-.196.251-.143.498-.088.744-.032.295.106.641.163.936.269.055-.247.205-.293.454-.337.944-.127 1.884-.055 2.873.066.543.063 1.034.272 1.527.382.048.05.1.003.148.053.145.153.391.208.59.212.742.067 1.481.233 2.271.35.152-.145.205-.293.261-.54.106-.294.211-.59.416-.882.36-.537.72-1.074.98-1.613.211-.59.522-1.177.784-1.815l.318-.886c.104-.195.256-.34.454-.336a.544.544 0 01.488.309l.097.1c.2-.094.253-.241.405-.386l.615-.878c.155-.244.401-.19.6-.185.198.005.243.155.29.305 0 0 .048.05-.003.099-.156.343-.016.693.077.992.223 1.046.447 2.092.62 3.187l.402 1.942c.092.299.085.596-.023.99-.056.247-.007.298.19.4a5.71 5.71 0 001.575.434c1.184.226 2.366.55 3.497.923.295.106.69.214.984.32.247.055.443.159.586.41.048.05.195.104.343.157l1.334.179c.346.057.587.31.832.465 0 0 .048.05.046.15-.055.247-.06.444-.164.64-.103.196-.352.24-.552.335-.549.136-1.147.32-1.652.705a9.91 9.91 0 01-1.207.765c-.25.143-.502.286-.703.38-.05.049-.05.049-.002.1.044.248-.06.444-.31.587-.404.288-.759.627-1.113.966-.304.29-.657.53-1.012.869.037.546.023 1.14.061 1.686.021 1.239.042 2.479.111 3.769.077.993-.046 1.982-.068 2.972-.002.1-.007.298.09.399.048.05.046.15.094.2.046.15-.055.247-.253.242a.551.551 0 00-.396-.01c-.099-.001-.247-.054-.293-.204-.046-.15-.143-.251-.34-.255-.1-.002-.197-.104-.296-.106-.145-.152-.34-.256-.537-.36-.196-.103-.34-.255-.537-.36-.389-.305-.779-.612-1.219-.87-.537-.36-1.025-.667-1.562-1.027-.634-.46-1.27-.822-1.954-1.234-.196-.104-.293-.205-.489-.31-.048-.05-.147-.051-.147-.051l-.906.573c-.6.284-1.15.519-1.753.803-.902.475-1.852.799-2.704 1.226-.302.19-.7.28-1.097.272-.246-.055-.292-.205-.389-.306.051-.048.152-.146.055-.247-.05.049-.053.148-.055.247m-24.618 88.327c-.152.535-.37 1.073-.601 1.643-.158.393-.316.786-.458 1.184-.084.234-.254.52-.436.824-.101.17-.202.34-.296.51l-.294.547c-.226.422-.44.82-.674 1.173-.254.383-.558.765-.88 1.168l-.37.466a3.222 3.222 0 00-.323.359l-.58.775c-.307.413-.613.826-.931 1.233a4.526 4.526 0 01-.503.542c-.74.69-1.571 1.465-2.31 2.424-.58.347-.98.797-1.285 1.14-.08.09-.16.182-.243.269-1.24.563-2.08 1.459-2.815 2.269-.531-.346-1.01-.846-1.55-1.412-.398-.418-.81-.85-1.285-1.26l-.37-.316c-.4-.341-.8-.681-1.171-1.047-.41-.402-.805-.818-1.2-1.233-.31-.324-.617-.65-.931-.967-.243-.246-.494-.481-.744-.717a19.322 19.322 0 01-.652-.628l-.1-.098c-.361-.368-.703-.714-.971-1.067a35.08 35.08 0 01-1.518-2.171c-.74-1.134-1.371-2.166-1.617-3.305a5.4 5.4 0 00-.346-1.003c-.04-.095-.083-.19-.117-.29-.21-.592-.41-1.187-.61-1.79l-.011-.967c-.007-.761-.014-1.522-.042-2.283-.011-.268.063-.581.243-1.042.378-.965.73-1.725 1.11-2.393.16-.278.339-.444.598-.558.25-.11.498-.232.745-.355.348-.174.677-.34.963-.422 1.2-.35 1.722.01 2.073.409.633.72 1.055 1.362 1.329 2.025.259.625.552 1.237.858 1.87.13.273.264.55.398.835l1.386 2.807 1.782-2.615c.116-.151.31-.404.437-.773.497-1.444 1.427-2.676 2.503-4.022.394-.493.845-.968 1.378-1.451.953-.864 1.817-1.225 2.774-1.155.586.042 1.108-.05 1.555-.271.089.002.266.027.4.045l.606.076c.236.03.47.06.735.077.21.186.417.329.592.449.083.057.167.113.244.176.374.31.736.616 1.056.932.26.259.509.51.65.73.36.562.689 1.15.977 1.746.436.909.734 1.605.964 2.26.116.328.167.773.202 1.166a9.456 9.456 0 01-.324 3.482m3.917-3.806c-.056-.614-.146-1.337-.393-2.04-.275-.784-.62-1.593-1.116-2.626a20.604 20.604 0 00-1.19-2.128c-.34-.53-.755-.957-1.15-1.347-.422-.42-.87-.796-1.292-1.145a6.995 6.995 0 00-.496-.368c-.09-.061-.183-.115-.26-.19-.811-.851-1.795-.88-2.113-.89-.181-.004-.36-.03-.538-.053l-.574-.074c-.563-.078-1.39-.193-2.287.196-1.922-.105-3.716.596-5.36 2.084a15.983 15.983 0 00-1.774 1.873c-.54.675-1.065 1.35-1.543 2.06-.403-.776-.93-1.528-1.625-2.317-1.432-1.63-3.49-2.161-5.79-1.49-.6.175-1.112.432-1.566.658-.191.095-.382.192-.577.276-.974.427-1.742 1.125-2.286 2.078-.47.823-.893 1.732-1.336 2.863-.248.634-.528 1.489-.49 2.495.027.724.033 1.452.04 2.178l.013 1.11c.005.295.053.578.14.834.219.663.44 1.323.673 1.979.059.172.13.342.203.51.052.12.123.286.137.349.376 1.737 1.217 3.124 2.12 4.51.61.937 1.143 1.697 1.67 2.389.407.534.849.98 1.276 1.413l.095.097c.245.248.499.488.754.727.218.204.435.407.644.618.299.303.592.613.886.92.423.446.847.89 1.286 1.322.447.439.909.833 1.355 1.215l.357.305c.343.296.678.647 1.033 1.019.747.784 1.595 1.672 2.776 2.287.11.058.214.129.318.199.188.124.377.245.575.353.554.3 1.09.245 1.23.225l1.803.032v-1.607a.782.782 0 00.039-.045c.623-.688 1.16-1.281 1.814-1.546.483-.197.799-.522.984-.711.128-.131.25-.27.375-.408.152-.171.36-.406.444-.444.522-.227.8-.618.904-.762.549-.754 1.258-1.415 2.009-2.116a8.22 8.22 0 00.892-.967c.33-.427.655-.86.977-1.292l.53-.712v.002l.003-.002c.107-.105.21-.214.303-.333l.364-.461c.356-.446.724-.908 1.064-1.422.327-.493.592-.987.848-1.465l.27-.502c.077-.138.158-.275.24-.411.249-.418.53-.892.732-1.456.126-.352.266-.698.406-1.044.257-.634.52-1.288.727-2.014a13.01 13.01 0 00.447-4.788"/><path fill="#1E5D8A" d="M228.682 139.281c-1.726 6.905-3.231 13.81-6.197 20.361-6.197 13.544-13.721 26.115-23.99 37.004-5.8 6.197-12.35 11.42-18.812 16.82-6.02 5.001-13.456 7.258-21.158 8.321-7.79 1.062-15.58 2.17-23.105 4.515-1.24.398-2.567.841-3.851.885-12.304.354-24.698 1.328-36.694-2.833-6.86-2.434-13.854-4.47-20.582-7.392-6.55-2.877-12.26-7.17-18.546-10.49-4.56-5.356-11.331-7.835-16.377-12.659-4.87-4.648-10.092-8.94-14.828-13.678-3.453-3.408-6.33-7.392-8.233-11.95-3.718-8.986-6.861-18.193-8.853-27.753-.177-.709-.265-1.46-.531-2.169-2.832-7.923-3.541-16.024-2.036-24.079 0-.974.044-1.77.044-2.568.133.045.266.133.399.178 5.179 1.726 10.313 3.452 15.492 5.134 3.629 1.195 7.392 2.17 11.02 3.453 4.87 1.682 8.632 4.603 11.2 9.295 1.726 3.143 4.072 5.975 6.418 8.72 4.382 5.178 9.206 10.003 13.5 15.27 5.444 6.728 11.154 13.102 17.66 18.812 3.586 3.098 7.26 6.241 10.314 9.871 5.799 6.905 13.323 11.552 20.759 16.288 4.559 2.877 9.56 3.984 14.96 2.966 5.357-1.018 10.713-2.036 16.113-2.656 8.542-.929 16.2-3.629 23.238-8.764 9.915-7.17 14.828-16.864 15.536-28.815.265-4.692 0-9.56-.797-14.208-1.283-7.215-1.637-14.43-1.903-21.645-.221-5.223-5.621-31.117-7.17-35.942-1.594-5.134-5.002-9.117-7.835-13.455-5.887-9.163-11.685-18.369-20.538-25.097-2.523-1.948-4.913-4.028-7.392-5.976-3.231-2.523-6.462-5-9.693-7.524-2.17-1.682-3.807-3.85-4.737-6.463-2.345-6.462-3.94-13.057-3.275-20.006.133-1.55.266-3.143.22-4.737 0-.442-.043-.885-.176-1.283 5.179.398 10.313 1.328 15.448 2.655 6.507 1.682 13.102 3.054 19.74 4.205 9.03 1.594 17.042 5.401 24.523 10.58.93.62 1.815 1.372 2.788 1.814 3.807 1.726 6.95 4.382 10.137 6.95 2.523 2.035 4.559 4.381 6.373 7.037 1.373 1.992 2.789 4.072 4.648 5.577 4.426 3.674 7.348 8.5 10.49 13.102 2.656 3.851 4.825 8.012 7.082 12.128 2.922 5.267 4.382 11.11 5.843 16.91 1.284 5.266 2.302 10.577 2.213 16.066-.088 3.895.576 7.88 1.417 11.685 1.903 8.543 1.859 17.041-.266 25.54M4.8 101.481c.177-2.39.575-4.737 1.106-7.083.266-1.106.399-2.213.709-3.275 1.726-5.134 3.452-10.269 5.267-15.359 2.523-6.905 6.019-13.279 10.313-19.21 2.965-4.117 6.064-8.1 8.897-12.26 2.788-4.029 5.754-7.747 9.737-10.713 4.206-3.142 8.057-6.728 12.084-10.048a47.682 47.682 0 014.56-3.275c3.629-2.302 7.347-4.47 11.02-6.728.31-.177.62-.398.975-.53 8.365-3.277 16.687-6.596 25.849-6.906.84-.044 1.682-.088 2.479-.177-1.55 3.231-2.79 6.64-2.877 10.358-.045 2.921-.443 5.886-.531 8.808-.266 7.26-.354 14.474 1.858 21.556.975 2.965 1.284 6.197 1.417 9.384.177 4.116.885 8.055 2.92 11.73.843 1.592 1.506 3.275 2.17 4.957 3.187 8.188 4.559 16.642 3.408 25.318-1.062 8.144-3.408 15.98-7.17 23.282-1.86 3.63-4.205 6.993-6.816 10.137-3.453 4.204-4.737 4.25-9.207 1.46-4.781-3.054-9.473-6.152-14.208-9.295-7.924-5.223-15.758-10.667-23.814-15.713-9.118-5.755-18.9-9.783-30.32-8.809-1.55-.088-3.364-.22-5.18-.177-.884.044-1.902.133-2.566.62-.62.442-1.24 1.372-1.24 2.036v.088c0 .133.045.311.133.487.22.62.842 1.328 1.328 1.461 1.284.31 2.745.354 3.984.044 6.24-1.46 12.084-.088 17.97 1.903 10.889 3.72 20.406 9.738 29.745 16.201 8.942 6.196 17.528 12.836 27.399 17.616 3.098 1.461 5.4 1.594 8.1-2.124 5.887-8.1 10.402-16.909 14.297-26.159 3.629-8.499 4.072-16.997 2.39-25.939-2.257-11.774-5.09-23.415-8.587-34.923-3.098-10.269-4.603-20.803-3.054-31.559.62-4.25 1.505-8.455 2.125-12.704.044-.177 0-.309-.044-.487 1.283-.177 2.61-.354 3.895-.442 2.832-.266 5.665-.31 8.498-.222-.221.576-.398 1.24-.531 1.86-1.151 5.222-.045 10.401.752 15.536 1.24 8.144 4.869 15.005 11.64 20.007 1.462 1.062 2.878 2.213 4.339 3.275 7.259 5.488 14.12 11.376 18.945 19.298 1.018 1.727 2.567 3.143 3.939 4.648 9.207 10.18 14.43 22.308 17.794 35.454 2.877 11.288 3.319 22.885 4.824 34.304.576 4.736 1.196 9.473 1.726 13.545.709 11.818-3.983 21.335-9.383 30.63-.31.575-.841 1.062-1.372 1.505-5.754 4.957-12.04 8.896-19.697 10.047-7.614 1.107-15.271 2.081-22.884 3.1-3.541.441-6.728-.62-9.738-2.39-10.092-5.933-18.723-13.59-25.672-22.974-2.48-3.275-5.223-6.152-8.19-9.03-10.224-9.914-20.847-19.43-28.372-31.869-4.293-7.126-10.756-12.393-18.723-15.138-8.542-2.965-17.262-5.444-25.938-8.1-.663-.177-1.372-.354-1.992-.22-.177.043-.398.087-.575.176-.177-2.346-.177-4.692.089-6.994m229.503 12.925c-.886-4.16-1.683-8.499-1.771-12.748-.09-5.31-.752-10.445-2.08-15.536-1.992-7.392-3.763-14.872-7.835-21.51-1.815-3.056-3.32-6.33-5.223-9.297-3.01-4.736-6.197-9.339-10.18-13.367-2.48-2.523-4.781-5.268-6.95-8.056-3.762-4.736-8.365-8.543-13.456-11.73-2.08-1.239-4.16-2.478-6.241-3.762-7.657-4.736-15.58-8.897-24.61-10.534-7.701-1.417-15.403-3.099-23.061-4.78-7.88-1.77-15.801-3.01-23.946-2.39-4.471.31-8.897 1.061-13.367 1.371-4.736.31-9.207 1.461-13.722 2.656-8.055 2.17-15.58 5.18-22.397 10.047-3.496 2.48-7.215 4.692-10.623 7.26-3.895 2.921-7.436 6.285-11.331 9.206-3.187 2.39-5.754 5.312-8.056 8.543-3.541 5.002-7.26 9.96-10.756 15.05-4.692 6.771-9.295 13.588-10.711 22.042-.266 1.594-.974 3.187-1.682 4.692C3.119 88.29 2.278 95.55.994 102.72c-.221 1.283.044 2.611.044 3.94-.044 3.894.044 7.834-.221 11.773-.221 3.718-.487 7.48.31 11.154.885 4.028 1.903 8.012 2.744 12.04 1.992 9.915 5.135 19.52 9.118 28.815 2.302 5.4 5.577 10.136 9.96 14.12 3.983 3.674 8.188 7.17 11.995 10.977 3.187 3.231 6.728 5.931 10.534 8.322 1.416.885 2.966 1.77 4.072 3.01 5.002 5.532 11.597 8.896 17.97 12.26 8.942 4.736 18.547 8.056 28.197 11.022 5.046 1.504 10.18 2.478 15.49 2.301 2.082-.044 4.118 0 6.42 0 .708.044 1.638.222 2.567.222 6.153.044 12.26.044 18.324-1.948 4.383-1.417 9.119-2.169 13.722-2.656 8.277-.885 16.156-3.143 23.769-6.374 3.099-1.328 5.887-3.23 8.454-5.488 3.32-3.01 6.773-5.887 10.048-8.986 3.364-3.187 6.817-6.374 9.782-9.959 6.817-8.233 13.146-16.73 18.148-26.292 5.09-9.693 9.074-19.652 11.02-30.453.179-1.106.444-2.213.71-3.275 2.036-7.613 1.726-15.182.133-22.84"/></g></svg>