<svg xmlns="http://www.w3.org/2000/svg" width="252" height="233"><g fill="none" fill-rule="evenodd"><path fill="#ffe180" d="M157.895 114.83c-.235-2.464-.397-4.936-.666-7.396-.224-2.054-.56-4.097-.815-6.148-1.887-6.893-2.88-11.086-3.14-16.504-.273-5.68-1.162-11.32-2.829-16.759-.17-.554-.31-.999-.404-1.273-1.386-4.023-1.87-8.275-2.655-12.438-1.776-9.424-4.968-19.403-3.02-29.029a40.636 40.636 0 01-.853-1.694c-.85-1.81-1.619-2.455-2.892-1.917-.594.252-1.33.964-1.659 1.52a43.323 43.323 0 00-2.234 4.297c-1.037 2.32-1.88 4.726-2.946 7.03-1.125 2.432-2.383 4.804-3.653 7.165-.33.616-.64-9.228-.574-10.325-.247-3.08.85-25.848-7.133-24.074-5.35 1.19-4.585 8.844-3.12 14.49 1.511 5.827.107 19.831-1.932 16.42-1.372-2.296-9.555-8.794-11.137-10.943-1.158-1.572-3.648-2.314-4.48-1.352-1.416 1.638-3.164 3.453-3.538 5.428-.747 3.95-.626 8.06-.927 12.1-.316 4.225-.702 8.446-1.067 12.668-.082.94-.303 1.876-.3 2.813.008 3.508.126 7.017.11 10.525-.007 1.598-.304 3.193-.342 4.792-.07 2.951-.027 5.903-.062 8.854-.068 5.661-.16 11.322-.234 16.983-.055 4.168.325 8.397-.262 12.488-.59 4.112.605 8.28-.746 12.3 0 .002 0 .007-.002.011.118 3.165.128 6.34.367 9.495.4 5.311.501 10.627 1.71 15.893 1.867 8.151 5.885 14.975 11.592 20.922.748.78 6.89 5.521 7.141 5.432 1.297-.457 1.541.585 1.688 1.255.288 1.31.324 2.681.411 4.031.04.623.065 1.247.09 1.871 1.078.937 1.754 2.384 1.778 4.43.113 9.808-1.248 13.227 3.262 21.492 2.08 6.538 5.456 11.336 8.025 11.293 4.16 2.081 6.641-1.755 8.322-3.269-.049-.352-.312-6.13-.345-6.495-.085-.942.023-1.809.171-2.676-.323-2.478-.95-4.943-1.52-7.364-.62-2.634-1.177-5.28-1.846-7.9-1.658-6.495-1.822-9.01.242-11.528-.313-2.064-.558-3.686-.619-4.108-.062-.433-.266-1.956-.35-2.445-.155-.902 1.803-2.055 3.812-3.01 1.391-3.072 4.16-5.86 6.733-7.65a17.333 17.333 0 012.254-3.392c1.451-1.688 2.606-3.616 3.255-5.746 1.498-4.914 3.607-9.64 5.06-14.66.312-1.077.576-2.176.816-3.285.411-2.852.76-5.712 1.148-8.572.192-1.417.444-2.83.698-4.246-.334-3.285-.707-6.51-.383-9.8"/><path fill="#1E5D8A" d="M31.372 192.328l.732-.416c-.065-.053-.268.034-.732.416m163.99-128.164c.044-.048.102-.096.14-.143-.107.09-.137.125-.14.143M59.306 175.729a.622.622 0 00-.163.203l.163-.203z"/><path fill="#1E5D8A" d="M240.083 35.366l.128-.248c-5.165 2.715-10.736 7.155-15.143 9.295-2.391 2.348-5.831 2.972-8.23 5.276-2.192 4.27-13.891 7.742-17.554 11.721l.117-.253c.01-.012-4.04 3.008-4.04 3.007-2.716 3.062-6.91 4.833-10.288 7.002 2.299-.148-9.533 3.947-15.998 9.52-1.27 1.095-13.95 8.061-17.706 12.994-4.333 2.362-15.172 12.593-15.594 11.496-1.205.357-9.783 7.513-9.783 7.513-6.211 3.778-24.205 18.198-24.205 18.198-2.593 3.07-12.312 10.002-12.035 9.24-.642 1.033-3.08 3.414-4.392 3.957l.168-.2c-8.041 5.536-13.568 13.481-21.266 18.997l.324-.4c-2.91 2.664-11.056 9.644-11.033 9.99-1.408 1.418-13.483 12.217-14.185 12.896.388-.804-10.362 8.441-14.743 13.38-4.1 3.4-6.796 8.52-11.168 11.596l.806-.154C13.577 210.965-.96 226.95.8 227.381c7.198 1.764 27.602-24.533 32.54-28.799 12.103-10.454 24.036-23.227 36.668-32.257.985-1.208 3.982-3.57 4.309-3.92 0 0 9.056-8.526 14.53-12.316 3.809-4.704 7.794-5.25 11.83-9.972-.15.175 10.395-10.04 10.395-10.04 14.064-9.14 36.388-21.644 47.86-34.03C176.47 84.004 193.5 70.59 211.846 59.54c4.41-2.655 29.885-21.682 38.443-27.035 1.707-1.067.498-3.742-1.417-3.118-3.315 1.078-7.267 5.341-8.79 5.98m-131.677 89.946c0-.138.027-.273.08-.406l-.08.406z"/><path fill="#1E5D8A" d="M155.942 125.29c.002.392-.265.88-.564 1.159-1.876 1.749-3.997 3.278-5.66 5.205-2.922 3.39-5.63 6.973-8.318 10.557-1.242 1.655-2.133 3.572-3.353 5.246-1.085 1.489-3.438 4.644-5.014 6.816.12.752-.63 1.612-1.424 2.024-.036.057-.074.116-.095.154a19.546 19.546 0 00-.242-.007c-.581.2-1.118.113-1.268-.498-.864-3.503.02-7.151-.15-10.73-.146-3.068-.325-6.134-.496-9.201-.142-.141-.245-.352-.278-.671-.166-1.59-.186-3.094-.001-4.682.045-.39.747-1.24.752-1.261.25-.99 5.493-8.182 7.702-10.663 2.815-3.163 4.586-6.882 8.035-9.41 1.18-1.298 4.276-4.124 4.533-4.203a90.366 90.366 0 001.604-2.266c.669-.98 2.189-.645 2.38.526.438 2.654.942 6.254 1.165 8.366.155 1.465.36 2.958.237 4.413-.193 2.275 1.093 4.47.189 6.799-.25.64.263 1.545.266 2.328m-.8 18.455c-.365 2.57-1.667 4.996-2.168 7.56-.46 2.354-1.247 4.49-2.7 6.333-1.022 1.299-2.33 2.372-3.456 3.595-.757.822-1.336 1.822-2.15 2.577-1.316 1.22-2.67 2.446-4.175 3.41-1.55.992-3.29 1.695-4.965 2.482-1.204.564-2.44 1.058-4.08 1.763v-7.205l.83-1.078c.055-.385.132-.75.227-1.205.043-.21.252-.485.54-.753 3.19-8.373 10.61-13.532 16.345-20.29.035-.041.075-.075.113-.113 2.074-2.694 4.17-5.416 6.287-8.163-.204 3.978-.148 7.572-.648 11.087m-18.767 67.975c.04.382-.273.992-.605 1.19-3.458 2.074-6.96.919-8.091-2.961-.928-3.18-1.417-6.502-1.9-9.791-.814-5.566-1.482-11.154-2.178-16.736-.101-.808-.014-1.64-.014-2.751 2.393 1.525 4.625 2.28 7.126.89.215-.12 1.229.574 1.36 1.037.746 2.592 1.58 5.198 1.929 7.859.926 7.07 1.63 14.169 2.373 21.263m-14.711-38.805c-3.22-.702-5.89-3.08-8.555-4.926-2.304-1.597-4.55-3.335-6.042-5.755-3.368-5.465-5.66-21.101-5.361-21.608.203-1.292 8.133 4.562 9.664 6.224 4.039 4.383 8.113 8.734 12.184 13.087.24.257.565.455.882.618 1.444.742 2.068 1.914 2.025 3.528-.061 2.325.046 8.482.084 8.928-1.437-.081-4.507-.015-4.881-.096M100.66 103.94c-.006-1.347 3.042-3.184 3.388-1.652l.27-.095c1.565 2.146 3.098 4.317 4.713 6.425.673.879 1.58 1.576 2.28 2.437 2.483 3.054 11.257 13.913 11.268 15.046.048 5.088.12 10.178.3 15.264.094 2.646.478 5.28.629 7.926.063 1.102-.14 2.219-.221 3.33l-.518.12c-1.502-1.662-3.048-3.287-4.493-4.998a119.473 119.473 0 01-4.301-5.428c-1.005-1.341-5.817-6.462-8.345-9.056a37.425 37.425 0 00-2.685-1.628c-.413-.228-.44-.632-.252-1.06-1.504-2.068-1.387-5.78-1.424-7.964-.103-6.225-.584-12.442-.61-18.667m.363-27.684c.178-1.88.263-10.298.538-10.658-.385-1.453 4.949 2.757 4.944 2.789 1.718 1.862 3.43 3.729 5.159 5.58 1.472 1.579 7.172 7.889 8.537 9.48.44.51 1.015.954 1.3 1.539.479.977 1.096 2.047 1.087 3.073-.04 3.956-.081 7.939-.575 11.854-.243 1.923.006 3.72.04 5.58.05 2.825-.16 5.654-.298 8.48-.012.255-.3.495-.548.88-.576-.766-1.035-1.45-1.567-2.072a968.903 968.903 0 00-7.028-8.124c-.665-.758-1.47-1.397-2.1-2.18-.757-.941-7.403-5.636-8.56-7.791-.49-.913-.727-2.03-.815-3.19 0-3.968-.32-13.077-.114-15.24m5.414-42.082c2.98-.813 5.883 7.966 7.548 10.943 1.36 2.433 2.902 4.765 4.375 7.134 1.204 1.937 2.469 3.837 3.61 5.81.348.599.49 1.377.53 2.084.304 5.243.605 10.486.784 15.733.034.987-.484 1.993-.777 3.103-1.64-1.53-2.94-2.664-4.15-3.888-2.052-2.076-3.588-4.66-6.32-6.073-.941-.487-1.68-1.387-2.468-2.145-.461-.442-.801-.904-.923-1.387-.551-.36-5.977-4.564-6.544-4.902-.98-.584.58-10.708.813-13.544.26-3.176-1.218-11.576 3.522-12.868m22.898 57.31c-.028-.887.603-1.98 1.535-3.124 2.758-7.667 10-13.22 16.172-18.378.19-.24.38-.483.572-.723.415-.515 1.303-2.26 1.624-2.85.073.046.25-.085.49-.316 1-.968 2.67-.212 2.579 1.178-.19 2.874-.443 6.283-.346 7.632.136 1.9.515 3.783.728 5.679.294 2.626.558 5.256.787 7.889.194 2.216.344 4.438.45 6.66.018.393-.247 1.134-.44 1.153-2.185.223-3.155 2.083-4.457 3.372-2.674 2.648-5.206 5.449-7.672 8.296-2.407 2.778-4.706 5.654-6.957 8.563-1.023 1.32-1.837 2.809-2.698 4.25-.267.445-.377.985-.558 1.482l-.956-.604c-.118-2.41-.207-4.82-.372-7.224-.05-.717-.43-1.415-.463-2.131a589.061 589.061 0 01-.383-10.466c-.043-1.417.41-8.92.365-10.337m.42-33.974c.087-2.234 1.04-4.48 1.843-6.627 1.01-2.701 2.236-5.323 3.434-7.95.702-1.54 1.599-2.99 2.286-4.535.836-1.88 1.489-3.841 2.325-5.722.803-1.81 1.738-3.562 2.687-5.486 2.657 3.766 8.035 22.22 7.486 26.84.107.406.218.812.31 1.22.292 1.284.275 2.658.233 3.986-.008.23-.046.436-.116.617-.285 1.304-1.31 2.48-2.15 3.407-3.226 3.566-13.28 13.367-14.108 14.584-1.168 1.717-2.544 3.29-3.83 4.928l-.685-.272c.142-3.033.396-6.067.402-9.101.01-5.297-.323-10.602-.117-15.89m30.362 75.477c-.026-1.165.25-2.338.21-3.502-.087-2.656-.306-5.308-.423-7.964-.03-.704.232-1.428.164-2.123-.123-1.274-.455-2.527-.586-3.8-.281-2.718-.442-5.448-.738-8.163-.31-2.843-.841-5.665-1.063-8.513-.382-4.911-.556-9.837-.896-14.752-.395-5.725-.87-11.445-1.326-17.166-.02-.238-.245-.453-.308-.696-.23-.89-.575-1.78-.611-2.68-.085-2.106.044-4.22-.7-6.256a11.71 11.71 0 01-.575-2.247c-.486-3.22-.782-6.475-1.422-9.662-.882-4.393-2.004-8.738-3.043-13.1-.255-1.072-.455-2.187-.91-3.177-.873-1.902-1.972-3.701-2.863-5.597-.85-1.81-1.618-2.454-2.89-1.917-.588.248-1.192.736-1.516 1.279a43.125 43.125 0 00-2.378 4.538c-1.037 2.32-1.881 4.726-2.946 7.03-1.125 2.433-2.383 4.805-3.653 7.166-.331.616-4.18 10.642-4.587 9.735-.493-1.094.365-10.9.432-11.996-.248-3.08-3.19-36.893-7.788-30.132-2.006 2.897-.35 6.837 1.115 12.482 1.512 5.829 1.442 25.592 1.596 28.11l-.732.538c-.251-.504-.468-1.028-.76-1.508-.935-1.542-1.931-3.048-2.843-4.604-2.01-3.43-3.946-6.902-5.985-10.314-1.372-2.295-2.762-4.594-4.344-6.743-1.158-1.572-3.65-2.315-4.481-1.352-1.416 1.637-3.163 3.453-3.537 5.428-.748 3.949-.627 8.06-.928 12.099-.315 4.226-.701 8.447-1.067 12.669-.081.94-.302 1.875-.3 2.813.008 3.508.127 7.016.11 10.524-.007 1.598-.304 3.193-.342 4.793-.07 2.95-.027 5.903-.062 8.854-.067 5.66-.16 11.32-.234 16.982-.054 4.168.326 8.397-.261 12.488-.59 4.112.605 8.28-.746 12.299-.016.046 0 .104.003.156.113 3.118.126 6.243.36 9.35.4 5.313.502 10.628 1.71 15.895 1.869 8.15 5.887 14.974 11.594 20.92.747.78 6.889 5.522 7.14 5.433 1.297-.456 1.542.585 1.689 1.255.288 1.31.323 2.682.41 4.032.11 1.722.113 3.452.263 5.17.255 2.893.866 5.783.815 8.666-.056 3.17 1.04 6.065 1.543 9.09.362 2.18 1.349 4.249 1.95 6.397.485 1.737 1.055 3.344 2.727 4.25 2.764.299 5.539.5 8.309.454 2.134-.814 3.97-2.12 5.65-3.633a21.248 21.248 0 01-.124-1.072c-.155-1.72.326-3.19.538-4.866.247-1.962.08-4.12-.274-6.298-.508-2.035-1.07-4.011-1.356-6.084 0 0-2.277-14.91-2.481-16.33-.062-.431-.265-1.955-.35-2.443-.304-1.77 7.518-4.51 7.912-4.806 3.479-2.62 8.32-9.07 8.809-9.557.68-.702 1.355-1.408 2.03-2.107.43-.528.84-1.071 1.245-1.618.045-.141.086-.283.132-.423.77-2.326 1.787-4.585 2.36-6.954.586-2.417.736-4.936 1.13-7.402.216-1.348.725-2.671.774-4.017.065-1.767-.251-3.545-.291-5.321"/><path fill="#1E5D8A" d="M15.936 113.765c-1.493 8.044-.775 16.165 2.06 24.106.251.702.366 1.453.52 2.186 1.981 9.569 5.15 18.758 8.866 27.774 1.89 4.581 4.791 8.529 8.228 11.959 4.767 4.758 9.994 9.051 14.871 13.704 5.033 4.801 11.824 7.295 16.385 12.68 6.286 3.316 11.997 7.599 18.575 10.473 6.722 2.937 13.718 4.987 20.605 7.395 11.998 4.195 24.397 3.228 36.743 2.838 1.287-.041 2.584-.465 3.832-.852 7.548-2.346 15.324-3.469 23.127-4.532 7.717-1.05 15.186-3.327 21.192-8.344 6.448-5.386 13.034-10.633 18.842-16.813 10.28-10.936 17.82-23.524 23.995-37.074 2.98-6.538 4.508-13.473 6.226-20.38 2.121-8.523 2.144-16.994.257-25.571-.84-3.821-1.508-7.79-1.43-11.676.11-5.531-.909-10.821-2.217-16.083-1.445-5.812-2.904-11.657-5.845-16.955-2.272-4.091-4.432-8.275-7.068-12.125-3.16-4.613-6.086-9.439-10.52-13.105-1.837-1.518-3.275-3.593-4.642-5.589-1.814-2.651-3.842-5.002-6.366-7.043-3.212-2.597-6.336-5.246-10.153-6.953-1.009-.452-1.879-1.22-2.805-1.855-7.49-5.146-15.516-8.964-24.572-10.565-6.627-1.172-13.238-2.545-19.753-4.227-9.345-2.412-18.765-3.481-28.379-2.658-3.356.287-6.69.941-10.047 1.057-9.178.319-17.506 3.656-25.865 6.939-.346.136-.673.33-.992.523-3.679 2.241-7.376 4.453-11.02 6.748a45.087 45.087 0 00-4.555 3.275c-4.049 3.326-7.904 6.902-12.093 10.037-3.98 2.981-6.983 6.696-9.749 10.737-2.853 4.168-5.944 8.172-8.9 12.27-4.293 5.951-7.82 12.327-10.32 19.234-1.843 5.095-3.553 10.239-5.27 15.379-.353 1.055-.465 2.189-.71 3.282-1.157 5.147-1.725 10.326-1.076 15.605.158 1.292.023 2.62.023 4.199m112.868 118.402c-2.288 0-4.352-.056-6.412.011-5.31.171-10.444-.793-15.494-2.326-9.696-2.941-19.29-6.287-28.234-11.001-6.405-3.376-12.988-6.754-18.02-12.302-1.109-1.221-2.625-2.108-4.045-3.002-3.818-2.404-7.357-5.094-10.564-8.318-3.827-3.846-8.005-7.341-12.02-11-4.362-3.975-7.63-8.746-9.94-14.143-3.988-9.319-7.139-18.909-9.154-28.864-.816-4.029-1.873-8.008-2.739-12.028-.798-3.704-.548-7.438-.307-11.195.251-3.914.162-7.85.2-11.776.012-1.308-.26-2.656-.034-3.918 1.293-7.177 2.133-14.47 5.318-21.182.718-1.512 1.44-3.105 1.707-4.735 1.383-8.429 6.026-15.254 10.696-22.052 3.5-5.094 7.217-10.038 10.8-15.074 2.293-3.223 4.848-6.136 8.05-8.545 3.885-2.925 7.448-6.278 11.33-9.21 3.427-2.589 7.16-4.77 10.651-7.279 6.796-4.884 14.37-7.865 22.41-10.036 4.545-1.227 9.022-2.381 13.74-2.689 4.478-.292 8.926-1.031 13.403-1.365 8.114-.605 16.058.625 23.958 2.389 7.674 1.713 15.362 3.392 23.097 4.799 9.05 1.646 16.96 5.784 24.64 10.544 2.063 1.278 4.158 2.507 6.221 3.789 5.125 3.182 9.697 6.982 13.467 11.743 2.202 2.78 4.476 5.53 6.963 8.052 3.977 4.037 7.195 8.628 10.206 13.369 1.903 2.997 3.392 6.254 5.235 9.292 4.052 6.68 5.86 14.152 7.818 21.578 1.342 5.091 1.994 10.235 2.09 15.536.075 4.271.888 8.572 1.77 12.777 1.6 7.646 1.9 15.224-.115 22.826a41.092 41.092 0 00-.728 3.291c-1.926 10.8-5.947 20.775-11.022 30.497-4.992 9.563-11.349 18.077-18.152 26.305-2.969 3.591-6.439 6.786-9.827 10.006-3.257 3.095-6.715 5.978-10.063 8.98-2.533 2.272-5.322 4.139-8.454 5.479-7.622 3.26-15.487 5.504-23.778 6.394-4.636.497-9.345 1.233-13.755 2.674-6.05 1.977-12.159 1.959-18.336 1.928-.934-.005-1.867-.156-2.577-.219"/></g></svg>