<svg width="32" height="34" xmlns="http://www.w3.org/2000/svg"><path d="M19.12 11.198l-4.595-.23c-.014 0-1.069-.07-1.083-.073-.746-.097-.885-1.547-.665-2.227.363-1.128.449-1.382.893-2.484.11-.272.964-1.066 1.114-1.08 1.224-.947 1.914-1.421 3.093-.517.154.097.83.165.95.353.054.082.117.16.154.25.274.66.32 1.352.357 2.053.05.14.257.937.265 1.085.064 1.084.064 1.084-.304 1.922.03.221-.028.512-.179.948M30.887 29.55c.095-1.194.08-2.395.104-3.594.026-1.324.3-7.428.29-9.337-.003-.526-.14-1.578-.192-1.726-.182-.521-.106-2.183-.25-2.58a1.319 1.319 0 00-.392-.573l-.376-.222c-.812-.325-2.007-.047-2.869-.061-.208-.004-3.08.02-3.216-.054l-.705-.024c-.31-.012-.423-.181-.383-.47l.145-1.102c-.128-.749.033-1.656.143-2.37-.162-.791-.187-1.613-.27-2.463a3.603 3.603 0 00-.683-1.037c-.873-.945-1.01-1.635-2.288-2.026-.516-.16-1.58-.45-1.624-.477-1.145-.72-2.287-.526-2.821-.202-.139.083-1.137.197-1.282.225-.772.297-2.049.58-2.158.669-.379.309-1.404 1.337-1.73 1.707C8.15 6.315 8.712 8.558 8.733 8.86c.044.638.134 1.272.2 1.909.037.346-.145.527-.488.552-.61.045-3.164.128-3.775.165-.313.02-.629.016-.939.057-.794.104-1.366.511-1.728 1.217-.138.27-.38.488-.516.757-.233.455-.482.914-.614 1.4-.327 1.2-.279 2.429-.236 3.66.073 2.116-.027 5.443-.036 7.52-.003.575.274 3.845.315 3.854.16.516.34 1.028.474 1.55.092.362.308.56.644.714.974.448 1.997.654 3.066.679.884.02 4.687-.04 5.572-.02.151.004.302.023.518.04-.107.189 1.504-.013 1.98.006 1.94.08 3.88.165 5.82.253.135.006 2.038.155 2.578.05 1.684-.328 6.111-.612 7.674-1.383.967-.477 1.563-1.246 1.646-2.29" fill="#CFCCC9" fill-rule="evenodd"/></svg>