<svg xmlns="http://www.w3.org/2000/svg" width="247" height="232"><g fill="none" fill-rule="evenodd"><path fill="#30537A" d="M30.331 184.747l.72-.408c-.065-.052-.264.032-.72.408"/><path fill="#F2C4C4" d="M162.703 158.825c-.508.527-1.029 1.151-1.676 1.415a374.138 374.138 0 01-10.85 4.21c-.515.19-1.165.073-1.744.016-.517-.05-.882-1.1-.515-1.453.425-.408.86-.834 1.364-1.127 3.653-2.122 7.66-3.378 11.662-4.612.554-.17 1.288.241 1.903.376-.064.62.014 1.011-.144 1.175m-17.946-6.199c-.495-.38-.993-.573-1.114-.905-.123-.337-.017-1.023.233-1.19 3.615-2.419 7.425-4.45 11.701-5.446.758-.177 1.631-.079 1.741.867.05.433-.396 1.143-.813 1.37-1.175.637-2.474 1.042-3.68 1.627-1.613.781-3.162 1.694-4.783 2.455-1.06.498-2.202.826-3.285 1.222m-3.389-12.593c-.335-.296-1.01-.616-1.082-1.037-.073-.428.328-1.188.734-1.406 3.58-1.92 7.397-3.237 11.353-4.144.41-.094.937-.055 1.296.136.338.181.603.616.746.996.078.208-.112.575-.276.8-.17.23-.43.446-.697.548a773.403 773.403 0 01-10.078 3.793c-.547.2-1.172.191-1.996.314m-5.052-11.99c-.36.136-1.052.055-1.25-.195-.3-.377-.457-1.02-.372-1.495.058-.323.593-.656.984-.81 4.433-1.749 8.876-3.474 13.33-5.17.387-.148.918-.169 1.293-.02.333.13.54.58.897.998-.43.522-.707 1.186-1.176 1.374a691.584 691.584 0 01-13.706 5.318m-5.409-11.738c-.058-1.149.834-1.53 1.641-1.846a426.708 426.708 0 0110.484-3.954c.972-.35 2.033-.453 3.35-.732.383.448 1.02.9 1.171 1.477.091.342-.519 1.211-.92 1.288-4.599.89-8.737 3.056-13.102 4.583-1.444.505-2.579.063-2.624-.816m-22.618 34.627l-.789.51c-.693.14-1.45.047-2.035-.35-.585-.397-.96-1.123-.85-1.82.078-.485.378-.919.775-1.208.396-.289.882-.44 1.37-.486.34-.03.7-.008.985.175.175.111.31.275.422.448.518.803.566 1.886.122 2.731m-13.899-3.285s-.433.33-.905.457a1.981 1.981 0 01-1.782-.423 2.18 2.18 0 01-.724-1.729c.01-.19.044-.383.134-.55.081-.152.204-.277.337-.384.414-.333.96-.515 1.476-.413.293.057.735.121 1 .263.327.178.494.45.698.767.196.307.26.694.224 1.06-.032.326-.106.566-.458.952m79.186 35.975c-1.006-3.606-1.869-7.25-2.833-10.868-.849-3.185-1.707-6.368-2.637-9.53a5592.806 5592.806 0 00-7.43-24.992c-2.408-8.038-4.756-16.096-7.288-24.095-2.306-7.286-4.795-14.513-7.264-21.746-1.215-3.562-2.025-7.202-2.604-10.914a107.368 107.368 0 00-1.53-7.938c-.79-3.377-1.22-6.758-1.149-10.24.084-4.19-.162-8.388-.104-12.58.061-4.34.347-8.676.475-13.015.116-3.945 1.203-7.38 4.705-9.66.122-.08.208-.215.307-.327.92-1.038.502-2.454-.876-2.766-.868-.197-1.774-.28-2.667-.306-4.644-.137-9.29-.24-13.935-.355v.054c-4.644-.09-9.287-.189-13.93-.27-3.089-.055-3.96.793-4.122 3.956-.007.15 0 .3-.003.45-.122 9.14-.226 18.28-.37 27.42-.093 5.75-.987 11.332-3.62 16.535a22.73 22.73 0 00-1.223 2.898c-3.538 10.368-8.3 20.221-12.7 30.225-2.169 4.933-4.313 9.876-6.53 14.788-.98 2.174-2.123 4.275-3.176 6.418-.792 1.613-1.659 3.198-2.318 4.865-2.259 5.712-4.443 11.454-6.649 17.187-.269.7-.493 1.415-.738 2.123-2.59 7.505-5.222 14.996-7.75 22.522-.904 2.692-1.69 5.44-2.288 8.214a14.29 14.29 0 00.538 7.975c1.098 3.04 3.046 5.124 6.262 5.861 1.46.335 2.928.646 4.403.9 3.84.66 7.702 1.195 11.524 1.94 6.356 1.24 12.734 1.822 19.212 1.362 1.626-.115 3.312.046 4.922.344 6.088 1.127 12.242.944 18.38 1.053 1.642.03 3.315-.04 4.925-.33 4.191-.76 8.335-.618 12.517.094 7.443 1.27 14.922 1.254 22.402.301 4.15-.529 4.984-1.35 5.81-5.547.8-4.058.46-8.04-.648-12.006"/><path fill="#1E5D8A" d="M30.842 184.773l.72-.408c-.065-.052-.264.032-.72.408M191.862 58.93c.044-.047.1-.095.137-.14-.105.088-.134.122-.137.14M58.27 168.474a.606.606 0 00-.159.199l.16-.199zm48.21-49.502c0-.136.025-.27.078-.4l-.079.4zm-.038 47.761c2.216.173 3.494-.523 4.373-2.705 2.026-5.028 2.982-10.34 3.788-15.67.268-1.77-.417-2.759-2.25-3.398-2.397-.835-4.86-1.482-7.309-2.164-2.589-.722-5.194-1.388-7.79-2.082-2.168-.579-4.319-1.228-6.505-1.727-1.589-.362-2.622.127-3.382 1.523-.497.912-.839 1.914-1.198 2.894-1.134 3.091-2.102 6.25-3.393 9.273-2.12 4.962-2.04 6.47 4.06 8.391 5.991 1.888 12.046 3.568 18.076 5.33.573.167 1.168.257 1.53.335m12.274-19.323c-.242 1.333-.516 3.263-.952 5.156-.84 3.646-1.753 7.277-2.68 10.901a19.344 19.344 0 01-1.039 2.963c-1.677 3.816-3.374 4.838-7.443 3.732-8.086-2.197-16.163-4.463-24.129-7.053-5.894-1.916-6.233-3.193-3.997-8.946 1.79-4.6 3.441-9.257 5.21-13.867.586-1.53 1.25-3.047 2.052-4.474.736-1.31 2.01-1.768 3.478-1.36.86.24 1.672.644 2.517.941 3.525 1.236 7.013 2.6 10.593 3.65 3.727 1.093 7.544 1.88 11.32 2.804.727.178 1.465.33 2.17.575 2.368.823 3.01 1.811 2.9 4.978m27.665-37.638c.385.45 1.02.9 1.173 1.478.09.342-.52 1.21-.922 1.288-4.598.89-8.736 3.056-13.101 4.583-1.444.505-2.58.063-2.624-.816-.058-1.149.835-1.53 1.64-1.846a430.845 430.845 0 0110.485-3.955c.972-.35 2.033-.453 3.349-.732m4.817 11.579c-.43.522-.708 1.186-1.175 1.375a697.794 697.794 0 01-13.707 5.317c-.36.136-1.053.055-1.25-.195-.3-.377-.457-1.02-.373-1.496.058-.322.594-.655.984-.81 4.435-1.748 8.877-3.473 13.33-5.17.387-.146.92-.168 1.293-.02.333.13.541.58.898.999m11.649 36.3c-.064.618.014 1.01-.144 1.174-.507.527-1.028 1.151-1.676 1.415a375.202 375.202 0 01-10.85 4.21c-.515.19-1.165.073-1.744.015-.517-.05-.882-1.1-.514-1.452.425-.408.86-.835 1.364-1.128 3.652-2.12 7.658-3.378 11.661-4.61.554-.172 1.288.24 1.903.375m-21.479-17.617c-.334-.296-1.011-.616-1.082-1.037-.073-.428.328-1.188.734-1.406 3.58-1.92 7.398-3.237 11.353-4.144.409-.094.938-.055 1.296.136.338.181.603.616.746.996.078.208-.111.575-.276.8-.17.23-.43.446-.697.548a773.403 773.403 0 01-10.078 3.793c-.547.2-1.172.191-1.996.314m3.39 12.593c-.496-.38-.994-.573-1.114-.905-.123-.337-.018-1.023.233-1.191 3.614-2.418 7.424-4.448 11.7-5.445.759-.177 1.63-.08 1.74.867.052.433-.395 1.143-.811 1.369-1.175.638-2.474 1.043-3.682 1.628-1.612.78-3.161 1.695-4.782 2.455-1.061.498-2.201.826-3.284 1.222"/><path fill="#1E5D8A" d="M128.746 21.012v.054c-4.645-.091-9.287-.19-13.93-.271-3.089-.054-3.962.794-4.122 3.956-.007.15-.002.3-.004.45-.12 9.14-.225 18.28-.37 27.419-.092 5.75-.986 11.333-3.62 16.537a22.58 22.58 0 00-1.223 2.897c-3.537 10.369-8.299 20.22-12.699 30.226-2.169 4.932-4.313 9.876-6.53 14.787-.98 2.174-2.123 4.276-3.176 6.419-.793 1.612-1.659 3.198-2.319 4.864-2.258 5.713-4.443 11.454-6.648 17.187-.269.7-.494 1.415-.738 2.124-2.59 7.504-5.222 14.996-7.75 22.52-.905 2.693-1.69 5.44-2.289 8.216a14.3 14.3 0 00.54 7.975c1.097 3.04 3.045 5.124 6.261 5.86 1.46.335 2.927.646 4.403.9 3.84.66 7.702 1.195 11.524 1.94 6.355 1.24 12.734 1.823 19.211 1.363 1.627-.116 3.313.046 4.923.344 6.088 1.127 12.242.943 18.38 1.052 1.641.03 3.315-.04 4.925-.331 4.191-.76 8.335-.616 12.516.096 7.443 1.269 14.923 1.254 22.402.3 4.15-.528 4.984-1.35 5.811-5.547.8-4.057.46-8.04-.648-12.005-1.007-3.606-1.87-7.251-2.834-10.868-.849-3.185-1.706-6.37-2.637-9.53a5426.15 5426.15 0 00-7.43-24.992c-2.407-8.04-4.755-16.097-7.287-24.096-2.307-7.285-4.796-14.513-7.264-21.745-1.216-3.562-2.026-7.203-2.605-10.915a106.92 106.92 0 00-1.53-7.937c-.79-3.377-1.219-6.76-1.149-10.241.085-4.191-.16-8.388-.103-12.58.061-4.34.347-8.676.475-13.015.116-3.944 1.203-7.38 4.705-9.66.121-.08.208-.214.307-.326.918-1.04.501-2.455-.876-2.767-.869-.196-1.775-.28-2.667-.306-4.645-.137-9.29-.24-13.935-.354m5.13 181.122c-9.894 0-19.794.21-29.679-.078-6.122-.178-12.279-.6-18.293-2.041-5.24-1.256-10.634-1.89-15.698-3.866-.837-.326-1.704-.575-2.545-.89-5.057-1.895-7.448-5.738-8.03-10.936-.568-5.074.52-9.937 2.51-14.475 2.54-5.79 4.181-11.868 6.372-17.764.623-1.678 1.164-3.424 1.446-5.186a35.93 35.93 0 012.855-9.441c2.326-5.03 4.762-10.008 7.161-15.004.26-.54.61-1.037.856-1.581 3.66-8.041 7.438-16.03 10.905-24.153 1.878-4.4 3.148-9.054 4.826-13.544 1.203-3.22 2.603-6.37 3.966-9.527a37.796 37.796 0 011.824-3.611c3.655-6.446 4.851-13.478 4.977-20.765.12-6.894.255-13.788.327-20.682.03-2.88-.242-5.71-2.343-7.996-.294-.321-.48-.753-.67-1.155-.313-.662.165-1.707.895-1.77 1.183-.1 2.38-.116 3.567-.064 7.483.329 14.955 1.263 22.45.819 4.962-.294 9.868.37 14.806.364a11.25 11.25 0 013.512.585c1.658.554 2.298 2.17 1.368 3.607-.884 1.365-1.93 2.698-3.155 3.754-2.19 1.887-3.336 4.109-3.419 7.018-.179 6.288-.492 12.572-.727 18.859-.05 1.347.078 2.704-.013 4.046-.383 5.602.43 11.037 1.92 16.433 1.116 4.04 1.797 8.2 2.903 12.245 1.184 4.33 2.628 8.589 3.976 12.874 2.07 6.575 4.164 13.143 6.227 19.72 2.108 6.72 4.192 13.448 6.286 20.172.668 2.146 1.351 4.288 1.997 6.44 1.938 6.458 3.74 12.959 5.825 19.368 2.142 6.583 3.3 13.378 4.75 20.112.734 3.413.468 6.86.163 10.304-.218 2.46-1.493 4.167-3.605 5.342-2.945 1.637-6.088 2.47-9.464 2.48-7.945.023-15.89.077-23.835.112-2.398.01-4.796.002-7.195.002v-.127"/><path fill="#1E5D8A" d="M63.427 206.94c5.795 5.563 12.846 9.354 20.89 11.31.711.174 1.39.484 2.074.755 8.92 3.534 18.168 5.89 27.571 7.703 4.777.92 9.581.669 14.249-.301 6.476-1.346 12.817-3.32 19.265-4.811 6.654-1.541 12.363-5.767 19.241-6.605 6.111-3.37 12.706-5.746 18.611-9.593 6.035-3.932 11.49-8.566 17.181-12.92 9.912-7.58 15.805-18.275 22.145-28.616.66-1.077 1.012-2.371 1.367-3.604 2.146-7.46 5.418-14.443 8.755-21.42 3.3-6.898 5.46-14.254 4.583-21.888-.942-8.195-1.695-16.428-3.634-24.528-3.429-14.331-9.69-27.308-17.479-39.682-3.757-5.97-8.623-10.965-13.363-16.1-5.85-6.337-12.788-10.925-20.843-14.003-3.588-1.37-7.205-2.963-10.352-5.122-4.478-3.074-9.368-5.092-14.391-6.856-5.548-1.95-11.13-3.904-17.064-4.348-4.582-.343-9.18-.827-13.761-.74-5.49.104-11.027-.097-16.425 1.564-2.237.688-4.716.749-7.09.794-3.154.059-6.177.455-9.212 1.425-3.864 1.234-7.722 2.37-11.181 4.58-.916.585-2.015.885-3.035 1.3-8.263 3.373-15.723 7.899-21.921 14.465-4.536 4.806-9.228 9.489-14.122 13.929C38.467 49.994 32.51 57.146 28 65.478c-1.574 2.909-2.836 5.998-4.551 8.815-4.689 7.702-6.442 16.334-8.257 24.964-.075.357-.092.73-.105 1.096-.145 4.227-.325 8.454-.407 12.682-.035 1.833.036 3.68.23 5.503.546 5.116 1.401 10.208 1.715 15.336.298 4.874 1.727 9.34 3.551 13.789 1.881 4.589 3.499 9.285 5.267 13.92 2.567 6.733 5.897 13.066 10.216 18.84 3.187 4.262 6.486 8.438 9.776 12.62.676.858 1.546 1.563 2.31 2.353 3.599 3.725 7.543 6.984 12.224 9.299 1.145.566 2.162 1.393 3.458 2.245m158.021-28.751c-1.233 1.876-2.392 3.54-3.449 5.266-2.723 4.45-6.283 8.142-10.263 11.459-7.643 6.37-15.564 12.438-24.255 17.234-6.223 3.434-12.546 7.013-19.814 8.15-1.599.25-3.144 1.017-4.643 1.7-4.031 1.836-8.147 3.289-12.522 4.182-5.22 1.065-10.341 2.609-15.509 3.93-5.614 1.434-11.291 1.543-16.965.527-9.797-1.753-19.365-4.341-28.62-8.055-3.746-1.504-7.581-2.783-11.346-4.24-3.47-1.343-6.399-3.563-9.351-5.786-3.076-2.317-6.354-4.367-9.555-6.515-1.067-.716-2.32-1.218-3.233-2.086-5.191-4.932-10.722-9.554-14.511-15.786-.854-1.405-1.772-2.856-2.965-3.955-6.17-5.681-9.267-13.171-12.325-20.67-2.292-5.618-4.344-11.334-6.544-16.992-1.407-3.62-2.42-7.286-2.671-11.212-.304-4.765-1.133-9.497-1.445-14.263-.276-4.208-.052-8.448-.228-12.666-.342-8.21 1.297-16.033 3.852-23.801 1.444-4.39 2.912-8.686 5.203-12.722 2.176-3.833 3.969-7.881 6.109-11.735 3.88-6.983 9.173-12.837 14.881-18.37 5.545-5.372 11.069-10.774 16.395-16.362 6.231-6.537 13.892-10.795 21.939-14.53 2.163-1.003 4.301-2.06 6.465-3.062 5.375-2.488 10.959-4.19 16.899-4.716 3.468-.307 6.951-.691 10.361-1.37C118.796.656 124.299.492 129.812.579c3.486.054 6.961.59 10.448.716 7.667.278 14.772 2.825 21.921 5.223 4.901 1.644 9.474 3.884 13.874 6.665 3.546 2.24 7.514 3.893 11.439 5.439 7.137 2.809 13.516 6.65 18.666 12.403a40.077 40.077 0 002.309 2.373c7.822 7.405 13.838 16.084 19.078 25.49 5.154 9.255 8.712 19.062 11.794 29.082 1.345 4.373 2.095 8.943 2.91 13.46.782 4.342 1.283 8.734 1.941 13.099.498 3.304.525 6.599-.065 9.89-1.435 8.014-3.835 15.678-7.577 22.96-2.092 4.072-4.028 8.333-5.224 12.729-1.641 6.03-4.951 11.032-8.308 16.084-.507.764-1.134 1.448-1.57 1.997"/><path fill="#1E5D8A" d="M235.773 30.654l.126-.244c-5.072 2.667-10.543 7.026-14.87 9.127-2.347 2.305-5.725 2.918-8.08 5.18-2.152 4.192-13.64 7.603-17.237 11.51l.116-.25c.009-.011-3.966 2.955-3.966 2.953-2.668 3.007-6.786 4.746-10.103 6.875 2.258-.145-9.36 3.876-15.707 9.348-1.248 1.075-13.697 7.916-17.386 12.759-4.255 2.319-14.897 12.364-15.312 11.287-1.183.35-9.605 7.378-9.605 7.378-6.1 3.708-23.767 17.868-23.767 17.868-2.546 3.015-12.09 9.82-11.817 9.07-.63 1.017-3.024 3.355-4.312 3.888l.164-.198c-7.894 5.437-13.322 13.238-20.88 18.654l.318-.392c-2.857 2.616-10.856 9.468-10.834 9.809-1.382 1.393-13.238 11.995-13.927 12.662.38-.79-10.175 8.288-14.477 13.137-4.025 3.339-6.673 8.366-10.965 11.387l.79-.152c-.672.762-14.946 16.456-13.216 16.88 7.067 1.733 27.1-24.088 31.95-28.276 11.884-10.265 23.6-22.807 36.004-31.673.967-1.187 3.909-3.506 4.23-3.85 0 0 8.892-8.37 14.268-12.092 3.74-4.62 7.652-5.156 11.616-9.791-.148.172 10.206-9.86 10.206-9.86 13.809-8.973 35.729-21.25 46.993-33.413 17.219-11.823 33.94-24.995 51.955-35.845 4.329-2.607 29.343-21.29 37.746-26.545 1.676-1.048.489-3.674-1.391-3.062-3.255 1.059-7.135 5.245-8.63 5.87"/><path fill="#1E5D8A" d="M91.113 145.402c.082-.152.204-.276.337-.383.414-.334.96-.515 1.476-.414.293.058.736.12 1 .264.327.177.494.449.698.766.196.308.26.694.224 1.06-.032.326-.106.566-.458.953 0 0-.433.329-.905.457a1.984 1.984 0 01-1.782-.423 2.184 2.184 0 01-.724-1.73c.01-.19.044-.383.134-.55m9.78 15.802c-.64-.108-1.433-.54-1.748-1.073-.6-1.012-.83-2.237-1.359-3.302-.692-1.393-2.13-1.756-3.404-.907-.862.575-1.613 1.323-2.495 1.863-.286.175-.926.068-1.223-.153-.306-.228-.637-.848-.527-1.13.418-1.085.821-2.273 1.576-3.109 1.505-1.666 3.51-2.267 5.724-1.66 2.313.634 4.037 1.956 4.521 4.464.198 1.025.311 2.066.403 2.687-.03 1.506-.654 2.457-1.469 2.32m7.398-10.272l-.79.51c-.692.138-1.45.047-2.035-.35-.585-.398-.961-1.123-.85-1.82.079-.485.379-.92.775-1.208.397-.29.882-.441 1.37-.485.339-.032.7-.01.986.173.174.113.309.275.42.45.519.803.568 1.885.124 2.73"/></g></svg>