<svg width="36" height="33" xmlns="http://www.w3.org/2000/svg"><path d="M19.787 16.4s-.24.815-.523 1.767c-1.684-1.826-2.735-2.969-3.287-3.568-2.29-2.469-5.493-6.371-6.272-5.214-.39 1.595 2.403 4.212 4.667 6.703l1.92 2.098-3.184-.136-4.98-.2c-3.352-.12-8.566-.437-8.099.765 2.773.817 4.659 1.275 8.01 1.432l4.978.213c1.296.053 3.275.13 4.44.178-.323.282-.725.528-1.03.89-1.486 1.764-3.057 2.618-3.635 3.01-2.795 1.892-2.464 2.538-1.797 2.775 1.284-.094 2.11-.248 3.149-1.05.563-.432 2.226-1.773 3.709-3.053l.01-.01-.264.94c-.887 3.267-2.177 7.726-1.033 8.131 1.612.44 2.223-4.3 3.136-7.54.114-.4.285-.993.572-2.003 1.192 1.292 1.79 1.94 2.159 2.342 2.288 2.467 3.858 3.617 6.272 5.21.876-1.398-2.405-4.21-4.67-6.702l-2.312-2.53-.224-.241c1.038.044 2.106.088 2.798.119l3.413.135c3.353.122 7.376.61 8.1-.764-.06-1.242-4.66-1.275-8.011-1.43-.567-.026-1.491-.066-3.412-.148-.401-.017-.937-.04-1.513-.061l.505-.487a103.034 103.034 0 0 0 3.385-3.412c.896-.963 2.544-2.195 1.348-3.05-1.022-.62-2.018.604-2.92 1.527-.451.46-1.731 1.777-3.012 3.028l.883-2.85c.784-2.45 1.27-3.966 1.522-4.758 1.04-3.2 3.034-7.096 1.579-8.018-1.63.057-2.574 4.12-3.653 7.326l-1.544 4.783-1.18 3.853z" fill="#F2C4C4" fill-rule="evenodd"/></svg>
