<svg width="11" height="11" xmlns="http://www.w3.org/2000/svg"><g fill="none" fill-rule="evenodd"><path d="M5.31 2.705c.045.024.067.024.112.048.022-.048.066-.096.088-.144.09-.168.178-.336.267-.48.022-.024.044-.048.066-.096.134.096.156.168.089.312-.022.048-.022.072-.044.12.022.024.044.024.066.048.023 0 .045.024.067.024.067-.072-.022-.192.089-.264.022.024.066.048.088.072.045.072.09.12.134.192.022.024.022.048.044.048.067.047.11.12.156.192.044.096.088.168.133.264.088.168.177.312.266.48 0 .024.022.048.022.048.111.24.222.503.355.743.023.025.045.073.067.097.022.048.045.072.066.12a.17.17 0 0 0 .156.12c.133.024.266.024.4.048.333.023.666.072.998.144.112.024.245.071.356.096.133.023.266.048.377.072.2.024.4.072.6.143.088.048.132.193.088.265-.066.143-.2.264-.31.383l-.6.577c-.266.24-.533.455-.8.672-.022.024-.043.024-.043.024-.178.072-.289.216-.4.384-.089.143-.089.143-.244.215 0 .073.044.144.089.192a.884.884 0 0 0 .088-.215h.022c.112.191.245.408.356.6.133.24.244.503.333.791.044.145.11.289.177.456.045.096.067.193.089.289.022.048.022.12-.022.167-.044.048-.022.096 0 .144.044.072.089.144.133.192 0 0 0 .024.022.024.09.168.045.265-.133.288-.155.025-.333-.023-.489-.072a2.706 2.706 0 0 1-.421-.12c-.045 0-.089-.024-.11 0a.517.517 0 0 1-.378-.072c-.067-.024-.111-.071-.178-.12-.111-.096-.244-.12-.377-.168-.355-.12-.688-.263-1.044-.384-.022 0-.066-.024-.066-.047-.045-.073-.09-.073-.156-.025-.044.025-.11.048-.155.072-.377.193-.8.313-1.199.432-.266.072-.51.192-.777.264l-.599.217c-.089.048-.178 0-.222-.073-.044-.072-.089-.072-.155-.047-.178 0-.178 0-.222-.073-.022-.048-.045-.072-.067-.12a.819.819 0 0 1-.089-.504c.022-.191.09-.36.156-.527.044-.096.088-.193.133-.264.133-.265.244-.553.31-.84a1.76 1.76 0 0 1 .312-.576c.088-.096.088-.12 0-.216-.245-.264-.51-.553-.755-.84-.222-.24-.444-.505-.666-.768-.156-.192-.289-.409-.444-.6-.066-.096-.045-.264.066-.312.09-.048.178-.072.267-.097.089 0 .155-.047.244-.047a.733.733 0 0 0 .222-.048.175.175 0 0 1 .155 0c.067 0 .111.048.178.048.155.024.311.024.444.024.111 0 .2.023.31.023h.2c.089 0 .178 0 .267.025.089 0 .155.024.244.072.089.048.111.048.178-.048.044-.072.088-.168.11-.24.045-.096.045-.192.111-.288.067-.072.09-.192.134-.288.088-.216.2-.408.31-.6.09-.144.156-.312.223-.456.044-.072.088-.12.133-.192" fill="#F2C4C4"/><path d="M4.833 1.672c.045.024.067.024.111.048.022-.048.067-.096.089-.144.089-.168.177-.336.266-.48.022-.024.045-.047.067-.096.133.097.155.168.089.312-.022.048-.022.072-.045.12.023.024.045.024.067.048.022 0 .044.024.066.024.067-.072-.022-.192.09-.264.022.024.066.049.088.072.044.072.089.12.133.192.023.025.023.048.045.048.066.048.11.12.155.192.044.096.089.168.133.264.089.169.178.312.266.48 0 .024.022.048.022.048.112.24.223.504.356.744.022.024.044.072.067.096.022.048.044.072.066.12a.17.17 0 0 0 .156.12c.132.024.266.024.4.048.332.024.665.072.998.144.111.024.244.072.355.096.133.024.267.048.377.072.2.024.4.072.6.144.088.048.133.192.088.264-.066.144-.2.264-.31.384l-.6.576c-.266.24-.533.456-.799.672-.022.024-.044.024-.044.024-.178.072-.288.216-.4.384-.089.144-.089.144-.244.216 0 .072.045.144.09.192.044-.072.065-.144.087-.216h.023c.111.192.244.408.355.6.133.24.244.504.333.791.044.145.111.29.178.457.044.096.067.192.088.288.022.048.022.12-.021.168-.045.048-.023.096 0 .144.043.072.088.144.132.191 0 0 0 .025.023.025.089.168.044.264-.134.288-.155.024-.332-.024-.488-.073a2.706 2.706 0 0 1-.422-.12c-.044 0-.089-.023-.11 0a.517.517 0 0 1-.378-.071c-.067-.024-.111-.072-.177-.12-.112-.096-.245-.12-.378-.168-.355-.12-.688-.264-1.043-.384-.022 0-.067-.024-.067-.048-.044-.072-.089-.072-.155-.024-.044.024-.111.048-.156.072-.377.192-.799.312-1.198.432-.266.072-.51.191-.777.264l-.6.216c-.088.048-.177 0-.221-.072-.045-.072-.09-.072-.156-.048-.177 0-.177 0-.222-.072-.022-.048-.044-.072-.066-.12a.819.819 0 0 1-.089-.504c.022-.192.089-.36.155-.528.045-.096.089-.193.133-.264.134-.264.245-.552.311-.84a1.76 1.76 0 0 1 .311-.576c.089-.096.089-.12 0-.216-.244-.264-.51-.552-.755-.84-.221-.24-.443-.504-.666-.768-.155-.192-.288-.408-.444-.6-.066-.096-.044-.264.067-.312.089-.048.178-.072.267-.096.088 0 .155-.048.244-.048a.733.733 0 0 0 .222-.048.175.175 0 0 1 .155 0c.066 0 .11.048.178.048.155.024.31.024.444.024.11 0 .2.024.31.024h.2c.089 0 .177 0 .267.024.088 0 .155.024.244.072.088.048.11.048.177-.048.045-.072.089-.168.111-.24.044-.096.044-.192.11-.287.068-.073.09-.192.134-.289.089-.216.2-.408.311-.6.089-.143.156-.312.222-.456.044-.072.089-.12.133-.192" stroke="#1e5d84" stroke-width=".5"/></g></svg>
