<svg width="37" height="33" xmlns="http://www.w3.org/2000/svg"><path d="M20.533 16.536l-.523 1.767c-1.684-1.826-2.735-2.97-3.287-3.569-2.29-2.468-5.493-6.37-6.272-5.214-.39 1.595 2.403 4.213 4.667 6.704l1.92 2.097-3.184-.135-4.98-.2c-3.353-.121-8.566-.438-8.099.764 2.773.818 4.659 1.276 8.01 1.432l4.978.213c1.296.054 3.275.131 4.44.179-.323.281-.725.528-1.03.89-1.486 1.764-3.058 2.617-3.635 3.01-2.795 1.892-2.464 2.537-1.797 2.774 1.284-.094 2.11-.248 3.149-1.05.563-.432 2.226-1.773 3.709-3.052l.01-.011c-.11.396-.2.71-.265.94-.886 3.268-2.176 7.727-1.033 8.132 1.613.44 2.224-4.301 3.137-7.54.114-.401.285-.993.572-2.004 1.192 1.292 1.79 1.94 2.158 2.342 2.289 2.467 3.859 3.618 6.273 5.211.875-1.398-2.405-4.21-4.67-6.702l-2.312-2.53-.224-.242c1.038.045 2.106.089 2.798.12l3.412.135c3.354.121 7.377.61 8.1-.764-.06-1.242-4.659-1.276-8.01-1.43-.567-.027-1.492-.066-3.412-.149-.401-.016-.937-.04-1.513-.06l.505-.487a103.033 103.033 0 0 0 3.385-3.412c.896-.964 2.544-2.195 1.348-3.05-1.023-.62-2.018.604-2.92 1.526-.452.461-1.731 1.778-3.012 3.029.26-.839.63-2.037.883-2.85l1.522-4.758c1.04-3.2 3.034-7.097 1.579-8.019-1.63.058-2.575 4.12-3.653 7.326-.257.8-.749 2.323-1.544 4.784l-1.18 3.853z" fill="#E66C55" fill-rule="evenodd"/></svg>
