<svg width="36" height="35" xmlns="http://www.w3.org/2000/svg"><g transform="translate(.5)" fill="none" fill-rule="evenodd"><circle fill="#1E5D8A" cx="17.5" cy="17.5" r="17.5"/><path d="M14.617 25.684l-5.87-5.836a.857.857 0 01-.247-.633c0-.258.082-.469.246-.633l1.3-1.266a.784.784 0 01.616-.28c.246 0 .463.093.65.28l3.938 3.938 8.437-8.438a.893.893 0 01.65-.28c.247 0 .452.093.616.28l1.3 1.266a.857.857 0 01.247.633.857.857 0 01-.246.633L15.883 25.684a.803.803 0 01-.633.28.803.803 0 01-.633-.28z" fill="#FFF"/></g></svg>