<svg width="14" height="13" xmlns="http://www.w3.org/2000/svg"><g fill="none" fill-rule="evenodd"><path d="M7.462 3.246c-.058.029-.087.029-.144.057-.03-.057-.087-.115-.116-.173-.115-.2-.23-.403-.346-.575-.029-.03-.058-.058-.086-.116-.174.116-.203.202-.116.375.029.058.029.086.058.144-.03.029-.058.029-.087.057-.03 0-.058.03-.086.03-.087-.087.028-.231-.116-.318-.029.03-.086.058-.115.087-.058.086-.116.144-.173.23-.03.03-.03.058-.058.058-.087.057-.144.144-.203.23-.057.115-.114.202-.172.317-.116.202-.231.374-.347.576 0 .029-.028.058-.028.058-.145.288-.289.604-.462.892-.03.03-.058.087-.087.116-.028.057-.058.086-.086.144a.218.218 0 01-.203.144c-.172.028-.345.028-.52.057a9.938 9.938 0 00-1.297.173c-.145.029-.318.086-.462.115a14.5 14.5 0 00-.49.087c-.26.028-.52.086-.78.172-.115.058-.173.23-.115.317.086.172.26.317.404.46l.78.692c.345.288.692.547 1.038.807.029.028.057.028.057.028.231.087.375.26.52.46.116.173.116.173.317.26 0 .087-.057.173-.115.23-.058-.086-.086-.172-.115-.259h-.03c-.144.23-.317.49-.461.72a4.78 4.78 0 00-.433.95c-.057.174-.144.346-.23.548-.058.115-.088.23-.116.345a.178.178 0 00.028.202c.058.057.03.115 0 .173a1.573 1.573 0 01-.172.23s0 .029-.03.029c-.115.202-.057.317.174.345.202.03.433-.028.635-.086a3.82 3.82 0 00.548-.144c.058 0 .116-.029.144 0a.72.72 0 00.49-.086c.087-.03.145-.086.231-.144.145-.116.318-.144.49-.202.463-.144.895-.317 1.358-.46.028 0 .086-.03.086-.058.058-.087.116-.087.202-.029.058.03.145.058.202.086.49.231 1.039.375 1.559.519.345.086.663.23 1.01.316l.779.26c.115.057.23 0 .288-.087.057-.086.116-.086.202-.057.231 0 .231 0 .289-.087.028-.057.057-.086.086-.143.115-.202.145-.404.115-.606-.028-.23-.115-.431-.201-.633a3.308 3.308 0 00-.173-.316 4.335 4.335 0 01-.405-1.008c-.086-.26-.23-.49-.404-.692-.115-.115-.115-.144 0-.259.318-.317.664-.663.982-1.008.288-.288.576-.605.865-.922.202-.23.376-.49.577-.72.087-.115.058-.316-.086-.374-.115-.057-.231-.086-.347-.116-.115 0-.202-.057-.317-.057a1.02 1.02 0 01-.289-.057.244.244 0 00-.202 0c-.086 0-.144.057-.23.057-.202.029-.405.029-.578.029-.144 0-.26.028-.403.028h-.26c-.115 0-.23 0-.347.03a.658.658 0 00-.317.086c-.116.058-.144.058-.231-.057a1.372 1.372 0 01-.144-.288c-.058-.116-.058-.23-.144-.346-.087-.086-.115-.23-.173-.346a5.774 5.774 0 00-.404-.72c-.116-.172-.203-.374-.289-.547-.058-.087-.115-.144-.173-.23" fill="#FFF"/><path d="M8.083 2.007c-.058.029-.087.029-.144.057-.03-.057-.087-.115-.116-.173-.115-.2-.23-.403-.346-.575-.029-.03-.058-.058-.087-.116-.173.116-.202.202-.115.375.028.057.028.086.058.144-.03.029-.058.029-.087.057-.03 0-.058.03-.087.03-.086-.087.029-.231-.115-.318-.03.03-.086.058-.115.087-.058.086-.116.144-.174.23-.029.03-.029.058-.057.058-.087.057-.144.144-.203.23-.057.115-.115.202-.172.317-.116.202-.231.374-.347.576 0 .029-.028.058-.028.058-.145.288-.289.604-.462.892-.03.029-.058.087-.087.116-.029.057-.058.086-.086.143a.218.218 0 01-.203.145c-.172.028-.346.028-.52.057a9.938 9.938 0 00-1.297.173c-.145.029-.318.086-.462.115-.173.028-.347.058-.49.087-.26.028-.52.086-.78.172-.115.057-.173.23-.115.317.086.172.26.317.404.46l.779.692c.346.288.693.547 1.039.806.029.029.057.029.057.029.231.087.375.26.52.46.115.173.115.173.317.26 0 .087-.058.173-.115.23a.98.98 0 01-.115-.259h-.03c-.144.23-.317.49-.461.72a4.78 4.78 0 00-.433.95c-.058.173-.145.346-.23.548-.059.115-.088.23-.116.345a.178.178 0 00.028.202c.058.057.03.115 0 .173a1.573 1.573 0 01-.172.23s0 .029-.03.029c-.115.202-.057.317.174.345.201.03.432-.028.635-.086.172-.029.375-.086.548-.144.058 0 .115-.029.144 0a.72.72 0 00.49-.086c.087-.03.145-.086.231-.144.145-.116.318-.144.49-.202.463-.144.895-.317 1.358-.461.028 0 .086-.028.086-.057.058-.087.115-.087.202-.03.057.03.144.059.202.087.49.231 1.039.375 1.558.519.346.086.664.23 1.01.316l.78.26c.115.057.23 0 .287-.087.058-.086.117-.086.203-.057.23 0 .23 0 .288-.087.029-.057.058-.086.087-.143.115-.202.144-.404.115-.606-.028-.23-.115-.432-.202-.633a2.938 2.938 0 00-.173-.317 4.335 4.335 0 01-.404-1.007c-.086-.26-.23-.49-.404-.692-.115-.115-.115-.144 0-.259.318-.317.664-.663.981-1.008.289-.288.577-.605.866-.922.202-.23.375-.49.577-.72.086-.115.058-.316-.086-.374a1.705 1.705 0 00-.347-.116c-.115 0-.202-.057-.317-.057a1.02 1.02 0 01-.289-.057.244.244 0 00-.202 0c-.086 0-.144.057-.23.057-.202.029-.405.029-.578.029-.144 0-.26.028-.404.028h-.259c-.115 0-.23 0-.347.03a.658.658 0 00-.317.086c-.116.058-.144.058-.231-.057a1.372 1.372 0 01-.144-.289c-.058-.115-.058-.23-.144-.345-.087-.086-.116-.23-.173-.346a5.774 5.774 0 00-.405-.72c-.115-.172-.202-.374-.288-.547-.058-.087-.116-.144-.173-.23" stroke="#1e5d84" stroke-width=".619"/></g></svg>