<svg width="20" height="17" xmlns="http://www.w3.org/2000/svg"><path d="M9.012 16.923c-.444-.217-.732-.6-.856-1.141-.061-.267-.008-.544.168-.874.128-.24.307-.448.563-.651.96-.764 2.38-1.387 3.417-1.842.418-.183.75-.328.96-.444.195-.106.379-.251.596-.47.179-.18.353-.375.522-.562l.226-.25.079-.085-.127-.05a.494.494 0 00-.057-.021l-.272-.078a31.004 31.004 0 01-.564-.164c-.056-.017-.11-.04-.166-.063a1.247 1.247 0 00-.288-.092c-.22-.032-.444-.04-.66-.05l-.13-.006c-.915-.042-1.828-.083-2.742-.121-.462-.02-.932-.027-1.387-.035A67.574 67.574 0 017.192 9.9c-.63-.02-1.5-.085-2.198-.137-.57-.043-1.02-.078-1.175-.074-.198.003-.4.02-.594.037l-.31.024-.567.035-.483.03c-.07.004-.14.01-.21.017-.123.011-.251.02-.376.023C.861 9.853.517 9.643.256 9.23c-.29-.459-.389-1.245-.002-1.8a1.3 1.3 0 01.072-.094c.1-.115.192-.149.316-.116.435.116.912.152 1.461.11.368-.027.742-.066 1.103-.103l.435-.045c.315-.031.647.016.968.062.167.023.34.048.507.06l.166.014c.341.028.513.042 1.611.058.921.013 1.86.002 2.766-.008.594-.007 1.188-.014 1.782-.014.323 0 .705-.006 1.088-.047.532-.058 1.054-.18 1.45-.28l.162-.038.102-.023.087-.13-.07-.041a.407.407 0 00-.03-.015.139.139 0 01-.027-.016c-.66-.776-1.408-1.525-2.428-2.428l-.909-.803-1.494-1.322c-.125-.11-.247-.231-.365-.348l-.086-.085a.078.078 0 01-.02-.03l-.007-.074a27.306 27.306 0 01-.076-.806A2.44 2.44 0 018.82.474a.68.68 0 01.215-.436A.502.502 0 009.07 0h.12l.021.006.08.02c.28.061.52.22.718.366l.26.193c.474.35.963.714 1.441 1.077 1.358 1.031 2.426 1.938 3.362 2.856.207.203.413.408.619.612.343.342.697.695 1.053 1.033.836.797 1.647 1.396 2.48 1.831.384.2.624.56.714 1.068.02.106.032.216.044.323L20 9.53v.646c-.048.157-.12.354-.256.509a5.76 5.76 0 01-1.198 1.057c-.773.502-1.476.95-2.148 1.367-.58.36-1.772.933-2.923 1.487-1.13.543-2.197 1.056-2.68 1.361-.3.19-.609.373-.908.55l-.17.1c-.13.077-.26.15-.392.222l-.17.094h-.143z" fill="ivory" fill-rule="evenodd"/></svg>