<svg width="85" height="75" xmlns="http://www.w3.org/2000/svg"><g fill="none"><path d="M8.424 31.787c-.52-.04-1.04-.12-1.6-.16.88 1.88-.28 4.12.08 6.2.2 1.16.92 2.2 1.64 3.16 1.56 2.04 3.28 3.92 5.2 5.6 1.24 1.08 2.72 2.56 2.16 4.12-.28.72-.92 1.24-1.2 1.96-.28.72-.08 1.56-.04 2.36.04.8-.2 1.72-.96 2-.64.24-1.48-.12-2.08.24-.44.24-.6.76-.72 1.24-.28 1.04-.48 2.08-.64 3.16-.6-.72-1.72-.88-2.64-.56-.92.32-1.64 1-2.28 1.68-2 2.12-3.64 4.52-4.92 7.12-.08.2-.2.4-.2.64-.08.88 1.16 1.4 1.96 1.04.8-.36 1.28-1.2 1.8-1.92 1.44-2.12 3.44-3.88 5.76-5 .56.8-.6 1.6-1.32 2.24-1.16 1.12-.96 3.36.44 4.24 2.48-1.32 4-4.2 3.76-7 2.44.04 4.88.08 7.32.08.4 0 .8 0 1.16-.16.4-.2.68-.56 1.04-.84 1-.84 2.48-.76 3.72-1.2 1.24-.44 2.28-2.12 1.32-3 2.24-.24 4.12 1.44 5.92 2.76 5.76 4.28 13.4 6 20.44 4.52 1.44-.28 3.04-.72 4.36-.04 1.12.56 1.76 1.68 2.64 2.52 1.48 1.44 3.56 2 5.56 2.52 2.72.72 5.48 1.44 8.2 2.16 1.68.44 3.44.88 5.16.56-2.76-3.76-8.88-3.36-11.88-6.88 2.52-.8 5.2-.48 7.84-.56 2.64-.08 5.52-.76 7.08-2.88.24-.32.44-.68.36-1.04-.16-.8-1.24-.84-2.04-.72-3.92.68-7.76 2.08-11.72 1.72-3.96-.32-8.12-3.12-8.24-7.08-.04-1.6.56-3.16 1.2-4.64.2-.44.4-.92.8-1.2.56-.36 1.28-.28 1.96-.28 1.6 0 3.08-.76 4.52-1.52.48-.24 1-.52 1.12-1.04.16-.6-.28-1.24-.84-1.56-.56-.32-1.2-.4-1.8-.64-2.32-1-3.48-4.2-6-4.44-.88-.08-1.76.24-2.64.08-1.48-.28-2.44-1.92-3.92-2.12-1.6-.24-3.04 1.72-2.36 3.16.4.84 1.28 1.48 1.28 2.4 0 .64-.48 1.16-.92 1.64-1.44 1.48-2.96 3-4.92 3.64-2.04.64-4.24.24-6.32-.16-5.4-1.08-10.76-2.16-16.16-3.2-3.72-.76-7.64-1.6-10.4-4.2-3-2.92-4.04-7.52-7.24-10.2" fill="#FFF"/><path d="M63.424 44.667c.28 0 .48-.16.64-.32a.42.42 0 000-.52v-.08c-.04-.16-.12-.36-.48-.36-.04 0-.08 0-.16.04h-.16c-.16 0-.24.08-.24.12a.69.69 0 01-.24.24.51.51 0 000 .48c.16.28.4.4.64.4z" fill="#E66C55"/><path d="M84.184 62.787c-.08-.28-.28-.56-.6-.68-.88-.4-1.72-.48-2.52-.2-.92.32-1.88.6-2.8.88l-.28.08c-.64.2-1.28.24-1.92.04-.4-.12-.84-.12-1.28-.16h-.12c-.28-.04-.6-.04-.88-.04-.52 0-1.04-.04-1.52-.12-.88-.12-1.72-.32-2.56-.52-.28-.08-.6-.12-.88-.2-.64-.16-1.32-.28-1.96-.44-.48-.12-.96-.2-1.44-.32-.52-.12-.76-.36-.88-.84a18.8 18.8 0 00-.56-1.6l-.08-.24c-.24-.6-.48-1.2-.68-1.68-.16-.36-.32-.68-.48-1.04l-.2-.44c-.12-.28-.12-.56.04-.92.12-.28.2-.56.32-.88.04-.16.08-.28.12-.4.04-.08.04-.16.08-.24.08-.2.16-.44.24-.64.28-.6.4-.68.96-.6 1.04-.04 2.48-.2 3.44-.76.16-.08.32-.2.48-.28.28-.16.52-.32.84-.48.12-.04.28-.12.4-.16.24-.08.44-.16.68-.28h.04v-.04c.08-.12.16-.2.24-.32.52-.52.84-1.16.96-2.04-.08-.68-.36-1.04-.92-1.32-.16-.08-.32-.12-.48-.16-.08-.04-.16-.04-.24-.08-.04 0-.08 0-.12-.04h-.08c-.12 0-.2-.04-.32-.08l-.84-.24c-.32-.12-.56-.28-.8-.48-.52-.28-1-.64-1.4-1.04-.24-.24-.48-.52-.72-.8-.16-.2-.32-.4-.52-.56l-.08-.08c-.12-.12-.24-.28-.4-.4h-.04c-.16-.08-.28-.16-.44-.2-.2-.08-.36-.16-.56-.28h-.04c-.88-.4-1.72-.64-2.52-.72h-.04c-.48-.04-1-.08-1.48-.2-.28-.04-.64-.12-.92-.32-.12-.08-.28-.2-.4-.28 0 0 0-.04-.04-.04-.76-.72-1.64-1.52-2.76-1.36-.56.08-1.04.36-1.32.8-.28.44-.32 1-.36 1.52-.04.32-.08.68-.08 1 0 .12 0 .24.04.36 0 .08 0 .16-.04.2-.2 1-.36 2.12.52 3.08v.04l-.36.28c-.44.36-.88.72-1.36 1.08-.16.12-.28.24-.44.32-.36.28-.68.56-1.04.84-.28.24-.64.64-.68 1.2-.04.76-.32 1-1.08 1.12-.2.04-.4.08-.6.08-.88.16-1.76.28-2.64.32-1.4.04-2.92 0-4.64-.12-2-.16-3.88-.88-5.56-1.6-.8-.36-1.6-.76-2.36-1.16-.84-.44-1.72-.96-2.68-1.52-.4-.24-.92-.48-1.6-.36-.12.04-.28 0-.44 0h-.04c-.4-.04-.84-.16-1.24-.24-.56-.16-1.16-.28-1.76-.28-.08 0-.2-.04-.32-.12-.04-.04-.12-.04-.16-.08-.56-.24-1.2-.48-1.84-.2-.28.12-.52.12-.84-.04-.36-.16-.8-.28-1.28 0-.56.36-.56.36-1.08-.12-.28-.28-.6-.52-.88-.8-.48-.44-.96-.84-1.44-1.28-.36-.32-.76-.6-1.16-.8-1-.52-1.64-1.28-2.08-2.36-.32-.76-.8-1.44-1.28-2.08-.24-.32-.48-.6-.76-.88-.32-.36-.64-.72-.88-1.08-.48-.72-.84-1.52-1.24-2.32l-.12-.24c-.4-.88-.88-1.6-1.44-2.24-.24-.28-.48-.4-.68-.36-.28.04-.44.4-.56.64-.04.12-.04.28-.04.44v1.76c0 .56 0 .56-.52.64-.44.08-.68.32-.76.72-.12.6-.12 1.28.48 1.8.2.16.32.36.44.52.12.2.2.44.2.68l.12 1.56v.16c.04.72.36 1.28.96 1.68.64.44 1.2 1 1.64 1.68.08.12.2.2.28.28.08.08.16.12.2.2.12.16.28.32.44.48.36.36.72.76.92 1.2.36.8.96 1.2 1.6 1.6l.16.12c.64.44 1.36.8 2.04 1.2.4.2.76.44 1.12.64.16.08.32.2.36.4-.04.04-.12.04-.16.08l-.48.24c-1 .44-1.56 1.24-1.72 2.36-.08.56-.08 1.12-.08 1.68v1.08c.04.8.04 1.68-.2 2.48-.16.52-.32.6-.84.48l-1.56-.36-.2-.04c-.64-.16-1.12.12-1.32.72-.04.08-.04.16-.08.2-.08.28-.16.56-.32.8-.28.52-.56 1.2-.32 2.08l-.24.08c-.24.08-.48.12-.72.2-.12.04-.2.04-.32.08-.8.24-1.64.48-2.12 1.32l-.04.04-.08.08c-.2.24-.4.44-.6.68-.48.52-.96 1.04-1.36 1.64-.52.8-1.08 1.32-1.76 1.68-.88.44-1.32 1.24-1.76 1.96-.08.16-.16.28-.28.44-.12.16-.12.36-.08.52.04.16.12.28.28.36.48.28.64.76.84 1.24.16.4.44.68.8.72.36.08.76-.08 1.04-.4.12-.12.2-.24.32-.36.2-.24.44-.52.68-.76l.64-.64c.16-.16.36-.32.52-.48.28-.28.56-.56.84-.8.52-.52 1.08-1.04 1.64-1.56.32-.28.64-.6 1.2-.72l-.24.6c-.04.16-.12.28-.16.44-.36.92-.76 1.88-.32 2.96v.12c.08.4.2.6.4.72s.44.12.84 0c.36-.08.76-.24 1.08-.64.16-.2.32-.4.48-.56.28-.32.56-.68.84-1 .4-.44.64-1 .84-1.52.08-.2.16-.4.28-.6.08-.16.08-.36.12-.56 0-.12 0-.2.04-.28.08-.48.12-.56.56-.56.8-.04 1.64-.04 2.48.04.28 0 .56.08.88.12.32.04.6.12.92.12 1.04.04 2.12 0 2.96-.88.24-.24.48-.2.76-.16h.08c.4.08.88.08 1.4.12.28 0 .6 0 .92-.08.28-.04.64-.12.96-.24.4-.16.76-.36 1.12-.56l.28-.16c1-.52 1.48-1.28 1.44-2.28 0-.08.04-.16.08-.24v-.04l1.88 1.32c1 .72 2 1.24 2.96 1.6l.24.08c.16.08.32.12.52.2l1.08.36c1 .32 2 .68 3 .96.16.04.36.08.56.16.72.2 1.36.36 1.92.84 1.04.96 2.24 1.28 3.28 1.48.4.08.8.2 1.16.32.4.16.76.32 1.12.44.32.12.68.28 1 .4.24.08.48.16.76.16h.48c.24 0 .44 0 .64.04 1.04.2 1.92-.12 2.76-.96.32-.36.8-.6 1.2-.68.8-.12 1.56-.4 2.32-.8.16-.08.36-.16.48-.16.68.04 1.32.12 1.92.24.12.04.28.08.4.12.2.08.4.16.6.16.52 0 .8.28 1.16.64v.04c.56.56 1.04.92 1.6 1.16.56.24 1.12.48 1.64.72.84.44 1.76.68 2.84.72.72.04 1.28.16 1.72.36.64.32 1.28.76 2.04 1.4.52.44 1.12.76 1.8.92.28.08.56.16.84.28.2.08.36.12.56.16.28.08.6.16.88.24h.04c.08.04.2.04.28.08.08 0 .16.04.28.08.24.08.48.12.72.2.52.12 1.04.28 1.6.4.28.04.56.08.8.08.52 0 1-.12 1.4-.36.16-.08.28-.16.48-.24.08-.04.2-.08.28-.12.6-.28.76-.72.48-1.28-.2-.48-.6-.88-1.16-1.28-.76-.52-1.64-.6-2.32-.6-.56 0-1.24-.08-1.76-.48-1.04-.8-2.2-1.4-3.28-2-.52-.28-1.04-.56-1.52-.84a.552.552 0 00-.16-.12c.12 0 .2-.04.28-.04h.72c.52 0 1.08 0 1.6-.12 1.04-.2 2.16-.2 3.32-.08.32.04.68-.04 1-.12.52-.12 1.08-.32 1.6-.48.32-.12.68-.12 1.08 0 .84.24 1.48-.04 2.04-.36.32-.2.56-.44.76-.72.08-.08.16-.2.28-.28l.2-.24c.4-.4.8-.84 1.2-1.28.32-.24.4-.52.32-.84zm-75.16 2.28c-.76.28-1.36.8-1.92 1.32-.08.08-.2.16-.28.28-.6.52-1.2 1.08-1.8 1.6-.64.56-1.24 1.08-1.88 1.64-.12.08-.24.2-.36.28l-.12.12a.837.837 0 00-.16-.24c-.12-.2-.24-.4-.28-.6-.12-.36-.04-.76.24-1.2.32-.52.68-.84 1.16-.96.72-.2 1.12-.72 1.52-1.24l.48-.72c.44-.68.88-1.4 1.56-1.92.24-.16.44-.4.68-.6l.32-.32c.48-.44 1.08-.56 1.72-.68.04 0 .12-.04.16-.04.16.56.08 1.72-.08 2.32-.2.48-.48.8-.96.96zm11.36-.96c-.12.12-.24.2-.36.24-.56.24-1.16.28-1.72.24-.12 0-.24-.04-.32-.04-.24-.04-.44-.04-.68-.12-.44-.12-.92-.16-1.4-.16h-1.6c-.24 0-.44-.04-.48-.08-.04-.04 0-.24 0-.44.08-.52.2-1.04.32-1.56l.12-.6c.68.08 1.32.28 1.96.56.32.12.68.28 1 .44.8.36 1.6.72 2.48.96.2.04.36.16.56.28l.24.12c0 .08-.08.12-.12.16zm52.92 6.36l.04.04c.2.12.36.2.48.36.68.84 1.64.92 2.52 1l.24.04c.16 0 .36.04.52.04.84.04 1.44.44 1.92 1.12-.72.6-1.52.76-2.4.56l-.96-.24c-.6-.12-1.2-.28-1.8-.44-.24-.04-.44-.12-.68-.2l-.36-.12c-.2-.08-.44-.12-.64-.2-.32-.08-.64-.2-.96-.28-.04 0-.08-.04-.12-.04-.12-.04-.28-.08-.36-.16-.36-.36-.8-.6-1.24-.84-.32-.16-.6-.36-.88-.56-.8-.6-1.72-.88-2.88-.88h-.12c-.72 0-1.48-.2-2.36-.6-.16-.08-.28-.12-.4-.2-.44-.24-.92-.44-1.4-.64-.4-.16-.68-.44-1-.92 1-.56 1.8-.6 2.68-.2 1.04.48 2 .6 2.88.36.32-.08.68-.08 1.04-.08h.08c.32 0 .64 0 .88.28.08.08.16.12.24.16.04 0 .08.04.12.04l.48.28c1.52.72 3 1.52 4.44 2.32zm9.52-7.04c-.32.32-.6.64-.88.96-.2.24-.44.44-.68.64-.12.08-.2.2-.32.28-.28.28-.64.36-1 .24-.88-.24-1.8-.16-2.76.28-.72.32-1.44.28-2.2.24-.16 0-.32 0-.48-.04-.44 0-.88 0-1.28.04l-.28.04c-.24 0-.48.04-.68.08-.28.04-.56.04-.84.08-1.04.08-1.92.12-2.76.12-.16 0-.36 0-.56-.04-.16 0-.32-.04-.48-.04h-.36c-.4 0-.76-.04-1.16.04-.92.2-1.8.12-2.76-.32-.88-.4-1.76-.28-2.52-.12-1.2.24-2.28.24-3.32-.04-.64-.16-1.32-.28-2-.28-.28 0-.52.16-.76.28-.08.04-.2.12-.28.16-.04.04-.12.04-.16.08-.32.16-.6.32-1 .24-.32-.08-.68.08-1 .4-.2.2-.44.32-.72.32-.4.04-.84.12-1 .72-.08.28-.36.48-.72.48-1.56.08-2.8-.16-3.92-.68-.4-.16-.8-.32-1.32-.48-.36-.12-.72-.2-1.12-.32l-1.32-.36c-.28-.08-.56-.24-.72-.4-.88-.88-2.04-1.24-3.12-1.56-.36-.12-.76-.2-1.12-.28-.56-.12-1.16-.28-1.72-.44-.6-.2-1.16-.48-1.72-.76h-.04c-1.88-.96-3.24-1.84-4.36-2.88l-.36-.36-.32-.32c-.28-.28-.32-.56-.16-1 .2-.52.32-.96.44-1.36.2-.84.16-1.64.12-2.48 0-.24-.04-.52-.04-.76 0-.16-.08-.32-.12-.48-.04-.08-.04-.12-.08-.2l-.04-.08h-.08c-.44.08-.44.4-.44.6v.4c0 .36 0 .72.04 1.12.08.8-.08 1.56-.44 2.52-.16.44-.28.88-.32 1.32-.08.76-.12 1.6-.16 2.24-.04.6-.28 1.04-.72 1.32-.88.6-2.12 1.24-3.56 1.12-1-.08-1.84-.32-2.52-.72-.16-.12-.4-.24-.6-.28-.88-.2-1.68-.56-2.48-.92-.36-.16-.72-.32-1.04-.44-.28-.12-.6-.24-.92-.32l-.24-.08c-.48-.16-.92-.28-1.24-.64a.487.487 0 00-.4-.2c-.12 0-.24.08-.36.2l-.04.04.04.04c.24.64.16 1.28.04 1.92 0 .12-.04.24-.04.4-.2 1.4-.36 2.52-.6 3.56-.12.52-.36 1.08-.72 1.6-.4.6-.88 1.16-1.44 1.8-.12.12-.28.24-.52.36l-.24.12c-.36-.68-.4-1.2-.24-1.72.08-.2.12-.4.16-.56 0-.08.04-.16.04-.24 0-.04 0-.08.04-.12 0-.08.04-.12.04-.16.6-1.12.8-2.36 1.04-3.56.04-.24.08-.52.16-.76.16-.92.16-1.8 0-2.68-.08-.36-.04-.68.16-1.08l.12-.24c.12-.28.24-.52.36-.8.08-.2.16-.28.32-.28h.16c.2.04.4.12.64.16.4.08.8.2 1.2.28.2.04.44.08.68.12.12 0 .24.04.32.04h.08l.04-.08c.08-.24.16-.52.24-.76.2-.56.36-1.08.44-1.64.08-.44.04-.92.04-1.36v-.88c.04-.84.08-1.56.2-2.28.12-.64.52-1.12 1.16-1.4l.48-.2c.28-.12.6-.24.88-.36.2-.08.32-.2.36-.36.04-.12 0-.28-.12-.48-.08-.12-.2-.2-.32-.28-.52-.32-1.08-.64-1.6-.96-.88-.52-1.76-1.04-2.64-1.6-.64-.4-1.2-.76-1.44-1.48-.12-.32-.36-.6-.6-.88-.04-.08-.12-.12-.16-.2-.56-.68-1.2-1.36-1.84-2.04-.32-.32-.68-.64-1.04-.92l-.04-.04c-.28-.24-.44-.44-.44-.72l-.04-.36c-.04-.52-.08-1.04-.08-1.56 0-.48-.12-.84-.36-1.12-.24-.28-.44-.52-.56-.76a.98.98 0 01-.16-.48c-.04-.2.08-.32.32-.36.88-.16.92-.2 1-1.12v-.28c0-.16.04-.32.04-.52 0-.12.04-.24.08-.4 0-.04 0-.04.04-.08l.04.04c.08.08.12.12.12.2.4 1.32 1.16 2.52 2.24 3.68.12.16.28.28.4.44.48.52.96 1.04 1.36 1.6.36.52.72 1.16 1.04 1.96.28.72.6 1.28.96 1.76.12.12.32.36.6.48 1.56.6 2.76 1.68 3.88 2.76.36.32.76.68 1.28 1.08.2.16.4.24.56.2.16-.04.28-.16.4-.32.2-.36.4-.36.72-.24.56.2 1 .16 1.44-.04.2-.08.56 0 .8.08.28.08.6.24.88.36l.08.04c.56.28 1.16.32 1.72.36 1.12.04 2.32.32 3.64.84.24.08.48.24.68.44.2.12.4.28.6.4.24.12.52.24.76.4.92.48 1.88.96 2.84 1.32.24.08.48.16.68.24 1.24.44 2.52.92 3.88 1.12.36.04.68.12 1.04.2l.2.04c2 .44 4 .32 5.96.2h.08c.36-.04.72-.16 1.04-.28.08-.04.16-.04.24-.08.12-.04.24-.12.36-.16.12-.08.28-.12.4-.16 1.04-.28 1.28-1.08 1.4-1.88.08-.4.24-.68.6-.88.24-.12.44-.32.64-.56.68-.68 1.4-1.32 2.32-1.72.12-.04.28-.08.44-.04.4.08.76.16 1.12.28.28.08.56.16.88.2.16.04.32.08.48.08.08 0 .16 0 .24.04h.08l.12-.24-.04-.04c-.04-.04-.04-.08-.08-.08-.04-.08-.12-.2-.2-.24-.56-.24-1.04-.44-1.56-.64-.52-.16-1.08-.4-1.52-.84-.32-.36-.48-.68-.44-1.08v-.2c0-.28.04-.52.08-.8 0-.08.04-.16.04-.24.08-.12.08-.24.08-.36.04-.4.04-.84-.04-1.28 0-.12 0-.2.04-.32.04-.4.16-.88.56-1.12.28-.16.64-.16.96-.08l.08.08c0 .08.04.16.12.2l3 3c.36.36.92-.2.56-.56l-.6-.6c.16.04.32.04.48.04 1.32.04 2.56.32 3.68.8.04.04.12.08.16.08l.24.12c.04.04.08.08.12.08.08.08.2.16.32.28.2.2.4.44.6.68l.08.12c.36.4.72.84 1.16 1.2.84.72 1.8 1.2 2.84 1.48.12.04.24.08.32.12.12.04.2.04.28.08 0 .08 0 .16.04.24v.04l.04.04c.04.04.04.08.04.12v.12c0 .04 0 .04.04.08v.04c.04.08.08.16.16.24l.12.12c.04.24.12.48.24.76-.08.44-.4.64-.84.76-1.16.32-2.28.16-3.52-.08-.12-.04-.24-.04-.36-.08-.56-.08-1.08-.2-1.6-.44a.645.645 0 00-.36-.12c-.08 0-.2.04-.28.08-.04 0-.08.04-.08.04l-.08.04.04.08c0 .04.04.08.04.12.04.12.04.2.12.28.72.76 1.64.92 2.44 1 .32.04.6.08.84.24h-.08c-.24.04-.48.04-.68.08-.24.04-.52.04-.76.08-.24 0-.52.04-.76.08-.64.04-1.08.36-1.32.92-.04.12-.12.24-.16.36-.2.44-.4.88-.48 1.44-.04.32-.2.64-.4.88-.36.6-.44 1.12-.16 1.68.24.48.48.96.76 1.6.24.52.44 1 .64 1.52.32.88.6 1.6.8 2.32.08.24.16.44.44.52.68.28 1.44.48 2.36.68.48.08 1 .2 1.48.32l1.08.24c.2.04.4.08.6.08.12 0 .24.04.36.04.08 0 .16.04.24.04.24.04.48.04.68.12 1.16.44 2.4.44 3.6.44.36 0 .76.04 1.16.16.8.2 1.48.24 2.08.04.44-.12.88-.28 1.32-.4.6-.2 1.24-.4 1.88-.56.4-.12.84-.16 1.36-.16.16 0 .28.08.48.16.08.04.12.04.2.08-.28 0-.36.12-.48.24z" fill="#E66C55"/></g></svg>