<svg width="62" height="75" xmlns="http://www.w3.org/2000/svg"><g fill="none"><path d="M8.583 72.166c-1.84-2.72-.68-6.4.32-9.52a64.523 64.523 0 002.96-16.28c.04-.6.04-1.32-.36-1.8-.36-.44-.92-.6-1.48-.76-6.08-1.88-10.36-8.4-9.64-14.72 3.24 1.24 4.08 5.36 6.16 8.16 2.84 3.88 8.12 5.16 12.92 4.96 4.8-.2 9.48-1.56 14.28-1.72 3.56-.16 7.76.08 9.92-2.76.56-.72.88-1.56 1.36-2.32 2.36-3.96 8.16-5.36 12.08-2.92 2.48 1.52 4.04 5.2 2.12 7.4-2-.92-4.44-.16-6.08 1.28-1.64 1.44-2.64 3.48-3.56 5.44-2.92 6.32-5.6 13.04-5.28 19.96.12 2.44.56 4.8 1.04 7.2-1.84.4-3.6-1.12-4.24-2.88-.6-1.76-.36-3.68-.2-5.56.16-1.88.16-3.88-.88-5.44-1.04-1.64-2.96-2.48-4.76-3.2-4.12-1.68-8.2-3.36-12.32-5.04-.32-.12-.64-.28-1-.24-1 .12-1.28 1.4-1.48 2.4-.72 3.44-3.44 6-5.52 8.84-2.08 2.84-3.52 6.8-1.56 9.72-1.68.72-3.6.8-5.32.24" fill="#ffe180"/><path d="M60.983 35.206a.778.778 0 00-.56-.36c-.16 0-.24-.04-.4-.12-.24-.16-.52-.2-.72-.32-.12 0-.16-.04-.24-.12l-.24-.12c-.12-.04-.2-.12-.32-.12-.16-.04-.24-.12-.4-.2-.2-.16-.4-.24-.6-.36-.24-.12-.44-.2-.68-.36l-.12-.12a.443.443 0 01-.2-.4c0-.24-.12-.44-.36-.56-.12-.04-.2-.12-.36-.16-.4-.12-.68-.2-.92-.4a.489.489 0 00-.36-.16c-.24-.04-.52-.12-.76-.12-.32-.04-.6-.12-.88-.2-.2-.04-.4-.12-.72-.12-.16 0-.32 0-.4-.04-.2-.04-.36-.04-.6-.04-.2 0-.4.04-.6.04l-.44.04c-.2 0-.4.04-.6.12-.16.04-.32.16-.44.2-.32.16-.68.24-.96.44l-.04.04-.04.04c-.24 0-.44.16-.68.32-.44.36-.92.72-1.36 1.08-.24.2-.44.36-.72.56l-.04.04c-.2.16-.36.36-.44.6-.2.44-.4.92-.44 1.44-.12.6-.72 1.28-.96 1.52l-.16.2c-.16.16-.36.32-.52.4-.16.12-.24.2-.4.32-.24.24-.56.44-.96.6h-.16c-.2.04-.4.16-.56.24-.16.04-.32.12-.44.12-.44.04-.92.12-1.32.2-.24.04-.52.16-.76.36-.12.12-.24.16-.4.2l-.2.04c-.24.04-.52.16-.72.2-.24.12-.52.12-.72.12a4.86 4.86 0 00-1.08 0c-.2 0-.4.04-.6.16-.2.12-.36.2-.56.24-.12.04-.24.12-.4.12-.12.04-.2.04-.36.04-.12 0-.16.04-.24.04h-.32c-.12 0-.24-.04-.4-.04-.44 0-.92.04-1.36.12h-.2c-.04 0-.16 0-.2.04-.16.04-.32.04-.44.04h-1.4c-.32 0-.6-.04-.92-.04-.2 0-.4-.04-.6-.04-.16 0-.24-.04-.4-.04h-.76c-.36 0-.68.04-1-.04-.04 0-.16-.04-.2-.04l-.4-.04c-.24 0-.56-.04-.8-.04-.32-.04-.6 0-.92.04-.32.04-.68.12-1 .12h-1.44c-.2 0-.4.04-.6.04-.44 0-.88.04-1.28.12-.12.04-.24.04-.36.04l-.32.04c-.32.04-.6.16-.96.32-.32.12-.56.2-.88.2-.2 0-.36.04-.52.12-.16.12-.36.12-.56.16h-.04c-.12 0-.16 0-.2-.04-.12-.04-.2-.12-.32-.16l-.2-.12c-.24-.16-.56-.32-.92-.36-.12 0-.24-.04-.36-.04h-.12c-.04 0-.12 0-.12-.04-.16-.12-.32-.2-.44-.24-.04-.04-.16-.04-.2-.12-.2-.12-.4-.2-.6-.24-.36-.12-.68-.2-.92-.36-.04-.04-.12-.04-.16-.04 0 0-.04 0-.04-.04l-.04-.04c-.12-.04-.16-.12-.2-.16-.16-.12-.32-.2-.52-.32s-.4-.2-.68-.4c-.2-.16-.36-.24-.52-.36-.24-.16-.52-.32-.72-.44-.12-.04-.16-.16-.24-.2l-.04-.04c-.2-.16-.36-.36-.52-.52-.12-.12-.16-.2-.24-.24 0 0-.04-.04-.04-.12l-.12-.24c-.12-.16-.16-.32-.24-.44-.12-.2-.2-.4-.2-.68 0-.04-.04-.16-.04-.2l-.04-.2c-.04-.16-.04-.32-.12-.44v-.16c0-.12 0-.16-.04-.24-.12-.4-.32-.88-.56-1.36-.04-.12-.12-.2-.16-.32-.04-.12-.12-.2-.16-.32a3.9 3.9 0 01-.32-.88c0-.16-.04-.32-.12-.52-.04-.12-.04-.16-.12-.2 0-.04-.04-.12-.04-.16-.12-.24-.24-.52-.52-.72-.24-.24-.4-.4-.52-.6-.16-.24-.36-.36-.56-.52l-.04-.04a.377.377 0 00-.52.04c-.24.32-.4.56-.44.92v1.16c0 .2 0 .4-.04.68-.04.2-.12.56 0 .88 0 .12.04.2.04.32v.04c.04.4.04.88.12 1.28 0 .32.12.56.16.8.12.32.2.6.32.92.12.4.24.76.44 1.08.12.16.2.32.24.52.12.2.2.36.36.44.04.04.12.16.16.32.24.88.56 1.48.96 2 .52.6 1 1 1.56 1.32.2.12.36.2.44.24.24.2.52.36.76.56l.16.12c.2.16.4.32.68.4.52.2.96.36 1.44.52.2.04.4.12.6.2.72.24 1.32.44 1.88.6.16.04.32.12.44.16l.12.04c-.04.04-.04.12-.04.12-.04.04-.04.16-.12.2 0 .04-.04.12-.04.16-.16.36-.32.76-.4 1.24-.12.4-.24.8-.4 1.16-.04.16-.12.32-.2.44 0 .04-.04.04-.04.12-.24.4-.36.88-.4 1.44-.04.56-.12 1.24-.36 1.8-.12.24-.16.52-.2.76 0 .16-.04.24-.04.4-.04.24-.04.52-.04.76 0 .32 0 .72.04 1.12.04.32.04.68.04 1v.24c0 .44 0 .88-.12 1.28l-.04.2c-.04.2-.04.4-.12.6-.04.44-.04.96.12 1.48.12.4.12.88.04 1.24l-.04.32c-.04.24-.12.44-.12.72-.04.24-.12.52-.24.8-.04.16-.16.36-.24.52l-.12.2c-.2.4-.44.8-.88 1.24-.4.44-.52.96-.6 1.44l-.04.36c0 .12-.04.2-.04.32-.04.12-.12.24-.12.36-.04.04-.04.16-.12.24-.08.08-.04.2-.12.32-.04.24-.04.52-.12.76v.6c-.04.36-.12.76-.12 1.12l-.04.32v.04c0 .12-.04.16-.04.24-.12.32-.16.6-.32.88-.12.16-.12.36-.04.56.04.32.12.52.16.72 0 .16.04.32.16.4.04.04.04.12.04.2-.04.16-.12.32-.12.44-.04.16-.04.32.04.4a.5.5 0 00.36.16c.16 0 .36-.04.52-.04h.28l.04.04.32.32c.16.2.36.32.52.36.12.04.24.12.36.12.16 0 .24-.04.4-.12.12-.04.24-.16.36-.16.2-.04.36-.2.44-.4l.04-.04c.2-.16.4-.32.52-.56.16.04.24.04.4.12.12.04.32.12.56-.04h.04c.2.04.36.12.52.16.24.12.44.12.68-.04l.04-.04.16-.16c.2-.2.32-.44.4-.72l.04-.04c.04-.12.04-.2.04-.24 0-.2-.4-.72-.56-.8-.04-.04-.16-.04-.2-.12-.04 0-.12 0-.2-.04h-.28c-.16-.12-.32-.16-.4-.24-.16-.12-.16-.2-.16-.32v-.2c.12-.44.16-.92.24-1.36.04-.16.04-.32.12-.44v-.04c.04-.12.04-.2.12-.32.04-.2.12-.44.16-.68.12-.4.2-.76.36-1.12l.04-.16c.04-.12.04-.2.12-.32.16-.32.32-.6.44-.92l.04-.04c.04-.04.04-.16.12-.2.2-.24.36-.52.56-.8.2-.36.44-.72.8-1 .6-.56 1.24-1.24 1.72-1.92.12-.16.2-.32.32-.44.12-.16.24-.36.36-.52.04-.12.12-.2.16-.24.04-.12.12-.2.2-.32.2-.32.4-.56.52-.8.04-.12.12-.16.16-.2l.32-.44c.16-.24.36-.52.52-.8.32-.52.56-1 .76-1.52.12-.16.16-.36.24-.52.2-.4.4-.88.44-1.36v-.12c.04-.2.12-.4 0-.6.2-.2.56-.44.72-.56l.32-.12c.16-.04.32-.12.44-.16.2.16.4.12.56.12.12 0 .2-.04.32 0 .24.12.44.16.68.32.56.44 1.12.76 1.72.96.12.04.2.12.36.16.32.2.6.4.96.6.36.2.68.36 1 .44.2.04.44.16.68.24.36.16.68.32 1 .4.24.04.52.16.8.32s.68.32.96.4c.36.16.76.24 1.16.4.6.2 1.28.36 1.88.56l.2.04c.12.04.24.04.4.12.24.04.44.12.72.12l.76.12c.2.04.44.04.68.12.16 0 .32.04.44.04l.32.04c.12 0 .16 0 .24.04.2 0 .36.04.56.12v.04l.04.2c.04.24.12.52.12.72.04.52.16 1.12.32 1.68.04.2.12.36.12.56 0 .32.04.56.04.8l.04.44c.04.4.12.88.16 1.28l.04.24c.04.16.04.36.12.52l.04.2c.04.44.16.96.16 1.44 0 .24 0 .44.04.68.04.16.04.36.04.52v.24c0 .04 0 .12.04.24l.16.88.04.12c.12.6.12.68.16.72.04.16.12.24.16.4l.2.56c.04.16.12.36.2.52.04.16.12.36.16.52 0 .32.12.56.16.8.04.12.04.2.12.32.12.36.36.6.72.68h.04l.16.04c.04.04.16.04.2.04.12 0 .16.04.2.12.16.16.32.24.52.24.16 0 .32.04.44.12.2.04.44 0 .68-.16.12-.12.2-.16.32-.24.12-.16.2-.2.4-.2h.16c.36 0 .6-.2.68-.56 0-.04 0-.16.04-.24.04-.36-.16-.68-.44-.76a.636.636 0 01-.4-.32c-.04-.04-.12-.04-.12-.12-.04-.04-.12-.04-.12-.12-.12-.12-.2-.2-.36-.24-.04 0-.12-.04-.12-.16v-.36c0-.72-.04-1.44.12-2.12.04-.2.04-.36.04-.56 0-.52.04-1 .04-1.52v-5.12c0-.36.04-.72.04-1.08 0-.6 0-1.24.16-1.8.04-.16 0-.24 0-.36s0-.2.04-.32c.12-.32.24-.56.4-.88.04-.16.16-.24.2-.4l.04-.04c0-.04.04-.12.04-.12.04-.04.04-.12.12-.16l.2-.4c.12-.2.2-.36.32-.56.04-.16.16-.24.2-.36.16-.2.24-.44.36-.68.2-.44.52-.88.76-1.28l.12-.2c.12-.16.2-.24.24-.4.12-.16.2-.32.36-.44.12-.16.2-.36.32-.52l.04-.12c.12-.2.16-.44.16-.68v-.92c.04-.4.04-.8.2-1.16 0-.04.04-.12.04-.2v-.12c.04-.24.16-.52.32-.76.04-.12.12-.16.16-.24l.12-.16c.04-.12.12-.2.16-.24.16-.24.24-.44.44-.68.04-.04.12-.12.12-.2.12-.32.32-.6.56-.92.4-.52.8-1.08 1.16-1.64l.12-.16c.56-.8 1.12-1.68 1.56-2.56.04-.12.12-.12.2-.12.2 0 .4 0 .56.04.24 0 .56.04.88.04.44.04.88.04 1.32 0h.32c.4 0 .8-.12 1.24-.2.16-.04.36-.12.52-.16.2-.04.36-.16.56-.24.44-.32.72-.68.88-1.08l.04-.12c.12-.24.2-.56.16-.92 0-.04.04-.04.04-.12l.12-.12.12-.12c.12-.12.2-.24.24-.4.16-.44.24-.8.24-1.16v-.04c0-.2 0-.4.04-.56-.08-.16-.16-.32-.16-.36zm-1.04 1.96c-.24.36-.68.6-.96.76-.12.04-.24.12-.4.12-.36.04-.76.16-1.12.2-.16.04-.36.12-.56.12-.12 0-.32.04-.32.32 0 .2.16.36.36.4h.32c.24-.04.52-.12.76-.16.4-.12.76-.16 1.12-.2.12 0 .2-.04.32-.12-.2.52-.52.88-.96 1.08-.24.12-.56.2-.88.24-.2.04-.44.04-.68.12l-.36.04c-.2 0-.4.04-.6.04-.44 0-.92-.04-1.36-.04a13.5 13.5 0 00-1.8 0c-.04 0-.12 0-.16.04-.04 0-.12.04-.12.04l-.12.04v.12c0 .24.16.36.32.4 0 .04-.04.04-.04.12l-.2.32c-.36.6-.76 1.28-1.16 1.88-.32.44-.68.92-.96 1.36l-.2.24c.16-.72.2-1.36.2-2.08v-.96c0-.16 0-.32-.04-.44-.04-.16-.12-.2-.2-.32-.12-.04-.2-.04-.36 0-.04 0-.12.04-.16.12l-.12.04v.12c-.04.32-.04.56-.04.88v1.28c0 .32-.04.6-.12.92v.2c0 .12-.04.2-.04.36 0 .12-.04.24-.04.36 0 .24-.12.44-.16.72-.04.16-.04.24-.12.4-.04.12-.04.24-.12.36 0 .04-.04.16-.12.2-.04.12-.12.2-.16.32-.12.16-.2.32-.24.52-.12.16-.16.36-.2.52-.12.32-.16.56-.2.88v1.36c0 .12 0 .2-.04.32-.2.36-.4.76-.72 1.24-.16.24-.32.44-.4.76-.04.16-.16.32-.24.52l-.2.4c-.16.32-.32.6-.52.88-.32.52-.6 1.08-.88 1.68-.04.16-.16.32-.2.44-.16.32-.32.68-.4.96v.04c-.2.04-.24.24-.32.36-.12.32-.16.68-.2 1.12v.8c0 .52-.04 1-.04 1.52v5.84c0 .36-.04.72-.04 1.12v.24c-.04.36-.04.68-.04 1v1.24c0 .36.16.6.4.76.12.04.16.12.24.2.04.04.12.12.16.12l.16.16c.16.16.32.24.52.36-.32-.04-.68.04-.96.24-.24-.16-.52-.2-.88-.04 0 0-.04 0-.04.04-.04-.12-.12-.2-.16-.36-.12-.4-.24-.76-.52-1.28-.2-.4-.36-.76-.4-1.12-.04-.2-.04-.36-.12-.56 0-.12 0-.2-.04-.32-.04-.2-.04-.36-.12-.56v-.44c.04-.04.16-.2-.2-3 0-.12-.12-.32-.2-.56-.04-.12-.04-.16-.12-.2 0-.2-.04-.44-.04-.68v-.36c0-.16 0-.32-.04-.44 0-.2-.04-.44-.24-.68v-.12l.12-1.32c0-.2.04-.4.04-.68v-.16c0-.24 0-.52.04-.72v-.72c0-.36 0-.72.04-1.08 0-.12 0-.32-.16-.44-.04-.04-.04-.12-.04-.2-.04-.32-.16-.56-.24-.88 0-.04-.04-.16-.12-.2 0-.04-.04-.12-.04-.12l-.04-.16-.16.04c-.24.04-.24 1.44-.24 1.88h-.24c-.36-.12-1.28-.24-1.28-.24-.24-.04-.52-.04-.76-.12-.32-.04-.6-.12-.92-.16h-.16c-.56-.12-1.12-.2-1.68-.24-.12 0-.2-.04-.32-.04l-.36-.12c-.52-.16-.96-.24-1.48-.4-.44-.16-.92-.32-1.44-.44-.32-.12-.6-.24-.96-.4-.36-.16-.72-.32-1.08-.4-.32-.12-.56-.2-.88-.36-.2-.12-.44-.2-.76-.24-.32-.12-.52-.16-.68-.32-.16-.12-.36-.2-.52-.36-.16-.12-.32-.2-.44-.32-.2-.16-.44-.24-.72-.36-.44-.16-.88-.36-1.16-.68-.32-.24-.68-.4-.96-.52a.818.818 0 00-.44 0c-.12 0-.16 0-.2-.04-.16-.12-.36-.16-.6-.12-.12 0-.16.04-.24.04-.12 0-.2.04-.36.04-.16.04-.24.04-.36.16-.4.2-.72.44-1.08.72-.2.16-.4.32-.6.44-.36.24-.6.52-.8.8-.2.32-.44.6-.72.88-.2.2-.4.52-.6.8-.16.32-.36.6-.56.92-.4.6-.88 1.28-1.28 1.88-.24.36-.56.76-.8 1.12l-.12.12c-.12.16-.2.32-.32.44-.16.2-.32.36-.4.56-.12.12-.16.24-.24.4l-.12.2c-.16.2-.32.44-.44.68-.24.32-.52.68-.72 1-.04.12-.16.2-.2.32-.12.16-.2.32-.24.44-.24.52-.44.96-.6 1.36-.16.4-.36.8-.56 1.16-.2.32-.4.68-.56 1 0 .04-.04.12-.12.16-.32 0-.52.12-.68.4-.12.16-.16.36-.16.56v.4c0 .2 0 .4-.04.6-.04.24-.12.52-.16.8l-.04.4v.04c-.12.2-.12.44-.12.68v.2c0 .2.04.32.16.36l.04.04c.04.12.16.2.36.24.04.2.12.4.32.6.04.04.04.12.12.16.04.12.16.2.2.32.04.04.04.12.04.16 0 .04-.04.12-.12.16-.12.12-.24.2-.36.4 0 .04-.04.04-.16.12-.32.16-.32.16-.52-.12l-.16-.16-.2-.2c-.12-.12-.24-.2-.4-.2h-.04c-.2 0-.4.04-.6.04l.04-.12c0-.04.04-.12.04-.2 0-.08.04-.36-.2-.56-.04 0-.04-.04-.04-.04 0-.32-.04-.6-.16-.88v-.16l.04-.16c.12-.2.16-.4.24-.6 0-.04.04-.04.04-.16.16-.68.32-1.32.32-2.04 0-.24.04-.44.04-.72 0-.16.04-.24.04-.4 0-.04.04-.12.04-.16l.12-.24c.04-.12.12-.2.12-.32v-.04c.04-.12.12-.24.12-.4 0-.24.04-.52.16-.8.04-.12.04-.2.12-.32.04-.16.16-.32.32-.44l.24-.32c.24-.32.44-.56.68-.92.4-.68.68-1.28.72-1.84 0-.16.04-.24.04-.4l.04-.2c.12-.68.12-1.32-.04-2.04 0-.04-.04-.12-.04-.16 0-.44-.04-.92.04-1.36.16-.68.2-1.32.16-1.92v-.84c0-.16-.04-.36-.04-.52 0-.12 0-.24-.04-.36-.04-.4 0-.8.12-1.24 0-.04.04-.12.04-.2 0-.04 0-.12.04-.16l.04-.12c.04-.16.12-.36.16-.52.12-.24.16-.52.2-.76.04-.4.12-.88.16-1.36.04-.32.16-.56.32-.8.12-.2.2-.44.32-.72l.12-.32c.16-.52.36-1 .44-1.52.04-.32.2-.56.4-.92l.04-.04c.04-.12.16-.24.12-.4.12-.16.12-.32-.04-.52-.12-.12-.2-.32-.44-.32-.12 0-.2-.04-.36-.12-.4-.16-.8-.24-1.16-.36l-.16-.04c-.2-.04-.4-.16-.6-.2-.12-.04-.2-.04-.32-.12l-.36-.12c-.24-.12-.44-.16-.72-.24l-.24-.12c-.32-.12-.68-.2-.96-.36-.16-.04-.32-.16-.44-.24-.2-.12-.36-.24-.56-.4-.36-.32-.72-.52-1.12-.72-.24-.16-.52-.32-.76-.6-.24-.28-.4-.56-.52-.8l-.04-.16c-.12-.24-.2-.52-.24-.76a.948.948 0 00-.36-.6c-.16-.16-.24-.32-.36-.56-.04-.16-.16-.32-.24-.44-.12-.2-.2-.4-.24-.6-.04-.36-.16-.68-.36-1.08-.12-.2-.16-.4-.16-.68v-.8c0-.24 0-.6-.12-.92a.678.678 0 010-.4c.04-.32.12-.6.04-.92v-.24c0-.16 0-.36.04-.52v-.36h.2l.2.2c.32.32.56.56.68.96l.04.12c0 .04.04.16.04.2.04.36.16.72.32 1l.04.16c.04.12.12.2.16.36.04.04.04.16.12.2.12.2.16.36.24.56 0 .04.04.12.04.16.04.12.04.16.12.2.12.16.16.36.16.56.04.32.12.56.16.76 0 .04.04.16.04.2 0 .04 0 .12.04.16v.04c0 .12.04.2.12.32.16.32.32.68.44.96l.04.12c.04.04.12.16.16.24l.2.24c.2.24.4.52.68.72.24.24.52.44.76.6l.04.04c.16.16.36.24.56.36.16.12.36.2.52.32.24.2.52.36.8.44.12.04.2.12.24.16.12.12.24.2.44.24.12.04.2.12.24.16.32.2.68.32.96.4.36.12.68.24.96.4.2.12.36.2.56.2l.16.04c.16 0 .24.04.4.12.12.04.24.04.36.16.16.04.32.16.4.2l.16.12c.24.16.56.16.8.12l.24-.04c.16-.04.32-.04.44-.12.12 0 .16-.04.24-.04.36 0 .72-.12 1.08-.24.24-.12.44-.16.76-.2l.16-.04c.24-.04.52-.12.76-.16.12 0 .16-.04.24-.04l.6-.04c.6-.04 1.24-.04 1.88-.12.44 0 .96-.04 1.48-.12.16-.04.36 0 .52 0 .32 0 .68.04.96.04.56.04 1.16.12 1.72.12.32 0 .68.04.96.04.16 0 .36.04.52.04.12 0 .2 0 .32.04.24 0 .52.04.8.04h1.32c.2 0 .4 0 .6-.04h.16c.44-.04.92-.04 1.32-.04.2 0 .36 0 .52.04.16.04.32 0 .4 0 .16 0 .24-.04.4-.04l.24-.04c.2-.04.4-.12.6-.2l.16-.04c.16-.04.24-.16.4-.2.16-.04.24-.12.4-.12h.72c.36.04.68 0 .96-.04.32-.12.6-.16.92-.24l.12-.04c.24-.04.52-.16.68-.32.2-.16.4-.24.68-.32.12 0 .16-.04.24-.04.2-.04.36-.04.56-.12.6-.04 1.16-.24 1.68-.44.32-.16.68-.32.96-.56l.12-.04c.32-.24.6-.52.92-.76.36-.32.72-.68 1.08-1.16l.04-.04c.12.12.2.2.32.36.2.32.4.6.68.88 0 0 0 .04.04.04.2.36.44.68.72.96.16.16.24.36.4.52.04.12.12.16.16.2.12.12.24.16.4.12.16 0 .24-.12.32-.24.04-.04.04-.12.12-.16h.04c.24.04.44-.04.56-.32.04-.12.12-.2.16-.24.04-.12.12-.2.16-.32.04-.12.12-.2.12-.36.04-.24.04-.56.12-.8l-.52-.4v-.24c0-.16.04-.36.04-.52.16-.76.32-1.64.76-2.4.04-.12.16-.24.24-.36l.04-.04c.16-.16.16-.24.04-.44.04-.12.12-.2.04-.32-.04-.12-.12-.2-.24-.2-.16-.04-.24 0-.4.04-.2.12-.4.24-.56.4l-.16.16c-.16.16-.24.32-.4.52-.24.32-.4.72-.52 1.16 0 .12-.04.24-.12.36v.24c-.12.32-.16.6-.16.92 0 .36-.04.68-.16.92-.04.16-.04.24-.04.4 0 .04 0 .16-.04.2-.04.2-.12.4-.16.56-.04.16-.04.24-.12.4v.04l-.2-.24c-.12-.16-.24-.36-.36-.52-.12-.12-.16-.24-.24-.36l-.2-.24c-.16-.2-.36-.44-.52-.68-.12-.16-.2-.24-.32-.4-.12-.16-.16-.24-.16-.44.04-.36.16-.76.36-1.24.04-.16.16-.32.32-.4.32-.24.6-.52.92-.72l.12-.12c.24-.2.44-.36.72-.56.56-.44 1.12-.76 1.68-.96.04 0 .16-.04.2-.12.24-.16.56-.2.92-.2.2 0 .36 0 .56-.04h.24c.52 0 1 0 1.52.16.24.12.56.12.8.16.2.04.44.04.68.04.04 0 .12 0 .16.04 0 0 .04 0 .04.04.36.24.72.4 1.12.52.04 0 .12 0 .12.04 0 .32.16.56.36.72.04.04.04.12.12.16.04.04.04.12.12.16.04.04.12.16.2.2.32.24.6.4.88.52.2.04.4.16.56.32.16.12.32.2.44.24.24.12.44.16.72.24l.16.04v.2c-.16.2-.16.44 0 .72.04.04.04.12.12.16l.04.12c.04.16.2.24.4.24h.4c.2.08.12.28 0 .44zm-19.6 20.72v.76c0 .12 0 .16-.04.24 0 .04 0 .12-.04.16v.12c0 .12-.04.24-.04.36v.12c0 .32 0 .68-.04.96 0-.12-.04-.16-.04-.24l-.04-.32c-.04-.36-.12-.72-.16-1.08 0-.16-.04-.36-.04-.52 0-.04 0-.16-.04-.2 0-.12-.04-.16-.04-.24.12-.08.36-.08.52-.12zm-27.6 14.56a.97.97 0 01-.24.4c0 .04-.04 0-.04 0h-.12c-.16 0-.24-.04-.36-.16-.04-.04-.16-.12-.2-.12-.04 0-.12-.04-.16-.04-.12 0-.2.04-.32.12l-.04.04c-.16-.04-.2-.16-.24-.32 0-.2-.04-.36-.2-.52-.04-.04-.04-.12-.04-.16 0-.44-.04-.92-.12-1.36 0-.16 0-.32.04-.56l.04-.2c.12-.36.16-.76.24-1.12.12-.52.24-1.08.44-1.56.04-.16.16-.32.24-.44.2-.32.4-.6.56-.88-.32.68-.52 1.32-.68 1.92l-.04.2c-.16.6-.32 1.28-.44 1.88l-.04.2c0 .12-.04.24-.04.36-.04.24-.04.52 0 .76.04.16.16.32.24.36.16.12.32.2.44.32l.16.12c.2.16.4.2.6.24.04 0 .04 0 .04.04.04.04.04.12.12.16.2.12.2.16.16.32zm3.32-13.4l.52-.76c.4-.56.76-1.12 1.12-1.68.16-.24.32-.44.4-.72.16-.32.36-.56.52-.72.24-.32.52-.6.72-.92.16-.24.36-.44.6-.6-.16.44-.36.92-.6 1.44-.12.2-.2.4-.32.56l-.04.16c-.24.56-.52 1-.8 1.44-.2.32-.4.6-.56.92-.12.2-.2.36-.36.56-.04.12-.16.2-.2.32l-.16.2c-.04.04-.04.12-.12.16-.2.32-.44.6-.68.92-.2.24-.36.44-.56.72 0 .04-.04.04-.04.12l-.32.32-.76.76c-.16.16-.36.36-.56.6.52-.88 2.16-3.64 2.2-3.8z" fill="#E66C55"/><path d="M54.983 33.766c-.04-.24-.24-.36-.56-.36-.04 0-.12 0-.2.04h-.24c-.04 0-.2 0-.24.12-.12.16-.2.24-.36.36-.12.12-.12.36 0 .44.2.24.52.4.8.4h.04c.32 0 .56-.16.8-.36.16-.16.16-.36 0-.52 0 .04-.04-.04-.04-.12z" fill="#E66C55"/></g></svg>