<svg width="59" height="75" xmlns="http://www.w3.org/2000/svg" xmlns:xlink="http://www.w3.org/1999/xlink"><defs><path id="a" d="M.314.033H57.5V30.8H.314z"/><path id="c" d="M.196.305h3.14v3.438H.196z"/></defs><g fill="none" fill-rule="evenodd"><g transform="translate(.4 45.495)"><mask id="b" fill="#fff"><use xlink:href="#a"/></mask><path d="M56.087 25.838a43.794 43.794 0 001.41-11.48c-.007-.801-.039-1.612-.263-2.38-.193-.664-.524-1.278-.853-1.886l-4.714-8.724C51.321.73 50.961.072 50.395-.384c-.566-.456-1.398-.664-2.03-.306.187.9-.522 1.75-1.309 2.225-.787.474-1.703.742-2.397 1.343l-7.07-3.465c-.92-.451-1.851-.907-2.85-1.145-1.196-.285-2.442-.248-3.672-.206-7.392.247-14.782.572-22.168.976-.3.016-.611.035-.881.168-.319.157-.542.453-.753.738l-3.16 4.268C2.812 5.958 1.495 7.748.86 9.826.285 11.704.3 13.706.32 15.67l.094 8.904c.004.426.029.901.336 1.196.225.216.55.283.857.34 10.49 1.957 21.304 3.914 31.749 1.727 1.944-.407 3.859-.955 5.82-1.267 4.822-.766 9.74-.077 14.59.476.693.08 1.422.15 2.064-.12.642-.271 1.143-1.01.902-1.664" fill="#F7F3F2" mask="url(#b)"/></g><path d="M56.406 70.303c-1.849-.081-3.466-1.186-5.116-2.024-4.656-2.364-10.23-2.81-14.462-5.87-.917-.663-1.828-1.47-2.954-1.577-.507-.048-1.014.052-1.515.138a27.456 27.456 0 01-5.711.377l-1.306 4.221c-.057.186-.115.39-.043.57.076.19.272.3.46.382 1.323.576 2.825.476 4.264.584 1.44.109 3.014.541 3.771 1.77.177.784-.89 1.203-1.691 1.265a52.65 52.65 0 01-10.71-.258 4.55 4.55 0 00.137 1.91c-.956.199-1.857-.544-2.396-1.357-.54-.813-.909-1.767-1.65-2.401-.945-.809-2.277-.924-3.508-1.1-2.05-.293-4.103-.872-5.801-2.056a9.283 9.283 0 01-3.562-4.94c-.072-.245-.135-.5-.102-.753.038-.302.208-.568.373-.823l3.689-5.705c.387-.598.783-1.207 1.338-1.655.688-.556 1.563-.817 2.422-1.026 5.49-1.33 11.257-.974 16.812-1.997 1.044-.192 2.087-.435 3.055-.87a8.258 8.258 0 004.222-4.404c.478-1.193.717-2.566 1.67-3.428.937-.85 2.31-.965 3.574-.996 1.607-.04 3.325.022 4.642.942 1.375.961 2.031 2.699 2.119 4.374.068 1.321-.165 2.637-.398 3.94-.038.21-.082.434-.23.588-.237.246-.628.217-.969.243-.949.074-1.778.72-2.309 1.51-.53.791-.81 1.719-1.082 2.631l-1.063 3.557c.548-1.16 2.185-1.274 3.401-.87 1.217.404 2.363 1.156 3.645 1.145.674-.007 1.407-.216 1.985.132.288.174.485.462.673.74l2.429 3.604c.564.837 1.045 2.152.19 2.688-1.413-2.027-3.025-4.196-5.417-4.814-2.031-.525-4.324.177-6.2-.76-.165 1.602 1.085 2.999 2.4 3.928 3.442 2.428 7.971 3.337 10.744 6.508" fill="#FFF"/><path d="M50.234 49.35h-.014c-.15 0-.215.071-.295.22-.1.186-.194.374-.288.562l-.023.045c-.29.579-.48 1.21-.664 1.82l-.09.297c-.017.056-.024.118-.032.183a1.651 1.651 0 01-.012.1l-.022.148c-.016.107-.032.214-.052.32a11.66 11.66 0 00-.202 2.112c0 .073-.01.182-.054.285a.333.333 0 01-.337.21c-.107-.008-.229-.103-.216-.346.003-.054.009-.107.015-.16l.052-.459c.03-.277.061-.555.088-.833.077-.796.2-1.43.388-1.993a4.29 4.29 0 00.074-.252c.026-.095.052-.189.084-.282.211-.616.478-1.339.848-2.025.21-.386.5-.594.916-.655l.063-.01.035.054a.42.42 0 00.027.034c.03.038.068.084.075.146a.467.467 0 01-.112.361.34.34 0 01-.252.118" fill="#ED5F48"/><path d="M56.603 70.978a5.451 5.451 0 01-.252 1.196l-.024.07c-.04.118-.08.23-.138.331a3.242 3.242 0 01-.221-.823 1.045 1.045 0 00-.068-.271c-.124-.287-.134-.316-.007-.557.096.02.192.04.292.052.064.007.126.01.19.01.073 0 .146-.004.218-.007h.01zm-.116-5.232c.155-.473.284-.964.384-1.46.08-.392.16-.796.335-1.165-.043.385-.053.78-.063 1.162-.01.41-.022.832-.073 1.244-.039.31-.05.625-.062.93-.01.27-.021.55-.05.82a28.06 28.06 0 00-.037.369c-.005.05-.012.1-.016.15a.767.767 0 01-.185-.122l-.027-.021a.742.742 0 01-.166-.16 2.392 2.392 0 00-.325-.385c.026-.143.052-.287.076-.43.033-.192.066-.385.101-.576.016-.088.046-.175.078-.266l.03-.09zm-6.138-18.809c.13.015.241.08.331.195l.134.164c.12.145.235.283.325.436.064.11.13.22.196.33.244.408.496.829.688 1.272.171.396.363.78.578 1.204.556 1.095.977 2.03 1.23 3.036.082.324.17.586.28.828.09.2.17.406.252.61.05.128.1.255.153.38l.203.493c.184.45.375.916.58 1.367.152.332.322.662.486.981.108.211.216.422.32.635.23.468.44.888.706 1.293.022.033.036.079.054.131l.003.008c-.3.145-.48.379-.605.57-.218.337-.436.673-.647 1.013-.039.063-.06.22.02.286.063.053.187.142.302.115a.53.53 0 00.226-.121l-.267.48c-.166.299-.332.597-.494.897l-.068.123c-.095.173-.194.352-.265.541-.188.502-.361 1.01-.517 1.508-.046.149-.108.29-.174.427l-.035-.014a30.13 30.13 0 01-.444-.208c-.415-.197-.844-.4-1.29-.555a.603.603 0 01-.099-.048l-.041-.022-2.092-1.095-.583-.306c-.312-.165-.624-.329-.937-.491a3.077 3.077 0 00-.405-.182c-.478-.165-.92-.415-1.287-.639a28.127 28.127 0 00-.673-.393l-.146-.084c-.705-.408-1.284-.836-1.766-1.31-.035-.033-.071-.069-.116-.096-.562-.346-.848-.915-1.115-1.517-.066-.148-.124-.3-.18-.445l-.058-.146c.02-.017.035-.011.053-.002.048.021.097.04.146.06l.018.006h.02c.19-.002.39.005.594.02l.018.01v-.009c.194.015.394.036.598.067l.028.005c.478.139.952.207 1.372.255.36.041.729.065 1.085.087.416.026.847.053 1.266.11.668.09 1.323.132 1.938.123a.987.987 0 01.381.08l.048.018c.097.037.198.08.321.069.004.003.032.005.039.01.133.146.29.241.48.29.02.005.062.064.084.095l.034.047c.11.142.218.286.327.43l.323.424c.19.245.404.54.57.883.124.256.26.51.391.755.102.191.204.381.3.574a.713.713 0 00.676.414l.306-.007.196-.007.029-.04a6.7 6.7 0 01.12-.16c.093-.12.188-.242.258-.38.163-.32.303-.637.224-1.009a7.122 7.122 0 01-.08-.483 5.077 5.077 0 00-.143-.74 9.196 9.196 0 01-.046-.163c-.073-.266-.149-.54-.355-.768-.014-.016-.026-.043-.039-.071a.639.639 0 00-.03-.062l-.178-.318c-.14-.254-.286-.517-.442-.767l-.043-.07c-.149-.239-.302-.486-.513-.673a3.488 3.488 0 01-.464-.538c-.15-.2-.305-.407-.504-.579-.107-.213-.305-.315-.503-.392a8.666 8.666 0 00-.51-.176l-.144-.046a2.86 2.86 0 00-.15-.045c.068-.083.133-.162.167-.26.128-.368.246-.744.36-1.109l.127-.404.017-.047a.54.54 0 00.037-.135c.022-.185-.072-.268-.166-.284-.082-.012-.209.01-.278.083a.657.657 0 00-.137.265l-.037.116c-.127.401-.258.816-.444 1.2a1.02 1.02 0 00-.072.245c-.008.035-.014.069-.024.102l-.035.138-.165-.004c-.17-.003-.334-.006-.497-.017-.16-.011-.321-.01-.479-.01-.09 0-.178-.002-.266-.004.086-.138.174-.28.222-.439.113-.371.196-.752.256-1.043.164-.792.43-1.54.694-2.232a.791.791 0 01.035-.079c.018-.04.037-.08.05-.123l.025-.075c.099-.313.192-.609.404-.85a.228.228 0 00.036-.24.265.265 0 00-.23-.16l-.021-.001-.018.006c-.053.011-.12.025-.166.078l-.041.048c-.085.098-.174.2-.22.324-.216.569-.423 1.15-.622 1.714l-.064.178c-.16.448-.306.947-.449 1.524l-.043.18c-.082.344-.168.7-.332 1.02a.362.362 0 00-.04.123h-.001a1.002 1.002 0 00-.238-.013l-.081.001c-.806-.005-1.493-.136-2.1-.398-.252-.109-.51-.151-.774-.189-.28-.04-.55-.1-.871-.175a.915.915 0 01-.219-.099l-.028-.016c-.083-.045-.12-.103-.118-.187v-.189a2.316 2.316 0 01.027-.478c.045-.23.077-.466.109-.694.046-.327.093-.666.177-.99.013-.048.013-.096.014-.138 0-.027 0-.055.005-.082l.037-.212c.073-.432.143-.84.462-1.158a.706.706 0 00.14-.235l.042-.09.106-.214.026-.05.203-.021a1.41 1.41 0 00.57-.17c.06-.033.121-.062.183-.091.176-.082.357-.167.488-.347.217-.064.358-.19.495-.312a2.22 2.22 0 01.18-.152.906.906 0 00.287-.378c.231-.5.34-.905.352-1.31a.772.772 0 01.107-.39l1.096-.078a.578.578 0 00.07-.008.405.405 0 01.086-.007c.24.018.482.038.722.064zm-3.519-7.253c0-.01.001-.016.005-.023l.114.081c.129.09.262.183.371.294.176.178.333.385.486.586l.075.1a.952.952 0 01.088.139l.015.021c.169.19.297.384.38.576.1.142.164.26.211.392.247.68.481 1.283.716 1.842.076.181.11.334.107.495a1.66 1.66 0 01-.33.98c-.073.1-.13.212-.176.308-.065.134-.158.197-.319.207l-.012-.428c-.012-.333-.097-.61-.253-.824-.18-.246-.383-.526-.483-.855-.036-.118-.08-.235-.123-.35-.077-.209-.15-.406-.182-.61-.036-.224-.09-.443-.142-.655l-.055-.226a8.91 8.91 0 00-.104-.39c-.058-.21-.12-.426-.152-.64l-.02-.13c-.043-.295-.088-.6-.217-.89zm7.64 21.877l.007.042.035.027c.027.018.053.034.078.048.039.023.073.042.088.063.043.058.108.146.106.196a1.278 1.278 0 01-.357.866c-.044.045-.114.09-.25.04-.127-.05-.218-.152-.278-.314-.086-.228-.213-.43-.335-.626l-.11-.178-.04-.066c-.207-.345-.414-.69-.614-1.039a2.461 2.461 0 00-.423-.574.784.784 0 01-.183-.238.883.883 0 00-.635-.538.807.807 0 01-.47-.308c-.21-.292-.486-.298-.732-.28a2.99 2.99 0 01-.274.002l-.1-.002c-.038 0-.076-.002-.114-.004-.051-.002-.1-.007-.153-.004l-.151.003a2.17 2.17 0 01-.298-.004c-.304-.029-.606-.064-.908-.099l-.37-.042c-.18-.02-.36-.026-.536-.032-.242-.009-.492-.017-.733-.063a4.008 4.008 0 00-.437-.05l-.252-.024-.175-.019a2.918 2.918 0 01-.487-.075c-.172-.048-.344-.11-.511-.17-.154-.055-.308-.11-.464-.156a2.305 2.305 0 01-.55-.271l-.039-.023c-.166-.1-.242-.24-.247-.453-.006-.21.042-.427.147-.663.128-.291.27-.577.42-.88l.162-.33a.372.372 0 00.022.005.456.456 0 01.132.034c.335.193.703.254 1.06.312l.084.014c.37.062.666.138.932.24.666.255 1.347.36 2.021.312a.772.772 0 01.19.008c.44.076.925.101 1.519.076.464-.02.873.116 1.312.258l.2.063a.156.156 0 01.064.037c.06.067.128.123.194.178.125.105.243.204.294.356.028.085.101.146.174.202.396.298.676.592.882.923.068.11.14.217.212.324.087.13.174.26.254.394l.064.108c.166.277.337.563.468.857a1.6 1.6 0 01.1.427c.01.061.018.123.03.184-.13.317-.077.626-.026.926zm1.197 5.144c-.044-.025-.086-.052-.132-.076.078-.092.15-.19.206-.301l-.074.377zM43.164 67.94v.072l-.267.079c-.246.074-.5.15-.754.198a8.865 8.865 0 00-1.462.398c-.868.325-1.614.418-2.346.294a1.132 1.132 0 00-.234-.01l-1.975.06a1.904 1.904 0 00-.27.029c-.483.088-1.005.144-1.695.184-.03.006-.068-.008-.109-.017l-.005-.001-.017-.068-.056-.22a1.684 1.684 0 00-.775-1.024 9.97 9.97 0 01-.238-.146c-.298-.188-.605-.381-.982-.44a3.977 3.977 0 01-.351-.076c-.076-.019-.151-.038-.228-.054-.042-.01-.087-.013-.131-.017a.568.568 0 01-.148-.026c-.33-.125-.667-.154-1.042-.177-.07-.004-.141-.016-.212-.028a2.124 2.124 0 00-.256-.031c-.121-.005-.242-.019-.364-.033-.17-.019-.345-.042-.528-.036-.122.002-.243.017-.36.03-.262.032-.509.062-.749-.039-.058-.025-.118-.009-.162.003-.262.06-.506.039-.757.01l-.137-.016c-.243-.03-.495-.062-.751-.002-.328.074-.634.008-.893-.074a.348.348 0 01.038-.296c.242-.36.36-.765.475-1.158l.076-.256a.919.919 0 00.04-.38 1.05 1.05 0 01.036-.427l.087-.333c.058-.222.115-.443.176-.664.14-.515.221-.949.255-1.364.008-.096.03-.194.053-.298l.02-.089.145-.003c.166-.004.325-.007.482-.018a.94.94 0 01.452.086l.038.018a.63.63 0 00.292.077c.321-.033.651-.037.97-.041.145-.002.29-.004.435-.009.627-.019 1.193-.045 1.766-.17.267-.06.547-.094.816-.126l.248-.03a.316.316 0 00.177.036c.35-.047.707-.095 1.065-.158l1.351.23a.347.347 0 00.065.005.422.422 0 00.219-.069c.028.031.058.063.082.093.17.21.386.358.595.502.052.036.104.071.155.108.203.144.404.302.576.438.316.248.606.465.974.596.273.097.545.22.808.34.135.062.27.124.408.182.068.03.14.054.21.08.052.017.102.035.152.054l.172.068c.647.256 1.315.52 1.918.888.108.066.232.141.364.185.28.093.562.2.835.303.454.172.923.35 1.405.472.082.02.162.053.247.087l.521.207c.431.171.862.342 1.29.521.25.104.487.225.708.36.322.194.676.288 1.019.379l.135.036c.15.04.29.072.428.097.183.033.36.088.536.151l-.442.02-.066.003c-.184.008-.368.014-.552.02l-.074.007c-.107.012-.213.026-.32.04a4.499 4.499 0 01-.735.055c-.348-.014-.703.003-1.044.02l-.132.007a46.73 46.73 0 01-1.612.282l-.084.014zM32.502 45.148c-.23.44-.592.687-1.104.755a2.54 2.54 0 01-.821-.02 1.173 1.173 0 00-.558.006c-.498.15-1.008.39-1.606.753-.36.22-.654.321-.953.33l-.055.002c-.42.012-.854.024-1.284.102-.134.024-.268.04-.403.058-.271.035-.551.071-.824.162a3.116 3.116 0 01-.613.113l-.231.027c-.411.048-.836.098-1.253.117-.346.017-.701.009-1.044 0l-.41-.008c-.112-.001-.224-.005-.337-.008-.16-.004-.317-.01-.479-.008-.222 0-.444.007-.666.012l-.364.009c-.075 0-.15 0-.224.009-.765.085-1.432.204-2.039.361l-.519.14c-.2.054-.4.108-.6.16-.062.016-.126.027-.19.038a1.668 1.668 0 00-.322.078c-.244.094-.509.16-.81.2-.522.071-.988.291-1.44.504-.477.226-.929.404-1.382.546a4.32 4.32 0 01-.145.041c-.145.04-.295.08-.437.168a.22.22 0 01-.194.028l.024-.075c.036-.114.075-.232.095-.354.03-.176.045-.37.043-.574a7.32 7.32 0 00-.04-.826 5.756 5.756 0 00-.118-.612l-.034-.15a.359.359 0 00-.116-.203.31.31 0 00-.234-.04c-.086.016-.138.108-.154.154a.311.311 0 00.006.192c.142.401.154.835.164 1.253l.002.07c.008.293-.028.542-.111.762a.46.46 0 01-.059.094.496.496 0 00-.092.177.86.86 0 00-.006.263.49.49 0 00.004.053c-.025.014-.05.029-.078.041l-.234.11a7.302 7.302 0 00-.88.462c-.211.135-.44.223-.662.254a1.084 1.084 0 01-.317-.412c-.054-.124-.117-.243-.18-.363a6.65 6.65 0 01-.147-.292c-.096-.208-.246-.368-.392-.522-.071-.076-.143-.152-.207-.233-.064-.08-.247-.1-.328-.037-.08.063-.089.207-.069.29.02.08.073.144.12.2.21.252.388.533.575.901.091.18.174.366.255.552l.047.106c.021.047.037.096.054.149l.007.023-.12.098c-.124.104-.242.203-.368.287-.203.137-.408.3-.535.555a.45.45 0 01-.101.14c-.361.303-.723.604-1.09.9l-.063.05c-.148.118-.301.24-.423.4-.08.106-.166.209-.251.312-.235.282-.477.574-.625.933l-.018.026a.642.642 0 00-.022.032l-.167.271c-.141.227-.282.454-.415.685-.066.114-.11.237-.154.355l-.034.092a.334.334 0 00-.017.074.183.183 0 01-.006.032l-.153-.083a6.985 6.985 0 00-.503-.258 2.898 2.898 0 00-.589-.187c-.114-.022-.238.016-.345.057-.084.033-.145.146-.147.229-.002.066.035.134.113.208a.26.26 0 00.193.073c.279-.019.518.105.767.238.074.04.149.08.223.114.323.153.49.407.499.757.005.2.013.466.034.735.012.157.035.326.07.517.056.303.16.592.26.871.053.149.107.297.153.448.081.263.19.52.296.767a15.08 15.08 0 01.196.474c.037.086.074.175.065.238-.035.234.032.432.097.623l.03.089c.032.1.054.21.063.314.026.297.137.564.245.82.082.196.16.38.202.578.006.03.024.062.049.086.197.197.317.44.444.699.038.076.075.152.115.227a.544.544 0 00.264.233c.19.095.392.201.574.331.103.074.21.13.36.188.168.065.333.137.499.21.175.075.35.151.529.22.084.032.166.066.249.1.271.114.552.23.869.265.307.033.636.111.977.231.246.088.535.177.87.166.34-.011.686.042 1.02.092.151.023.303.046.455.063.204.024.404.081.614.142.096.027.19.054.286.078l.414.104c.36.09.72.18 1.08.274.082.023.163.067.249.114l.037.021c.033.018.064.04.096.062a.754.754 0 00.168.1c.134.054.232.149.336.258.052.054.112.094.17.134a.635.635 0 01.165.138 3.192 3.192 0 01-.88-.116l-.073-.02c-.121-.032-.247-.07-.376-.058-.361.023-.722-.036-1.072-.094l-.408-.065a16.424 16.424 0 00-1.273-.172 62.035 62.035 0 00-.815-.063.759.759 0 01-.362-.1.936.936 0 00-.644-.141c-.168.021-.322-.013-.503-.072a26.286 26.286 0 00-.99-.297c-.317-.09-.636-.175-.955-.26l-.247-.066a.476.476 0 00-.212-.028c-.173.03-.333-.023-.504-.079-.07-.022-.139-.045-.209-.062a.38.38 0 01-.126-.079.57.57 0 00-.192-.115.963.963 0 00-.31-.024l-.032.001-.066-.146c-.055-.121-.1-.22-.135-.323a3.853 3.853 0 00-.367-.726l-.1.027.086-.049c-.073-.23-.172-.458-.268-.68a15.846 15.846 0 00-.673-1.42c-.137-.265-.28-.539-.408-.814a4.34 4.34 0 00-.36-.596c-.064-.095-.13-.19-.19-.288a3.96 3.96 0 00-.578-.718 3.211 3.211 0 01-.593-.8c-.156-.296-.33-.597-.518-.894-.113-.18-.232-.356-.35-.532a19.109 19.109 0 01-.403-.615 6.781 6.781 0 01-.323-.615l-.066-.134c-.046-.095-.085-.507-.063-.58.135-.28.251-.518.378-.75a1.67 1.67 0 01.268-.34c.063-.068.125-.135.182-.207a2.96 2.96 0 00.245-.394c.05-.092.1-.184.158-.27.174-.266.37-.524.56-.773.228-.299.463-.608.666-.936.178-.285.376-.566.568-.837.143-.202.285-.404.422-.61.072-.11.14-.224.206-.339a3.91 3.91 0 01.364-.553c.061-.074.1-.16.138-.242.012-.027.024-.053.037-.078.067-.136.13-.274.193-.41.132-.286.267-.58.432-.847L5.786 49c.287-.469.583-.953.958-1.372l.145-.165c.281-.322.547-.626.92-.82a.449.449 0 00.1-.084l.02-.02c.205-.203.459-.287.78-.252.067.007.134.008.201.01.166.003.322.006.453.104a.23.23 0 00.156.035c.313-.045.617 0 .939.048.133.02.266.04.4.053.152.015.306.017.455.019.196.003.38.005.563.034.413.066.763.049 1.1-.054.017-.005.047-.002.068-.005h.033c.112-.003.224-.008.336-.013.254-.01.516-.023.771-.013.413.015.821-.03 1.215-.076.14-.016.28-.032.42-.046.204-.02.409-.05.607-.081.22-.035.447-.07.67-.087.47-.037.942-.07 1.413-.104.457-.032.914-.064 1.371-.1.222-.017.444-.042.665-.066.508-.055 1.034-.114 1.55-.08a.75.75 0 00.196-.024c.037-.008.075-.017.113-.02.164-.01.329-.024.493-.038.412-.035.838-.07 1.253-.063.384.01.768-.026 1.138-.059l.234-.02c.247-.021.496-.054.737-.086.427-.056.87-.114 1.304-.105.282.01.561-.025.832-.055.315-.036.638-.072.958-.046.074.006.14-.006.204-.017a.801.801 0 01.108-.015l.225-.016a8.37 8.37 0 01.907-.024c.252.01.514.02.774-.07a.314.314 0 01.125-.005c.189.024.367-.008.54-.039l-.017-.098.018.098.012-.002a.677.677 0 01.253-.014zm14.006-3.628l.015.024c.13.156.206.325.22.49l.003.033.023.024c.009.011.013.028.02.042l-.06.05a6.515 6.515 0 00-.26.22c-.11.1-.24.134-.44.11a2.045 2.045 0 00-.308-.02.248.248 0 00-.19.095.282.282 0 00-.04.24c.05.21.176.316.374.316.016 0 .033 0 .05-.002.294-.024.68-.097.957-.405.045.395.128.83.338 1.241.057.112.122.225.215.308.107.094.169.2.2.345.02.093.053.192.101.302.194.443.247.862.164 1.281-.058.288-.161.57-.261.844l-.072.2a.075.075 0 00-.021.006l-.207.006a.46.46 0 00-.051.005.177.177 0 01-.043.003l-.025-.008c-.078-.027-.158-.053-.217-.095-.03-.02-.065-.053-.071-.088-.006-.034.018-.075.039-.104.065-.089.136-.17.214-.241.216-.2.345-.462.383-.78.013-.109.017-.218.022-.327.004-.087.007-.173.015-.26l-.1-.01.1-.015-.004-.03a.437.437 0 00-.217-.27l-.039-.022-.024-.01a1.118 1.118 0 00-.258-.065l-.108-.01c-.088-.006-.18-.006-.263-.007-.074 0-.147.003-.22.005l-.043.001c-.112.028-.211.04-.316.052a4.338 4.338 0 00-.225.03c-.447.077-.573.375-.672.699l-.007.021.022.14c.016.11.033.217.041.318l.003.04.03.026c.034.03.07.06.11.088l.064.046c.134.096.272.196.465.214a.41.41 0 01.1.02c.16.061.22.14.217.285-.003.099.01.194.022.286.008.064.017.127.02.191.005.106-.012.14-.138.18a.424.424 0 01-.068.018c-.116.018-.232.04-.348.061-.351.065-.683.127-1.03.103-.07-.004-.135.007-.194.016a1.108 1.108 0 01-.07.01l-.05.006-.026.045-.025.039c-.022.034-.046.07-.055.116-.02.105-.033.238.04.338.072.098.198.124.287.134.129.016.277.034.415.01.394-.071.75-.138 1.099-.236.486-.135.881-.183 1.27-.156-.037.26-.139.426-.333.548-.315.198-.63.406-.936.616a.639.639 0 01-.346.12 1.304 1.304 0 01-.511-.058 28.66 28.66 0 00-1.227-.41c-.062-.018-.124-.04-.186-.06-.255-.085-.517-.174-.814-.138-.028.005-.064-.01-.102-.02a1.043 1.043 0 00-.073-.02l-.357-.08c-.268-.061-.544-.124-.82-.172a1.234 1.234 0 01-.693-.354c-.02-.02-.038-.043-.056-.066-.037-.046-.078-.098-.135-.135a.361.361 0 00-.277-.035c-.083.022-.164.13-.166.22-.005.208.023.504.316.682l.035.021c.215.131.438.266.724.273.08.002.162.024.25.048.035.01.071.02.107.028l.621.148c.508.122 1.034.249 1.555.356.21.043.373.095.521.166.01.235.001.25-.114.46l-.066.12a4.703 4.703 0 00-.121.22c-.142.278-.283.578-.321.921-.01.083-.017.167-.024.25-.012.14-.024.287-.048.425a16.537 16.537 0 00-.195 1.716c-.011.178-.04.34-.085.48-.082.252-.167.502-.252.753-.174.512-.354 1.04-.501 1.572a2.476 2.476 0 00-.094.718c-.056-.3-.152-.59-.248-.869a8.99 8.99 0 01-.18-.564l-.016-.062a1.89 1.89 0 00-.071-.236.66.66 0 00-.33-.366c-.063-.03-.19-.047-.266.012a.44.44 0 00-.135.22c-.022.068.006.137.027.186.047.114.093.221.139.329.093.216.189.44.268.664.07.196.117.407.163.611l.035.16c.08.346.155.694.228 1.042l.03.14c.067.316.134.63.191.948.024.135.08.325.285.415.14.061.225.17.309.316.104.181.208.357.336.515.196.246.434.453.725.635.175.11.351.214.528.32.166.097.33.194.493.295.337.21.718.448 1.134.63.204.087.402.205.594.318.1.06.2.118.3.174l.052.029c.11.061.223.124.344.17.223.086.436.212.669.4.247.199.532.35.808.497.293.156.58.297.868.438l.411.204c.06.03.12.062.175.1.603.41 1.29.637 1.956.856l.07.022c.342.113.683.256 1.013.393l.419.173c.021.009.042.022.063.034a.435.435 0 00.15.064c.234.04.419.168.636.33.182.136.368.27.554.402.208.148.416.297.62.451.264.2.482.462.692.715l.06.071c.021.027.04.068.046.107l.006.032c.038.224.077.455.1.683.028.253-.087.476-.203.662-.031.05-.072.095-.12.15l-.055.062c-.444.099-.856-.007-1.223-.313a7.56 7.56 0 01-.282-.25 7.062 7.062 0 00-.365-.317c-.479-.377-1.04-.81-1.655-1.175l-.164-.1c-.336-.202-.683-.411-1.073-.534-.217-.068-.432-.142-.648-.216-.51-.174-1.036-.354-1.58-.462a5.444 5.444 0 01-.689-.202c-.123-.042-.245-.084-.369-.12l-.073-.023a9.762 9.762 0 00-.677-.188c-.597-.136-1.09-.28-1.554-.535a2.535 2.535 0 00-.424-.17c-.064-.022-.127-.043-.189-.066l-.399-.151a43.34 43.34 0 00-.85-.317c-.444-.16-.891-.316-1.338-.471l-.637-.217c-.295-.004-.55-.123-.822-.248a4.612 4.612 0 00-.393-.167c-.25-.089-.502-.19-.746-.288a13.722 13.722 0 00-1.062-.393c-.407-.125-.768-.343-1.117-.554-.15-.09-.3-.181-.454-.266a7.511 7.511 0 01-.233-.135c-.096-.057-.19-.113-.289-.165a8.977 8.977 0 01-1.68-1.142 13.9 13.9 0 00-.755-.592 25.218 25.218 0 01-.367-.278l-.032-.025a.926.926 0 01-.148-.129c-.139-.164-.282-.325-.424-.486-.372-.418-.756-.851-1.06-1.331-.066-.104-.124-.212-.183-.32l-.066-.123a.395.395 0 00-.25-.204.41.41 0 00-.326.07.378.378 0 00-.167.267.365.365 0 00.097.293c.094.102.195.194.294.284.07.064.14.128.206.195l.036.035c.094.094.192.192.259.3.248.4.544.802.915 1.25l-.046.007a31.01 31.01 0 01-.663.126c-.099.01-.201.026-.311.05a3.154 3.154 0 01-.704.059c-.268 0-.546.02-.826.061-.08.011-.158.025-.237.038-.302.051-.586.1-.88.05a.555.555 0 00-.184.01l-.562.096c-.369.063-.737.127-1.107.184a2.24 2.24 0 01-.49.015c-.142-.008-.283-.027-.424-.045-.07-.01-.14-.019-.21-.026l-.21-.023c-.128-.013-.257-.026-.385-.044-.11-.016-.132-.03-.145-.164-.034-.36-.17-.688-.296-.967a1.114 1.114 0 00-.038-.075.332.332 0 01-.048-.115c.01-.352-.158-.614-.347-.873a19.611 19.611 0 00-.16-.213 5.485 5.485 0 01-.402-.583c-.132-.232-.327-.378-.516-.52a2.852 2.852 0 01-.279-.23l-.025-.024-.034-.004c-.194-.02-.326-.15-.466-.29l-.075-.073c-.155-.148-.333-.156-.47-.147a.33.33 0 00-.268.152.322.322 0 00-.024.288c.065.156.156.303.264.426.148.17.316.318.474.455.136.117.274.23.412.343.106.086.213.172.317.26a1.7 1.7 0 01.545.792l.02.063c.029.093.059.19.112.28.172.286.248.6.327.934.025.1.048.2.075.298.065.243.068.485.008.76l-.054.241a6.96 6.96 0 00-.121.605l-.031.22c-.09.659-.184 1.34-.474 1.956a.476.476 0 00-.028.083c-.13.485-.324.98-.595 1.528l-.013.028.043.291c.028.184.053.348.071.513.032.282.146.39.42.4l.134.004c.314.01.61.017.898.113.317.105.662.159 1.084.167.31.006.642.018.974.063.236.032.46.009.667-.022l.316-.046c.319-.048.638-.095.957-.135.08-.011.166-.005.255.002l.114.006c.296.012.574.094.867.181.15.045.3.09.452.124.623.141 1.212.41 1.75.8a.515.515 0 01.126.117c.078.117.146.237.203.356a.512.512 0 01.034.12c-.61.17-1.17.31-1.761.328-.147.004-.292.032-.432.058-.13.026-.251.048-.375.055-.647.035-1.31.057-1.972.067a45.13 45.13 0 01-1.223-.01l-.516-.01a28.242 28.242 0 01-.874-.021 3.228 3.228 0 01-.255-.025c-.111-.013-.227-.028-.343-.028h-.003c-.444.002-.888.01-1.332.016l-.861.012a7.624 7.624 0 01-.384-.016l-.037-.002c-.43-.027-.851-.148-1.259-.266l-.144-.041c-.016-.005-.038-.022-.066-.042a.201.201 0 00-.01-.007l.034-.219c.03-.208.06-.405.104-.603.078-.356.072-.735-.017-1.192-.04-.2-.088-.398-.137-.596-.05-.202-.1-.404-.139-.608a.809.809 0 00-.169-.394c-.06-.07-.117-.14-.175-.21-.189-.227-.383-.463-.63-.651l-.192-.15c-.283-.226-.577-.46-.95-.579a1.664 1.664 0 01-.352-.18c-.04-.025-.08-.05-.119-.072-.134-.078-.266-.16-.398-.24a10.143 10.143 0 00-.83-.473c-.286-.14-.592-.244-.889-.345a25.702 25.702 0 01-.281-.097 5.913 5.913 0 00-.329-.104c-.123-.037-.246-.073-.366-.119a1.849 1.849 0 00-.98-.11.868.868 0 01-.38-.022c-.075-.02-.152-.034-.229-.05l-.15-.03-.17-.038a4.768 4.768 0 01-.45-.111c-.294-.094-.58-.207-.796-.295-.082-.034-.196-.08-.236-.142-.16-.241-.376-.412-.584-.578a5.512 5.512 0 01-.233-.191l-.027-.024h-.036l-.048-.005a.33.33 0 00-.124.004c-.14.037-.232-.014-.364-.13a2.19 2.19 0 00-.396-.265l-.155-.09a1.34 1.34 0 00-.124-.067c-.071-.035-.138-.068-.18-.114a3.73 3.73 0 00-.352-.33 4.68 4.68 0 01-.244-.218c-.072-.07-.12-.173-.172-.282a3.267 3.267 0 00-.064-.13.21.21 0 01-.012-.043c-.01-.043-.023-.1-.07-.14a.5.5 0 00-.28-.129h-.005c-.09 0-.15.086-.202.16l-.016.024a.296.296 0 00-.046.154c-.004.046-.006.066-.024.078l-.048-.042a4.315 4.315 0 00-.257-.21c-.07-.05-.179-.097-.27-.077-.073.017-.116.075-.155.127-.013.018-.026.036-.042.052l-.06.068.06.067.075.078c.041.042.077.078.106.12.178.259.423.448.747.58.156.063.308.155.436.237.185.119.365.256.538.39.276.21.562.429.887.588.005.002.02.02.03.03.276.3.617.494.948.682l.127.072c.598.344 1.257.548 1.822.703.134.037.27.064.406.091.156.03.317.063.468.11.38.117.758.265 1.08.394.127.05.264.1.424.1l.064-.002c.16 0 .324.042.536.138.207.095.428.158.642.219l.142.04c.115.034.23.063.347.093.133.034.266.067.396.108.084.025.174.071.275.14.1.068.196.14.293.212a6 6 0 00.521.359l.167.097c.21.122.427.248.633.384.274.182.463.44.612.833.016.041.03.082.043.124.018.053.035.107.056.16.168.417.24.813.22 1.21-.02.407-.053.747-.141 1.081-.08.304-.129.632-.153 1.031-.007.115.001.229.008.339.013.198.026.386-.043.566-.032.086-.002.182.022.258.025.08.04.144.055.207.035.147.07.3.158.443a.563.563 0 01.054.204l.006.039a.273.273 0 01-.208-.007c-.08-.03-.161-.057-.242-.084-.226-.075-.44-.145-.617-.299-.08-.07-.172-.123-.26-.174-.098-.057-.191-.11-.261-.18-.317-.32-.6-.664-.813-.927a1.95 1.95 0 01-.255-.463.854.854 0 00-.217-.31 4.13 4.13 0 01-.296-.298c-.175-.196-.35-.393-.523-.591l-.499-.564a.502.502 0 00-.203-.16c-.197-.065-.362-.183-.536-.309l-.136-.095a1.685 1.685 0 00-.62-.274l-1.303-.268c-.096-.02-.172-.034-.246-.054l-.234-.066c-.154-.045-.313-.092-.475-.123l-.153-.029c-.439-.085-.894-.17-1.36-.152a2.657 2.657 0 01-.614-.062 4.633 4.633 0 01-.436-.117 7.936 7.936 0 00-.54-.146 5.046 5.046 0 01-.656-.193 27.78 27.78 0 00-.44-.17c-.492-.188-1.002-.382-1.456-.674-.443-.286-.749-.588-.962-.952a.994.994 0 01-.16-.515c0-.678-.262-1.27-.492-1.709a1.343 1.343 0 01-.148-.656l.003-.096c.003-.083.007-.168-.001-.255-.044-.467-.183-.933-.44-1.465-.063-.133-.13-.265-.196-.398-.074-.15-.15-.298-.22-.45a1.02 1.02 0 01-.082-.258 8.874 8.874 0 01-.058-.416l-.016-.127.3-.293-.051-.07-.091-.127c-.068-.096-.132-.187-.208-.272-.055-.06-.074-.118-.061-.189l.018-.12c.016-.115.031-.224.074-.314.17-.36.345-.708.61-.996.316-.343.63-.635.96-.894a8.971 8.971 0 001.534-1.53c.418-.534.958-1.002 1.65-1.428l.153-.096c.093-.059.186-.118.282-.172l.203-.119c.199-.117.404-.237.614-.329.228-.1.472-.179.707-.256.1-.033.199-.065.298-.1l.223-.075c.145-.047.289-.095.43-.15.391-.15.78-.319 1.156-.483.331-.144.673-.293 1.014-.428.273-.108.634-.239 1.004-.29.182-.025.365-.04.548-.054.312-.025.635-.05.95-.13.067-.017.145-.026.233-.027.17-.003.34-.003.509-.004.245-.001.49-.003.735-.008.154-.004.308-.016.461-.028.09-.007.18-.015.27-.02l.113-.007c.142-.01.29-.02.435-.015.386.01.799-.024 1.3-.106.216-.035.427-.06.629-.076.3-.023.61-.046.912-.167.086-.035.184-.048.289-.062.052-.008.104-.015.155-.025l.189-.039c.134-.029.261-.056.39-.07l.193-.024c.285-.034.578-.073.861-.059.226.008.453.002.672-.004l.105-.003c.132-.004.285-.008.436-.026.182-.02.364-.033.546-.046.314-.02.638-.043.955-.108.211-.044.417-.08.61-.068.283.022.534-.05.779-.119.308-.087.58-.225.841-.359.093-.047.186-.095.28-.14.333-.16.614-.276.962-.221.267.042.553-.002.801-.048.262-.048.52-.125.77-.2l.15-.044c.12-.035.266-.078.382-.164a4.08 4.08 0 00.494-.437c.278-.284.555-.57.83-.856.262-.27.523-.54.786-.808l.024-.027a.249.249 0 01.044-.043l.014.08c.019.114.038.233.065.35.047.206.089.454.05.726a6.005 6.005 0 00-.033.329 2.63 2.63 0 01-.09.589.844.844 0 00-.023.29c.01.276-.055.525-.201.76-.084.136-.18.343-.06.585a.43.43 0 01.02.098.56.56 0 00.03.147l.042.104c.084.218.178.466.44.606a.44.44 0 01.089.074c.031.03.064.06.1.085l.025.018c.071.05.152.107.246.116.074.007.148.017.222.028.197.027.402.057.614.023.144-.022.303-.025.487-.01.41.035.89.049 1.357-.11.06-.02.118-.045.176-.069.087-.037.17-.07.255-.09.38-.083.596-.336.641-.752l.016-.174c.009-.115.018-.224.038-.33a1.61 1.61 0 00-.066-.815 2.095 2.095 0 01-.08-.43 2.98 2.98 0 00-.038-.268 2.673 2.673 0 00-.135-.43 3.305 3.305 0 01-.105-.306.69.69 0 01-.015-.148 2.69 2.69 0 00-.085-.521c-.048-.208-.093-.403-.077-.607a.345.345 0 00-.044-.173 1.19 1.19 0 01-.11-.458.493.493 0 00-.54-.473c-.281.016-.483.25-.47.544.004.081.014.162.023.243.009.075.018.15.021.226.012.231.04.48.159.735.108.23.184.484.258.73l.082.27c.041.127.059.26.078.4.03.214.06.433.173.638v.016c.017.295.075.57.15.9a.48.48 0 01-.2.537c-.294.216-.6.324-.937.33a9.095 9.095 0 01-.456-.01 4.778 4.778 0 00-.84.02c-.162.023-.35-.044-.533-.112a.461.461 0 01-.287-.34 1.85 1.85 0 01.047-1.036 2.31 2.31 0 01.085-.233c.094-.213.14-.444.148-.75.004-.17.001-.34-.002-.51-.006-.364-.012-.74.058-1.102a.3.3 0 00-.004-.11c-.002-.013-.004-.025-.004-.038.002-.471.004-.942.008-1.414 0-.013.005-.031.01-.05a.415.415 0 00.014-.061c.053-.347.262-.62.46-.843l.063-.075c.103-.12.2-.235.343-.299.357-.16.645-.442.856-.838l.018-.034a.817.817 0 01.103-.167c.12-.137.241-.272.363-.407.194-.216.388-.431.575-.653.134-.16.297-.261.518-.372a1.73 1.73 0 01.541-.153c.448-.063.831-.272 1.202-.474l.052-.028c.296-.161.57-.31.892-.31h.052a.915.915 0 00.207-.02 2.874 2.874 0 011.309.01c.074.018.148.02.22.022.03 0 .062.001.092.004.048.003.11-.002.134.01l.288.126c.316.139.645.282.953.446.198.105.4.232.536.454l.08.139c.066.117.134.24.227.34.163.179.26.39.362.613.034.075.068.15.104.222.02.041.035.084.051.126-.025-.007-.051-.015-.077-.02a.832.832 0 00-.346.018c-.014-.006-.025-.016-.04-.017a.28.28 0 00-.23.101.228.228 0 00-.025.243c.08.157.293.111.435.105.136-.006.326.008.42-.112l.004.009.105.24zM.725 59.863c-.026-.242-.052-.483-.068-.725a7.01 7.01 0 00-.062-.536c-.014-.103-.029-.206-.04-.31l.138.197c.161.23.324.46.482.695l.046.068c.2.298.39.58.462.923.015.072.069.123.112.164a.385.385 0 01.04.041c.403.47.646.862.789 1.272.095.272.222.516.39.744l.032.044c.08.105.147.196.15.317a.382.382 0 00.067.186c.01.016.018.032.026.048l.14.282c.087.174.174.347.258.522.03.065.058.131.087.198.039.093.078.186.125.276l.048.092c.09.174.184.353.31.51.224.28.406.585.554.932a.603.603 0 00.028.056c.022.04.03.059.027.077l-.033.01c-.058.02-.121.041-.186.056a6.534 6.534 0 00-1.552.566 1.576 1.576 0 01-.356.113l-.07.017a.599.599 0 00-.36.242l-.03.042.048.135a.367.367 0 00.02.052.328.328 0 00-.068.228c.016.136.134.225.23.297l.052.04.056-.032c.477-.266.979-.44 1.54-.623.234-.077.482-.134.72-.19.105-.024.21-.048.314-.074a.502.502 0 01.105-.015.21.21 0 01.206.136c.021.054.023.098.005.134l-.027.055.037.05a.233.233 0 01.03.233c-.229.452-.754 1.036-1.37 1.247l-.03.017c-.06.05-.122.099-.185.144-.257.183-.517.36-.777.539-.176.121-.353.242-.528.364a3.41 3.41 0 00-.382.3c-.067.062-.124.187-.099.28.034.129.16.21.305.2a.762.762 0 00.102-.015c.041-.007.087-.016.11-.009.3.11.454-.057.575-.223.08-.11.196-.206.309-.299l.077-.064a8.36 8.36 0 01.263-.21c.114-.09.23-.179.338-.275.27-.238.539-.479.806-.72.212-.19.424-.38.636-.567.02-.019.055-.034.092-.05.112.13.128.286.144.45.049.495.088 1.027.046 1.57l-.002.03c-.011.144-.02.268-.089.38a.435.435 0 00-.005.483l.022.039.044.009a.53.53 0 01.074.018.883.883 0 00.224.037h.002c.092 0 .22-.055.265-.141l.019-.036c.123-.234.25-.477.248-.776l-.002-.23c-.001-.535-.002-1.087-.126-1.626a1.06 1.06 0 01.015-.52.987.987 0 01.617.01c.213.072.386.1.539.1.334.002.655.08.942.156.705.186 1.409.377 2.112.568.18.048.397.093.632.062a1.3 1.3 0 01.232-.007c.444.008.885.074 1.311.137l.35.05c.432.062.878.126 1.32.164.238.02.517.048.793.103.053.01.107.023.16.034.26.057.527.116.815.048.038-.009.09 0 .147.01l.074.011a.623.623 0 01.466.27c.075.103.153.203.23.303.17.223.348.453.5.693.053.085.117.162.178.237.075.092.147.18.198.275.147.28.367.461.583.614.138.098.281.19.425.28.214.135.435.274.633.44.282.234.653.358 1.103.368h.022a.88.88 0 00.644-.261.745.745 0 00.199-.58 1.42 1.42 0 00-.149-.573 9.922 9.922 0 01-.37-.808c-.068-.16-.093-.266-.037-.371h.003c.014-.005.039-.014.041-.01.178.026.355.062.531.1.182.037.37.077.56.104.06.009.12.02.179.03.165.027.339.057.512.055.348-.006.695-.015 1.043-.024l.677-.016.196-.006a4.18 4.18 0 01.525 0c.674.05 1.35.102 2.018.11.141.003.283.01.425.016.199.01.406.02.61.015.236-.005.476-.024.707-.041.15-.012.301-.024.451-.032.082-.005.166 0 .248.003.13.006.258.006.388.012.175.007.357.015.534-.02.26-.049.527-.08.786-.109.472-.053.96-.108 1.424-.279.026-.009.06-.013.094-.018l.058-.008c.492-.087.997-.137 1.486-.186.337-.034.685-.069 1.026-.115.147-.02.302-.024.45-.028l.342-.01c.362-.014.724-.028 1.086-.034.344-.005.628-.002.894.013.408.022.84.035 1.269-.07a1.23 1.23 0 01.43-.02.948.948 0 00.506-.078c.207-.088.427-.149.595-.192.157-.04.316-.071.476-.103l.234-.046.509-.108 1.005-.209.156-.031c.376-.077.764-.156 1.147-.218l.246-.042c.289-.052.583-.108.884-.098.814.016 1.61.031 2.408.032.323.004.633-.029.941-.056l.052-.005c.155-.014.308-.033.462-.053.211-.026.43-.054.643-.066.026-.001.053 0 .08-.002.109.026.219.053.329.077.346.077.745.175 1.113.365.283.146.563.272.832.372.1.037.19.088.286.142.053.03.106.06.16.087.483.242.877.617 1.259.981l.152.144c.065.06.132.11.201.156.01.137.041.272.097.402.065.153.106.314.149.485l.042.162.011.04c.015.05.035.12.024.152-.067.201.002.353.087.486.069.109.129.232.18.367.081.218.09.405.025.539a.428.428 0 01-.274.215c-.063.02-.124.046-.185.071a1.742 1.742 0 01-.173.067 5.582 5.582 0 01-1.328.232c-.26.017-.521.049-.774.08-.1.012-.2.028-.298.044a6.877 6.877 0 01-.337.048c-.076.008-.153.01-.23.012-.109.003-.222.006-.334.027-.469.085-.953.096-1.421.106-.208.005-.416.01-.623.02-.438.023-.887.014-1.32.005-.246-.005-.494-.011-.738-.01-.14.001-.279.019-.413.035-.05.007-.101.013-.151.018-.109.012-.216.027-.324.041-.29.04-.566.076-.854.058-.367-.023-.761-.028-1.145.087-.1.03-.22.021-.347.013a2.963 2.963 0 00-.131-.009 1.045 1.045 0 01-.136-.016 1.055 1.055 0 00-.18-.02 14.07 14.07 0 00-.584.049l-.308.03c-.03.002-.06.006-.091.01-.08.01-.155.02-.215.004a1.714 1.714 0 00-.468-.038c-.078 0-.156.002-.235-.003l-.184-.013a15.86 15.86 0 01-1.218-.117 6.849 6.849 0 00-1.127-.095c-.356.005-.71 0-1.066-.003l-.432-.005-.052.002c-.034 0-.068.002-.089-.005-.203-.066-.401-.05-.592-.035a4.777 4.777 0 01-.168.01c-.035.002-.07.006-.105.011-.048.007-.094.013-.132.007-.504-.078-1.015-.07-1.51-.062l-.393.005c-.539.005-1.097.01-1.644.106-.11.02-.222.025-.34.033a2.538 2.538 0 00-.475.059c-.14.034-.292.033-.453.03l-.164-.001c-.173.002-.345.015-.517.027-.39.029-.758.056-1.131-.03a.602.602 0 00-.161-.009l-.532.011c-.35.007-.699.014-1.048.015h-.008c-.208 0-.426-.016-.664-.047a4.323 4.323 0 00-1.006-.02l-.2.02c-.46.049-.935.1-1.4.014a1.168 1.168 0 00-.306-.003 25.302 25.302 0 00-.404.022c-.17.009-.34.018-.51.022l-.152.004a2.94 2.94 0 01-.558-.014 6.425 6.425 0 00-1.437-.058c-.347.023-.697-.028-1.035-.076a20.352 20.352 0 00-.266-.037l-.157-.021a6.783 6.783 0 00-.575-.062 9.646 9.646 0 00-.663-.002c-.409.007-.832.017-1.237-.082a.226.226 0 00-.069-.004c-.564.028-1.123-.028-1.69.084-.035.007-.115.023-.16.007-.153-.054-.301-.045-.445-.039a2.392 2.392 0 01-.141.006l-.414.001c-.333.002-.668.004-1.002-.005-.251-.008-.501-.025-.752-.042a28.479 28.479 0 00-.488-.03 2.589 2.589 0 00-.355.014c-.102.009-.204.02-.306.031a11.9 11.9 0 01-.375.038c-.155.013-.309.004-.472-.005-.269-.014-.549-.03-.828.058-.024.007-.075-.003-.115-.01a2.334 2.334 0 00-.609-.014l-.106.006c-.31.019-.713.019-1.097-.132-.196-.076-.406-.125-.59-.168-.174-.04-.368-.084-.586-.057a1.551 1.551 0 01-.52-.04 11.325 11.325 0 01-.66-.184 23.016 23.016 0 00-.323-.095l-.087-.026c-.098-.03-.2-.061-.307-.07l-.215-.02c-.326-.029-.654-.062-.996-.054-.479.009-.93-.08-1.373-.275-.11-.048-.22-.098-.33-.149-.329-.15-.67-.307-1.033-.404-.08-.022-.157-.067-.232-.11l-.056-.034a1.978 1.978 0 01-.02-.1c-.021-.103-.04-.2-.09-.286a.304.304 0 01-.034-.251c.056-.206.036-.407.018-.6-.012-.125-.024-.243-.016-.36l.002-.032-.017-.028c-.088-.139-.085-.297-.082-.465.001-.065.002-.13-.001-.195-.01-.169 0-.303.034-.436a1.49 1.49 0 00.03-.39A1.69 1.69 0 011 68.816c.064-.373.101-.755.138-1.124.018-.178.035-.356.056-.534.015-.133.035-.23.064-.314a1.13 1.13 0 00.005-.788c-.092-.231-.115-.467-.14-.717-.01-.105-.02-.21-.036-.315a7.45 7.45 0 01-.061-.927 6.007 6.007 0 01.007-.38 4.288 4.288 0 00-.002-.565c-.033-.361-.085-.724-.135-1.076-.024-.167-.048-.334-.07-.502l-.006-.04c-.011-.084-.022-.164-.018-.24.026-.484-.026-.965-.076-1.43zm-.653-1.457c.072.444.113.9.153 1.34.02.22.04.438.064.658.007.07.017.14.027.209.034.24.066.465.002.69a.312.312 0 00.004.153c.142.772.209 1.58.215 2.562.006.78.072 1.41.21 1.982.027.111.032.243.016.393-.049.448-.108.92-.177 1.401a2.2 2.2 0 01-.053.242c-.028.112-.058.228-.065.35l-.004.075a1.235 1.235 0 01-.073.433.66.66 0 00-.01.404c.047.18.044.365.042.56-.003.162-.005.33.024.497.02.117.04.244.05.372.002.036.007.073.012.11.012.103.024.2 0 .277-.074.227-.055.436-.004.678.03.15.052.323-.026.483-.082.168-.042.323.118.46.086.071.206.16.374.202.137.035.287.094.457.18.189.095.385.166.62.221.253.06.499.194.737.322l.053.029c.128.069.248.109.39.13.135.018.267.052.407.088.084.021.167.043.252.061a6.233 6.233 0 00.708.109c.136.013.264.025.39.054.286.066.57.132.865.138.053.001.11.017.17.033.034.01.053.018.071.027.034.015.072.033.117.04.203.031.407.083.604.133.28.07.57.143.871.166a22.53 22.53 0 002.836.024c.216-.015.438-.016.653-.017a14.495 14.495 0 00.823-.023c.201-.011.406-.025.604-.021.3 0 .568.014.818.043.272.032.544.021.807.012.15-.006.3-.011.449-.01.15.002.3.01.45.017.121.005.242.011.363.014.124.003.248.003.372.003h.317l.158.002c.17.001.347.002.515.021.435.05.773.058 1.093.029a6.99 6.99 0 01.41-.024c.232-.01.472-.02.712-.064.176-.033.382.006.596.052.25.055.503.069.748.082.124.008.25.014.373.027.079.007.157.017.234.027.093.011.185.023.278.031.16.014.281.018.397.017l.316-.01c.384-.016.782-.03 1.166.032.204.033.406.022.6.01.104-.006.208-.011.313-.012.147.002.294.01.44.016.125.007.249.013.373.016.197.004.392.004.59.004l.534.002 1.066.004h.15c.252.001.503.002.755-.002.228-.004.456-.01.685-.016.416-.012.832-.022 1.248-.023h.002c.172 0 .35.02.521.04.109.011.217.023.325.031.12.008.24.004.36-.01.4-.05.77-.07 1.142-.06.716.02 1.44.04 2.154.012.437-.018.879-.069 1.305-.118.194-.022.389-.044.583-.064l.087-.01c.084-.01.161-.021.241-.016l.465.014c.565.018 1.15.036 1.723.07.322.02.643.05.964.08.342.032.696.065 1.046.084.438.023.884.032 1.315.04.25.004.499.01.748.016l.295.009c.366.01.744.02 1.112.054.08.007.16.01.24.01.25 0 .495-.032.734-.064.122-.016.244-.032.367-.044.076-.008.153-.018.229-.028a5.3 5.3 0 01.279-.033c.542-.042 1.084-.08 1.627-.118a15.083 15.083 0 011.094-.04c.374-.005.76-.011 1.14-.044.308-.026.622-.027.926-.028.104 0 .207-.002.31-.003.083 0 .165-.014.244-.026a1.06 1.06 0 01.292-.019c.19.029.382.04.567.05.273.015.53.03.784.095.168.043.367.07.574-.053a.468.468 0 01.413-.026c.109.038.243.05.38.033.052-.006.104-.017.155-.028.125-.026.233-.049.341-.002.056.025.117.007.157-.007.166-.062.342-.11.511-.156.366-.098.743-.2 1.07-.45.063-.048.145-.08.232-.114a2.61 2.61 0 00.136-.056c.313-.144.47-.367.478-.681a.964.964 0 01.032-.187c.01-.045.02-.09.028-.136l.023-.146c.024-.15.05-.304.058-.46.008-.151.01-.303.011-.455.002-.215.004-.438.028-.653.037-.357.048-.718.059-1.068l.015-.438c.007-.147.01-.294.013-.442.002-.124.005-.248.01-.37.005-.142.007-.284.01-.427.006-.35.013-.712.059-1.06.047-.358.064-.727.054-1.128l-.001-.053c-.002-.086-.004-.173-.019-.261-.047-.27-.084-.555.024-.833a.284.284 0 00.011-.2c-.07-.174-.053-.358-.034-.553.015-.16.031-.324-.001-.492a.278.278 0 01.007-.1c.005-.029.01-.058.012-.087.005-.071.01-.143.017-.215.015-.17.03-.347.025-.522-.015-.58.017-1.165.095-1.739.078-.575.015-1.088-.193-1.569-.041-.093-.072-.192-.103-.29-.03-.091-.059-.183-.095-.272a2.711 2.711 0 00-.408-.687 2.705 2.705 0 01-.222-.343 5.02 5.02 0 00-.114-.19l-.053-.084a6.791 6.791 0 00-.256-.389 1.902 1.902 0 01-.286-.536 1.668 1.668 0 00-.211-.402c-.304-.465-.531-.966-.713-1.395-.066-.154-.129-.31-.192-.465-.23-.57-.468-1.159-.838-1.68-.176-.248-.271-.47-.299-.698a.487.487 0 00-.066-.205c-.204-.318-.313-.663-.434-1.081-.03-.1-.075-.194-.119-.283l-.042-.087c-.013-.028-.03-.054-.048-.082a.256.256 0 01-.041-.076c-.026-.218-.119-.402-.209-.58-.032-.066-.065-.13-.094-.197-.083-.189-.188-.369-.288-.543a9.517 9.517 0 01-.757-1.65c-.137-.382-.333-.81-.745-1.092-.16-.11-.373-.231-.632-.19-.29.046-.57-.004-.867-.056a5.085 5.085 0 00-.52-.073l.001-.007c.054-.088.112-.19.17-.294.133-.24.272-.49.436-.71.484-.644.326-1.316.166-1.765a4.65 4.65 0 00-.235-.52c-.05-.102-.101-.202-.147-.305a8.468 8.468 0 01-.086-.198 4.236 4.236 0 00-.26-.54 2.999 2.999 0 01-.052-.092c-.043-.078-.087-.158-.15-.235a3.447 3.447 0 01-.234-.34 8.383 8.383 0 00-.146-.22 7.244 7.244 0 00-.244-.325l-.275-.352a26.719 26.719 0 01-.395-.516 1.169 1.169 0 00-.41-.376.78.78 0 01-.136-.098c-.03-.024-.06-.048-.09-.07l-.101-.074c-.094-.07-.19-.143-.299-.198l-.086-.044a1.193 1.193 0 01-.287-.176l-.03-.027h-.048c-.28 0-.51-.14-.754-.287-.147-.088-.297-.18-.463-.242l-.03-.01a1.176 1.176 0 00-.195-.052c-.054-.009-.093-.033-.115-.072l-.015-.025-.027-.013c-.352-.144-.706-.17-1.008-.178-.15-.004-.298-.013-.448-.02l-.263-.015a.399.399 0 00-.132.006c-.28.075-.565.08-.867.087-.23.004-.468.008-.703.047l-.237.039c-.51.08-1.037.164-1.538.362-.165.066-.342.102-.528.14a6.508 6.508 0 00-.245.054c-.015.003-.032.004-.049.006-.046.004-.104.008-.153.044a5.033 5.033 0 01-.332.213c-.317.192-.644.391-.842.76-.033.06-.079.118-.127.18-.03.04-.062.078-.09.12l-.03.042c-.043.06-.092.127-.113.206-.104.379-.356.653-.817.887-.694.354-1.13.899-1.292 1.62-.093.414-.246.677-.51.883a4.386 4.386 0 00-.434.404c-.111.113-.226.23-.347.332-.131.11-.28.196-.439.287-.054.032-.109.063-.162.096l-.046.002-.364.024c-.39.028-.779.055-1.169.078-.164.01-.329.01-.493.012h-.145c-.144.002-.287 0-.43-.001-.353-.003-.717-.007-1.079.03-.11.01-.22.024-.331.038-.262.033-.53.067-.8.056a1.252 1.252 0 00-.283.03 2.229 2.229 0 01-.114.02l-.146.023a2.494 2.494 0 01-.31.038 7.945 7.945 0 00-1.08.108 5.457 5.457 0 01-.826.06c-.092.003-.183.005-.274.009-.146.005-.29.005-.437.005a9.35 9.35 0 00-.335.002 2.11 2.11 0 00-.36.034 3.998 3.998 0 01-.874.078 5.466 5.466 0 00-.461.028c-.105.01-.21.022-.315.026a9.842 9.842 0 00-1.248.14 4.491 4.491 0 01-.597.044 6.705 6.705 0 00-.247.01l-.446.023c-.509.026-1.018.053-1.528.074a11.72 11.72 0 00-1.22.137c-.258.038-.524.076-.786.103a.404.404 0 00-.064.013.205.205 0 01-.036.007c-.352-.062-.698-.027-1.034.005a7.798 7.798 0 01-.4.034l-.048.002a33.95 33.95 0 00-1.618.112c-.092.01-.184.024-.276.04-.163.025-.312.053-.476.045-.014 0-.033 0-.05.002-.087-.01-.152-.025-.217-.04a1.506 1.506 0 00-.461-.063l-.073.006c-.182.015-.353.03-.521-.024a.915.915 0 00-.237-.04 28.592 28.592 0 00-.37-.01c-.19-.003-.38-.006-.571-.017a3.89 3.89 0 01-.537-.071c-.391-.077-.812-.126-1.237.034-.043.016-.103.018-.176.023a.593.593 0 00-.44.227c-.087.102-.18.206-.284.29-.266.212-.477.474-.68.727-.082.103-.164.205-.25.305-.27.312-.477.667-.677 1.011-.065.111-.129.221-.196.331a8.622 8.622 0 00-.422.805c-.195.415-.418.852-.725 1.235a1.929 1.929 0 00-.25.377c-.22.467-.522.894-.814 1.308l-.116.165-.306.44c-.15.217-.3.434-.453.648a9.346 9.346 0 01-.224.3 9.38 9.38 0 00-.475.671c-.078.12-.157.239-.24.355-.109.155-.21.282-.312.388-.333.35-.553.773-.767 1.18l-.012.023c-.323.618-.277 1.26-.18 1.861zM25.717 35l.128-.067c.095-.051.185-.1.277-.121.337-.078.688-.142 1.045-.19.134-.019.281-.003.424.012l.065.007a.193.193 0 01.061.027c-.005.006-.01.012-.014.02-.047.064-.088.12-.134.163-.213.198-.428.391-.644.586l-.34.307c-.056.05-.108.103-.158.16l-.086.097c-.104.119-.209.238-.306.362a1.76 1.76 0 00-.214.345.33.33 0 00-.007.283.353.353 0 00.239.182c.07.018.139.023.229.03.414.034.827.067 1.242.099l.146.012c.132.012.267.025.403.025l.06-.001c.158-.004.31-.043.482-.085.07-.017.13-.06.162-.117a.208.208 0 00.019-.166c-.024-.083-.106-.144-.17-.171-.052-.023-.108-.04-.163-.057a1.088 1.088 0 01-.152-.052.963.963 0 00-.595-.094c-.28.048-.557-.038-.872-.146a.928.928 0 01.082-.092l.295-.28c.4-.38.8-.759 1.205-1.132.183-.168.413-.44.303-.865l-.011-.045-.042-.02a.66.66 0 01-.04-.022c-.04-.024-.09-.054-.148-.057l-.123-.01c-.176-.013-.357-.027-.537-.008-.287.029-.575.067-.861.104-.253.033-.505.067-.758.093a2.413 2.413 0 00-.551.148l-.087.031c-.264.093-.41.261-.445.515l-.006.044.027.033c.103.127.286.25.57.112" fill="#E66C55"/><g transform="translate(20.4 31.095)"><mask id="d" fill="#fff"><use xlink:href="#c"/></mask><path d="M.212 1.206l.025.022c.226.2.492.155.721.084l.198-.063a6.26 6.26 0 01.493-.143 2.81 2.81 0 01.603-.06c-.064.248-.09.276-.226.413-.02.02-.042.039-.064.058a.567.567 0 00-.16.187c-.108.242-.285.427-.472.624l-.116.121a2.256 2.256 0 00-.333.474c-.155.291-.112.47-.049.57.063.098.203.213.534.195.147-.01.3 0 .447.01.076.004.152.009.228.011l1.137.034.1-.485-.046-.039c-.33-.277-.68-.243-.917-.193-.201.044-.405.025-.619.006l-.13-.012c.006-.118.071-.19.15-.274l.02-.024c.13-.142.251-.29.374-.438a7.03 7.03 0 01.7-.77c.104-.092.185-.187.242-.282A3.09 3.09 0 003.306.72c.057-.154.023-.25-.016-.304-.038-.053-.12-.111-.275-.11l-.06.001c-.209.007-.425.013-.637.045l-.2.03c-.47.073-.958.148-1.44.11a.324.324 0 00-.342.196.865.865 0 01-.038.074c-.056.103-.127.232-.093.41l.007.034z" fill="#E66C55" mask="url(#d)"/></g><path d="M30.93 38.536a.8.8 0 00.208-.046l.062-.02c.238-.068.48-.063.76-.06h.034c-.228.5-.493.943-.81 1.458l-.018.028.005.07a.769.769 0 00.011.098c.07.36.154.429.543.406.191-.009.389-.018.58-.009.217.01.433.025.65.04a28.482 28.482 0 00.787.044c.222 0 .412-.12.55-.347a.216.216 0 00.006-.216.23.23 0 00-.19-.122 1.37 1.37 0 00-.158.002l-.197.008c-.097.005-.192.01-.289.006-.159-.005-.317-.013-.476-.02l-.293-.015a6.39 6.39 0 00-.176-.004c-.111-.002-.222-.004-.331-.016-.032-.003-.072-.025-.114-.048a.157.157 0 01.01-.03c.077-.093.156-.185.235-.279.115-.136.231-.272.342-.412a3.37 3.37 0 00.348-.506c.129-.245.108-.504-.061-.75a.344.344 0 00-.358-.153c-.082.013-.164.029-.246.044-.1.019-.2.038-.301.053-.122.018-.245.033-.368.048-.132.016-.264.032-.396.052-.273.04-.458.155-.568.35-.03.055-.05.163.002.229.046.057.13.118.217.117m12.062 4.918c-.143.232-.357.499-.75.505-.043 0-.085.002-.128.004l-.047.001a.615.615 0 01-.148.018c-.25 0-.426-.161-.585-.307l-.051-.048c-.058-.052-.064-.157-.033-.22.03-.064.125-.11.19-.099.048.007.096.02.144.032a.6.6 0 00.189.03c.102-.01.204-.039.311-.067.073-.02.145-.04.218-.054.156-.031.287-.112.393-.186a.26.26 0 01.234-.018c.047.02.152.087.108.279a.412.412 0 01-.045.13" fill="#E66C55"/><path d="M9.851 50.227l-.088.043-.076-.144a.581.581 0 01-.05-.106c-.157-.47-.32-.958-.611-1.371a.562.562 0 01-.068-.14c-.125-.359-.29-.617-.519-.811-.099-.085-.141-.197-.116-.31.027-.12.126-.213.266-.25a.303.303 0 01.334.116c.07.095.126.2.182.307l.135.27c.08.163.161.33.256.483.245.39.455.839.646 1.373.115.324.028.383-.29.54" fill="#ED5F48"/><path d="M42.101 42.058c-.07.051-.158.072-.24.1a.486.486 0 00-.192.135.555.555 0 01-.249.166.27.27 0 01-.268-.076.216.216 0 01-.012-.283c.054-.071.131-.131.202-.187.145-.114.311-.2.494-.198.003 0 .004-.003.007-.003.016 0 .035.005.052.006.017.002.033 0 .05.003.002 0 .002.003.004.004.075.01.15.029.202.075a.142.142 0 01.045.14c-.013.052-.053.088-.095.118" fill="#E66C55"/></g></svg>