<svg width="263" height="223" xmlns="http://www.w3.org/2000/svg"><g fill="#E66C55" fill-rule="nonzero"><path d="M154.588 150.637a14.193 14.193 0 0 0 6.982-1.867 4.1 4.1 0 0 0 2.095-1.867.865.865 0 0 0-.465-1.166 3.924 3.924 0 0 0-3.259.233 23.726 23.726 0 0 1-6.75 2.567c-.465.233-1.163.233-1.163.933 0 .7.465.933 1.396.933.35.212.761.295 1.164.234zM165.993 157.87a4.925 4.925 0 0 0-4.423-.933 62.27 62.27 0 0 0-6.284 1.633 1.051 1.051 0 0 0-.465 1.867l1.396.7h1.862a58.069 58.069 0 0 0 6.052-1.634c1.117-.466 1.117-.466 1.862-1.633zM105.014 150.637c.465 0 .93-.234 1.396-.234a.489.489 0 0 0 .233-.933 1.767 1.767 0 0 0-.931-.467c-1.63-.7-3.026-1.4-4.655-2.1l-3.491-2.1a.814.814 0 0 1-.465-.233 3.204 3.204 0 0 0-2.095 0c-.466.467-.233 1.167.465 1.867.266.288.581.525.931.7a22.668 22.668 0 0 0 6.75 3.266c.465-.07 1.164.234 1.862.234zM233.954 46.57c-.699-.467-1.164-.933-1.63-1.167a2.696 2.696 0 0 0-2.327-.933c-1.164 0-2.56.233-3.724.233-.233 0-.465.234-.698.467 0 .7.465.933.93 1.167.466.233 1.397.7 1.397 1.4s.699.933 1.164.933h2.793c1.164-.467 1.396-1.167 2.095-2.1zM87.325 119.137c-.038 1.016.04 2.034.233 3.033.127.731.362 1.439.698 2.1.25.553.791.916 1.397.933a.86.86 0 0 0 1.117-.536 8.467 8.467 0 0 0 0-5.367c-.233-.233-.698-.7-.931-.7-1.117-.163-1.815-.163-2.514.537zM179.724 90.903c-.465 0-.698-.233-.93-.233a1.58 1.58 0 0 0-1.394.18c-.41.275-.67.726-.701 1.22a5.379 5.379 0 0 0 .465 3.267 2.325 2.325 0 0 0 2.793 1.166c.698-.233.466-.7.466-1.166-.233-1.634-.466-3.034-.699-4.434z"/><path d="M1.21 164.17c.233-.467.698-.7.931-1.167a14.976 14.976 0 0 1 2.328-3.033c.232-.233.465-.7.698-.933a18.862 18.862 0 0 1 4.888-5.6 3.22 3.22 0 0 0 .698-.934 8.818 8.818 0 0 1 2.094-2.8c.931-.933 2.095-1.866 3.026-2.8.466-.466.931-1.166 1.397-1.633l2.792-6.3c.466-.933.931-2.1 1.397-3.033 3.026-5.6 5.586-11.2 8.146-16.8 1.396-3.267 3.026-6.3 4.19-9.567a34.663 34.663 0 0 1 6.283-10.033 9.915 9.915 0 0 1 4.655-3.267 20.48 20.48 0 0 0 5.586-2.567 9.296 9.296 0 0 1 4.19-1.633 4.298 4.298 0 0 0 1.629-.467 34.846 34.846 0 0 1 10.939-3.266 35.59 35.59 0 0 1 8.611-.467c1.526-.029 3.038.29 4.422.933a17.092 17.092 0 0 0 9.077 1.634 37.61 37.61 0 0 1 5.12-.234c4.655.234 9.31-.7 13.732-.466h.931c2.328-.467 4.888-.7 7.215-1.167a25.308 25.308 0 0 1 6.052-.7 69.077 69.077 0 0 0 16.757-2.333 8.85 8.85 0 0 0 2.328-.7 20.156 20.156 0 0 1 6.517-1.167c.88.092 1.768-.07 2.56-.467 3.258-1.166 6.284-2.333 9.542-3.5a9.61 9.61 0 0 0 2.56-1.633 6.026 6.026 0 0 1 2.56-1.633 7.278 7.278 0 0 0 2.328-1.167c.931-.467 1.862-.933 3.026-1.4.465-.233 1.163-.467 1.396-.933a7.144 7.144 0 0 1 3.491-2.334 12.402 12.402 0 0 0 4.655-3.033 11.646 11.646 0 0 1 1.862-1.633 19.274 19.274 0 0 0 3.491-2.567 28.478 28.478 0 0 0 4.655-5.833c1.63-2.334 2.56-5.134 3.957-7.467.698-1.167 1.163-2.333 1.862-3.5a6.118 6.118 0 0 0 1.163-2.1 11.677 11.677 0 0 1 2.328-4.433c0-.234 0-.467-.233-.467-.93-1.4-.93-1.633.466-2.8a12.207 12.207 0 0 0 2.56-2.333 9.303 9.303 0 0 1 4.19-2.334 10.67 10.67 0 0 0 3.723-1.633c.524-.276 1.069-.51 1.63-.7a15.348 15.348 0 0 1 5.585-.7h8.565c1.397 1.167 1.397 1.167 6.982 2.8.233 0 .233-.233.466-.233.93-.467 1.164-.467 1.63 0 .52.493.99 1.04 1.396 1.633a5.302 5.302 0 0 0 2.792 1.4l2.56.7c.233 2.567 1.63 4.667 1.397 7V43a2.33 2.33 0 0 0 2.095 1.867c1.629.233 3.025 1.166 4.655 1.4.431.008.845.174 1.163.466.967.49 1.981.88 3.026 1.167 1.862.7 4.19.7 5.353 2.567.233.233.466.466.698.466 1.397.467 1.397 1.634 1.397 2.8 0 1.167-.698 1.867-1.63 2.8a12.698 12.698 0 0 0-3.723 6.067 29.583 29.583 0 0 1-3.026 7.467 5.889 5.889 0 0 1-4.655 3.266 55.95 55.95 0 0 1-13.964.234c-2.328-.234-3.026.233-3.724 2.566a29.446 29.446 0 0 0-.931 6.3 132.698 132.698 0 0 1-1.164 13.534 69.14 69.14 0 0 0-1.396 11.9v.7c-.2 1.346-.511 2.672-.931 3.966a82.219 82.219 0 0 0-3.026 10.034 26.754 26.754 0 0 1-3.491 8.4 33.08 33.08 0 0 0-3.259 5.366c-1.862 1.867-3.49 3.967-5.353 5.834a29.013 29.013 0 0 0-4.655 4.666c-.69.72-1.313 1.5-1.862 2.334a12.587 12.587 0 0 0-1.629 3.033 27.504 27.504 0 0 0-2.56 4.433c-.698 1.167-1.396 2.1-2.095 3.267a34.678 34.678 0 0 1-5.353 6.533 15.558 15.558 0 0 0-3.49 7.7 26.968 26.968 0 0 1-.7 6.067 52.064 52.064 0 0 1-1.163 8.4 17.52 17.52 0 0 0-.465 4.9 31.694 31.694 0 0 0-.466 4.667c-.193.92-.27 1.86-.233 2.8 0 1.633.233 3.266.233 5.133 0 1.4.233 2.567 1.63 3.033.265.289.58.526.93.7.699.7 1.397 1.634 2.095 2.334a.865.865 0 0 1 .233.7c0 .933.233 2.1.233 3.033-.233 1.4-.699 2.8-2.793 3.033-.233 0-.466.234-.699.234-.93.233-1.396.233-2.094-.934.465-.7.698-1.4 1.163-2.1a1.099 1.099 0 0 0-.232-1.4 4.66 4.66 0 0 0-1.862-1.866 5.682 5.682 0 0 1-2.56-2.1 6.991 6.991 0 0 0-1.862-1.867 5.045 5.045 0 0 1-2.328-5.133c0-.467.233-1.167.233-1.634.423-1.598.502-3.268.233-4.9a33.964 33.964 0 0 1-.466-8.4c.194-1.39.271-2.796.233-4.2.002-2.196.236-4.386.698-6.533a9.341 9.341 0 0 1 2.793-5.367l.698-.7a11.668 11.668 0 0 0 3.026-4.433c0-.129.104-.233.233-.233 1.396-1.4 2.56-3.034 3.956-4.434a41.48 41.48 0 0 0 6.517-8.866 13.236 13.236 0 0 1 1.862-3.034c.698-.933 1.164-1.866 1.862-2.8a9.143 9.143 0 0 1 1.862-2.333l2.095-2.1c.465-.467.93-1.167 1.396-1.633a30.477 30.477 0 0 0 5.586-5.367 7.746 7.746 0 0 0 2.327-3.267 4.667 4.667 0 0 1 1.862-2.8 9.755 9.755 0 0 0 1.862-2.8 68.15 68.15 0 0 0 3.259-8.866c.698-2.567 1.396-5.367 2.094-7.934.233-.933.466-2.1.699-3.033.465-2.567.465-5.367.93-7.933a54.918 54.918 0 0 0 1.164-8.634c.233-3.033.699-6.066.931-9.333a27.9 27.9 0 0 1 1.164-6.067c.233-.7.465-1.4.698-2.333a3.46 3.46 0 0 0-1.396-.233 22.52 22.52 0 0 0-3.957-.234 14.248 14.248 0 0 1-8.611-3.5c-.699-.466-.931-.933-.699-1.4a2.138 2.138 0 0 1 2.095-.7c.177.025.34.107.466.234.232.233.698.466.93.7a7.296 7.296 0 0 0 4.888 1.633c1.478-.039 2.957.04 4.422.233 3.491.467 7.215.234 10.706.7h.699a61.986 61.986 0 0 1 9.31 0 2.79 2.79 0 0 0 3.025-1.4c.698-1.166 1.397-2.566 2.095-3.966a37.69 37.69 0 0 1 3.491-8.4c.19-.441.27-.922.233-1.4 0-1.4-.233-2.8-.233-4.2a1.564 1.564 0 0 0-.931-1.634 4.298 4.298 0 0 0-1.63-.466 8.852 8.852 0 0 1-3.49-1.167 18.588 18.588 0 0 0-6.052-2.1 2.585 2.585 0 0 1-2.094-1.633c-.233-.467-.233-.934-.466-1.4-.465-1.167-.698-2.334-1.164-3.5a5.428 5.428 0 0 0-3.49-3.267 57.816 57.816 0 0 1-6.75-2.567l-2.095-.7-2.56-.7a7.802 7.802 0 0 0-5.12-.466h-1.164a13.631 13.631 0 0 0-5.353.933c-.507.262-1.061.42-1.63.467-1.582.25-3.14.64-4.654 1.166a6.986 6.986 0 0 0-3.724 3.034 1.403 1.403 0 0 0-.233.933 7.621 7.621 0 0 1-.931 3.267 7.01 7.01 0 0 0-.931 2.333 7.31 7.31 0 0 1-1.164 2.333 9.64 9.64 0 0 0-1.629 2.567c-1.164 2.333-1.396 3.033 1.397 4.9a63.534 63.534 0 0 1 10.008 7.7c.465.467.698.7 1.396.467a3.879 3.879 0 0 0 1.164-3.034 41.404 41.404 0 0 0-.233-5.366c0-1.167-.233-2.567-.233-3.734.039-1.559-.039-3.119-.233-4.666V44.4a3.39 3.39 0 0 1 .466-1.633 1.534 1.534 0 0 1 2.56.233c.233.467.466.7.466 1.167.193 1.234.27 2.484.232 3.733 0 1.633.233 3.5.233 5.133.386 3.45.069 6.943-.93 10.267a2.611 2.611 0 0 1-1.63 1.867 5.249 5.249 0 0 1-4.888-.467l-4.655-3.967a4.863 4.863 0 0 0-1.396-.933 14.127 14.127 0 0 1-2.327-1.633 15.414 15.414 0 0 0-4.423-2.1c-.93 1.4-1.862 2.566-2.56 3.733a10.284 10.284 0 0 1-3.49 4.2c-.466.233-.7.933-1.165 1.167a15.07 15.07 0 0 1-2.094 1.866 11.316 11.316 0 0 0-3.259 2.567 13.64 13.64 0 0 1-5.586 3.967c-.63.25-1.188.65-1.629 1.166a24.494 24.494 0 0 1-6.75 3.967 5.818 5.818 0 0 0-2.792 1.867c-.276.43-.684.758-1.164.933a15.806 15.806 0 0 1-5.353 2.333c-1.164.234-2.118.7-3.282.934-2 .821-4.125 1.294-6.284 1.4-1.844.03-3.663.427-5.353 1.166-1.373.467-3.002.934-4.422 1.4l-7.68 1.4c-2.541.389-5.112.545-7.681.467a28.976 28.976 0 0 0-6.284.7 51.335 51.335 0 0 1-13.267 1.4c-1.163 0-2.327.233-3.258.233-1.396 0-2.56.234-3.957.234-2.792 0-5.353 0-7.913.233a12.167 12.167 0 0 1-5.818-.7c-.699-.233-1.164-.467-1.862-.7a20.132 20.132 0 0 0-10.474-1.4 29.821 29.821 0 0 0-10.008 2.333 13.732 13.732 0 0 1-4.655 1.634c-1.32.219-2.585.695-3.724 1.4a24.037 24.037 0 0 1-6.05 2.8 5.657 5.657 0 0 0-3.469 2.566 12.587 12.587 0 0 0-1.629 3.034c-.465.7-.465 1.633-1.63 1.866-.232 0-.465.467-.697.7-.466 1.167-1.164 2.1-1.63 3.267-.465 1.167-1.163 2.333-1.629 3.5-1.396 2.8-3.025 5.6-4.19 8.633l-1.396 3.5c-1.163 2.567-2.327 5.367-3.7 7.934-1.862 3.733-3.98 7.466-5.819 11.2a9.346 9.346 0 0 0-.698 1.633 11.669 11.669 0 0 1-1.862 2.8c-1.396 1.633-2.793 3.267-3.957 4.9-.232.233-.232.467-.465.7-.489 1.167-.954 2.1-2.328 2.1a.907.907 0 0 0-.488.233 13.2 13.2 0 0 0-2.793 3.5c-.21.467-.21.934.232 1.167.398.178.865.085 1.164-.233l.698-.7.931-.934a9.128 9.128 0 0 0 2.328-1.866 15.071 15.071 0 0 1 2.095-1.867c.96-.84 1.97-1.618 3.025-2.333A75.891 75.891 0 0 1 26.3 148.7a16.3 16.3 0 0 0 3.724-3.033l7.68-9.1v-.234c.931-1.4 1.862-3.033 2.793-4.433a15.487 15.487 0 0 0 2.095-4.433 18.324 18.324 0 0 1 1.164-3.267c.232-.7.698-.933 1.396-1.167.698-.233 1.63 0 1.63.934a5.146 5.146 0 0 1-.233 1.866 18.338 18.338 0 0 0-.466 5.134v6.766c.19 3.771-.202 7.55-1.164 11.2a8.367 8.367 0 0 1-.93 2.567c-.466 1.4-1.397 2.567-1.862 3.733a46.206 46.206 0 0 1-5.354 9.334 3.22 3.22 0 0 0-.698.933c-1.629 2.1-3.49 3.967-5.12 6.067-.466.466-.931 1.166-1.397 1.633a18.788 18.788 0 0 0-3.49 3.733 7.714 7.714 0 0 1-1.374 1.4c-1.862.934-3.026 2.8-4.655 3.734-.43.28-.764.688-.954 1.166a9.35 9.35 0 0 0-1.373 4.2c0 .7-.233 1.167-.233 1.867a14.035 14.035 0 0 0-.233 5.367c0 .7.233 1.166.233 1.866.005 1.429.24 2.847.698 4.2.625 1.878.785 3.88.466 5.834-.31 2.186-.151 4.413.465 6.533.18.418.415.81.698 1.167.894.415 1.83.728 2.793.933 1.478.039 2.957-.04 4.423-.233a4.137 4.137 0 0 0 2.327-.934c.698-.466.698-.933.465-1.633-.232-.7-1.163-1.633-1.629-2.333a9.457 9.457 0 0 1-1.163-2.1c-.233-.934-.466-1.867-.699-2.567a26.358 26.358 0 0 1-.698-4.2v-3.033a3.433 3.433 0 0 1 1.397-3.034c.495-.264.9-.67 1.163-1.166a10.01 10.01 0 0 1 5.586-4.2 2.329 2.329 0 0 0 1.397-1.167 5.497 5.497 0 0 1 3.258-2.8c.465 0 .698-.467 1.164-.7.93-.467 2.094-1.167 3.025-1.633a32.938 32.938 0 0 1 4.19-1.867 39.248 39.248 0 0 0 8.844-4.433l5.586-3.5c1.629-.934 3.025-2.1 4.655-3.034a18.232 18.232 0 0 0 4.655-3.733c.698-.933 1.629-1.633 2.327-2.567.698-.933 2.095-2.1 3.026-3.266a9.019 9.019 0 0 0 2.56-6.3l1.396-1.4a5.86 5.86 0 0 0 .931-1.634c1.164-2.333 2.328-4.666 3.259-7l.698-1.4a2.558 2.558 0 0 1 2.327-1.166c1.397 0 1.63.7.931 1.866-.232.234-.232.467-.465.7-.931 2.1-1.862 4.434-3.026 6.534-.233.233 0 .7-.233 1.166h.931l4.19-.7c1.531-.31 3.1-.388 4.655-.233 2.327.467 4.654.7 6.982 1.167a9.943 9.943 0 0 1 3.724 1.166 13.31 13.31 0 0 0 3.258.934c1.49.119 2.968.353 4.422.7 3.259.933 6.517 2.1 9.776 3.266a8.198 8.198 0 0 0 3.258.7c1.875-.006 3.72.477 5.353 1.4a9.943 9.943 0 0 0 3.724 1.167c1.396.233 2.793.7 4.422.933.67.266 1.376.424 2.095.467 2.763.125 5.5.595 8.146 1.4 1.862.467 3.724.7 5.353 1.167a8.638 8.638 0 0 0 4.19-.467 19.947 19.947 0 0 1 7.447-1.167h1.862c.233-.466.465-.7.465-.933.233-.7.233-1.633.466-2.333a4.671 4.671 0 0 1 .93-1.867 1.44 1.44 0 0 1 1.63-.467c.233.234.698.7.698.934.232.437.232.962 0 1.4-.232 3.733-.232 7.466-.465 11.2-.3 4.769-.844 9.52-1.63 14.233a30.222 30.222 0 0 0-.232 11.2v.933a54.17 54.17 0 0 0 1.396 10.5c.209.815.522 1.6.931 2.334a2.469 2.469 0 0 0 1.63 1.4c.465.233 1.163.233 1.629.7a2.532 2.532 0 0 0 2.56.466 9.591 9.591 0 0 1 5.12.934.513.513 0 0 1 .466.466v.467l-.233.233a6.431 6.431 0 0 1-2.095-.233 5.458 5.458 0 0 1-1.862-.467c-.232.234-.465.234-.698.467a2.324 2.324 0 0 1-2.327.7c-.466-.233-1.164-.233-1.63-.7-.93-.467-2.094-1.167-3.025-1.633a6.273 6.273 0 0 1-3.491-4.2 60.081 60.081 0 0 1-1.63-9.334 23.039 23.039 0 0 0-.465-3.966c0-.7-.465-1.634-.465-2.334a38.01 38.01 0 0 1 .698-8.866 102.661 102.661 0 0 0 1.629-16.8 6.479 6.479 0 0 0-.233-2.1c-.233 0-.233-.234-.465-.234a17.692 17.692 0 0 0-6.983.467 10.52 10.52 0 0 1-3.723.7 38.778 38.778 0 0 1-8.845-1.4 16.487 16.487 0 0 0-6.75-1.167 8.337 8.337 0 0 1-2.56-.466 36.04 36.04 0 0 0-4.887-.934 13.196 13.196 0 0 1-5.12-1.633 6.55 6.55 0 0 0-3.492-.933 7.384 7.384 0 0 1-3.258-.467 35.082 35.082 0 0 0-6.982-2.333c-.466-.234-.931-.234-1.164-.467a16.374 16.374 0 0 0-5.819-1.4 11.61 11.61 0 0 1-2.792-.467 41.065 41.065 0 0 0-7.216-1.866l-3.956-.7a7.73 7.73 0 0 0-2.328 0 59.4 59.4 0 0 1-6.284 1.166c-3.258.234-3.258.234-4.887 3.034a29.826 29.826 0 0 1-3.259 4.9c-1.862 2.1-3.956 4.2-5.818 6.3a9.73 9.73 0 0 1-3.491 2.566 12.535 12.535 0 0 0-3.026 1.634 59.148 59.148 0 0 1-6.517 3.733c-3.957 1.867-7.68 3.967-11.637 5.6a22.668 22.668 0 0 0-6.75 3.267h-.256a9.42 9.42 0 0 0-2.094 1.166 6.22 6.22 0 0 1-.699 2.8 8.396 8.396 0 0 0-.465 2.567 50.658 50.658 0 0 0-.931 5.833 5.707 5.707 0 0 0 0 2.8 40.274 40.274 0 0 0 1.63 4.9c.174.481.5.89.93 1.167a6.005 6.005 0 0 1 1.63 4.2 1.75 1.75 0 0 1-1.164 1.633c-.699.234-1.63.234-2.328.467a4.137 4.137 0 0 0-2.327.933 17.447 17.447 0 0 1-6.983 2.1c-.232 0-.698.234-.93.234a3.09 3.09 0 0 0-1.862.7 1.465 1.465 0 0 1-2.095.233 9.42 9.42 0 0 1-2.095-1.167c-2.095.934-2.327.934-4.19-.7-.232-2.1-.697-4.433-.93-6.533a8.865 8.865 0 0 1 0-3.5c.16-1.714.082-3.441-.233-5.133a45.683 45.683 0 0 1-.465-5.367c.236-3.604.702-7.19 1.396-10.733a17.522 17.522 0 0 1 1.862-4.2 1.537 1.537 0 0 1 1.164-.934 37.903 37.903 0 0 0 3.956-2.566 7.251 7.251 0 0 0 3.026-3.5 12.83 12.83 0 0 1 1.63-2.1 17.306 17.306 0 0 0 3.723-4.667c1.63-2.8 3.491-5.6 5.12-8.4a113.077 113.077 0 0 0 4.888-10.967c.169-.365.248-.764.233-1.166.233-1.167.465-2.1.698-3.267.386-1.919.542-3.877.466-5.833 0-.467 0-.934-.466-1.167-.465-.233-.233 0-.465.233-1.862 2.1-3.724 4.2-5.354 6.3a24.227 24.227 0 0 1-7.215 6.534 26.008 26.008 0 0 0-5.585 4.433l-4.19 3.5a53.37 53.37 0 0 1-5.353 4.9 7.746 7.746 0 0 1-2.327 1.4c-.458.088-.87.336-1.164.7a3.628 3.628 0 0 1-3.026 1.633c-.58.133-1.132.37-1.629.7a3.16 3.16 0 0 1-3.491-.7c-1.35.537-1.35-.163-.652-.863zm185.264 45.267a.817.817 0 0 0 .233-.467.814.814 0 0 1-.466-.233l-.233.233c.187.233.187.467.466.467zm-.466-37.1c-1.396 1.166-2.56 2.1-2.792 3.733-.466 3.033-.931 5.833-1.164 8.867a39.766 39.766 0 0 0-.233 5.366 22.574 22.574 0 0 0 0 3.967v.7c.658 2.595.738 5.304.233 7.933-.233.7.233 1.4.233 2.334 0 .233.465.466.698.7a4.677 4.677 0 0 0 .465-3.5 20.117 20.117 0 0 0-.232-3.734 5.028 5.028 0 0 1 .465-2.566 9.027 9.027 0 0 0 .698-4.9c-.038-1.482.04-2.964.233-4.434.466-2.333.698-4.666.931-7 .04-1.41.195-2.815.465-4.2a4 4 0 0 0 0-3.266zm-148.024 39.2a8.43 8.43 0 0 0-1.862-3.5c-.931-.934-.931-1.4-1.862-2.334a7.153 7.153 0 0 1-1.397-4.9l.931-5.6 2.095-5.833c-.233.233-.233.467-.465.7a9.924 9.924 0 0 1-2.793 2.567c-.699.233-1.164.933-1.63 1.4-.698.933-1.396 2.1-2.094 3.033a1.775 1.775 0 0 0-.466.933 10.526 10.526 0 0 0-.233 5.367 16.217 16.217 0 0 0 2.793 7.233c.259.426.418.905.466 1.4v.467c.233 0 .465.233.698.233a12.982 12.982 0 0 0 5.819-1.166z"/><path d="M134.991 122.637h-.233c0-.234 0-.234.233 0z"/></g></svg>