<svg width="71" height="75" xmlns="http://www.w3.org/2000/svg"><g fill="none"><path d="M9.808 73.605c-1.4.76-3.12-.8-3.24-2.4-.08-1.6.84-3.04 1.56-4.48 1.12-2.16 2-4.52 3.8-6.16.84-.76 1.84-1.32 2.68-2.04 2.64-2.24 3.72-5.8 4.28-9.2.16-.84.28-1.68.12-2.52-.32-1.84-1.92-3.24-3.64-3.88-1.76-.64-3.64-.64-5.48-.68-3.08 0-6.16-.04-9.24-.04.04-.56.56-.96 1.04-1.24 3.04-1.72 6.8-1.36 10.2-.44 3.36.88 6.64 2.28 10.12 2.52 2.08.16 4.2-.12 6.28-.2 5-.2 10 .72 15 .44 3.16-.2 6.44-.96 8.76-3.12 1-.92 1.76-2.08 2.76-3 2.24-2 5.64-2.48 8.36-1.28.6.28 1.16.6 1.68 1 2.08 1.64 3.32 4.08 4.4 6.52-1.28.52-2.76.6-4.12.28-.56-.12-1.12-.36-1.68-.32-.56 0-1.2.32-1.32.88-.16.8.68 1.4 1.44 1.68.76.28 1.68.52 1.96 1.24-1.72.92-3.84-1.08-5.68-.36-1.48.56-1.76 2.44-2.36 3.88-.48 1.04-1.2 1.96-1.72 3.04-.96 2.04-.84 4.44-.44 6.68.68 4 2.56 8.28 6.4 9.72.68.24 1.52.48 1.84 1.12.52 1-.64 2.2-1.8 2.16-1.12-.04-2.08-.84-2.88-1.6a65.896 65.896 0 01-10.64-13.12c-.76.4-.88 1.44-.88 2.32-.04 2.2-.08 4.36-.08 6.56 0 .4-.04.84-.28 1.16-.24.28-.64.4-1 .48-2.36.56-4.76.8-7.2.8-.56 0-1.12-.04-1.56-.32-.44-.28-.64-1-.28-1.4.28-.28.68-.28 1.04-.32 1.44-.12 2.84-.56 4.08-1.32.32-.2.64-.44.84-.8.2-.4.12-.88.04-1.32-.32-1.92-.64-3.8-.96-5.72-.12-.64-.24-1.32-.64-1.84-.48-.64-1.28-.96-2.08-1.2-2.8-.92-5.76-1.44-8.72-1.6-.36 0-.72 0-1 .16-.32.24-.44.64-.56 1-.8 3-1.28 6.12-.6 9.16s2.6 5.88 5.48 7c.76.32 1.68.56 2.04 1.28.52.96-.36 2.2-1.44 2.48-1.08.24-2.16-.2-3.12-.76-4.8-2.8-7.68-8.6-7-14.12.12-.88.08-2.08-.8-2.24-.56-.08-1.04.4-1.4.8-1.76 1.88-4.08 3.16-6.2 4.64-2.12 1.48-4.12 3.36-4.92 5.8-.4 1.36-.44 2.84-1.12 4.08" fill="#FFF"/><path d="M64.048 38.845a.434.434 0 00-.32-.32c-.08-.12-.16-.16-.24-.2-.76-.24-1 .36-1.2.84v.04l-.08.2.24.08c.24.08.52.2.8.2.08 0 .16 0 .24-.04.24-.04.44-.16.6-.28.12-.12.12-.32 0-.48-.04.04-.04 0-.04-.04z" fill="#E66C55"/><path d="M68.808 40.205c-1.24-.36-2.16-.84-2.88-1.52-.2-.2-.48-.56-.6-.88-.32-1.32-1.36-1.88-2.32-2.2-1.24-.44-2.64-.64-4.16-.6-1.48.04-2.8.44-3.88 1.2-.24.16-.4.4-.48.6-.12.36-.36.6-.72.76-.76.36-1.36.84-1.8 1.56-.16.24-.4.44-.64.64l-.04.04-.36.24c-.12.08-.28.16-.4.28-1 .88-2.2 1.4-3.72 1.6-.96.12-1.84.28-2.64.48-1.8.44-3.28.56-4.64.44h-1.08c-.08 0-.16 0-.24-.04-.76-.08-1.52-.2-2.24-.32-.96-.12-1.92-.28-2.88-.4-1.8-.2-3.52-.2-5.2-.04-1.8.2-3.6.52-5.32.88-.04 0-.04 0-.08.04-.6.04-1.2.04-1.76-.12-1.44-.36-2.68-.8-3.8-1.24-.32-.12-.64-.24-.96-.4-1.88-.76-3.8-1.56-5.8-2-.8-.16-1.64-.36-2.44-.28-1.12.08-2.24.24-3.32.4-.4.08-.8.12-1.2.16-.44.08-.68.24-.76.52-.16.84-.76 1.32-1.32 1.68-.28.16-.52.36-.76.52-.32.28-.48.96-.28 1.28.16.24.48.24 1.04.04.16-.04.28-.12.44-.16.6-.24 1.24-.48 1.88-.64l.24-.08c.76-.2 1.56-.44 2.36-.48h.12c1.24-.08 2.56-.16 3.8.04.36.08.72.12 1.04.16.56.08 1.16.16 1.72.28 1.96.52 3.76 1.56 5.28 3.04.4.4.52.84.36 1.28-.24.6-.48 1.24-.76 1.88-.16.44-.4.84-.6 1.28-.2.44-.28.96-.36 1.44-.04.32-.08.6-.16.92-.28 1-.4 2.04-.52 3.04-.04.4-.12.8-.16 1.2-.08.4-.2.68-.48.92l-1.48 1.36c-.2.2-.44.4-.64.6-.44.4-1 .84-1.76.88-.56.04-1.04.32-1.32.92l-.08.16c-.4.76-.8 1.52-1.12 2.32-.28.68-.64 1.48-1.16 2.2-.36.48-.68 1-1.04 1.6-.28.48-.52 1-.8 1.6-.28.64-.56 1.56 0 2.4.6.92 1.52 1.6 2.36 2.2.12.08.24.12.4.16.64.2 1.2-.08 1.44-.68.24-.64.28-1.2.16-1.76-.12-.52-.2-1-.28-1.52-.12-.68.04-1.28.44-1.88.72-1.04 1.6-2 2.6-2.92l.2-.2c.76-.68 1.52-1.36 2.48-1.8.24-.12.44-.28.64-.44.12-.08.2-.2.32-.28.8-.6 1.64-1.2 2.48-1.84.08-.04.16-.08.28-.08.04 0 .08 0 .12-.04.12-.04.28-.08.4-.12.8-.2 1.6-.36 2.24-1 .04-.04.12-.08.2-.12.16-.08.28-.08.4-.04.08.04.16.16.2.32.04.2.04.4.08.6v.24c0 .32.04.6.04.92.04.56.08 1.16.12 1.76.04.28.04.56.08.84.12.84.24 1.72-.12 2.56-.12.36-.04.72.28 1.08.16.16.28.32.44.52.52.6 1.04 1.2 1.44 1.84 1.16 1.88 2.84 3.32 4.32 4.52.36.28.84.48 1.24.56.92.12 1.84.16 2.68.16h.32c.56 0 1.16-.24 1.56-.4.28-.12.56-.48.68-.88.08-.36.08-.68-.08-.88-.68-.92-1.44-1.4-2.36-1.48-.16 0-.32-.04-.48-.04-.32-.04-.6-.08-.92-.08-.76.04-1.32-.28-1.76-1.04-.12-.24-.28-.44-.4-.68-.52-.92-1.08-1.84-1.56-2.8-.32-.64-.4-1.48-.16-2.4.08-.44.2-.84.28-1.24l.12-.72c.08-.44.16-.84.24-1.28.08-.28.12-.56.2-.84.24-.96.48-1.92.56-2.96.04-.4.12-.8.2-1.2.04-.12.04-.2.08-.32.12-.6.2-.64.8-.52.16.04.36.08.52.16.08.04.2.08.28.08l.72.2c.84.24 1.72.52 2.6.76.24.08.52.12.76.2.28.04.52.12.8.2.56.16 1.16.32 1.72.52.36.12.68.2 1.04.32s.64.28.88.6c1.08 1.24 1.4 2.84 1.64 4.12l.36 2.16c.08.4.12.84.2 1.24.04.28.04.4-.04.52-.08.08-.24.12-.48.12s-.52 0-.76-.04c-.28 0-.56-.04-.84-.04h-.08c-.96 0-1.88.16-2.76.48-.8.28-1.36 1.32-1.12 2.12.08.24.24.48.44.56a2.5 2.5 0 001.6.28c.76-.12 1.56-.2 2.36-.24.48-.04 1 .04 1.44.12 1.04.16 2.04-.08 3-.36l.48-.12c.96-.24 1.52-.88 1.6-1.8.04-.28 0-.6-.08-.88 0-.08-.04-.16-.04-.24-.04-.2-.08-.44-.12-.64-.08-.4-.16-.84-.16-1.28 0-.36.04-.76.08-1.12.04-.56.08-1.16.08-1.76 0-.64.08-1.32.2-1.96.08-.44.32-.56.84-.48v.24c0 .2-.04.44-.04.64-.08.96.2 1.68.88 2.24 1.28 1 2.16 2.4 2.92 3.72.48.8 1 1.48 1.6 2.08.64.64 1 1.2 1.16 1.84.12.52.48.92.96 1.12.84.36 1.48.96 1.92 1.92.24.56.68.88 1.28.96.24.04.48.08.72.08.48.08.96.12 1.44.2.92.08 1.76-.12 2.6-.56.36-.2.56-.44.64-.72.08-.32 0-.64-.2-1-.44-.72-1.12-1.08-2.16-1.16h-.04c-.28 0-.6-.04-.84-.12-.76-.28-1.36-.72-1.8-1.24-.24-.32-.52-.64-.84-.96-.32-.32-.44-.64-.44-1.04-.04-.88-.36-1.64-1-2.24-.64-.6-.96-1.16-1.12-1.8-.04-.24-.08-.52-.16-.76-.2-.96-.36-1.92-.48-2.92-.16-1.28-.2-2.56-.24-3.84v-.16c0-.28 0-.76.2-1.04.72-1 .92-2.12 1.04-3.04.16-1.2.56-2.16 1.28-2.88.08-.12.2-.2.28-.32.48-.52 1-1.04 1.6-1.48.6-.4 1.32-.8 2.2-.36.52.24 1.08.44 1.6.6.2.08.4.12.6.2.8.28 1.76.56 2.8.32.4-.12.72-.08 1.04.12.2.12.44.16.64.04s.36-.32.4-.6c.04-.24 0-.48-.12-.72-.12-.28-.28-.56-.4-.84-.04-.08-.12-.2-.16-.28-.08-.16-.16-.28-.24-.44l-.08-.16.08-.08.04-.04.04-.04c.08-.04.12-.04.2-.08 1.24-.28 1.96-.96 2.2-2.16.2-1.28-.2-2-1.28-2.32zm-3.84 5.08h-.08l.04.08c.04.04.08.12.12.16h-.12c-.96 0-1.92-.6-2.16-1.32h.12l-.04-.08c-.04-.08-.04-.12-.08-.16.52-.04 1 .2 1.44.44l.12.08c.2.12.36.32.52.56.08.08.12.2.2.28 0-.04-.04-.04-.08-.04zm.72-.28a.22.22 0 01.2-.12c.04 0 .08-.04.12 0 .28.04.56.16.76.36.16.2.28.4.44.6.04.04.04.08.08.16.16.28.36.52.48.8.16.32.2.56.08.76-.04.04-.08.08-.16.08s-.12-.04-.16-.08c-.16-.2-.28-.4-.4-.64-.04-.12-.12-.2-.16-.32-.04-.12-.12-.2-.16-.32-.12-.24-.32-.4-.48-.56-.12-.12-.28-.24-.4-.36l-.2-.16c-.04-.12-.04-.16-.04-.2zm-2.24-1.76c-.12-.04-.24-.08-.32-.12-.6-.2-.84-.12-1.12.24-.28.44-.28.92 0 1.28.8 1 1.84 1.6 3.08 1.72.28.04.56.04.84.08.12 0 .24 0 .36.04-.2.32-.48.36-.68.32-.56-.08-1.24-.2-1.92-.4-.8-.24-1.6-.48-2.32-.76-.8-.32-1.64-.16-2.48.52-.64.48-1.24 1.08-1.8 1.64l-.2.2c-.92.92-1.44 2.08-1.64 3.64-.12 1-.4 1.76-.88 2.48-.24.36-.44.76-.68 1.2-.08.2-.2.4-.32.6l-.04.04h.04c.56.2.6.6.64 1.08.08 1.24.16 2.68.32 4.08.08.56.2 1.16.32 1.72.04.24.12.48.16.72.16.8.6 1.52 1.32 2.24.52.48.76 1.08.72 1.8 0 .44.12.8.44 1.12.24.24.44.52.64.76.12.16.24.32.4.48.96 1.12 2.12 1.68 3.52 1.76.44 0 .88.24 1.08.4.2.12.28.24.28.4 0 .16-.12.32-.36.44-.64.36-1.32.52-2.08.44-.52-.04-1-.12-1.52-.2-.16-.04-.28-.04-.44-.08-.4-.04-.64-.28-.8-.64-.4-.92-1.08-1.6-2-2.04-.4-.2-.68-.48-.76-.88-.2-.68-.56-1.32-1.2-1.92-.68-.68-1.2-1.44-1.64-2.08l-.08-.12c-.84-1.32-1.72-2.72-3-3.72-.48-.4-.68-.88-.6-1.52.04-.2.04-.4.08-.6v-.04c.08-.76.36-1.16 1.04-1.32.72-.16 1.28-.6 1.72-1.2.12-.2.32-.44.04-.84l-.04-.04-.04.04c-.08.04-.12.08-.2.08-.16.08-.28.12-.4.24-.96.76-2.08 1.16-3.08 1.48-1.44.48-1.6.56-1.76 2.12-.04.48-.08.84-.04 1.2.04.76 0 1.52 0 2.28-.04 1.08-.08 2.2.08 3.28.12 1-.12 1.4-1.16 1.68-1.08.32-2.28.56-3.6.24-.52-.12-1.04-.08-1.56 0-.12 0-.28.04-.4.04-.76.04-1.44.08-2.12-.2-.08-.28.04-.48.4-.64 1.12-.56 2.12-.72 3.16-.52.64.12 1.32.24 2.04-.04.36-.12.48-.32.44-.68-.04-.4-.08-.8-.08-1.16-.04-.64-.08-1.32-.2-2-.24-1.52-.64-3.48-1.84-5.2-.2-.28-.32-.64-.44-.96-.04-.12-.08-.2-.12-.32-.12-.32-.04-.56.24-.8.48-.44.92-.88 1.4-1.32l.52-.52.08-.08c.08-.08.16-.12.16-.2.04-.12.04-.2.04-.32v-.16h-.16c-.08 0-.2 0-.28.04-.12.04-.2.12-.28.2l-.04.04c-.24.2-.44.4-.64.6-.48.44-.96.92-1.48 1.32-.28.24-.32.48-.36.8-.04.12-.04.28-.08.4-.08 0-.16 0-.24-.04-.2 0-.4-.04-.6-.08-.56-.16-1.16-.32-1.76-.52-.76-.28-1.52-.44-2.32-.6-.64-.12-1.28-.32-1.92-.52-.24-.08-.52-.16-.8-.24-.16-.04-.32-.08-.48-.16-.24-.08-.48-.16-.72-.2-.4-.12-.52-.28-.52-.64v-.04c.04-.28.04-.6-.44-.76h-.04v.04c-.04.04-.04.12-.08.16-.08.12-.16.28-.16.44-.12.64-.24 1.28-.32 1.92-.12.68-.24 1.4-.36 2.12-.12.72-.28 1.44-.44 2.12-.08.32-.12.6-.2.92l-.08.44c-.08.44-.2.92-.28 1.36-.04.2-.08.36-.12.56-.08.44-.2.92-.32 1.36-.36 1-.08 1.88.44 2.88.44.84.88 1.68 1.4 2.52.36.6.76 1.2 1.28 1.96.12.16.36.28.56.32.48.16.96.28 1.44.44.44.12.88.24 1.32.4l.08.04c.28.08.56.16.72.52-.04.04-.12.04-.16.08-.12.08-.24.12-.36.12-.76.08-1.72.2-2.72.28-.6.04-1.12-.12-1.56-.56-.36-.36-.8-.72-1.2-1.04l-1.08-.96c-.28-.28-.52-.6-.76-.92l-.24-.36c-.28-.36-.6-.76-.88-1.12-.48-.64-1-1.28-1.48-1.92-.24-.28-.36-.56-.2-.92.08-.24.16-.56.12-.84-.04-.52-.08-1-.12-1.52-.04-.28-.04-.52-.08-.8-.04-.24-.04-.48-.08-.76-.08-.64-.12-1.28-.12-1.92-.04-1.28-.44-2.24-1.28-2.96-.36-.32-.64-.76-.92-1.16-.08-.16-.2-.32-.32-.44-.12-.16-.2-.32-.28-.44a2.69 2.69 0 00-.28-.44c-.16-.2-.32-.44-.68-.44h-.08v.04c-.04.36.16.64.32.88l.24.36c.2.44.48.84.72 1.2.16.28.36.52.6.8.08.12.16.24.28.36-.16.12-.32.28-.48.44-.48.48-.96.92-1.68.96-.84.08-1.52.52-2.16.96-.16.12-.36.24-.52.36l-.32.2c-.64.4-1.28.8-1.92 1.24-2.44 1.76-4.08 3.32-5.32 5.12-.64.96-.84 1.92-.56 2.96.16.6.08 1.32 0 1.92-.04.2-.08.32-.16.36-.12.04-.28 0-.48-.12-.16-.12-.32-.24-.48-.4-.12-.12-.28-.24-.4-.36-.16-.16-.36-.32-.52-.48-.68-.6-.8-1.24-.36-2 .28-.48.56-.92.8-1.36.44-.72.88-1.44 1.28-2.2.72-1.28 1.44-2.6 2.08-3.92.24-.44.52-.64.96-.72.68-.08 1.32-.44 1.8-1.04.6-.72 1.32-1.36 2-1.96.44-.4.68-.88.76-1.64.12-.92.28-1.8.4-2.68.08-.36.12-.72.16-1.04 0-.08.04-.16.04-.24.04-.16.08-.28.08-.44.08-1.16.56-2.16 1.04-3.08.12-.24.24-.52.36-.8.08-.16.12-.32.2-.48.12-.24.24-.48.36-.8.08-.12.12-.28.2-.4v-.04l-.08-.16c-.24-.48-.56-1.04-1.04-1.52-1.32-1.2-2.96-2.16-4.96-2.92-.36-.16-.8-.2-1.2-.24-.12 0-.24-.04-.32-.04l-.84-.12c-.84-.12-1.72-.28-2.56-.32-1-.04-2 .04-2.96.12-1 .08-2.04.4-3.32.96-.04.04-.12.04-.24.04h-.08c.04-.04.04-.08.08-.12.08-.12.12-.2.16-.24.12-.16.24-.28.36-.4.24-.28.48-.56.68-.84.24-.32.52-.52.96-.56.4-.04.8-.12 1.16-.2.28-.04.6-.12.92-.16 1.4-.2 2.56-.28 3.76.08.48.16.96.28 1.4.4l2.04.6c.56.2 1.16.44 1.72.64.24.08.48.2.72.28.2.08.36.16.52.24.36.16.72.32 1.08.44.2.08.36.12.56.2.76.28 1.56.52 2.32.72 1.84.44 3.76.48 5.68.16.28-.04.6-.16.88-.28l.08-.04c.28-.12.56-.24.88-.36.08 0 .16 0 .2-.04.12 0 .24-.04.36-.04 1.64-.16 3.4-.12 5.36.12.76.08 1.56.2 2.32.32 1 .16 2 .28 3 .4l.32.04c1.24.12 2.64.28 3.84-.04 1.32-.12 2.56-.44 3.92-.84.16-.04.36-.12.52-.16.4-.12.8-.28 1.24-.36 1-.2 1.84-.64 2.6-1.4.24-.24.44-.48.68-.72.36-.4.76-.84 1.16-1.2.32-.28.68-.52 1-.72.12-.08.24-.08.36-.04s.2.16.24.28c.12.36.24.76.4 1.28.08.24.12.48.2.72.12.44.24.92.4 1.4.28.76.88 1.24 1.64 1.32.76.08 1.48-.2 2-.8.52-.56.84-1.28 1.08-2.28.08-.36.12-.72.2-1.08.04-.28.08-.6.16-.88.04-.2.08-.4.16-.6.04-.2.12-.36.16-.56 0-.04.08-.44-.08-.56-.08-.08-.16-.08-.24-.08-.16.04-.28.2-.36.28-.16.28-.28.52-.32.8-.08.32-.12.64-.16.96-.04.28-.08.6-.16.88 0 .08-.04.16-.04.24-.16.76-.32 1.56-.88 2.2-.44.48-.92.68-1.4.6-.44-.08-.84-.44-1.08-1.04-.12-.28-.16-.56-.24-.8v-.04c-.12-.36-.2-.76-.32-1.12l-.48-1.8c-.16-.64-.16-.68.44-1 1.32-.72 2.8-.96 4.76-.72.76.08 1.76.24 2.68.72.68.36 1.08.8 1.2 1.4.12.52.4.96.88 1.36.68.56 1.44 1.12 2.36 1.4.48.16.68.4.64.84 0 .36.16.72.28.96.16.32.12.52-.16.72-.24.16-.48.24-.68.32-.08.04-.12.04-.2.04-.08 0-.12 0-.2.04-1.32.2-2.56-.08-4.04-.6z" fill="#E66C55"/></g></svg>