<svg width="44" height="75" xmlns="http://www.w3.org/2000/svg"><g fill="none"><path d="M30.185 73.557c-1.08.48-2.4.16-3.36-.48-1-.68-1.72-1.64-2.36-2.64-1-1.48-1.92-3.08-1.96-4.84 0-1.6.68-3.4-.2-4.72-.44-.64-1.16-1-1.8-1.48-2.48-2-2.76-5.96-5.44-7.64-1.72-1.08-3.92-.88-5.92-.64-1.4.16-2.88.32-4.2-.2-1.92-.76-3.04-2.76-4-4.6 3.44.8 7.04.76 10.56.72 1.48-.04 3-.04 4.44-.48 2.24-.68 4.12-2.44 5-4.64.6-1.56.72-3.24.8-4.92.28-5.24.56-10.64-1.32-15.52-1.16 1.48-3 2.4-4.92 2.4-.44-1.68-.92-3.56-.2-5.16.4-.92 1.16-1.64 1.56-2.52.4-.84.48-1.76.56-2.68l.48-4.92c.04-.6.12-1.24.52-1.68.76-.84 2.16-.56 3.12-1.16.8-.48 1.12-1.4 1.68-2.12.56-.72 1.6-1.32 2.32-.76.2 2.32.08 4.68-.32 6.96.84-.56 1.72-1.08 2.56-1.64-.92 3.48-.32 7.36 1.56 10.4 1.88 3.04 5.16 5.36 8.68 6.12 1.08.24 2.28.36 3.16 1.04 1.2.92 1.56 2.52 1.88 4 .2 1.12.44 2.24.64 3.36.08.36.12.76-.12 1.04-.24.24-.64.2-.96.32-1.16.36-1.16 2-.92 3.16-1.68-.24-3.04-1.96-2.92-3.64.04-.48.16-1 .08-1.44-.12-.48-.64-.92-1.08-.68-.12.08-.24.2-.32.28-1.68 2.12-.88 5.16-.96 7.88-.08 2.72-1.28 5.4-3.2 7.36-.88.88-1.92 1.6-2.76 2.56-1.76 2-2.32 4.72-2.84 7.32-.36 1.72-.68 3.48-.6 5.24.12 1.76.72 3.56 2.04 4.72.84.76 1.96 1.24 2.52 2.24.56 1-.16 2.64-1.24 2.32.28.36.6.72.68 1.12.08.44-.16.96-.6 1.04" fill="#ffe180"/><path d="M43.665 32.317c-.76-1.64-1.24-3.16-1.44-4.72-.04-.4-.12-.84-.28-1.28-.12-.36-.24-.76-.56-1.04-.44-.44-1-.64-1.68-.68-.24 0-.44 0-.68.04-.28 0-.52.04-.8 0-.4-.04-.84-.08-1.24-.16-.24-.04-.52-.08-.76-.12-.24-.04-.4-.16-.56-.36-.32-.44-.64-.88-1.04-1.28a3.02 3.02 0 00-.56-.44l-.48-.36c-.6-.56-1.24-1.08-1.88-1.56-.76-.6-1.52-1.2-2.24-1.88-.88-.88-1.48-1.68-1.92-2.52-.4-.84-.56-1.68-.44-2.52.12-.72.28-1.44.44-2.12.08-.32.16-.64.2-.96l.6-2.76c.04-.12.04-.24.04-.4 0-.4-.28-.6-.52-.72-.2-.08-.48-.12-.76.2-.16.2-.32.4-.44.64-.16.28-.36.52-.52.8-.24.4-.52.8-.8 1.2l-.16.16v-.08l.92-3.88c.28-1.12-.08-2.08-1.08-3.08-.16-.16-.44-.28-.68-.36-.44-.16-.76-.08-1.08.32-.56.68-1.04 1.36-1.36 2.04-.28.56-.64 1.08-1.08 1.56-.12.12-.28.28-.44.32-.72.16-1.36.44-1.92.72-.6.28-.96.68-1.2 1.24-.08.2-.16.4-.28.6l-.48 1.2c-.12.4-.2.8-.24 1.16v1c0 .32.04.64 0 1-.04.56-.08 1.08-.2 1.52-.12.4-.28.76-.44 1.12l-.12.24c-.2.4-.4.8-.6 1.16-.48.84-.6 1.64-.32 2.48.16.56.2 1.04.12 1.48l-.12.48c.2 0 .44.08.64.16.04-.12.04-.28.08-.4.16-.76.12-1.4-.08-2-.2-.6-.12-1.2.32-1.92.2-.36.36-.72.52-1.08.04-.08.08-.2.12-.28l.36-.96c.04-.16.12-.28.16-.44.28-.76.36-1.6.28-2.56-.08-.88.04-1.6.36-2.24.16-.28.28-.56.36-.84.12-.24.2-.52.32-.76.08-.16.24-.32.4-.4.56-.28 1.16-.56 1.76-.76.72-.24 1.24-.64 1.6-1.24.24-.36.44-.72.64-1.08.12-.16.2-.36.32-.52l.04-.04c.04-.08.08-.16.16-.24.4-.56.44-.56 1.04-.28.44.2.48.24 1.2.12.36.4.48.96.32 1.68-.2.8-.4 1.64-.6 2.44l-.36 1.44c-.08.28-.08.52-.08.72 0 .16.12.44.28.48.16.04.44 0 .6-.16.4-.44.76-.88 1.04-1.32.24-.36.48-.76.72-1.12.12-.2.24-.36.36-.56.04-.04.08-.12.12-.16v.04c.04.08.04.12.04.16-.08.36-.16.76-.28 1.24-.2.8-.4 1.64-.6 2.44-.2.8-.4 1.64-.6 2.44-.04.12-.08.28-.04.4.08 1.24.4 2.2.96 3.04l.04.04c.04.04.08.12.12.16.28.28.52.56.8.84.52.52 1 1.08 1.52 1.6.52.56 1.16.96 1.72 1.36.44.28.84.64 1.2.96.16.16.32.28.52.4.08.08.2.16.28.24.16.16.36.32.56.44.84.56 1.4 1.36 1.8 2.64.04.12.08.24.12.32.04.16.12.32.16.48.04.12.08.24.08.4 0 .04 0 .08.04.12-.44-.04-.84-.12-1.12-.4l-.16-.16-.24-.24c-.08-.08-.24-.08-.36-.04-.08.04-.2.2-.16.32 0 .12.08.28.16.4.2.32.48.52.96.68.12.04.2.08.32.08.12.04.28.08.4.12.32.12.68.12 1.08.08.88-.16 1.76 0 2.52.2.72.2.88.48.96 1.2l.12 1.2c.04.44.08.92.12 1.36.04.44.04.88 0 1.32v.48c0 .64-.04 1.32.12 2 .04.16.04.28.04.44v.16c-.44.12-.8 0-1.16-.36-.48-.52-.72-1.16-.64-1.96.04-.28.04-.52.08-.8.04-.32.08-.64.08-1 .04-.36 0-.68-.08-1-.08-.4-.28-.52-.4-.56-.12-.04-.36-.04-.68.2-.16.12-.32.28-.44.4-.16.16-.32.28-.52.44l-.2.16c-.36.28-.72.56-1.08.76-.32.2-.76.2-1.32.04-.48-.12-.8-.16-1.16-.16-.64.04-1.28 0-1.76-.52l-.04-.08-.08.04c-.16.12-.24.2-.24.32s.08.24.2.36c.28.24.6.48 1.04.48.12 0 .24 0 .36.04.16 0 .36.04.52.04.36 0 .64 0 .96.2.16.08.36.08.52.08.16 0 .32.04.52.04h.12v.08c0 .08.04.16.04.24 0 .16.04.28.04.44.04.32.08.64.08 1 0 .64.04 1.2-.04 1.76-.16 1.28-.36 2.2-.56 3.08-.28 1.24-.6 2.32-.96 3.32-.44 1.24-1.16 2.36-2.2 3.44-.88.92-1.84 1.72-2.68 2.36-.44.32-.76.64-1.08.96-.56.6-.72 1.32-.6 2.28.08.52.16 1.04.24 1.52.04.32.12.64.16 1 .12.68-.04 1.36-.24 1.96-.12.36-.2.76-.32 1.16-.08.36-.16.68-.28 1.04-.16.52-.36 1.04-.56 1.52l-.04.08c-.08.2-.16.36-.24.52-.28.68-.6 1.4-.76 2.16-.12.52-.24 1.12-.28 1.76-.08 1.28.24 2.52.92 3.76.24.4.48.8.72 1.16l.2.36c.04.08.12.2.24.28.16.08.32.16.44.24.48.24.96.52 1.48.72.76.28 1.08.92 1.36 1.48.04.08.04.2 0 .28-.08.12-.2.2-.36.2-1.08.12-2.04.12-2.88 0-.16-.04-.32-.12-.4-.24-.64-.88-1.28-1.84-2.08-3-.08-.12-.12-.24-.2-.36-.04-.12-.12-.24-.2-.36-.08-.16-.2-.28-.28-.44-.32-.48-.6-1-.96-1.48-.32-.44-.44-.88-.36-1.48.12-.84.24-1.68.44-2.52.16-.76.08-1.52-.28-2.28-.24-.48-.4-.88-.52-1.32-.24-.76-.72-1.44-1.44-2-.8-.64-1.44-1.48-1.96-2.72-.08-.16-.08-.32-.12-.52-.12-.84-.32-1.8-.96-2.6-.44-.56-.72-1.16-.8-1.8 0-.12-.08-.24-.12-.4-.04-.08-.04-.12-.08-.2l-.04-.08-.08.04c-.2.04-.36.08-.52.16-.36.08-.68.2-1.04.28-.96.2-1.84.36-2.72.48-.2.04-.44 0-.68-.04h-.12c-.68-.08-1.28-.08-1.88.04-.52.08-1.04.08-1.56.08h-.36c-.08 0-.24-.08-.28-.16-.44-.64-1.12-.84-1.8-1.04l-.08-.04c-.64-.2-1.32-.32-1.96-.48l-.12-.04c-.64-.16-1.12-.48-1.4-1.04-.12-.24-.24-.52-.36-.76-.08-.2-.16-.4-.28-.56-.16-.28-.28-.52-.44-.76l-.04-.08c-.16-.24-.32-.44-.36-.76h.04c.08 0 .16 0 .2.04.12.04.24.12.36.16.2.12.4.2.64.28.2.04.36.12.56.16.48.16.96.32 1.52.12.32-.12.76 0 1.08.12 1.2.48 2.4.88 3.6 1.12 1.88.4 3.48.48 5 .2.36-.08.76-.12 1.12-.12.32-.04.68-.08 1-.12 1.16-.2 2.12-.72 2.92-1.68.72-.84 1.24-1.8 1.68-2.6.24-.48.44-1 .56-1.4.72-2.44 1.12-4.56 1.24-6.56.08-1.4 0-2.84-.04-4.24v-.92c0-.28 0-.6-.04-.88 0-.16-.04-.32-.04-.48-.04-.72-.12-1.44-.24-2.16-.12-.56-.2-1.12-.28-1.68l-.04-.32c-.04-.4-.24-.76-.44-1.12-.08-.12-.16-.28-.2-.4l-.24-.36-.04-.08c-.16-.24-.16-.48-.04-.76.16-.32.24-.68.28-1.04l.04-.12c.08-.48.16-.92.24-1.4v-.12c.08-.56.16-1.08.2-1.64 0-.16-.04-.28-.04-.4 0-.04-.04-.12-.04-.16v-.08h-.28l-.04.08c0 .04-.04.08-.04.08-.04.08-.08.16-.08.24-.08.4-.12.8-.2 1.2-.12.84-.24 1.72-.48 2.52-.32 1.32-.92 2.12-1.88 2.52-.04.04-.12.04-.16.08.12 0 .24-.04.36-.04.24 0 .44.12.6.28.2-.12.44-.28.64-.48.04-.04.12-.08.16-.12l.04-.04.16.24c.16.28.36.52.52.8.16.24.2.48.16.8-.12.76-.04 1.56.2 2.56l.04.24c.12.44.24.92.28 1.36.04.4.04.8 0 1.2v1.08c-.04.52-.04 1.04.08 1.6.04.28.04.6.04.88v.44c0 .28 0 .56-.04.8-.04.36-.04.72-.04 1.04 0 .48 0 1-.12 1.48-.12.4-.2.8-.28 1.2-.12.52-.24 1.08-.4 1.6-.32 1.08-.6 1.92-.92 2.72-.44 1-1.12 1.84-1.76 2.56-.36.36-.8.64-1.4.84-.84.24-1.72.36-2.6.48-.36.04-.72.08-1.12.16-1 .16-1.96-.04-2.92-.2-.36-.04-.68-.12-1.04-.16-.4-.04-.8-.16-1.16-.28-.32-.12-.64-.2-.92-.32-.44-.16-.88-.32-1.36-.44-.36-.08-.84-.24-1.28-.12-.52.12-.96.04-1.48-.24-.24-.12-.52-.24-.72-.32-.08-.04-.12-.04-.2-.08-.2-.08-.4-.2-.64-.16-.16 0-.64.04-.92.28-.2.2-.2.52.04.96.36.72.76 1.4 1.12 2.12.2.36.4.72.6 1.12.36.64 1 .96 1.48 1.12 1.04.36 1.96.6 2.84.64.24 0 .44.12.56.32.36.52.88.76 1.72.72 1.36-.08 2.72-.12 4.12-.04.24 0 .44-.04.68-.08.08 0 .16-.04.2-.04.12 0 .2-.04.32-.08.08 0 .16-.04.24-.04.2-.04.44-.08.64-.12.4-.08.84-.16 1.28-.24.24-.04.36 0 .44.2l.12.24c.28.56.6 1.12.96 1.68.48.68.72 1.4.84 2.2.12.96.4 1.64.92 2.16l.6.6c.16.16.32.28.44.44.2.2.4.44.56.6.04.04.08.12.12.16.08.12.16.24.28.32.32.24.48.56.6.96l.04.04c.08.2.16.4.24.56.08.24.2.52.32.76.24.52.28 1.04.16 1.56l-.08.36c-.16.76-.32 1.52-.44 2.28-.12.84 0 1.44.44 1.96.4.48.8 1.08 1.16 1.76l.12.24c.36.64.72 1.28 1.2 1.88.4.52.84 1.04 1.16 1.6.24.44.6.64 1.04.68.6.04 1.2.04 1.76.04.4 0 .8 0 1.24-.04.4-.04.76-.2.92-.52.2-.36.2-.8 0-1.2-.08-.16-.16-.28-.24-.4-.2-.28-.36-.52-.6-.8l-.16-.2.12-.04c.16-.04.36-.12.52-.16.08-.04.16-.04.28-.08l.36-.12c.28-.12.44-.32.4-.6-.08-.72-.24-1.48-.96-2-.4-.28-.88-.64-1.44-.76-.44-.08-.76-.36-.96-.76-.56-1.2-1.2-2.6-1.48-4.08-.08-.44-.08-.88.04-1.2.28-.84.64-1.68.92-2.28.68-1.48.88-3.08.64-4.96-.04-.2-.04-.4-.08-.6-.12-.72-.2-1.44-.12-2.16 0-.08.04-.36.16-.48.16-.16.32-.32.48-.52.6-.68 1.24-1.36 2.08-1.8.12-.08.24-.16.32-.28l.04-.04c1.72-1.68 2.88-3.44 3.56-5.36l.08-.2c.24-.64.44-1.28.6-1.92.28-1.32.48-2.64.64-3.92.2-1.36.2-2.52 0-3.56-.04-.16 0-.24.12-.32.24-.2.52-.4.76-.6.16-.16.36-.28.52-.44l.48-.36c.04-.04.12-.08.16-.12v.08c.04.12.04.2.04.28-.04.44-.08.88-.08 1.28v.16c-.04.64-.12 1.28 0 1.92.24 1.2 1.28 2.04 2.4 1.96.6-.04.84-.32.8-1-.04-.44-.04-.88 0-1.32v-.44c.16-.04.36-.12.52-.16.4-.12.8-.28 1.2-.4.28-.12.48-.28.56-.48 0-.64-.04-.92-.16-1.24zm-16.6 32.8c.24.6.48 1.16.72 1.72l.08.16c.24.56.68.88 1.32 1.04.52.12 1.04.44 1.44.88.16.2.28.48.36.8.04.12.08.24.12.4l-.36.08c-.36.08-.68.16-1.04.2h-.32c-.72.24-1.2-.2-1.72-.64h-.04c-.12-.12-.2-.2-.24-.32-.12-.24-.2-.44-.32-.68-.28-.6-.6-1.2-.8-1.84-.44-1.28-.4-2.44.04-3.48 0-.04.04-.04.04-.04h.04l.04-.04c0 .04.04.08.04.12.08.2.12.36.2.56.12.32.24.72.4 1.08zm15.64-32.08c-.28.12-.52.24-.8.28-.16.04-.28.04-.36 0-.08-.04-.12-.16-.16-.36-.12-1.12-.28-2.64-.44-4.16-.08-.64-.36-1.08-.96-1.32-.68-.32-1.4-.36-2.12-.4-.16 0-.36-.04-.52-.04h-.48c-.04-.24-.16-.48-.24-.72-.12-.36-.24-.72-.28-1.16.12 0 .24.04.36.04.36.04.68.08 1.04.12.2 0 .4.04.6.04.2 0 .36 0 .56.04.12 0 .2 0 .32.04.4.04.8.04 1.16.12.48.12.8.44.92.92l.04.08c.12.44.24.92.28 1.4.12 1.16.44 2.2.76 3.2.12.32.24.68.4 1l.24.6c0 .04 0 .08.04.16v.08c-.2-.04-.28 0-.36.04z" fill="#ED5F48"/><path d="M17.505 14.837c-.44.84-.84 1.72-1.44 2.44-.2.24-.24.56-.2.88.04.68.04 1.36.08 2.04 0 .12.04.28.04.4.16-.08.24-.2.24-.32.04-.48.12-1 .12-1.48 0-.44-.12-.88.08-1.28.36-.64.76-1.28 1.16-1.92.2-.36.56-.4.88-.2.12.08.2.16.32.24.36.28.68.6 1.04.92.16-.28 0-.44-.16-.6-.56-.64-1.12-1.28-2.16-1.12zm3.24-6.6c.04-.08.04-.16 0-.24a.482.482 0 00-.2-.2c-.08-.04-.2.04-.24.08-.04.08-.12.2-.16.28 0 .04-.04.08-.04.08v.08c-.04.4-.08.76.24 1.04.04.04.12.08.2.08h.08c.04 0 .08-.08.12-.12 0-.04.04-.08 0-.12-.12-.32-.08-.64 0-.96z" fill="#ED5F48"/><path d="M18.825 22.597c-.4.12-.8.24-1.2.24-.4-.04-.72-.32-1.08-.48-.2-.08-.4-.16-.6-.2-.16-.04-.36-.12-.48-.24s-.04-.32 0-.44c.04-.24.12-.44.16-.68.12-.48-.64-.72-.76-.2s-.4 1.12-.16 1.64c.24.48.84.64 1.32.8.24.08.44.2.64.36.24.12.48.24.72.24.56.08 1.08-.04 1.6-.24.2-.08.32-.28.28-.48 0-.24-.24-.36-.44-.32z" fill="#ED5F48"/><path d="M43.665 32.317c-.76-1.64-1.24-3.16-1.44-4.72-.04-.4-.12-.84-.28-1.28-.12-.36-.24-.76-.56-1.04-.44-.44-1-.64-1.68-.68-.24 0-.44 0-.68.04-.28 0-.52.04-.8 0-.4-.04-.84-.08-1.24-.16-.24-.04-.52-.08-.76-.12-.24-.04-.4-.16-.56-.36-.32-.44-.64-.88-1.04-1.28a3.02 3.02 0 00-.56-.44l-.48-.36c-.6-.56-1.24-1.08-1.88-1.56-.76-.6-1.52-1.2-2.24-1.88-.88-.88-1.48-1.68-1.92-2.52-.4-.84-.56-1.68-.44-2.52.12-.72.28-1.44.44-2.12.08-.32.16-.64.2-.96l.6-2.76c.04-.12.04-.24.04-.4 0-.4-.28-.6-.52-.72-.2-.08-.48-.12-.76.2-.16.2-.32.4-.44.64-.16.28-.36.52-.52.8-.24.4-.52.8-.8 1.2l-.16.16v-.08l.92-3.88c.28-1.12-.08-2.08-1.08-3.08-.16-.16-.44-.28-.68-.36-.44-.16-.76-.08-1.08.32-.56.68-1.04 1.36-1.36 2.04-.28.56-.64 1.08-1.08 1.56-.12.12-.28.28-.44.32-.72.16-1.36.44-1.92.72-.6.28-.96.68-1.2 1.24-.08.2-.16.4-.28.6l-.48 1.2c-.12.4-.2.8-.24 1.16v1c0 .32.04.64 0 1-.04.56-.08 1.08-.2 1.52-.12.4-.28.76-.44 1.12l-.12.24c-.2.4-.4.8-.6 1.16-.48.84-.6 1.64-.32 2.48.16.56.2 1.04.12 1.48l-.12.48c.2 0 .44.08.64.16.04-.12.04-.28.08-.4.16-.76.12-1.4-.08-2-.2-.6-.12-1.2.32-1.92.2-.36.36-.72.52-1.08.04-.08.08-.2.12-.28l.36-.96c.04-.16.12-.28.16-.44.28-.76.36-1.6.28-2.56-.08-.88.04-1.6.36-2.24.16-.28.28-.56.36-.84.12-.24.2-.52.32-.76.08-.16.24-.32.4-.4.56-.28 1.16-.56 1.76-.76.72-.24 1.24-.64 1.6-1.24.24-.36.44-.72.64-1.08.12-.16.2-.36.32-.52l.04-.04c.04-.08.08-.16.16-.24.4-.56.44-.56 1.04-.28.44.2.48.24 1.2.12.36.4.48.96.32 1.68-.2.8-.4 1.64-.6 2.44l-.36 1.44c-.08.28-.08.52-.08.72 0 .16.12.44.28.48.16.04.44 0 .6-.16.4-.44.76-.88 1.04-1.32.24-.36.48-.76.72-1.12.12-.2.24-.36.36-.56.04-.04.08-.12.12-.16v.04c.04.08.04.12.04.16-.08.36-.16.76-.28 1.24-.2.8-.4 1.64-.6 2.44-.2.8-.4 1.64-.6 2.44-.04.12-.08.28-.04.4.08 1.24.4 2.2.96 3.04l.04.04c.04.04.08.12.12.16.28.28.52.56.8.84.52.52 1 1.08 1.52 1.6.52.56 1.16.96 1.72 1.36.44.28.84.64 1.2.96.16.16.32.28.52.4.08.08.2.16.28.24.16.16.36.32.56.44.84.56 1.4 1.36 1.8 2.64.04.12.08.24.12.32.04.16.12.32.16.48.04.12.08.24.08.4 0 .04 0 .08.04.12-.44-.04-.84-.12-1.12-.4l-.16-.16-.24-.24c-.08-.08-.24-.08-.36-.04-.08.04-.2.2-.16.32 0 .12.08.28.16.4.2.32.48.52.96.68.12.04.2.08.32.08.12.04.28.08.4.12.32.12.68.12 1.08.08.88-.16 1.76 0 2.52.2.72.2.88.48.96 1.2l.12 1.2c.04.44.08.92.12 1.36.04.44.04.88 0 1.32v.48c0 .64-.04 1.32.12 2 .04.16.04.28.04.44v.16c-.44.12-.8 0-1.16-.36-.48-.52-.72-1.16-.64-1.96.04-.28.04-.52.08-.8.04-.32.08-.64.08-1 .04-.36 0-.68-.08-1-.08-.4-.28-.52-.4-.56-.12-.04-.36-.04-.68.2-.16.12-.32.28-.44.4-.16.16-.32.28-.52.44l-.2.16c-.36.28-.72.56-1.08.76-.32.2-.76.2-1.32.04-.48-.12-.8-.16-1.16-.16-.64.04-1.28 0-1.76-.52l-.04-.08-.08.04c-.16.12-.24.2-.24.32s.08.24.2.36c.28.24.6.48 1.04.48.12 0 .24 0 .36.04.16 0 .36.04.52.04.36 0 .64 0 .96.2.16.08.36.08.52.08.16 0 .32.04.52.04h.12v.08c0 .08.04.16.04.24 0 .16.04.28.04.44.04.32.08.64.08 1 0 .64.04 1.2-.04 1.76-.16 1.28-.36 2.2-.56 3.08-.28 1.24-.6 2.32-.96 3.32-.44 1.24-1.16 2.36-2.2 3.44-.88.92-1.84 1.72-2.68 2.36-.44.32-.76.64-1.08.96-.56.6-.72 1.32-.6 2.28.08.52.16 1.04.24 1.52.04.32.12.64.16 1 .12.68-.04 1.36-.24 1.96-.12.36-.2.76-.32 1.16-.08.36-.16.68-.28 1.04-.16.52-.36 1.04-.56 1.52l-.04.08c-.08.2-.16.36-.24.52-.28.68-.6 1.4-.76 2.16-.12.52-.24 1.12-.28 1.76-.08 1.28.24 2.52.92 3.76.24.4.48.8.72 1.16l.2.36c.04.08.12.2.24.28.16.08.32.16.44.24.48.24.96.52 1.48.72.76.28 1.08.92 1.36 1.48.04.08.04.2 0 .28-.08.12-.2.2-.36.2-1.08.12-2.04.12-2.88 0-.16-.04-.32-.12-.4-.24-.64-.88-1.28-1.84-2.08-3-.08-.12-.12-.24-.2-.36-.04-.12-.12-.24-.2-.36-.08-.16-.2-.28-.28-.44-.32-.48-.6-1-.96-1.48-.32-.44-.44-.88-.36-1.48.12-.84.24-1.68.44-2.52.16-.76.08-1.52-.28-2.28-.24-.48-.4-.88-.52-1.32-.24-.76-.72-1.44-1.44-2-.8-.64-1.44-1.48-1.96-2.72-.08-.16-.08-.32-.12-.52-.12-.84-.32-1.8-.96-2.6-.44-.56-.72-1.16-.8-1.8 0-.12-.08-.24-.12-.4-.04-.08-.04-.12-.08-.2l-.04-.08-.08.04c-.2.04-.36.08-.52.16-.36.08-.68.2-1.04.28-.96.2-1.84.36-2.72.48-.2.04-.44 0-.68-.04h-.12c-.68-.08-1.28-.08-1.88.04-.52.08-1.04.08-1.56.08h-.36c-.08 0-.24-.08-.28-.16-.44-.64-1.12-.84-1.8-1.04l-.08-.04c-.64-.2-1.32-.32-1.96-.48l-.12-.04c-.64-.16-1.12-.48-1.4-1.04-.12-.24-.24-.52-.36-.76-.08-.2-.16-.4-.28-.56-.16-.28-.28-.52-.44-.76l-.04-.08c-.16-.24-.32-.44-.36-.76h.04c.08 0 .16 0 .2.04.12.04.24.12.36.16.2.12.4.2.64.28.2.04.36.12.56.16.48.16.96.32 1.52.12.32-.12.76 0 1.08.12 1.2.48 2.4.88 3.6 1.12 1.88.4 3.48.48 5 .2.36-.08.76-.12 1.12-.12.32-.04.68-.08 1-.12 1.16-.2 2.12-.72 2.92-1.68.72-.84 1.24-1.8 1.68-2.6.24-.48.44-1 .56-1.4.72-2.44 1.12-4.56 1.24-6.56.08-1.4 0-2.84-.04-4.24v-.92c0-.28 0-.6-.04-.88 0-.16-.04-.32-.04-.48-.04-.72-.12-1.44-.24-2.16-.12-.56-.2-1.12-.28-1.68l-.04-.32c-.04-.4-.24-.76-.44-1.12-.08-.12-.16-.28-.2-.4l-.24-.36-.04-.08c-.16-.24-.16-.48-.04-.76.16-.32.24-.68.28-1.04l.04-.12c.08-.48.16-.92.24-1.4v-.12c.08-.56.16-1.08.2-1.64 0-.16-.04-.28-.04-.4 0-.04-.04-.12-.04-.16v-.08h-.28l-.04.08c0 .04-.04.08-.04.08-.04.08-.08.16-.08.24-.08.4-.12.8-.2 1.2-.12.84-.24 1.72-.48 2.52-.32 1.32-.92 2.12-1.88 2.52-.04.04-.12.04-.16.08.12 0 .24-.04.36-.04.24 0 .44.12.6.28.2-.12.44-.28.64-.48.04-.04.12-.08.16-.12l.04-.04.16.24c.16.28.36.52.52.8.16.24.2.48.16.8-.12.76-.04 1.56.2 2.56l.04.24c.12.44.24.92.28 1.36.04.4.04.8 0 1.2v1.08c-.04.52-.04 1.04.08 1.6.04.28.04.6.04.88v.44c0 .28 0 .56-.04.8-.04.36-.04.72-.04 1.04 0 .48 0 1-.12 1.48-.12.4-.2.8-.28 1.2-.12.52-.24 1.08-.4 1.6-.32 1.08-.6 1.92-.92 2.72-.44 1-1.12 1.84-1.76 2.56-.36.36-.8.64-1.4.84-.84.24-1.72.36-2.6.48-.36.04-.72.08-1.12.16-1 .16-1.96-.04-2.92-.2-.36-.04-.68-.12-1.04-.16-.4-.04-.8-.16-1.16-.28-.32-.12-.64-.2-.92-.32-.44-.16-.88-.32-1.36-.44-.36-.08-.84-.24-1.28-.12-.52.12-.96.04-1.48-.24-.24-.12-.52-.24-.72-.32-.08-.04-.12-.04-.2-.08-.2-.08-.4-.2-.64-.16-.16 0-.64.04-.92.28-.2.2-.2.52.04.96.36.72.76 1.4 1.12 2.12.2.36.4.72.6 1.12.36.64 1 .96 1.48 1.12 1.04.36 1.96.6 2.84.64.24 0 .44.12.56.32.36.52.88.76 1.72.72 1.36-.08 2.72-.12 4.12-.04.24 0 .44-.04.68-.08.08 0 .16-.04.2-.04.12 0 .2-.04.32-.08.08 0 .16-.04.24-.04.2-.04.44-.08.64-.12.4-.08.84-.16 1.28-.24.24-.04.36 0 .44.2l.12.24c.28.56.6 1.12.96 1.68.48.68.72 1.4.84 2.2.12.96.4 1.64.92 2.16l.6.6c.16.16.32.28.44.44.2.2.4.44.56.6.04.04.08.12.12.16.08.12.16.24.28.32.32.24.48.56.6.96l.04.04c.08.2.16.4.24.56.08.24.2.52.32.76.24.52.28 1.04.16 1.56l-.08.36c-.16.76-.32 1.52-.44 2.28-.12.84 0 1.44.44 1.96.4.48.8 1.08 1.16 1.76l.12.24c.36.64.72 1.28 1.2 1.88.4.52.84 1.04 1.16 1.6.24.44.6.64 1.04.68.6.04 1.2.04 1.76.04.4 0 .8 0 1.24-.04.4-.04.76-.2.92-.52.2-.36.2-.8 0-1.2-.08-.16-.16-.28-.24-.4-.2-.28-.36-.52-.6-.8l-.16-.2.12-.04c.16-.04.36-.12.52-.16.08-.04.16-.04.28-.08l.36-.12c.28-.12.44-.32.4-.6-.08-.72-.24-1.48-.96-2-.4-.28-.88-.64-1.44-.76-.44-.08-.76-.36-.96-.76-.56-1.2-1.2-2.6-1.48-4.08-.08-.44-.08-.88.04-1.2.28-.84.64-1.68.92-2.28.68-1.48.88-3.08.64-4.96-.04-.2-.04-.4-.08-.6-.12-.72-.2-1.44-.12-2.16 0-.08.04-.36.16-.48.16-.16.32-.32.48-.52.6-.68 1.24-1.36 2.08-1.8.12-.08.24-.16.32-.28l.04-.04c1.72-1.68 2.88-3.44 3.56-5.36l.08-.2c.24-.64.44-1.28.6-1.92.28-1.32.48-2.64.64-3.92.2-1.36.2-2.52 0-3.56-.04-.16 0-.24.12-.32.24-.2.52-.4.76-.6.16-.16.36-.28.52-.44l.48-.36c.04-.04.12-.08.16-.12v.08c.04.12.04.2.04.28-.04.44-.08.88-.08 1.28v.16c-.04.64-.12 1.28 0 1.92.24 1.2 1.28 2.04 2.4 1.96.6-.04.84-.32.8-1-.04-.44-.04-.88 0-1.32v-.44c.16-.04.36-.12.52-.16.4-.12.8-.28 1.2-.4.28-.12.48-.28.56-.48 0-.64-.04-.92-.16-1.24zm-16.6 32.8c.24.6.48 1.16.72 1.72l.08.16c.24.56.68.88 1.32 1.04.52.12 1.04.44 1.44.88.16.2.28.48.36.8.04.12.08.24.12.4l-.36.08c-.36.08-.68.16-1.04.2h-.32c-.72.24-1.2-.2-1.72-.64h-.04c-.12-.12-.2-.2-.24-.32-.12-.24-.2-.44-.32-.68-.28-.6-.6-1.2-.8-1.84-.44-1.28-.4-2.44.04-3.48 0-.04.04-.04.04-.04h.04l.04-.04c0 .04.04.08.04.12.08.2.12.36.2.56.12.32.24.72.4 1.08zm15.64-32.08c-.28.12-.52.24-.8.28-.16.04-.28.04-.36 0-.08-.04-.12-.16-.16-.36-.12-1.12-.28-2.64-.44-4.16-.08-.64-.36-1.08-.96-1.32-.68-.32-1.4-.36-2.12-.4-.16 0-.36-.04-.52-.04h-.48c-.04-.24-.16-.48-.24-.72-.12-.36-.24-.72-.28-1.16.12 0 .24.04.36.04.36.04.68.08 1.04.12.2 0 .4.04.6.04.2 0 .36 0 .56.04.12 0 .2 0 .32.04.4.04.8.04 1.16.12.48.12.8.44.92.92l.04.08c.12.44.24.92.28 1.4.12 1.16.44 2.2.76 3.2.12.32.24.68.4 1l.24.6c0 .04 0 .08.04.16v.08c-.2-.04-.28 0-.36.04z" fill="#E66C55"/><path d="M17.505 14.837c-.44.84-.84 1.72-1.44 2.44-.2.24-.24.56-.2.88.04.68.04 1.36.08 2.04 0 .12.04.28.04.4.16-.08.24-.2.24-.32.04-.48.12-1 .12-1.48 0-.44-.12-.88.08-1.28.36-.64.76-1.28 1.16-1.92.2-.36.56-.4.88-.2.12.08.2.16.32.24.36.28.68.6 1.04.92.16-.28 0-.44-.16-.6-.56-.64-1.12-1.28-2.16-1.12zm3.24-6.6c.04-.08.04-.16 0-.24a.482.482 0 00-.2-.2c-.08-.04-.2.04-.24.08-.04.08-.12.2-.16.28 0 .04-.04.08-.04.08v.08c-.04.4-.08.76.24 1.04.04.04.12.08.2.08h.08c.04 0 .08-.08.12-.12 0-.04.04-.08 0-.12-.12-.32-.08-.64 0-.96zm4.48 14.36c-.4.12-.8.24-1.2.24-.4-.04-.72-.32-1.08-.48-.2-.08-.4-.16-.6-.2-.16-.04-.36-.12-.48-.24s-.04-.32 0-.44c.04-.24.12-.44.16-.68.12-.48-.64-.72-.76-.2s-.4 1.12-.16 1.64c.24.48.84.64 1.32.8.24.08.44.2.64.36.24.12.48.24.72.24.56.08 1.08-.04 1.6-.24.2-.08.32-.28.28-.48 0-.24-.24-.36-.44-.32z" fill="#E66C55"/></g></svg>