<svg width="280" height="223" xmlns="http://www.w3.org/2000/svg"><g fill="#E66C55" fill-rule="nonzero"><path d="M192.016 198.47a.815.815 0 0 1 .233-.466 30.67 30.67 0 0 0 .933-7.92v-3.03a1.957 1.957 0 0 0-1.399-2.096 37.633 37.633 0 0 0 .233 13.512zM28.41 204.062a2.05 2.05 0 0 0 .466-1.864l-.233-.233c-.233 0-.233 0-.466.233s-.466 1.165.233 1.864zM196.678 208.255a1.025 1.025 0 0 0-.234-1.165.77.77 0 0 0-1.165 0c.233.699.932.932 1.399 1.165zM196.91 208.255c.234.233.467.233.467.466h.466l.233-.233-.466-.466a1.795 1.795 0 0 1-.7.233zM191.55 205.226v.466c.126.127.29.209.466.233v-.466a.723.723 0 0 1-.466-.233zM138.646 99.925c-.233-.932-.233-1.63-.466-2.562-.233-.932-1.398-.932-1.631-.233a10.691 10.691 0 0 0-1.632 3.727c-.466 2.563-.932 5.125-1.165 7.688-.233 2.563-.7 5.591-.932 8.387-.233 1.864-.466 3.96-.7 5.824a1.56 1.56 0 0 0 .933 1.63 1.469 1.469 0 0 0 1.864-.698 17.444 17.444 0 0 0 1.165-3.728c.234-2.795.467-5.59.933-8.386l.699-4.194c.233-2.33.466-4.892.932-7.455zM126.76 106.681v3.495c-.233 1.63.7 2.562 1.632 3.727a1.305 1.305 0 0 0 1.398-1.165 53.401 53.401 0 0 0 2.097-10.25 5.915 5.915 0 0 0-.466-2.796 1.328 1.328 0 0 0-2.33-.233c-.284.356-.52.747-.7 1.165a16.048 16.048 0 0 0-.699 1.864 2.96 2.96 0 0 0-1.398-.233 2.33 2.33 0 0 0-2.33 1.165 9.434 9.434 0 0 0-1.166 2.096c-.699 1.631-1.165 3.495-1.864 5.359l.699.699 1.398.699a2.773 2.773 0 0 0 2.33-1.864c.467-1.165.933-2.33 1.4-3.262-.234-.466-.234-.466 0-.466zM203.902 77.327c-.06.404.022.816.233 1.165a25.062 25.062 0 0 1 3.03 6.756l.7 1.398a2.121 2.121 0 0 0 2.33.932c.932-.233 1.165-1.165 1.165-2.33-.363-2.399-1.51-4.61-3.263-6.29a8.367 8.367 0 0 0-2.33-1.63c-.233-.466-.932-.7-1.865 0zM240.725 29.802c0 .233.234.466.234.7a5.918 5.918 0 0 0 2.563 2.795 2.331 2.331 0 0 0 2.098.233c1.165-.7 2.33-1.165 3.496-1.864.699-.466.466-1.398-.234-1.864a9.44 9.44 0 0 0-2.097-1.165 5.315 5.315 0 0 0-3.729-.932 1.282 1.282 0 0 0-1.165.7c-.466.465-.7.931-1.166 1.397z"/><path d="M1.142 151.877a9.32 9.32 0 0 1 3.03-3.029c1.631-.932 3.496-2.096 5.127-3.028a12.723 12.723 0 0 0 4.428-4.194 51.255 51.255 0 0 1 3.263-4.193 41.19 41.19 0 0 0 3.729-5.125 39.415 39.415 0 0 1 3.962-6.756 8.595 8.595 0 0 0 1.631-3.262c.932-2.097 2.564-7.455 3.03-8.853a42.48 42.48 0 0 1 1.631-5.824 22.108 22.108 0 0 1 5.128-7.92c1.165-1.166 3.729-7.456 7.69-11.183 1.632-1.398 10.488-10.484 12.12-11.183.932-.465 1.631-.698 2.563-1.164a9.488 9.488 0 0 1 4.195-1.165 9.908 9.908 0 0 0 2.564-.466c2.739-.694 5.574-.93 8.39-.699 1.557-.039 3.115.04 4.661.233 1.945.039 3.89-.04 5.827-.233a53.04 53.04 0 0 1 6.06-.466c4.595-.078 9.185-.39 13.75-.932a40.428 40.428 0 0 1 13.983.7 7.694 7.694 0 0 0 3.263 0l3.263-.7c3.495-.466 7.224-.699 10.72-1.165a77.125 77.125 0 0 1 12.818-1.165 36.626 36.626 0 0 0 13.285-2.795c2.097-.932 4.428-1.63 6.525-2.563a46.27 46.27 0 0 0 10.954-4.892c.514-.36 1.06-.672 1.631-.932a44.801 44.801 0 0 0 6.76-3.261 12.353 12.353 0 0 0 2.33-1.398c.294-.363.706-.61 1.165-.7a5.313 5.313 0 0 0 2.098-1.863 17.919 17.919 0 0 1 4.195-4.193 6.012 6.012 0 0 0 2.097-2.097 92.158 92.158 0 0 0 5.127-7.92 5.335 5.335 0 0 1 1.632-2.33 9.131 9.131 0 0 0 1.864-3.262 10.552 10.552 0 0 1 2.564-4.426 47.246 47.246 0 0 0 3.03-4.194c.54-.984 1.163-1.92 1.864-2.795.485-.671 1.031-1.295 1.631-1.864a14.894 14.894 0 0 1 10.721-6.057h.466a19.258 19.258 0 0 1 8.157 0l4.428.699a15.34 15.34 0 0 1 3.496.931 58.927 58.927 0 0 1 8.623 4.194 27.57 27.57 0 0 1 6.526 5.125 4.659 4.659 0 0 1 1.864 3.262c.018.68.5 1.257 1.166 1.397.589.264 1.22.422 1.864.466a19.79 19.79 0 0 1 5.128 2.097c.95.528 1.97.92 3.03 1.165a35.222 35.222 0 0 1 6.758 3.028 2.073 2.073 0 0 1 1.165 1.864 7.29 7.29 0 0 1-.932 4.427 35.55 35.55 0 0 1-2.564 3.727c-1.398 1.864-2.33 3.96-3.496 5.824-.466.932-1.165 1.864-1.63 3.029a18.78 18.78 0 0 1-2.798 3.261 4.661 4.661 0 0 1-2.796 1.864c-1.613.347-3.249.58-4.895.699-3.495 0-6.991-.233-10.487-.466a10.258 10.258 0 0 1-2.33-.466 10.375 10.375 0 0 0-3.73-.233l-.466.466c-1.165 2.097-2.33 4.193-3.263 6.29a18.634 18.634 0 0 0-1.864 3.728 35.15 35.15 0 0 1-3.496 6.523 10.295 10.295 0 0 0-1.398 3.727 35.328 35.328 0 0 0-.7 4.893c-.232 2.33-.466 4.659-.699 7.221-.233 1.398-.233 3.03-.466 4.427.05.86-.029 1.724-.233 2.563a36.006 36.006 0 0 1-1.631 5.358 20.964 20.964 0 0 1-2.797 5.591 30.285 30.285 0 0 0-2.33 3.494 25.441 25.441 0 0 1-3.03 3.96 8.714 8.714 0 0 0-1.399 1.632c-1.398 1.863-2.796 3.96-4.195 6.057a27.729 27.729 0 0 1-7.924 7.688 13.33 13.33 0 0 0-1.864 1.63 1.7 1.7 0 0 0-.466 1.398 7.126 7.126 0 0 1-.466 4.427c-.7 2.562-1.399 5.125-2.098 7.92-1.631 5.825-2.563 12.115-3.962 18.172 0 .466-.233.699-.233 1.165a95.133 95.133 0 0 1-2.33 14.21 98.905 98.905 0 0 0-1.865 14.212 33.814 33.814 0 0 0 .466 8.387.723.723 0 0 0 .466.233c.233 0 .467.233.7.233a7.528 7.528 0 0 1 4.66 3.261 7.849 7.849 0 0 1 1.166 3.96 2.958 2.958 0 0 1-.932 2.097 1.77 1.77 0 0 0-.466.932 6.292 6.292 0 0 1-1.865 1.63c-1.398.467-2.563.933-3.962 1.399a8.51 8.51 0 0 1-6.758.466 5.943 5.943 0 0 1-2.797-1.864 27.96 27.96 0 0 0-2.564-2.796 4.17 4.17 0 0 1-1.165-1.63c-1.165-1.864-2.33-3.961-3.729-5.825a4.984 4.984 0 0 1-.7-4.426c.234-1.165.467-2.563.7-3.728.048-.495.208-.972.466-1.397.466-1.165.932-2.33 1.398-3.262a3.237 3.237 0 0 0 0-2.097 8.268 8.268 0 0 1-.466-2.33c-.388-2.4-.309-4.851.233-7.221v-.7c.233-3.96-.233-7.92.233-11.647a6.45 6.45 0 0 0-.233-2.097 10.084 10.084 0 0 1-.233-3.728v-1.63c-.049-.861.03-1.725.233-2.563.388-2.778.544-5.583.467-8.387a6.8 6.8 0 0 0-.467-2.097c-.233-.698-.233-1.397-.466-1.863-.233-1.631-.466-1.864-2.097-1.631a2.098 2.098 0 0 0-1.166.233c-1.363.384-2.78.542-4.195.466h-1.864a56.538 56.538 0 0 1-13.983-.932 19.42 19.42 0 0 1-3.496-.932 22.916 22.916 0 0 0-3.73-1.165 42.243 42.243 0 0 1-7.224-2.096c-1.631-.7-3.263-.932-4.894-1.631a27.969 27.969 0 0 1-7.924-4.893 33.35 33.35 0 0 0-3.496-2.562c-1.865-.932-3.73-2.097-5.36-3.029a3.38 3.38 0 0 0-1.632-.466c-2.33-.466-4.428-1.165-6.759-1.863a31.03 31.03 0 0 0-7.924-2.33l-5.127-.699H96.93c-.932 0-2.098.233-3.03.233a16.32 16.32 0 0 0-5.826 1.165 52.403 52.403 0 0 0-1.865 5.591 28.58 28.58 0 0 1-2.797 6.057 43.281 43.281 0 0 0-2.563 4.427 22.156 22.156 0 0 1-3.496 4.659c-1.632 1.63-3.263 3.028-4.894 4.426a36.354 36.354 0 0 1-6.526 5.358c-3.496 3.495-7.69 6.29-11.42 9.552a24.772 24.772 0 0 1-2.563 2.097 31.76 31.76 0 0 0-5.594 5.591c-.233.466-.699.699-.932.932-.233.233-1.165.932-1.398 1.398a9.323 9.323 0 0 1-5.128 2.795 7.435 7.435 0 0 0-3.729 2.097 9.898 9.898 0 0 1-.699 5.824c-.233.932-.466 1.864-.699 2.563a58.5 58.5 0 0 0-.932 6.29 5.682 5.682 0 0 0 0 2.796c.466 1.63 1.165 3.494 1.631 5.125.175.48.502.889.932 1.165a6.708 6.708 0 0 1 1.632 4.659 1.56 1.56 0 0 1-1.165 1.63 9.908 9.908 0 0 1-2.564.467 4.895 4.895 0 0 0-2.564.932 9.488 9.488 0 0 1-7.458 2.562h-.466c-1.848.35-3.745.35-5.593 0a6.994 6.994 0 0 0-3.03.233 1.865 1.865 0 0 1-1.864-.233 4.1 4.1 0 0 1-2.33-3.96 4.915 4.915 0 0 1 .931-2.33 3.26 3.26 0 0 0 .467-3.261 11.644 11.644 0 0 1-.467-3.96v-3.495c-.199-3.424-.043-6.86.467-10.25.203-3.425.91-6.8 2.097-10.019a23.48 23.48 0 0 1 2.098-4.193 3.75 3.75 0 0 0 .932-1.63 9.483 9.483 0 0 1 2.796-3.262 56.7 56.7 0 0 1 5.827-4.66 41.55 41.55 0 0 0 6.06-5.125 6.175 6.175 0 0 1 1.398-1.165 16.963 16.963 0 0 0 3.962-4.193 30.285 30.285 0 0 0 2.33-3.495l2.098-3.494c.699-1.165 1.165-2.563 1.864-3.728a12.716 12.716 0 0 0 1.399-6.523 3.936 3.936 0 0 0-.466-1.164 17.782 17.782 0 0 1-2.564 1.863 13.516 13.516 0 0 0-2.797 2.33 12.864 12.864 0 0 1-3.962 3.261 16.547 16.547 0 0 0-3.263 2.33 11.887 11.887 0 0 1-4.66 2.796c-1.154.401-2.25.95-3.264 1.63l-7.69 4.194c-.607.271-1.23.505-1.865.699a11.865 11.865 0 0 0-3.962 1.63c-.699.234-1.165.7-1.864.932-1.26.53-2.599.845-3.962.932-.7 0-1.166-.466-1.399-1.397a3.307 3.307 0 0 0-.466-1.398c-1.398-.233-1.165-.932-.932-1.398zm193.904 16.774c.466-3.262 1.165-6.29 1.632-9.552.233-1.398.466-2.563.699-4.194-.466.466-.7.466-.7.7a28.111 28.111 0 0 0-2.796 8.852 36.003 36.003 0 0 0-.932 7.222 31.974 31.974 0 0 1-.467 8.154c.02.86-.059 1.72-.233 2.563a9.969 9.969 0 0 0 1.166-3.029c.699-3.727 1.165-7.222 1.631-10.716zm-3.496 37.274c.18.017.345.1.466.233v-.466a.723.723 0 0 1-.466-.233v.466zm4.894 1.165a.77.77 0 0 0-1.165 0c.233.699.932.932 1.399 1.165.233-.466.233-.699-.234-1.165zm1.399 1.63a.815.815 0 0 0-.233-.465h-.7l.467.466h.466zm-168.967-.232a20.423 20.423 0 0 0 6.292-1.398 9.317 9.317 0 0 0-1.864-3.727 16.056 16.056 0 0 0-3.03-2.563 4.659 4.659 0 0 1-2.097-3.727 19.33 19.33 0 0 1 1.398-10.251c1.165-2.563 2.098-5.125 3.03-7.688.233-.466.466-.699 0-1.398a5.08 5.08 0 0 0-1.165.932 55.712 55.712 0 0 1-5.128 5.358 15.094 15.094 0 0 0-4.195 8.62 33.814 33.814 0 0 0 .466 8.387.862.862 0 0 0 .233.699 26.417 26.417 0 0 0 3.73 6.057c1.165.233 1.63.699 2.33.699zm-22.84-55.68a21.982 21.982 0 0 1 5.36-2.329c.7-.233 1.399-.699 2.098-.932.233-.233.7-.466.932-.699a65.5 65.5 0 0 1 9.09-4.426 7.854 7.854 0 0 0 3.962-2.563 11.653 11.653 0 0 1 3.262-2.33 13.843 13.843 0 0 0 4.219-3.028c1.165-1.165 2.33-2.097 3.729-3.261l2.796-2.097c1.632-.932 1.865-2.33 1.865-4.194a25.197 25.197 0 0 1 0-4.193c.314-4.297.858-8.574 1.631-12.813.466-2.097.7-4.194 1.165-6.523a4.146 4.146 0 0 1 .933-2.33.863.863 0 0 1 .699-.233c.233 0 .466.466.466.699v3.262c-.466 2.795-.932 5.59-1.165 8.386a34.746 34.746 0 0 0-.466 4.893c0 2.795.233 5.59.466 8.62.31 3.33.388 6.677.233 10.017a10.853 10.853 0 0 1-1.399 4.66l-2.097 4.193a53.86 53.86 0 0 1-6.293 9.784l-.699.7c-3.03 2.096-5.36 5.125-8.623 7.221a31.321 31.321 0 0 0-3.263 2.563c-.233.233-.233.466-.466.466a18.034 18.034 0 0 0-6.06 6.523 22.336 22.336 0 0 0-3.262 9.319c-.233.932-.233 1.863-.466 2.795-.233 3.262-.7 6.523-.7 9.552.04 1.944-.039 3.89-.233 5.824a57.102 57.102 0 0 1-.466 6.29 9.898 9.898 0 0 1-.466 2.563 15.737 15.737 0 0 0 9.789.699c.976-.372 1.913-.84 2.796-1.398a2.143 2.143 0 0 0-.699-2.097 13.98 13.98 0 0 0-1.864-1.864 6.406 6.406 0 0 1-2.33-4.426c-.234-2.563-.234-5.125-.7-7.688a6.73 6.73 0 0 1 .7-4.193c.44-.83.83-1.685 1.164-2.563a23.716 23.716 0 0 1 6.293-8.853 18.273 18.273 0 0 1 4.195-2.562 17.317 17.317 0 0 0 4.894-3.029c.466-.466.932-.699 1.399-1.165a4.895 4.895 0 0 1 3.495-1.164c.233-.233.467-.233.467-.466a27.962 27.962 0 0 1 6.525-6.29 42.553 42.553 0 0 1 3.73-3.03c1.397-1.164 2.796-2.096 3.961-3.028 1.631-1.165 3.03-2.562 4.661-3.727.7-.466 1.166-.932 1.865-1.398a15.218 15.218 0 0 0 3.729-3.029 40.571 40.571 0 0 1 3.262-2.795 21.11 21.11 0 0 0 6.06-6.756l2.097-3.495a14.861 14.861 0 0 0 3.03-6.057c0-.233 0-.233.233-.466a24.336 24.336 0 0 0 1.399-10.017c0-2.796 0-5.825.233-8.62a6.45 6.45 0 0 1 .233-2.097c.233-1.63.932-2.097 2.563-1.864 1.632.233 1.865.466 1.865 1.864 0 .932.233 1.864.233 2.796v4.193a13.181 13.181 0 0 0-.466 5.125.723.723 0 0 0 .466.233 61.085 61.085 0 0 0 6.525-.233 17.276 17.276 0 0 1 4.895.233l4.894.7c.932.232 2.097.232 3.03.465 2.097.466 3.962 1.165 6.06 1.631h1.398c12.352 2.563 19.11 10.018 22.84 11.881a34.968 34.968 0 0 0 9.788 3.495c1.894.436 3.761.98 5.593 1.63a22.917 22.917 0 0 0 7.924 1.631c1.165 0 2.564.233 3.729.233h2.797a5.013 5.013 0 0 1 1.864 0 40.404 40.404 0 0 0 7.458-.699c1.165-.232 1.398-.465 1.631-1.63l.7-4.893v-2.096a4.797 4.797 0 0 1 .466-3.96c.116-.929.116-1.868 0-2.796a8.523 8.523 0 0 1 0-4.194c.19-.44.27-.92.233-1.398v-6.989a22.893 22.893 0 0 0-1.632-7.92 4.17 4.17 0 0 0-1.165-1.631c-.233-.466-.932-.7-1.165-1.165-.7-1.63-1.399-3.495-2.098-5.125-.233-.466.233-1.165.932-1.165a3.007 3.007 0 0 1 2.564 1.165c.466.932.932 1.63 1.398 2.562a7.385 7.385 0 0 0 1.865 2.796l1.398 2.097a22.59 22.59 0 0 1 1.632 10.483 78.109 78.109 0 0 1-1.632 10.25 15.393 15.393 0 0 0 0 6.524c.31 1.454.388 2.948.233 4.426-.233 1.864-.233 3.495-.466 5.358a8.733 8.733 0 0 0 .233 2.33c.662 2.907.742 5.915.233 8.853 0 .932-.233 1.63-.233 2.562a7.918 7.918 0 0 1-.233 2.33 15.836 15.836 0 0 0-.466 4.66v1.397a10.526 10.526 0 0 0-.233 4.66c.028.86-.05 1.72-.233 2.562 0 .7-.233 1.165-.233 1.864 0 2.563 0 5.358.233 7.92.193 2.65.036 5.313-.466 7.922a17.769 17.769 0 0 0-.466 6.057c.116 1.55.116 3.108 0 4.66 0 1.164.233 2.562.233 3.727.132.581.37 1.133.699 1.63.932 1.631 1.864 3.029 2.797 4.66.227.516.542.99.932 1.398a14.632 14.632 0 0 1 2.563 2.795c.234.466.933.7 1.399.932a5.2 5.2 0 0 0 3.263 0 16.178 16.178 0 0 0 3.03-1.165 2.726 2.726 0 0 0 2.097-2.562 11.651 11.651 0 0 0-3.03-2.796 3.94 3.94 0 0 0-2.33-.699h-1.166a2.074 2.074 0 0 1-1.864-1.165c-.19-.44-.27-.92-.233-1.398a38.076 38.076 0 0 0-.466-5.125 15.207 15.207 0 0 1 0-3.261c0-1.864-.233-3.495-.233-5.359-.078-2.494.078-4.99.466-7.455.233-1.63.233-3.261.466-4.892a5.123 5.123 0 0 1 .233-1.864c.385-1.521.542-3.091.466-4.659-.077-1.876.08-3.754.466-5.591l.7-4.194a25.34 25.34 0 0 1 1.63-5.59c.234-.467.234-.933.467-1.399.186-.534.342-1.078.466-1.63a86.968 86.968 0 0 0 4.661-13.046 55.762 55.762 0 0 1 3.03-6.524c0-.233.233-.233.233-.466a16.822 16.822 0 0 1 6.06-6.756 17.964 17.964 0 0 0 4.894-5.358c1.398-2.096 2.796-3.96 4.195-5.824.233-.466.699-.699 1.165-1.165a30.801 30.801 0 0 0 5.127-6.057c.233-.466.466-.699.7-1.165a16.631 16.631 0 0 0 3.728-7.92c.466-1.631.933-3.03 1.399-4.427.501-1.58.66-3.247.466-4.892a12.715 12.715 0 0 1 .233-4.194c.466-2.562.699-5.358 1.165-7.92a20.962 20.962 0 0 1 2.564-6.29 21.29 21.29 0 0 0 1.631-3.262c1.165-2.33 2.33-4.893 3.73-7.222a46.192 46.192 0 0 1 2.563-4.66c-.233-.233-.7-.233-.933-.466a20.4 20.4 0 0 0-3.728-.465 10.303 10.303 0 0 1-7.924-3.728c-.7-.233-.7.466-1.166.699a5.128 5.128 0 0 1-3.496 1.398 4.196 4.196 0 0 1-3.495-1.631l-6.293-9.086c-.932-1.398-2.098-2.562-3.03-3.96a3.215 3.215 0 0 1-.699-.932 2.096 2.096 0 0 1 0-2.33 2.191 2.191 0 0 1 3.03 0 24.93 24.93 0 0 1 3.263 3.728c1.864 2.795 3.729 5.824 5.593 8.62.233.465.7.931.932 1.397.209.566.821.872 1.399.7.699-.234 1.165-.467 1.398-1.166.233-.698.233-.931.233-1.63 0-3.728-.233-7.688-.233-11.416 0-2.33.233-4.892.233-7.222a6.8 6.8 0 0 1 .466-2.096c0-.233.233-.7.466-.7.466-.465.932-.698 1.399-.465.466.233.932.466.699 1.165-.233 1.63-.233 3.261-.466 4.892-.233 3.028-.466 5.824-.466 8.853 0 1.863.233 3.96.233 5.824.064.792.22 1.574.466 2.33a3.45 3.45 0 0 1 1.631.232 5.08 5.08 0 0 1 1.165.932 5.547 5.547 0 0 0 3.03 2.097c.932.233 1.865.699 2.797.932 2.797.466 5.593.699 8.39 1.398a54.276 54.276 0 0 0 12.352 1.398c1.945.038 3.89-.04 5.826-.233a2.657 2.657 0 0 0 1.865-.7 18.637 18.637 0 0 0 4.195-6.29 12.51 12.51 0 0 1 2.33-3.727c.467-.699.933-1.165 1.399-1.864-.528-.95-.92-1.97-1.165-3.028-.233-1.165-.233-2.33-.467-3.262-.233-.932.7-1.864.933-3.028a10.933 10.933 0 0 0-5.128-2.097 38.84 38.84 0 0 1-6.991-1.864 3.24 3.24 0 0 1-1.865-1.63c-.466-.7-.932-1.631-1.398-2.33a16.312 16.312 0 0 0-5.127-4.66 61.49 61.49 0 0 0-10.255-5.358 6.458 6.458 0 0 0-3.03-.699 25.646 25.646 0 0 1-4.195-.466 17.65 17.65 0 0 0-3.496-.233 7.927 7.927 0 0 0-3.262.466 1.399 1.399 0 0 1-.933.233 13.356 13.356 0 0 0-6.525 3.262c-.466.233-.7.699-1.166 1.165-.466.466-1.165 1.63-1.864 2.33a24.554 24.554 0 0 0-1.631 2.562 13.209 13.209 0 0 1-2.797 4.193 12.789 12.789 0 0 0-2.797 4.893 8.549 8.549 0 0 1-2.097 3.727 4.822 4.822 0 0 0-1.399 2.33 27.44 27.44 0 0 1-2.563 4.426 6.988 6.988 0 0 0-1.632 3.495c0 .932-.932 1.397-1.631 1.63a11.21 11.21 0 0 0-5.594 4.194.233.233 0 0 1-.233.233 62.76 62.76 0 0 1-6.292 4.66 8.18 8.18 0 0 0-1.865 1.164 8.625 8.625 0 0 1-2.563 1.165 18.647 18.647 0 0 0-3.73 1.864 61.003 61.003 0 0 1-11.186 5.125c-2.564.932-5.36 1.864-7.924 2.795a32.872 32.872 0 0 1-12.352 2.796h-5.127c-1.95.04-3.896.195-5.827.466l-10.72 1.398c-2.564.233-4.895.699-7.458.932-2.106.31-4.255.15-6.293-.466a11.82 11.82 0 0 0-3.03-.466 39.635 39.635 0 0 0-9.089.233 40.101 40.101 0 0 1-7.458.466 65.281 65.281 0 0 0-11.653.699 15.598 15.598 0 0 1-4.66 0H70.15c-1.177.04-2.348.196-3.495.466l-3.962.698a29.35 29.35 0 0 0-2.331.7c-.7.232-2.098.931-3.03 1.397-.516.227-.99.543-1.398.932a71.84 71.84 0 0 1-9.789 9.086l-2.097 1.398c-1.165.698-8.623 12.347-10.255 15.142a17.421 17.421 0 0 0-2.33 7.455 9.316 9.316 0 0 1-1.632 4.893 14.255 14.255 0 0 0-1.165 2.795 18.26 18.26 0 0 0-1.165 3.262 9.76 9.76 0 0 1-2.098 3.261c-1.631 1.631-3.03 3.495-4.428 5.126-.233.233-.233.698-.466 1.164h2.098c0 .233.233.466.233.7-.228.516-.543.989-.933 1.397-1.398 1.63-2.796 3.029-4.195 4.66l-.466.465a21.482 21.482 0 0 1-5.127 6.058c-.409.389-.882.704-1.398.931l-4.895 2.796c-.699.466-1.631.932-1.864 2.097a15.364 15.364 0 0 0 2.074-.466z"/><path d="M28.643 201.965c.129 0 .233.104.233.233a2.795 2.795 0 0 1-.466 1.864c-.7-.7-.466-1.398-.233-2.097h.466z"/></g></svg>