<svg width="320" height="194" xmlns="http://www.w3.org/2000/svg"><g fill="#E66C55" fill-rule="evenodd"><path d="M162.76 69a2.64 2.64 0 0 0-2.76-2.17c-.95-.72-1.91-1.4-2-1.53a2.66 2.66 0 0 0-1.56-.61c-3.12-.32-6.7 1.84-8.22 4.91a5.44 5.44 0 0 0 .75 6.54 9.91 9.91 0 0 0 5.5 3.45 6.36 6.36 0 0 0 7-2.49 8.72 8.72 0 0 0 1.29-8.1m-1.86 4.09c-.55 2.84-2.36 4.7-4.78 4.72-2.77 0-4.05-.63-4.52-3 0-.13-1.47-2.42-1.48-2.56C150 69 154 65.74 157 66.88l2.78 1a1 1 0 0 0 .11.17 5.83 5.83 0 0 1 1.05 5m6.19-.64c-.49-2-1-3.94-1.44-5.93-.35-1.59-1.29-5.32-2-6.11a25.61 25.61 0 0 0-2.49-2.7c-2.89-2.54-5.43-5.63-8.73-7.55-7.76-4.54-8.08-8-12.08-12-3.5-3.53-7.6-4.83-12.55-1.53a18.35 18.35 0 0 0-7.21 9.64c-4.9 14.2 0 12.84 3.63 18.41a38.17 38.17 0 0 0 9.72 10c1.46 1.07 2.69 2.5 4.06 3.71.41.36 4.38 4.3 7.65 6.13 3.76 2.84 8.55 2.06 13.06 1.74a8.6 8.6 0 0 0 7.93-6.05 13.38 13.38 0 0 0 .4-7.8M136.55 74c-2.62-2.42-5.53-4.53-8-7.12A22.89 22.89 0 0 1 122.39 48a9.26 9.26 0 0 1 1-3.4 16.14 16.14 0 0 1 6.87-7c2.44-1.19 4.48-1.82 6.58-.21 1.36 1 2.25 4.9 3.44 6.15 5.17 5.44 10.88 9 16.94 13.36 1.25.91 2.39 2 3.58 3-4.27-.77-8.17.23-12 1.84a9.75 9.75 0 0 0-6.16 7.78 51.21 51.21 0 0 0-.59 5.66 8.31 8.31 0 0 0 1.13 4.8c-1.27-.72-2.25-1.28-2.31-1.35-1.43-1.57-2.83-3.17-4.38-4.6m28 5.64c-.93 3.23-3.9 4.75-9 4.61a13.09 13.09 0 0 1-9.15-3.56 6.81 6.81 0 0 1-2.34-5.44 48.86 48.86 0 0 1 .7-5.91 7.19 7.19 0 0 1 3.94-5.37c3.59-1.85 7.34-3 11.43-2.22.9.188 1.649.81 2 1.66 1.8 3.07 2 6.61 2.87 9.92a12.46 12.46 0 0 1-.43 6.24M199.23 146.35c-7.1-3.55-14.8-5.09-22.75-5.61a3.71 3.71 0 0 0-3.68 2.07 42 42 0 0 1-3.68 5.61c-4.94 5.9-10 11.71-15.05 17.51-2.18 2.49-3.08 5.37-4.27 8.46-3.55 9.17 4.53 13.63 5.11 14.38 2.32 3 5.77 2.85 9.32 4.25 3.55 1.4 9.54 0 11.93-2.8 2.13-2.52 4.15-5.13 6.1-7.79 3.26-4.47 7.56-10.17 12.17-13.45 4-2.85 7.59-3.93 9.94-8.37a8.75 8.75 0 0 0 1.2-3.84 10.87 10.87 0 0 0-6.34-10.42m-25.37 39.81c-1.63 3.65-2.74 4.32-4.69 5.16a5.51 5.51 0 0 1-5.07-.72c-2.47-1.61-3-1.16-5.4-2.87-.84-.61-3.5-2-4.33-2.61-1.66-1.64-1.29-2.29-2.71-4.16.05-.2-.58-4-.54-4.17.6-3 .57-4.85 2.44-7.57a7.48 7.48 0 0 1 7.59-3.27c5.4 1.06 11.35 6.72 12.35 11.94a39.1 39.1 0 0 1 .36 8.27m28.69-26c-2.61 3.54-8.92 4.27-12.45 6.77-4.57 3.23-6.35 9.49-9.6 13.9-.59.8-1.2 1.59-1.84 2.43a1.37 1.37 0 0 1-2.43-.6c-.25-1.76-.49-3.42-.81-5.06-1.18-6.11-8.2-12.61-14.42-13.41a18 18 0 0 0-2.44 0c-.17-.21 6.29-4.4 8.26-6.62 1.37-1.54 3.1-4.09 4.33-5.73 1.72-2.28 1.91-5.06 3.46-7.46a2.44 2.44 0 0 1 2.48-1.35 29 29 0 0 1 4.07.49c4.78 1.17 9.56 2.35 14.29 3.73a10.87 10.87 0 0 1 6 4.14c1.61 2.27 3.52 5.52 1.12 8.79"/><path d="M170 182.85a5.12 5.12 0 0 0-.52-1.31 42.82 42.82 0 0 0-3.9-6.14c-1.19-1.39-7.41-7.46-12.54-.93a3.17 3.17 0 0 0-.19 3.6 17.68 17.68 0 0 0 12.73 9.75c3.43.73 5.4-1.68 4.42-5m-4.31 3a15.77 15.77 0 0 1-9.19-5.82c-3.75-4.8 2.57-4 3.79-6.29a4.37 4.37 0 0 1 2.75 1.74 49.59 49.59 0 0 1 5 7.75c1 2-.09 3.1-2.38 2.61M291.63 19.12a88.7 88.7 0 0 0-10.69-1.34 69.79 69.79 0 0 0-7.37-.49c-1.3 0-1.94-.42-1.91-1.7a26.69 26.69 0 0 0-.27-3.68 10.41 10.41 0 0 0-5.23-8.21 21.1 21.1 0 0 0-3.83-1.92 27.37 27.37 0 0 0-30 8.58c-1.19 1.41-1.68 3.41-2.57 5-4.09 7.43-3.71 13.55 3.06 19.29 6.49 5.5-4.7 15.56-8.38 21.2-4.16 6.4-9 12.44-12.07 19.46-1 2.28-2.22 4.16-4.91 4.61-.18 0-.46.13-.49.25l-.09.35c-5.26.39-11.35 3.26-16.22 5.38a26.49 26.49 0 0 0-12.18 10c-2.68 4.26-3.89 9.11-2.38 14.22.26.91.46 1.84.76 2.74 1.05 3.24 2 6.58 4.2 9.27 4 4.75 9.23 6.88 15.34 7.15 2.15.1 4.32 0 6.44.21.324.045.642.122.95.23 3.13.34 4.31 2.72 6.26 5 .456.517.95.999 1.48 1.44a26.74 26.74 0 0 0 10.88 3.87 42.29 42.29 0 0 0 22.06-2.5c4.73-1.89 5.71-7.45 5.15-10.69a3.82 3.82 0 0 1 .11-1.87 7.78 7.78 0 0 0 0-5.56 37.15 37.15 0 0 0-2-5.12 6.37 6.37 0 0 1 .6-5.88c.54-.82 1.18-1.84 2-3 2.55-2.24 3.88-5.27 5.27-8.26a34.08 34.08 0 0 1 1.68-3.56c1.86-3 3.77-5.92 5.77-8.8 2.8-4.06 5.69-8.06 8.58-12.07a5 5 0 0 1 3.74-2.08c5.1-.58 10.13-1.48 14.72-3.94 4.25-2.28 7.69-5.42 9.35-10 1.57-4.31 3.27-8.65 4-13.17 3.37-21-3.58-22.47-11.78-24.39m-46.77 115.23a3.23 3.23 0 0 0-.18.28 1.78 1.78 0 0 1-1.32 1.2h-.24a1.26 1.26 0 0 1-.44 0c-.25 0-1.39.4-1.59.44-.2.04-.66.11-1 .15-.07.07-3 .68-4.75 1.3-2.22.92-4.81.84-7.19.8a18.72 18.72 0 0 1-7-1.06c-.12 0-1.11-.52-2-1a11.23 11.23 0 0 0-3-1c-3.79-.72-5-2-7.88-5.48a7.83 7.83 0 0 0-6.85-3.08c-3.48.14-7 .22-10.39-.8-5.45-1.62-9.25-4.95-11-10.41a1.15 1.15 0 0 1 0-.37c.11-.1.47.2.61.39 3.16 4.65 6.91 7.81 12.18 8.58a9.1 9.1 0 0 0 2.84-.1 1.53 1.53 0 0 1 .86-.53 39.49 39.49 0 0 0 4.74-1.16c.68-.22 1.34-.43 2-.6l.41-.12a7.32 7.32 0 0 1 4.31-.33 5.22 5.22 0 0 1 3 3.27 18.77 18.77 0 0 1 1.46 1.5c3.1 3.7 7.26 5.11 11.78 5.69 3.15-.06 6.38-.52 9.5-.32a.72.72 0 0 1 .46.18 25.24 25.24 0 0 0 3.77-.18c1.27-.22 2.54-.49 3.8-.82a37.61 37.61 0 0 0 4.62-1.71.55.55 0 0 1 .76.53c-.06 1.93-2.25 4.74-2.23 4.71m2.42-14.13a5 5 0 0 1-1.44 5.81 11.42 11.42 0 0 1-3.83 2.11 42.75 42.75 0 0 1-13.74 1.7c-5.84-.18-11.22-1.36-15-6.27-.17-.22-.42-.38-.6-.6-2.73-3.34-6-4.59-10.39-3.38a21.33 21.33 0 0 1-8.94.7c-4.89-.73-9-2.57-11.57-7-.84-1.43-1.55-2.93-2.31-4.4-2.28-4.44-1.41-8.67 1.38-12.43a26.74 26.74 0 0 1 12.83-9.41c4.76-1.7 9.71-2 14.65-2.48a7 7 0 0 0 1-.25 3.84 3.84 0 0 0 2.38-2.11c.61-1.35 1.87-4.21 2-4.61 2.77-6.72 7.33-12.4 11.18-18.49 3.54-5.56 7.41-11.08 11.05-16.66 1.58-2.45 1.8-4.93-.31-7.44-4-4.72-3.9-9.64-3.17-15.66.46-3.83 1-7.52 3.92-10 6.14-5.27 13.22-7.59 21.27-6.18 7.29 1.29 12.42 3.41 12.18 10.72 0 .33-2.31.92-1.85 3.2.52 2.56 2 4.78 4.61 5 2.91.28 5.41-.59 8.31-.91a29.88 29.88 0 0 1 11.44.85 11.14 11.14 0 0 1 8 12.61 32.05 32.05 0 0 1-6.5 14.59c-4.25 5.28-10.26 7.61-16.93 8.21-3.24.29-7-1.21-9.74.54-2.43 1.55-2.93 7.59-4.39 10.13-5.2 9.1-10.43 18.187-15.69 27.26a8 8 0 0 1-1.08 1.32c-1.21 1.31-3.31 5.81-3.41 5.77-.46 1.83-3.69.46-2.72 3.12.212.39.46.757.74 1.1a61.19 61.19 0 0 1 3.43 5.68c1.22 2.56 2.14 5.26 3.2 7.9m54.17-78.37c-1.1 3.91-2.21 7.83-3.33 11.73-1.63 5.63-5.4 9.32-10.68 11.72a35.51 35.51 0 0 1-11.62 2.94 9 9 0 0 0-6.53 3.7c-1.92 2.68-9.59 10.39-19.74 28.65-.49.89-1.4 4.16-3.54 6.32a1.5 1.5 0 0 1-2.24-.1l-.5-.61a1.46 1.46 0 0 1-.19-1.62 24.94 24.94 0 0 1 1.39-2.16c.92-1.37 2-3.6 2.38-4.3.72-1.27 1.82-2.22 2.55-3.65 1.9-3.69 4.58-7 6.76-10.53 3.34-5.47 5.29-8.92 8.61-14.4 2.77-4.57 1.77-7 2.31-8.68.4-1.22 3-1.37 4.15-1.37 4.7 0 9.09.62 13.55-1.05 6.77-2.53 12.13-6.57 14.66-13.61a17.66 17.66 0 0 1 2.08-3.8 3.73 3.73 0 0 1-.07.82M145.61 119.46c-1.39-2-2.49-4.1-3.82-6.09a13.6 13.6 0 0 0-2.7-3.22 25.51 25.51 0 0 0-5.9-3.81c-4.75-1.9-9.65-3.41-14.5-5.07-1.11-.38-2.24-.74-2.89-1a11.18 11.18 0 0 0-.63-2.94 23 23 0 0 0-2.83-4.13c-4.19-4.62-8.46-9.16-12.73-13.7-.32-.34-.65-.68-1-1-2.73-4.49-6.46-10.66-7-11.38a3.48 3.48 0 0 1-.54-3.95 41.07 41.07 0 0 1 2.74-5.27 14.76 14.76 0 0 0 2.84-9.72c-.62-8.61-6.34-16-14.33-18.18-7.99-2.18-15.08-4.27-23.2-2.53-3 .64-6.23 4.57-7.48 7.37-.36.82-.71 1.64-1 2.47a5.8 5.8 0 0 1-6 4.14c-1.93 0-3.87 0-5.8-.2-5.93-.53-10.71 1.71-14.72 5.93-.442.437-.906.85-1.39 1.24-1 .87-2.36 1.55-3 2.63C16.42 56.4 14.8 62 18 68.16a42.88 42.88 0 0 1 1.81 3.89 18.5 18.5 0 0 0 6 7.84c4.73 3.66 9.88 6.29 15.93 6.85a2.36 2.36 0 0 1 1.44.69c4.7 5.7 9.367 11.427 14 17.18 2.89 3.61 6.66 6.53 8.46 11 .08.18.45 3.37.82 6.28-.16.74-.32 1.48-.5 2.22-1.63 6.76-3 13.52-1.38 20.5a4.22 4.22 0 0 1-.07 1.05 5.24 5.24 0 0 0 0 2.12 20.53 20.53 0 0 0 2.66 5.09c4.52 5.4 6 11.38 12.69 13.29 7.89 2.24 20.22-.16 28.13-2.42a12 12 0 0 0 7.52-5.56c1-1.77 2.11-2.3 3.92-1.94 5.28 1 11.39 1.86 16.41.3 4.42-1.37 7.18-5.54 9.28-9.89.91-1.88 1.7-3.82 2.49-5.76a25.29 25.29 0 0 0 .6-6.91c.257-.71.444-1.444.56-2.19a16.26 16.26 0 0 0-3.1-12.32m-79.39-6.29c-6.31-8.23-12.72-16.38-19.11-24.55-.47-.6-1-1.16-1.51-1.74l.36-.08c.05-.74.09-1.49.14-2.34.14-.06.48-.19.81-.34l1.23-.56c5.27 9.44 12.29 21.24 20.15 29.12-.26 1.24-.51 2.48-.75 3.72a.76.76 0 0 0-.46-.3c-.26-1-.25-2.22-.84-3m5.57 38.08a30.37 30.37 0 0 1-2.44-2.66 18.72 18.72 0 0 1-2.74-5c-1.34-4.93-.43-9.91.46-14.81.85-4.68 2-9.31 3-14v-.35l.1.09-.08-.25a6.13 6.13 0 0 0-.22-1.8.87.87 0 0 0-.39-.43c-.55-2.13-1.24-4.8-1.85-5.57-6.1-7.66-12.35-15.2-17.34-23.68A1.72 1.72 0 0 0 49 82c-2.43 0-4.86.37-7.28.34-5.48 0-10.41-1.47-13.93-6.11a31.45 31.45 0 0 0-2.68-3.08 11.37 11.37 0 0 1-3.37-7.63 52.56 52.56 0 0 1 0-7.53c.75-8.17 8.44-15.24 16.27-14.6 2.39.19 6.65 2.45 9 2.31 3.44-.21 4.56-.32 6.06-3.55.28-.62.27-5 .52-5.61a7.22 7.22 0 0 1 5.8-4.73 60.43 60.43 0 0 1 18.26-.36c6.68.84 11.56 4.23 14.3 10.36 2.13 4.76 2.88 9.59-.45 14.34a28.28 28.28 0 0 0-3.21 6.41c-.58 1.53.62 5 2.56 8.59-.25-.06-2.25-.07-2.48-.15.13.7 1.84 1.44 2.17 2a11.93 11.93 0 0 0 1.82 2.15c5.41 5.7 10.86 11.37 16.26 17.07 2 2.17 4.15 4.3 5.11 6.9-.58.77-1.5 1.46-1.41 2 .09.54 1 1.22 1.69 1.58.94.451 1.922.813 2.93 1.08 3.54 1.12 7.16 2 10.61 3.38a56.5 56.5 0 0 1 8.37 4.21c1.69 1 3 3 4.05 4.49 1.05 1.49 2.17 3.33 3.16 5a21.59 21.59 0 0 1 2.42 4.54c1 3.47 1.16 6.93-1.25 10-5.39 6.95-12.61 9.59-21.14 8.7-2.44-.25-4.81-1.34-7.2-2.08-3.61-1.14-5.48-.35-7.13 3-.14.28-.24.58-.39.86a17.41 17.41 0 0 1-6.9 7.53c-5.65 3-11.78 3.63-18.11 3.31a15.3 15.3 0 0 1-11.64-5.57m62.1 1.37a30.55 30.55 0 0 1-14.89 1.27 4.42 4.42 0 0 0-5.18 2.32 10.71 10.71 0 0 1-6.76 5.25 44.18 44.18 0 0 1-16.15 1.41 26 26 0 0 1-12.6-3.85 4.94 4.94 0 0 1-.7-.6 70.87 70.87 0 0 0 13 .62 35.87 35.87 0 0 0 10.59-2.59c5-2.06 8.18-6.2 10.21-11.17a1.83 1.83 0 0 1 2.31-1.3c1.27.28 5.15 3.09 6.37 3.54 9.88 3.61 17.65 1.52 23.77-7.71a7.08 7.08 0 0 1 1.06-1c-.58 2.13-1.08 4.07-1.35 4.94-1.54 5-5.17 7.5-9.74 9"/><path d="M170 182.85a5.12 5.12 0 0 0-.52-1.31 42.82 42.82 0 0 0-3.9-6.14c-1.19-1.39-7.41-7.46-12.54-.93a3.17 3.17 0 0 0-.19 3.6 17.68 17.68 0 0 0 12.73 9.75c3.43.73 5.4-1.68 4.42-5m-4.31 3a15.77 15.77 0 0 1-9.19-5.82c-3.75-4.8 2.57-4 3.79-6.29a4.37 4.37 0 0 1 2.75 1.74 49.59 49.59 0 0 1 5 7.75c1 2-.09 3.1-2.38 2.61"/><path d="M52.6 171.15a8.89 8.89 0 0 0-5.6-8.26c-.15-.48-.15-1.16-.48-1.4a79.81 79.81 0 0 0-7.44-5.3 61.44 61.44 0 0 1-11-8c-2.21-2.06-4.65-3.72-7.72-4.07A38.89 38.89 0 0 0 15 144a15.18 15.18 0 0 0-12.36 6.58A10.93 10.93 0 0 0 .79 155a33.32 33.32 0 0 0-.51 6.91 11.59 11.59 0 0 0 6 10c1.76 1.06 3.69 1.84 5.45 2.91a29.45 29.45 0 0 1 7.79 6.45c1.15 1.41 1.7 3.32 3.52 4.17.15.07.22.35.29.55a7.7 7.7 0 0 0 6 5 22.45 22.45 0 0 0 7.13.13c6-.94 10.49-4.54 14.13-9.16a10.2 10.2 0 0 0 1.72-4.5 37.67 37.67 0 0 0 .29-6.31zM24 179.8a1.67 1.67 0 0 1-2.91.74 42 42 0 0 0-2.92-3.18A44 44 0 0 0 8 169.54c-3.31-1.69-4.07-2.41-4.26-6.16-.07-1.2 0-4.49 0-5.69 0-5.46 1-8.45 5.95-10.57a22.13 22.13 0 0 1 5.44-1.28c3.94-.58 5 .55 8 3.32 2.17 2 6.65 4.46 9 6.16 3.81 2.77 8.07 4.37 12 7-1.1 0-2.17.09-2.44.06-6.45-.64-13.88 1.55-16.17 7.63-.74 1.95-.36 5-.88 7a77.7 77.7 0 0 1-.64 2.79zm26-2.9a7.06 7.06 0 0 1-2.28 4.91c-1.92 1.77-3.41 4.27-5.55 5.74-3.39 2.35-8.28 2.38-12.32 1.9-2.9-.35-4.86-3-4.46-5.21.77-4.25 1.38-8.56 3.12-12.58a11.48 11.48 0 0 1 8.26-6.91c1.15-.29 5.31-.23 8.15-.28l1.6 1.1c1.9 1.3 3.57 2.81 3.66 5.29.04 2.01-.1 4.03-.18 6.04z" fill-rule="nonzero"/><path d="M47.38 174.77a21.36 21.36 0 0 0-.51-3 6.89 6.89 0 0 0-1.41-3.18s-2.16-1.73-2.16-1.76c0-1-.85-1.16-1.66-1.2-4.92-.24-10.47 4-11.5 8.83a20.47 20.47 0 0 0 .21 8.43 4.19 4.19 0 0 0 2.54 3.05c2.87 1.3 8 .57 10.15-1.69 2.54-2.6 4.51-5.54 4.34-9.48zm-2.61 1.7c-1.22 5.58-3.3 9.54-8.79 8.71-1-.15-3.18-1.7-3.39-2.8a16.35 16.35 0 0 1 .55-7.62c.83-3.12 5.21-5.69 8-6.17 3.32-.47 3.86 3.17 3.83 3.52a39.41 39.41 0 0 1-.2 4.36z" fill-rule="nonzero"/><path d="M272.41 92c-3.55 7.09-5.09 14.8-5.61 22.74a3.71 3.71 0 0 0 2.07 3.68 43 43 0 0 1 5.61 3.68c5.9 4.94 11.71 10 17.51 15.06 2.49 2.18 5.37 3.07 8.46 4.27 9.17 3.54 13.63-4.53 14.38-5.12 3-2.32 2.85-5.77 4.25-9.32 1.4-3.55 0-9.54-2.8-11.92-2.52-2.13-5.13-4.16-7.79-6.1-4.47-3.27-10.17-7.57-13.45-12.17-2.84-4-3.93-7.6-8.37-10a8.89 8.89 0 0 0-3.84-1.2 10.89 10.89 0 0 0-10.42 6.4zm39.82 25.37c3.64 1.62 4.31 2.73 5.15 4.69a5.52 5.52 0 0 1-.72 5.07c-1.61 2.46-1.16 3-2.87 5.39-.61.84-2 3.5-2.61 4.33-1.64 1.66-2.29 1.29-4.16 2.71-.2-.05-4 .58-4.17.54-3-.6-4.85-.57-7.57-2.44A7.48 7.48 0 0 1 292 130c1.06-5.4 6.72-11.34 11.94-12.35a38.94 38.94 0 0 1 8.28-.35l.01.07zm-22.01-21.44a43.22 43.22 0 0 0 14.28 13.21c.8.48 1.58 1 2.32 1.51.74.51 1.59 1.2 2.43 1.85a1.37 1.37 0 0 1-.6 2.43c-1.76.25-3.42.49-5.06.8-6.11 1.18-12.61 8.2-13.41 14.42a18.05 18.05 0 0 0 0 2.44c-.21.18-4.4-6.29-6.62-8.26-1.53-1.37-4.09-3.09-5.72-4.33-2.33-1.75-5.19-1.92-7.61-3.56a2.66 2.66 0 0 1-1.19-2.49 25.68 25.68 0 0 1 .47-3.95c.92-3.76 2.8-14.25 6.28-19.22 1.37-2 2.09-2.91 7.62-1.12 2.73.91 5.12 3.69 6.85 6.34l-.04-.07z"/><path d="M308.92 121.19a5.42 5.42 0 0 0-1.32.52 44.64 44.64 0 0 0-6.14 3.9c-1.39 1.19-7.46 7.41-.93 12.55a3.19 3.19 0 0 0 3.6.19 17.76 17.76 0 0 0 9.76-12.73c.72-3.43-1.69-5.4-5-4.43m3 4.31a15.74 15.74 0 0 1-5.81 9.18c-4.8 3.76-4-2.57-6.29-3.78a4.39 4.39 0 0 1 1.74-2.76 50.81 50.81 0 0 1 7.75-5c2-1 3.1.09 2.61 2.38"/><path d="M308.92 121.19a5.42 5.42 0 0 0-1.32.52 44.64 44.64 0 0 0-6.14 3.9c-1.39 1.19-7.46 7.41-.93 12.55a3.19 3.19 0 0 0 3.6.19 17.76 17.76 0 0 0 9.76-12.73c.72-3.43-1.69-5.4-5-4.43m3 4.31a15.74 15.74 0 0 1-5.81 9.18c-4.8 3.76-4-2.57-6.29-3.78a4.39 4.39 0 0 1 1.74-2.76 50.81 50.81 0 0 1 7.75-5c2-1 3.1.09 2.61 2.38M162.76 69a2.64 2.64 0 0 0-2.76-2.17c-.95-.72-1.91-1.4-2-1.53a2.66 2.66 0 0 0-1.56-.61c-3.12-.32-6.7 1.84-8.22 4.91a5.44 5.44 0 0 0 .75 6.54 9.91 9.91 0 0 0 5.5 3.45 6.36 6.36 0 0 0 7-2.49 8.72 8.72 0 0 0 1.29-8.1m-1.86 4.09c-.55 2.84-2.36 4.7-4.78 4.72-2.77 0-4.05-.63-4.52-3 0-.13-1.47-2.42-1.48-2.56C150 69 154 65.74 157 66.88l2.78 1a1 1 0 0 0 .11.17 5.83 5.83 0 0 1 1.05 5m6.19-.64c-.49-2-1-3.94-1.44-5.93-.35-1.59-1.29-5.32-2-6.11a25.61 25.61 0 0 0-2.49-2.7c-2.89-2.54-5.43-5.63-8.73-7.55-7.76-4.54-8.08-8-12.08-12-3.5-3.53-7.6-4.83-12.55-1.53a18.35 18.35 0 0 0-7.21 9.64c-4.9 14.2 0 12.84 3.63 18.41a38.17 38.17 0 0 0 9.72 10c1.46 1.07 2.69 2.5 4.06 3.71.41.36 4.38 4.3 7.65 6.13 3.76 2.84 8.55 2.06 13.06 1.74a8.6 8.6 0 0 0 7.93-6.05 13.38 13.38 0 0 0 .4-7.8M136.55 74c-2.62-2.42-5.53-4.53-8-7.12A22.89 22.89 0 0 1 122.39 48a9.26 9.26 0 0 1 1-3.4 16.14 16.14 0 0 1 6.87-7c2.44-1.19 4.48-1.82 6.58-.21 1.36 1 2.25 4.9 3.44 6.15 5.17 5.44 10.88 9 16.94 13.36 1.25.91 2.39 2 3.58 3-4.27-.77-8.17.23-12 1.84a9.75 9.75 0 0 0-6.16 7.78 51.21 51.21 0 0 0-.59 5.66 8.31 8.31 0 0 0 1.13 4.8c-1.27-.72-2.25-1.28-2.31-1.35-1.43-1.57-2.83-3.17-4.38-4.6m28 5.64c-.93 3.23-3.9 4.75-9 4.61a13.09 13.09 0 0 1-9.15-3.56 6.81 6.81 0 0 1-2.34-5.44 48.86 48.86 0 0 1 .7-5.91 7.19 7.19 0 0 1 3.94-5.37c3.59-1.85 7.34-3 11.43-2.22.9.188 1.649.81 2 1.66 1.8 3.07 2 6.61 2.87 9.92a12.46 12.46 0 0 1-.43 6.24M199.23 146.35c-7.1-3.55-14.8-5.09-22.75-5.61a3.71 3.71 0 0 0-3.68 2.07 42 42 0 0 1-3.68 5.61c-4.94 5.9-10 11.71-15.05 17.51-2.18 2.49-3.08 5.37-4.27 8.46-3.55 9.17 4.53 13.63 5.11 14.38 2.32 3 5.77 2.85 9.32 4.25 3.55 1.4 9.54 0 11.93-2.8 2.13-2.52 4.15-5.13 6.1-7.79 3.26-4.47 7.56-10.17 12.17-13.45 4-2.85 7.59-3.93 9.94-8.37a8.75 8.75 0 0 0 1.2-3.84 10.87 10.87 0 0 0-6.34-10.42m-25.37 39.81c-1.63 3.65-2.74 4.32-4.69 5.16a5.51 5.51 0 0 1-5.07-.72c-2.47-1.61-3-1.16-5.4-2.87-.84-.61-3.5-2-4.33-2.61-1.66-1.64-1.29-2.29-2.71-4.16.05-.2-.58-4-.54-4.17.6-3 .57-4.85 2.44-7.57a7.48 7.48 0 0 1 7.59-3.27c5.4 1.06 11.35 6.72 12.35 11.94a39.1 39.1 0 0 1 .36 8.27m28.69-26c-2.61 3.54-8.92 4.27-12.45 6.77-4.57 3.23-6.35 9.49-9.6 13.9-.59.8-1.2 1.59-1.84 2.43a1.37 1.37 0 0 1-2.43-.6c-.25-1.76-.49-3.42-.81-5.06-1.18-6.11-8.2-12.61-14.42-13.41a18 18 0 0 0-2.44 0c-.17-.21 6.29-4.4 8.26-6.62 1.37-1.54 3.1-4.09 4.33-5.73 1.72-2.28 1.91-5.06 3.46-7.46a2.44 2.44 0 0 1 2.48-1.35 29 29 0 0 1 4.07.49c4.78 1.17 9.56 2.35 14.29 3.73a10.87 10.87 0 0 1 6 4.14c1.61 2.27 3.52 5.52 1.12 8.79"/><path d="M170 182.85a5.12 5.12 0 0 0-.52-1.31 42.82 42.82 0 0 0-3.9-6.14c-1.19-1.39-7.41-7.46-12.54-.93a3.17 3.17 0 0 0-.19 3.6 17.68 17.68 0 0 0 12.73 9.75c3.43.73 5.4-1.68 4.42-5m-4.31 3a15.77 15.77 0 0 1-9.19-5.82c-3.75-4.8 2.57-4 3.79-6.29a4.37 4.37 0 0 1 2.75 1.74 49.59 49.59 0 0 1 5 7.75c1 2-.09 3.1-2.38 2.61M291.63 19.12a88.7 88.7 0 0 0-10.69-1.34 69.79 69.79 0 0 0-7.37-.49c-1.3 0-1.94-.42-1.91-1.7a26.69 26.69 0 0 0-.27-3.68 10.41 10.41 0 0 0-5.23-8.21 21.1 21.1 0 0 0-3.83-1.92 27.37 27.37 0 0 0-30 8.58c-1.19 1.41-1.68 3.41-2.57 5-4.09 7.43-3.71 13.55 3.06 19.29 6.49 5.5-4.7 15.56-8.38 21.2-4.16 6.4-9 12.44-12.07 19.46-1 2.28-2.22 4.16-4.91 4.61-.18 0-.46.13-.49.25l-.09.35c-5.26.39-11.35 3.26-16.22 5.38a26.49 26.49 0 0 0-12.18 10c-2.68 4.26-3.89 9.11-2.38 14.22.26.91.46 1.84.76 2.74 1.05 3.24 2 6.58 4.2 9.27 4 4.75 9.23 6.88 15.34 7.15 2.15.1 4.32 0 6.44.21.324.045.642.122.95.23 3.13.34 4.31 2.72 6.26 5 .456.517.95.999 1.48 1.44a26.74 26.74 0 0 0 10.88 3.87 42.29 42.29 0 0 0 22.06-2.5c4.73-1.89 5.71-7.45 5.15-10.69a3.82 3.82 0 0 1 .11-1.87 7.78 7.78 0 0 0 0-5.56 37.15 37.15 0 0 0-2-5.12 6.37 6.37 0 0 1 .6-5.88c.54-.82 1.18-1.84 2-3 2.55-2.24 3.88-5.27 5.27-8.26a34.08 34.08 0 0 1 1.68-3.56c1.86-3 3.77-5.92 5.77-8.8 2.8-4.06 5.69-8.06 8.58-12.07a5 5 0 0 1 3.74-2.08c5.1-.58 10.13-1.48 14.72-3.94 4.25-2.28 7.69-5.42 9.35-10 1.57-4.31 3.27-8.65 4-13.17 3.37-21-3.58-22.47-11.78-24.39m-46.77 115.23a3.23 3.23 0 0 0-.18.28 1.78 1.78 0 0 1-1.32 1.2h-.24a1.26 1.26 0 0 1-.44 0c-.25 0-1.39.4-1.59.44-.2.04-.66.11-1 .15-.07.07-3 .68-4.75 1.3-2.22.92-4.81.84-7.19.8a18.72 18.72 0 0 1-7-1.06c-.12 0-1.11-.52-2-1a11.23 11.23 0 0 0-3-1c-3.79-.72-5-2-7.88-5.48a7.83 7.83 0 0 0-6.85-3.08c-3.48.14-7 .22-10.39-.8-5.45-1.62-9.25-4.95-11-10.41a1.15 1.15 0 0 1 0-.37c.11-.1.47.2.61.39 3.16 4.65 6.91 7.81 12.18 8.58a9.1 9.1 0 0 0 2.84-.1 1.53 1.53 0 0 1 .86-.53 39.49 39.49 0 0 0 4.74-1.16c.68-.22 1.34-.43 2-.6l.41-.12a7.32 7.32 0 0 1 4.31-.33 5.22 5.22 0 0 1 3 3.27 18.77 18.77 0 0 1 1.46 1.5c3.1 3.7 7.26 5.11 11.78 5.69 3.15-.06 6.38-.52 9.5-.32a.72.72 0 0 1 .46.18 25.24 25.24 0 0 0 3.77-.18c1.27-.22 2.54-.49 3.8-.82a37.61 37.61 0 0 0 4.62-1.71.55.55 0 0 1 .76.53c-.06 1.93-2.25 4.74-2.23 4.71m2.42-14.13a5 5 0 0 1-1.44 5.81 11.42 11.42 0 0 1-3.83 2.11 42.75 42.75 0 0 1-13.74 1.7c-5.84-.18-11.22-1.36-15-6.27-.17-.22-.42-.38-.6-.6-2.73-3.34-6-4.59-10.39-3.38a21.33 21.33 0 0 1-8.94.7c-4.89-.73-9-2.57-11.57-7-.84-1.43-1.55-2.93-2.31-4.4-2.28-4.44-1.41-8.67 1.38-12.43a26.74 26.74 0 0 1 12.83-9.41c4.76-1.7 9.71-2 14.65-2.48a7 7 0 0 0 1-.25 3.84 3.84 0 0 0 2.38-2.11c.61-1.35 1.87-4.21 2-4.61 2.77-6.72 7.33-12.4 11.18-18.49 3.54-5.56 7.41-11.08 11.05-16.66 1.58-2.45 1.8-4.93-.31-7.44-4-4.72-3.9-9.64-3.17-15.66.46-3.83 1-7.52 3.92-10 6.14-5.27 13.22-7.59 21.27-6.18 7.29 1.29 12.42 3.41 12.18 10.72 0 .33-2.31.92-1.85 3.2.52 2.56 2 4.78 4.61 5 2.91.28 5.41-.59 8.31-.91a29.88 29.88 0 0 1 11.44.85 11.14 11.14 0 0 1 8 12.61 32.05 32.05 0 0 1-6.5 14.59c-4.25 5.28-10.26 7.61-16.93 8.21-3.24.29-7-1.21-9.74.54-2.43 1.55-2.93 7.59-4.39 10.13-5.2 9.1-10.43 18.187-15.69 27.26a8 8 0 0 1-1.08 1.32c-1.21 1.31-3.31 5.81-3.41 5.77-.46 1.83-3.69.46-2.72 3.12.212.39.46.757.74 1.1a61.19 61.19 0 0 1 3.43 5.68c1.22 2.56 2.14 5.26 3.2 7.9m54.17-78.37c-1.1 3.91-2.21 7.83-3.33 11.73-1.63 5.63-5.4 9.32-10.68 11.72a35.51 35.51 0 0 1-11.62 2.94 9 9 0 0 0-6.53 3.7c-1.92 2.68-9.59 10.39-19.74 28.65-.49.89-1.4 4.16-3.54 6.32a1.5 1.5 0 0 1-2.24-.1l-.5-.61a1.46 1.46 0 0 1-.19-1.62 24.94 24.94 0 0 1 1.39-2.16c.92-1.37 2-3.6 2.38-4.3.72-1.27 1.82-2.22 2.55-3.65 1.9-3.69 4.58-7 6.76-10.53 3.34-5.47 5.29-8.92 8.61-14.4 2.77-4.57 1.77-7 2.31-8.68.4-1.22 3-1.37 4.15-1.37 4.7 0 9.09.62 13.55-1.05 6.77-2.53 12.13-6.57 14.66-13.61a17.66 17.66 0 0 1 2.08-3.8 3.73 3.73 0 0 1-.07.82M145.61 119.46c-1.39-2-2.49-4.1-3.82-6.09a13.6 13.6 0 0 0-2.7-3.22 25.51 25.51 0 0 0-5.9-3.81c-4.75-1.9-9.65-3.41-14.5-5.07-1.11-.38-2.24-.74-2.89-1a11.18 11.18 0 0 0-.63-2.94 23 23 0 0 0-2.83-4.13c-4.19-4.62-8.46-9.16-12.73-13.7-.32-.34-.65-.68-1-1-2.73-4.49-6.46-10.66-7-11.38a3.48 3.48 0 0 1-.54-3.95 41.07 41.07 0 0 1 2.74-5.27 14.76 14.76 0 0 0 2.84-9.72c-.62-8.61-6.34-16-14.33-18.18-7.99-2.18-15.08-4.27-23.2-2.53-3 .64-6.23 4.57-7.48 7.37-.36.82-.71 1.64-1 2.47a5.8 5.8 0 0 1-6 4.14c-1.93 0-3.87 0-5.8-.2-5.93-.53-10.71 1.71-14.72 5.93-.442.437-.906.85-1.39 1.24-1 .87-2.36 1.55-3 2.63C16.42 56.4 14.8 62 18 68.16a42.88 42.88 0 0 1 1.81 3.89 18.5 18.5 0 0 0 6 7.84c4.73 3.66 9.88 6.29 15.93 6.85a2.36 2.36 0 0 1 1.44.69c4.7 5.7 9.367 11.427 14 17.18 2.89 3.61 6.66 6.53 8.46 11 .08.18.45 3.37.82 6.28-.16.74-.32 1.48-.5 2.22-1.63 6.76-3 13.52-1.38 20.5a4.22 4.22 0 0 1-.07 1.05 5.24 5.24 0 0 0 0 2.12 20.53 20.53 0 0 0 2.66 5.09c4.52 5.4 6 11.38 12.69 13.29 7.89 2.24 20.22-.16 28.13-2.42a12 12 0 0 0 7.52-5.56c1-1.77 2.11-2.3 3.92-1.94 5.28 1 11.39 1.86 16.41.3 4.42-1.37 7.18-5.54 9.28-9.89.91-1.88 1.7-3.82 2.49-5.76a25.29 25.29 0 0 0 .6-6.91c.257-.71.444-1.444.56-2.19a16.26 16.26 0 0 0-3.1-12.32m-79.39-6.29c-6.31-8.23-12.72-16.38-19.11-24.55-.47-.6-1-1.16-1.51-1.74l.36-.08c.05-.74.09-1.49.14-2.34.14-.06.48-.19.81-.34l1.23-.56c5.27 9.44 12.29 21.24 20.15 29.12-.26 1.24-.51 2.48-.75 3.72a.76.76 0 0 0-.46-.3c-.26-1-.25-2.22-.84-3m5.57 38.08a30.37 30.37 0 0 1-2.44-2.66 18.72 18.72 0 0 1-2.74-5c-1.34-4.93-.43-9.91.46-14.81.85-4.68 2-9.31 3-14v-.35l.1.09-.08-.25a6.13 6.13 0 0 0-.22-1.8.87.87 0 0 0-.39-.43c-.55-2.13-1.24-4.8-1.85-5.57-6.1-7.66-12.35-15.2-17.34-23.68A1.72 1.72 0 0 0 49 82c-2.43 0-4.86.37-7.28.34-5.48 0-10.41-1.47-13.93-6.11a31.45 31.45 0 0 0-2.68-3.08 11.37 11.37 0 0 1-3.37-7.63 52.56 52.56 0 0 1 0-7.53c.75-8.17 8.44-15.24 16.27-14.6 2.39.19 6.65 2.45 9 2.31 3.44-.21 4.56-.32 6.06-3.55.28-.62.27-5 .52-5.61a7.22 7.22 0 0 1 5.8-4.73 60.43 60.43 0 0 1 18.26-.36c6.68.84 11.56 4.23 14.3 10.36 2.13 4.76 2.88 9.59-.45 14.34a28.28 28.28 0 0 0-3.21 6.41c-.58 1.53.62 5 2.56 8.59-.25-.06-2.25-.07-2.48-.15.13.7 1.84 1.44 2.17 2a11.93 11.93 0 0 0 1.82 2.15c5.41 5.7 10.86 11.37 16.26 17.07 2 2.17 4.15 4.3 5.11 6.9-.58.77-1.5 1.46-1.41 2 .09.54 1 1.22 1.69 1.58.94.451 1.922.813 2.93 1.08 3.54 1.12 7.16 2 10.61 3.38a56.5 56.5 0 0 1 8.37 4.21c1.69 1 3 3 4.05 4.49 1.05 1.49 2.17 3.33 3.16 5a21.59 21.59 0 0 1 2.42 4.54c1 3.47 1.16 6.93-1.25 10-5.39 6.95-12.61 9.59-21.14 8.7-2.44-.25-4.81-1.34-7.2-2.08-3.61-1.14-5.48-.35-7.13 3-.14.28-.24.58-.39.86a17.41 17.41 0 0 1-6.9 7.53c-5.65 3-11.78 3.63-18.11 3.31a15.3 15.3 0 0 1-11.64-5.57m62.1 1.37a30.55 30.55 0 0 1-14.89 1.27 4.42 4.42 0 0 0-5.18 2.32 10.71 10.71 0 0 1-6.76 5.25 44.18 44.18 0 0 1-16.15 1.41 26 26 0 0 1-12.6-3.85 4.94 4.94 0 0 1-.7-.6 70.87 70.87 0 0 0 13 .62 35.87 35.87 0 0 0 10.59-2.59c5-2.06 8.18-6.2 10.21-11.17a1.83 1.83 0 0 1 2.31-1.3c1.27.28 5.15 3.09 6.37 3.54 9.88 3.61 17.65 1.52 23.77-7.71a7.08 7.08 0 0 1 1.06-1c-.58 2.13-1.08 4.07-1.35 4.94-1.54 5-5.17 7.5-9.74 9"/><path d="M170 182.85a5.12 5.12 0 0 0-.52-1.31 42.82 42.82 0 0 0-3.9-6.14c-1.19-1.39-7.41-7.46-12.54-.93a3.17 3.17 0 0 0-.19 3.6 17.68 17.68 0 0 0 12.73 9.75c3.43.73 5.4-1.68 4.42-5m-4.31 3a15.77 15.77 0 0 1-9.19-5.82c-3.75-4.8 2.57-4 3.79-6.29a4.37 4.37 0 0 1 2.75 1.74 49.59 49.59 0 0 1 5 7.75c1 2-.09 3.1-2.38 2.61"/><path d="M52.6 171.15a8.89 8.89 0 0 0-5.6-8.26c-.15-.48-.15-1.16-.48-1.4a79.81 79.81 0 0 0-7.44-5.3 61.44 61.44 0 0 1-11-8c-2.21-2.06-4.65-3.72-7.72-4.07A38.89 38.89 0 0 0 15 144a15.18 15.18 0 0 0-12.36 6.58A10.93 10.93 0 0 0 .79 155a33.32 33.32 0 0 0-.51 6.91 11.59 11.59 0 0 0 6 10c1.76 1.06 3.69 1.84 5.45 2.91a29.45 29.45 0 0 1 7.79 6.45c1.15 1.41 1.7 3.32 3.52 4.17.15.07.22.35.29.55a7.7 7.7 0 0 0 6 5 22.45 22.45 0 0 0 7.13.13c6-.94 10.49-4.54 14.13-9.16a10.2 10.2 0 0 0 1.72-4.5 37.67 37.67 0 0 0 .29-6.31zM24 179.8a1.67 1.67 0 0 1-2.91.74 42 42 0 0 0-2.92-3.18A44 44 0 0 0 8 169.54c-3.31-1.69-4.07-2.41-4.26-6.16-.07-1.2 0-4.49 0-5.69 0-5.46 1-8.45 5.95-10.57a22.13 22.13 0 0 1 5.44-1.28c3.94-.58 5 .55 8 3.32 2.17 2 6.65 4.46 9 6.16 3.81 2.77 8.07 4.37 12 7-1.1 0-2.17.09-2.44.06-6.45-.64-13.88 1.55-16.17 7.63-.74 1.95-.36 5-.88 7a77.7 77.7 0 0 1-.64 2.79zm26-2.9a7.06 7.06 0 0 1-2.28 4.91c-1.92 1.77-3.41 4.27-5.55 5.74-3.39 2.35-8.28 2.38-12.32 1.9-2.9-.35-4.86-3-4.46-5.21.77-4.25 1.38-8.56 3.12-12.58a11.48 11.48 0 0 1 8.26-6.91c1.15-.29 5.31-.23 8.15-.28l1.6 1.1c1.9 1.3 3.57 2.81 3.66 5.29.04 2.01-.1 4.03-.18 6.04z" fill-rule="nonzero"/><path d="M47.38 174.77a21.36 21.36 0 0 0-.51-3 6.89 6.89 0 0 0-1.41-3.18s-2.16-1.73-2.16-1.76c0-1-.85-1.16-1.66-1.2-4.92-.24-10.47 4-11.5 8.83a20.47 20.47 0 0 0 .21 8.43 4.19 4.19 0 0 0 2.54 3.05c2.87 1.3 8 .57 10.15-1.69 2.54-2.6 4.51-5.54 4.34-9.48zm-2.61 1.7c-1.22 5.58-3.3 9.54-8.79 8.71-1-.15-3.18-1.7-3.39-2.8a16.35 16.35 0 0 1 .55-7.62c.83-3.12 5.21-5.69 8-6.17 3.32-.47 3.86 3.17 3.83 3.52a39.41 39.41 0 0 1-.2 4.36z" fill-rule="nonzero"/><path d="M272.41 92c-3.55 7.09-5.09 14.8-5.61 22.74a3.71 3.71 0 0 0 2.07 3.68 43 43 0 0 1 5.61 3.68c5.9 4.94 11.71 10 17.51 15.06 2.49 2.18 5.37 3.07 8.46 4.27 9.17 3.54 13.63-4.53 14.38-5.12 3-2.32 2.85-5.77 4.25-9.32 1.4-3.55 0-9.54-2.8-11.92-2.52-2.13-5.13-4.16-7.79-6.1-4.47-3.27-10.17-7.57-13.45-12.17-2.84-4-3.93-7.6-8.37-10a8.89 8.89 0 0 0-3.84-1.2 10.89 10.89 0 0 0-10.42 6.4zm39.82 25.37c3.64 1.62 4.31 2.73 5.15 4.69a5.52 5.52 0 0 1-.72 5.07c-1.61 2.46-1.16 3-2.87 5.39-.61.84-2 3.5-2.61 4.33-1.64 1.66-2.29 1.29-4.16 2.71-.2-.05-4 .58-4.17.54-3-.6-4.85-.57-7.57-2.44A7.48 7.48 0 0 1 292 130c1.06-5.4 6.72-11.34 11.94-12.35a38.94 38.94 0 0 1 8.28-.35l.01.07zm-22.01-21.44a43.22 43.22 0 0 0 14.28 13.21c.8.48 1.58 1 2.32 1.51.74.51 1.59 1.2 2.43 1.85a1.37 1.37 0 0 1-.6 2.43c-1.76.25-3.42.49-5.06.8-6.11 1.18-12.61 8.2-13.41 14.42a18.05 18.05 0 0 0 0 2.44c-.21.18-4.4-6.29-6.62-8.26-1.53-1.37-4.09-3.09-5.72-4.33-2.33-1.75-5.19-1.92-7.61-3.56a2.66 2.66 0 0 1-1.19-2.49 25.68 25.68 0 0 1 .47-3.95c.92-3.76 2.8-14.25 6.28-19.22 1.37-2 2.09-2.91 7.62-1.12 2.73.91 5.12 3.69 6.85 6.34l-.04-.07z"/><path d="M308.92 121.19a5.42 5.42 0 0 0-1.32.52 44.64 44.64 0 0 0-6.14 3.9c-1.39 1.19-7.46 7.41-.93 12.55a3.19 3.19 0 0 0 3.6.19 17.76 17.76 0 0 0 9.76-12.73c.72-3.43-1.69-5.4-5-4.43m3 4.31a15.74 15.74 0 0 1-5.81 9.18c-4.8 3.76-4-2.57-6.29-3.78a4.39 4.39 0 0 1 1.74-2.76 50.81 50.81 0 0 1 7.75-5c2-1 3.1.09 2.61 2.38"/><path d="M308.92 121.19a5.42 5.42 0 0 0-1.32.52 44.64 44.64 0 0 0-6.14 3.9c-1.39 1.19-7.46 7.41-.93 12.55a3.19 3.19 0 0 0 3.6.19 17.76 17.76 0 0 0 9.76-12.73c.72-3.43-1.69-5.4-5-4.43m3 4.31a15.74 15.74 0 0 1-5.81 9.18c-4.8 3.76-4-2.57-6.29-3.78a4.39 4.39 0 0 1 1.74-2.76 50.81 50.81 0 0 1 7.75-5c2-1 3.1.09 2.61 2.38M162.76 69a2.64 2.64 0 0 0-2.76-2.17c-.95-.72-1.91-1.4-2-1.53a2.66 2.66 0 0 0-1.56-.61c-3.12-.32-6.7 1.84-8.22 4.91a5.44 5.44 0 0 0 .75 6.54 9.91 9.91 0 0 0 5.5 3.45 6.36 6.36 0 0 0 7-2.49 8.72 8.72 0 0 0 1.29-8.1m-1.86 4.09c-.55 2.84-2.36 4.7-4.78 4.72-2.77 0-4.05-.63-4.52-3 0-.13-1.47-2.42-1.48-2.56C150 69 154 65.74 157 66.88l2.78 1a1 1 0 0 0 .11.17 5.83 5.83 0 0 1 1.05 5m6.19-.64c-.49-2-1-3.94-1.44-5.93-.35-1.59-1.29-5.32-2-6.11a25.61 25.61 0 0 0-2.49-2.7c-2.89-2.54-5.43-5.63-8.73-7.55-7.76-4.54-8.08-8-12.08-12-3.5-3.53-7.6-4.83-12.55-1.53a18.35 18.35 0 0 0-7.21 9.64c-4.9 14.2 0 12.84 3.63 18.41a38.17 38.17 0 0 0 9.72 10c1.46 1.07 2.69 2.5 4.06 3.71.41.36 4.38 4.3 7.65 6.13 3.76 2.84 8.55 2.06 13.06 1.74a8.6 8.6 0 0 0 7.93-6.05 13.38 13.38 0 0 0 .4-7.8M136.55 74c-2.62-2.42-5.53-4.53-8-7.12A22.89 22.89 0 0 1 122.39 48a9.26 9.26 0 0 1 1-3.4 16.14 16.14 0 0 1 6.87-7c2.44-1.19 4.48-1.82 6.58-.21 1.36 1 2.25 4.9 3.44 6.15 5.17 5.44 10.88 9 16.94 13.36 1.25.91 2.39 2 3.58 3-4.27-.77-8.17.23-12 1.84a9.75 9.75 0 0 0-6.16 7.78 51.21 51.21 0 0 0-.59 5.66 8.31 8.31 0 0 0 1.13 4.8c-1.27-.72-2.25-1.28-2.31-1.35-1.43-1.57-2.83-3.17-4.38-4.6m28 5.64c-.93 3.23-3.9 4.75-9 4.61a13.09 13.09 0 0 1-9.15-3.56 6.81 6.81 0 0 1-2.34-5.44 48.86 48.86 0 0 1 .7-5.91 7.19 7.19 0 0 1 3.94-5.37c3.59-1.85 7.34-3 11.43-2.22.9.188 1.649.81 2 1.66 1.8 3.07 2 6.61 2.87 9.92a12.46 12.46 0 0 1-.43 6.24M199.23 146.35c-7.1-3.55-14.8-5.09-22.75-5.61a3.71 3.71 0 0 0-3.68 2.07 42 42 0 0 1-3.68 5.61c-4.94 5.9-10 11.71-15.05 17.51-2.18 2.49-3.08 5.37-4.27 8.46-3.55 9.17 4.53 13.63 5.11 14.38 2.32 3 5.77 2.85 9.32 4.25 3.55 1.4 9.54 0 11.93-2.8 2.13-2.52 4.15-5.13 6.1-7.79 3.26-4.47 7.56-10.17 12.17-13.45 4-2.85 7.59-3.93 9.94-8.37a8.75 8.75 0 0 0 1.2-3.84 10.87 10.87 0 0 0-6.34-10.42m-25.37 39.81c-1.63 3.65-2.74 4.32-4.69 5.16a5.51 5.51 0 0 1-5.07-.72c-2.47-1.61-3-1.16-5.4-2.87-.84-.61-3.5-2-4.33-2.61-1.66-1.64-1.29-2.29-2.71-4.16.05-.2-.58-4-.54-4.17.6-3 .57-4.85 2.44-7.57a7.48 7.48 0 0 1 7.59-3.27c5.4 1.06 11.35 6.72 12.35 11.94a39.1 39.1 0 0 1 .36 8.27m28.69-26c-2.61 3.54-8.92 4.27-12.45 6.77-4.57 3.23-6.35 9.49-9.6 13.9-.59.8-1.2 1.59-1.84 2.43a1.37 1.37 0 0 1-2.43-.6c-.25-1.76-.49-3.42-.81-5.06-1.18-6.11-8.2-12.61-14.42-13.41a18 18 0 0 0-2.44 0c-.17-.21 6.29-4.4 8.26-6.62 1.37-1.54 3.1-4.09 4.33-5.73 1.72-2.28 1.91-5.06 3.46-7.46a2.44 2.44 0 0 1 2.48-1.35 29 29 0 0 1 4.07.49c4.78 1.17 9.56 2.35 14.29 3.73a10.87 10.87 0 0 1 6 4.14c1.61 2.27 3.52 5.52 1.12 8.79"/><path d="M170 182.85a5.12 5.12 0 0 0-.52-1.31 42.82 42.82 0 0 0-3.9-6.14c-1.19-1.39-7.41-7.46-12.54-.93a3.17 3.17 0 0 0-.19 3.6 17.68 17.68 0 0 0 12.73 9.75c3.43.73 5.4-1.68 4.42-5m-4.31 3a15.77 15.77 0 0 1-9.19-5.82c-3.75-4.8 2.57-4 3.79-6.29a4.37 4.37 0 0 1 2.75 1.74 49.59 49.59 0 0 1 5 7.75c1 2-.09 3.1-2.38 2.61M291.63 19.12a88.7 88.7 0 0 0-10.69-1.34 69.79 69.79 0 0 0-7.37-.49c-1.3 0-1.94-.42-1.91-1.7a26.69 26.69 0 0 0-.27-3.68 10.41 10.41 0 0 0-5.23-8.21 21.1 21.1 0 0 0-3.83-1.92 27.37 27.37 0 0 0-30 8.58c-1.19 1.41-1.68 3.41-2.57 5-4.09 7.43-3.71 13.55 3.06 19.29 6.49 5.5-4.7 15.56-8.38 21.2-4.16 6.4-9 12.44-12.07 19.46-1 2.28-2.22 4.16-4.91 4.61-.18 0-.46.13-.49.25l-.09.35c-5.26.39-11.35 3.26-16.22 5.38a26.49 26.49 0 0 0-12.18 10c-2.68 4.26-3.89 9.11-2.38 14.22.26.91.46 1.84.76 2.74 1.05 3.24 2 6.58 4.2 9.27 4 4.75 9.23 6.88 15.34 7.15 2.15.1 4.32 0 6.44.21.324.045.642.122.95.23 3.13.34 4.31 2.72 6.26 5 .456.517.95.999 1.48 1.44a26.74 26.74 0 0 0 10.88 3.87 42.29 42.29 0 0 0 22.06-2.5c4.73-1.89 5.71-7.45 5.15-10.69a3.82 3.82 0 0 1 .11-1.87 7.78 7.78 0 0 0 0-5.56 37.15 37.15 0 0 0-2-5.12 6.37 6.37 0 0 1 .6-5.88c.54-.82 1.18-1.84 2-3 2.55-2.24 3.88-5.27 5.27-8.26a34.08 34.08 0 0 1 1.68-3.56c1.86-3 3.77-5.92 5.77-8.8 2.8-4.06 5.69-8.06 8.58-12.07a5 5 0 0 1 3.74-2.08c5.1-.58 10.13-1.48 14.72-3.94 4.25-2.28 7.69-5.42 9.35-10 1.57-4.31 3.27-8.65 4-13.17 3.37-21-3.58-22.47-11.78-24.39m-46.77 115.23a3.23 3.23 0 0 0-.18.28 1.78 1.78 0 0 1-1.32 1.2h-.24a1.26 1.26 0 0 1-.44 0c-.25 0-1.39.4-1.59.44-.2.04-.66.11-1 .15-.07.07-3 .68-4.75 1.3-2.22.92-4.81.84-7.19.8a18.72 18.72 0 0 1-7-1.06c-.12 0-1.11-.52-2-1a11.23 11.23 0 0 0-3-1c-3.79-.72-5-2-7.88-5.48a7.83 7.83 0 0 0-6.85-3.08c-3.48.14-7 .22-10.39-.8-5.45-1.62-9.25-4.95-11-10.41a1.15 1.15 0 0 1 0-.37c.11-.1.47.2.61.39 3.16 4.65 6.91 7.81 12.18 8.58a9.1 9.1 0 0 0 2.84-.1 1.53 1.53 0 0 1 .86-.53 39.49 39.49 0 0 0 4.74-1.16c.68-.22 1.34-.43 2-.6l.41-.12a7.32 7.32 0 0 1 4.31-.33 5.22 5.22 0 0 1 3 3.27 18.77 18.77 0 0 1 1.46 1.5c3.1 3.7 7.26 5.11 11.78 5.69 3.15-.06 6.38-.52 9.5-.32a.72.72 0 0 1 .46.18 25.24 25.24 0 0 0 3.77-.18c1.27-.22 2.54-.49 3.8-.82a37.61 37.61 0 0 0 4.62-1.71.55.55 0 0 1 .76.53c-.06 1.93-2.25 4.74-2.23 4.71m2.42-14.13a5 5 0 0 1-1.44 5.81 11.42 11.42 0 0 1-3.83 2.11 42.75 42.75 0 0 1-13.74 1.7c-5.84-.18-11.22-1.36-15-6.27-.17-.22-.42-.38-.6-.6-2.73-3.34-6-4.59-10.39-3.38a21.33 21.33 0 0 1-8.94.7c-4.89-.73-9-2.57-11.57-7-.84-1.43-1.55-2.93-2.31-4.4-2.28-4.44-1.41-8.67 1.38-12.43a26.74 26.74 0 0 1 12.83-9.41c4.76-1.7 9.71-2 14.65-2.48a7 7 0 0 0 1-.25 3.84 3.84 0 0 0 2.38-2.11c.61-1.35 1.87-4.21 2-4.61 2.77-6.72 7.33-12.4 11.18-18.49 3.54-5.56 7.41-11.08 11.05-16.66 1.58-2.45 1.8-4.93-.31-7.44-4-4.72-3.9-9.64-3.17-15.66.46-3.83 1-7.52 3.92-10 6.14-5.27 13.22-7.59 21.27-6.18 7.29 1.29 12.42 3.41 12.18 10.72 0 .33-2.31.92-1.85 3.2.52 2.56 2 4.78 4.61 5 2.91.28 5.41-.59 8.31-.91a29.88 29.88 0 0 1 11.44.85 11.14 11.14 0 0 1 8 12.61 32.05 32.05 0 0 1-6.5 14.59c-4.25 5.28-10.26 7.61-16.93 8.21-3.24.29-7-1.21-9.74.54-2.43 1.55-2.93 7.59-4.39 10.13-5.2 9.1-10.43 18.187-15.69 27.26a8 8 0 0 1-1.08 1.32c-1.21 1.31-3.31 5.81-3.41 5.77-.46 1.83-3.69.46-2.72 3.12.212.39.46.757.74 1.1a61.19 61.19 0 0 1 3.43 5.68c1.22 2.56 2.14 5.26 3.2 7.9m54.17-78.37c-1.1 3.91-2.21 7.83-3.33 11.73-1.63 5.63-5.4 9.32-10.68 11.72a35.51 35.51 0 0 1-11.62 2.94 9 9 0 0 0-6.53 3.7c-1.92 2.68-9.59 10.39-19.74 28.65-.49.89-1.4 4.16-3.54 6.32a1.5 1.5 0 0 1-2.24-.1l-.5-.61a1.46 1.46 0 0 1-.19-1.62 24.94 24.94 0 0 1 1.39-2.16c.92-1.37 2-3.6 2.38-4.3.72-1.27 1.82-2.22 2.55-3.65 1.9-3.69 4.58-7 6.76-10.53 3.34-5.47 5.29-8.92 8.61-14.4 2.77-4.57 1.77-7 2.31-8.68.4-1.22 3-1.37 4.15-1.37 4.7 0 9.09.62 13.55-1.05 6.77-2.53 12.13-6.57 14.66-13.61a17.66 17.66 0 0 1 2.08-3.8 3.73 3.73 0 0 1-.07.82M145.61 119.46c-1.39-2-2.49-4.1-3.82-6.09a13.6 13.6 0 0 0-2.7-3.22 25.51 25.51 0 0 0-5.9-3.81c-4.75-1.9-9.65-3.41-14.5-5.07-1.11-.38-2.24-.74-2.89-1a11.18 11.18 0 0 0-.63-2.94 23 23 0 0 0-2.83-4.13c-4.19-4.62-8.46-9.16-12.73-13.7-.32-.34-.65-.68-1-1-2.73-4.49-6.46-10.66-7-11.38a3.48 3.48 0 0 1-.54-3.95 41.07 41.07 0 0 1 2.74-5.27 14.76 14.76 0 0 0 2.84-9.72c-.62-8.61-6.34-16-14.33-18.18-7.99-2.18-15.08-4.27-23.2-2.53-3 .64-6.23 4.57-7.48 7.37-.36.82-.71 1.64-1 2.47a5.8 5.8 0 0 1-6 4.14c-1.93 0-3.87 0-5.8-.2-5.93-.53-10.71 1.71-14.72 5.93-.442.437-.906.85-1.39 1.24-1 .87-2.36 1.55-3 2.63C16.42 56.4 14.8 62 18 68.16a42.88 42.88 0 0 1 1.81 3.89 18.5 18.5 0 0 0 6 7.84c4.73 3.66 9.88 6.29 15.93 6.85a2.36 2.36 0 0 1 1.44.69c4.7 5.7 9.367 11.427 14 17.18 2.89 3.61 6.66 6.53 8.46 11 .08.18.45 3.37.82 6.28-.16.74-.32 1.48-.5 2.22-1.63 6.76-3 13.52-1.38 20.5a4.22 4.22 0 0 1-.07 1.05 5.24 5.24 0 0 0 0 2.12 20.53 20.53 0 0 0 2.66 5.09c4.52 5.4 6 11.38 12.69 13.29 7.89 2.24 20.22-.16 28.13-2.42a12 12 0 0 0 7.52-5.56c1-1.77 2.11-2.3 3.92-1.94 5.28 1 11.39 1.86 16.41.3 4.42-1.37 7.18-5.54 9.28-9.89.91-1.88 1.7-3.82 2.49-5.76a25.29 25.29 0 0 0 .6-6.91c.257-.71.444-1.444.56-2.19a16.26 16.26 0 0 0-3.1-12.32m-79.39-6.29c-6.31-8.23-12.72-16.38-19.11-24.55-.47-.6-1-1.16-1.51-1.74l.36-.08c.05-.74.09-1.49.14-2.34.14-.06.48-.19.81-.34l1.23-.56c5.27 9.44 12.29 21.24 20.15 29.12-.26 1.24-.51 2.48-.75 3.72a.76.76 0 0 0-.46-.3c-.26-1-.25-2.22-.84-3m5.57 38.08a30.37 30.37 0 0 1-2.44-2.66 18.72 18.72 0 0 1-2.74-5c-1.34-4.93-.43-9.91.46-14.81.85-4.68 2-9.31 3-14v-.35l.1.09-.08-.25a6.13 6.13 0 0 0-.22-1.8.87.87 0 0 0-.39-.43c-.55-2.13-1.24-4.8-1.85-5.57-6.1-7.66-12.35-15.2-17.34-23.68A1.72 1.72 0 0 0 49 82c-2.43 0-4.86.37-7.28.34-5.48 0-10.41-1.47-13.93-6.11a31.45 31.45 0 0 0-2.68-3.08 11.37 11.37 0 0 1-3.37-7.63 52.56 52.56 0 0 1 0-7.53c.75-8.17 8.44-15.24 16.27-14.6 2.39.19 6.65 2.45 9 2.31 3.44-.21 4.56-.32 6.06-3.55.28-.62.27-5 .52-5.61a7.22 7.22 0 0 1 5.8-4.73 60.43 60.43 0 0 1 18.26-.36c6.68.84 11.56 4.23 14.3 10.36 2.13 4.76 2.88 9.59-.45 14.34a28.28 28.28 0 0 0-3.21 6.41c-.58 1.53.62 5 2.56 8.59-.25-.06-2.25-.07-2.48-.15.13.7 1.84 1.44 2.17 2a11.93 11.93 0 0 0 1.82 2.15c5.41 5.7 10.86 11.37 16.26 17.07 2 2.17 4.15 4.3 5.11 6.9-.58.77-1.5 1.46-1.41 2 .09.54 1 1.22 1.69 1.58.94.451 1.922.813 2.93 1.08 3.54 1.12 7.16 2 10.61 3.38a56.5 56.5 0 0 1 8.37 4.21c1.69 1 3 3 4.05 4.49 1.05 1.49 2.17 3.33 3.16 5a21.59 21.59 0 0 1 2.42 4.54c1 3.47 1.16 6.93-1.25 10-5.39 6.95-12.61 9.59-21.14 8.7-2.44-.25-4.81-1.34-7.2-2.08-3.61-1.14-5.48-.35-7.13 3-.14.28-.24.58-.39.86a17.41 17.41 0 0 1-6.9 7.53c-5.65 3-11.78 3.63-18.11 3.31a15.3 15.3 0 0 1-11.64-5.57m62.1 1.37a30.55 30.55 0 0 1-14.89 1.27 4.42 4.42 0 0 0-5.18 2.32 10.71 10.71 0 0 1-6.76 5.25 44.18 44.18 0 0 1-16.15 1.41 26 26 0 0 1-12.6-3.85 4.94 4.94 0 0 1-.7-.6 70.87 70.87 0 0 0 13 .62 35.87 35.87 0 0 0 10.59-2.59c5-2.06 8.18-6.2 10.21-11.17a1.83 1.83 0 0 1 2.31-1.3c1.27.28 5.15 3.09 6.37 3.54 9.88 3.61 17.65 1.52 23.77-7.71a7.08 7.08 0 0 1 1.06-1c-.58 2.13-1.08 4.07-1.35 4.94-1.54 5-5.17 7.5-9.74 9"/><path d="M170 182.85a5.12 5.12 0 0 0-.52-1.31 42.82 42.82 0 0 0-3.9-6.14c-1.19-1.39-7.41-7.46-12.54-.93a3.17 3.17 0 0 0-.19 3.6 17.68 17.68 0 0 0 12.73 9.75c3.43.73 5.4-1.68 4.42-5m-4.31 3a15.77 15.77 0 0 1-9.19-5.82c-3.75-4.8 2.57-4 3.79-6.29a4.37 4.37 0 0 1 2.75 1.74 49.59 49.59 0 0 1 5 7.75c1 2-.09 3.1-2.38 2.61"/><path d="M52.6 171.15a8.89 8.89 0 0 0-5.6-8.26c-.15-.48-.15-1.16-.48-1.4a79.81 79.81 0 0 0-7.44-5.3 61.44 61.44 0 0 1-11-8c-2.21-2.06-4.65-3.72-7.72-4.07A38.89 38.89 0 0 0 15 144a15.18 15.18 0 0 0-12.36 6.58A10.93 10.93 0 0 0 .79 155a33.32 33.32 0 0 0-.51 6.91 11.59 11.59 0 0 0 6 10c1.76 1.06 3.69 1.84 5.45 2.91a29.45 29.45 0 0 1 7.79 6.45c1.15 1.41 1.7 3.32 3.52 4.17.15.07.22.35.29.55a7.7 7.7 0 0 0 6 5 22.45 22.45 0 0 0 7.13.13c6-.94 10.49-4.54 14.13-9.16a10.2 10.2 0 0 0 1.72-4.5 37.67 37.67 0 0 0 .29-6.31zM24 179.8a1.67 1.67 0 0 1-2.91.74 42 42 0 0 0-2.92-3.18A44 44 0 0 0 8 169.54c-3.31-1.69-4.07-2.41-4.26-6.16-.07-1.2 0-4.49 0-5.69 0-5.46 1-8.45 5.95-10.57a22.13 22.13 0 0 1 5.44-1.28c3.94-.58 5 .55 8 3.32 2.17 2 6.65 4.46 9 6.16 3.81 2.77 8.07 4.37 12 7-1.1 0-2.17.09-2.44.06-6.45-.64-13.88 1.55-16.17 7.63-.74 1.95-.36 5-.88 7a77.7 77.7 0 0 1-.64 2.79zm26-2.9a7.06 7.06 0 0 1-2.28 4.91c-1.92 1.77-3.41 4.27-5.55 5.74-3.39 2.35-8.28 2.38-12.32 1.9-2.9-.35-4.86-3-4.46-5.21.77-4.25 1.38-8.56 3.12-12.58a11.48 11.48 0 0 1 8.26-6.91c1.15-.29 5.31-.23 8.15-.28l1.6 1.1c1.9 1.3 3.57 2.81 3.66 5.29.04 2.01-.1 4.03-.18 6.04z" fill-rule="nonzero"/><path d="M47.38 174.77a21.36 21.36 0 0 0-.51-3 6.89 6.89 0 0 0-1.41-3.18s-2.16-1.73-2.16-1.76c0-1-.85-1.16-1.66-1.2-4.92-.24-10.47 4-11.5 8.83a20.47 20.47 0 0 0 .21 8.43 4.19 4.19 0 0 0 2.54 3.05c2.87 1.3 8 .57 10.15-1.69 2.54-2.6 4.51-5.54 4.34-9.48zm-2.61 1.7c-1.22 5.58-3.3 9.54-8.79 8.71-1-.15-3.18-1.7-3.39-2.8a16.35 16.35 0 0 1 .55-7.62c.83-3.12 5.21-5.69 8-6.17 3.32-.47 3.86 3.17 3.83 3.52a39.41 39.41 0 0 1-.2 4.36z" fill-rule="nonzero"/><path d="M272.41 92c-3.55 7.09-5.09 14.8-5.61 22.74a3.71 3.71 0 0 0 2.07 3.68 43 43 0 0 1 5.61 3.68c5.9 4.94 11.71 10 17.51 15.06 2.49 2.18 5.37 3.07 8.46 4.27 9.17 3.54 13.63-4.53 14.38-5.12 3-2.32 2.85-5.77 4.25-9.32 1.4-3.55 0-9.54-2.8-11.92-2.52-2.13-5.13-4.16-7.79-6.1-4.47-3.27-10.17-7.57-13.45-12.17-2.84-4-3.93-7.6-8.37-10a8.89 8.89 0 0 0-3.84-1.2 10.89 10.89 0 0 0-10.42 6.4zm39.82 25.37c3.64 1.62 4.31 2.73 5.15 4.69a5.52 5.52 0 0 1-.72 5.07c-1.61 2.46-1.16 3-2.87 5.39-.61.84-2 3.5-2.61 4.33-1.64 1.66-2.29 1.29-4.16 2.71-.2-.05-4 .58-4.17.54-3-.6-4.85-.57-7.57-2.44A7.48 7.48 0 0 1 292 130c1.06-5.4 6.72-11.34 11.94-12.35a38.94 38.94 0 0 1 8.28-.35l.01.07zm-22.01-21.44a43.22 43.22 0 0 0 14.28 13.21c.8.48 1.58 1 2.32 1.51.74.51 1.59 1.2 2.43 1.85a1.37 1.37 0 0 1-.6 2.43c-1.76.25-3.42.49-5.06.8-6.11 1.18-12.61 8.2-13.41 14.42a18.05 18.05 0 0 0 0 2.44c-.21.18-4.4-6.29-6.62-8.26-1.53-1.37-4.09-3.09-5.72-4.33-2.33-1.75-5.19-1.92-7.61-3.56a2.66 2.66 0 0 1-1.19-2.49 25.68 25.68 0 0 1 .47-3.95c.92-3.76 2.8-14.25 6.28-19.22 1.37-2 2.09-2.91 7.62-1.12 2.73.91 5.12 3.69 6.85 6.34l-.04-.07z"/><path d="M308.92 121.19a5.42 5.42 0 0 0-1.32.52 44.64 44.64 0 0 0-6.14 3.9c-1.39 1.19-7.46 7.41-.93 12.55a3.19 3.19 0 0 0 3.6.19 17.76 17.76 0 0 0 9.76-12.73c.72-3.43-1.69-5.4-5-4.43m3 4.31a15.74 15.74 0 0 1-5.81 9.18c-4.8 3.76-4-2.57-6.29-3.78a4.39 4.39 0 0 1 1.74-2.76 50.81 50.81 0 0 1 7.75-5c2-1 3.1.09 2.61 2.38"/><path d="M308.92 121.19a5.42 5.42 0 0 0-1.32.52 44.64 44.64 0 0 0-6.14 3.9c-1.39 1.19-7.46 7.41-.93 12.55a3.19 3.19 0 0 0 3.6.19 17.76 17.76 0 0 0 9.76-12.73c.72-3.43-1.69-5.4-5-4.43m3 4.31a15.74 15.74 0 0 1-5.81 9.18c-4.8 3.76-4-2.57-6.29-3.78a4.39 4.39 0 0 1 1.74-2.76 50.81 50.81 0 0 1 7.75-5c2-1 3.1.09 2.61 2.38M162.76 69a2.64 2.64 0 0 0-2.76-2.17c-.95-.72-1.91-1.4-2-1.53a2.66 2.66 0 0 0-1.56-.61c-3.12-.32-6.7 1.84-8.22 4.91a5.44 5.44 0 0 0 .75 6.54 9.91 9.91 0 0 0 5.5 3.45 6.36 6.36 0 0 0 7-2.49 8.72 8.72 0 0 0 1.29-8.1m-1.86 4.09c-.55 2.84-2.36 4.7-4.78 4.72-2.77 0-4.05-.63-4.52-3 0-.13-1.47-2.42-1.48-2.56C150 69 154 65.74 157 66.88l2.78 1a1 1 0 0 0 .11.17 5.83 5.83 0 0 1 1.05 5m6.19-.64c-.49-2-1-3.94-1.44-5.93-.35-1.59-1.29-5.32-2-6.11a25.61 25.61 0 0 0-2.49-2.7c-2.89-2.54-5.43-5.63-8.73-7.55-7.76-4.54-8.08-8-12.08-12-3.5-3.53-7.6-4.83-12.55-1.53a18.35 18.35 0 0 0-7.21 9.64c-4.9 14.2 0 12.84 3.63 18.41a38.17 38.17 0 0 0 9.72 10c1.46 1.07 2.69 2.5 4.06 3.71.41.36 4.38 4.3 7.65 6.13 3.76 2.84 8.55 2.06 13.06 1.74a8.6 8.6 0 0 0 7.93-6.05 13.38 13.38 0 0 0 .4-7.8M136.55 74c-2.62-2.42-5.53-4.53-8-7.12A22.89 22.89 0 0 1 122.39 48a9.26 9.26 0 0 1 1-3.4 16.14 16.14 0 0 1 6.87-7c2.44-1.19 4.48-1.82 6.58-.21 1.36 1 2.25 4.9 3.44 6.15 5.17 5.44 10.88 9 16.94 13.36 1.25.91 2.39 2 3.58 3-4.27-.77-8.17.23-12 1.84a9.75 9.75 0 0 0-6.16 7.78 51.21 51.21 0 0 0-.59 5.66 8.31 8.31 0 0 0 1.13 4.8c-1.27-.72-2.25-1.28-2.31-1.35-1.43-1.57-2.83-3.17-4.38-4.6m28 5.64c-.93 3.23-3.9 4.75-9 4.61a13.09 13.09 0 0 1-9.15-3.56 6.81 6.81 0 0 1-2.34-5.44 48.86 48.86 0 0 1 .7-5.91 7.19 7.19 0 0 1 3.94-5.37c3.59-1.85 7.34-3 11.43-2.22.9.188 1.649.81 2 1.66 1.8 3.07 2 6.61 2.87 9.92a12.46 12.46 0 0 1-.43 6.24M199.23 146.35c-7.1-3.55-14.8-5.09-22.75-5.61a3.71 3.71 0 0 0-3.68 2.07 42 42 0 0 1-3.68 5.61c-4.94 5.9-10 11.71-15.05 17.51-2.18 2.49-3.08 5.37-4.27 8.46-3.55 9.17 4.53 13.63 5.11 14.38 2.32 3 5.77 2.85 9.32 4.25 3.55 1.4 9.54 0 11.93-2.8 2.13-2.52 4.15-5.13 6.1-7.79 3.26-4.47 7.56-10.17 12.17-13.45 4-2.85 7.59-3.93 9.94-8.37a8.75 8.75 0 0 0 1.2-3.84 10.87 10.87 0 0 0-6.34-10.42m-25.37 39.81c-1.63 3.65-2.74 4.32-4.69 5.16a5.51 5.51 0 0 1-5.07-.72c-2.47-1.61-3-1.16-5.4-2.87-.84-.61-3.5-2-4.33-2.61-1.66-1.64-1.29-2.29-2.71-4.16.05-.2-.58-4-.54-4.17.6-3 .57-4.85 2.44-7.57a7.48 7.48 0 0 1 7.59-3.27c5.4 1.06 11.35 6.72 12.35 11.94a39.1 39.1 0 0 1 .36 8.27m28.69-26c-2.61 3.54-8.92 4.27-12.45 6.77-4.57 3.23-6.35 9.49-9.6 13.9-.59.8-1.2 1.59-1.84 2.43a1.37 1.37 0 0 1-2.43-.6c-.25-1.76-.49-3.42-.81-5.06-1.18-6.11-8.2-12.61-14.42-13.41a18 18 0 0 0-2.44 0c-.17-.21 6.29-4.4 8.26-6.62 1.37-1.54 3.1-4.09 4.33-5.73 1.72-2.28 1.91-5.06 3.46-7.46a2.44 2.44 0 0 1 2.48-1.35 29 29 0 0 1 4.07.49c4.78 1.17 9.56 2.35 14.29 3.73a10.87 10.87 0 0 1 6 4.14c1.61 2.27 3.52 5.52 1.12 8.79"/><path d="M170 182.85a5.12 5.12 0 0 0-.52-1.31 42.82 42.82 0 0 0-3.9-6.14c-1.19-1.39-7.41-7.46-12.54-.93a3.17 3.17 0 0 0-.19 3.6 17.68 17.68 0 0 0 12.73 9.75c3.43.73 5.4-1.68 4.42-5m-4.31 3a15.77 15.77 0 0 1-9.19-5.82c-3.75-4.8 2.57-4 3.79-6.29a4.37 4.37 0 0 1 2.75 1.74 49.59 49.59 0 0 1 5 7.75c1 2-.09 3.1-2.38 2.61M291.63 19.12a88.7 88.7 0 0 0-10.69-1.34 69.79 69.79 0 0 0-7.37-.49c-1.3 0-1.94-.42-1.91-1.7a26.69 26.69 0 0 0-.27-3.68 10.41 10.41 0 0 0-5.23-8.21 21.1 21.1 0 0 0-3.83-1.92 27.37 27.37 0 0 0-30 8.58c-1.19 1.41-1.68 3.41-2.57 5-4.09 7.43-3.71 13.55 3.06 19.29 6.49 5.5-4.7 15.56-8.38 21.2-4.16 6.4-9 12.44-12.07 19.46-1 2.28-2.22 4.16-4.91 4.61-.18 0-.46.13-.49.25l-.09.35c-5.26.39-11.35 3.26-16.22 5.38a26.49 26.49 0 0 0-12.18 10c-2.68 4.26-3.89 9.11-2.38 14.22.26.91.46 1.84.76 2.74 1.05 3.24 2 6.58 4.2 9.27 4 4.75 9.23 6.88 15.34 7.15 2.15.1 4.32 0 6.44.21.324.045.642.122.95.23 3.13.34 4.31 2.72 6.26 5 .456.517.95.999 1.48 1.44a26.74 26.74 0 0 0 10.88 3.87 42.29 42.29 0 0 0 22.06-2.5c4.73-1.89 5.71-7.45 5.15-10.69a3.82 3.82 0 0 1 .11-1.87 7.78 7.78 0 0 0 0-5.56 37.15 37.15 0 0 0-2-5.12 6.37 6.37 0 0 1 .6-5.88c.54-.82 1.18-1.84 2-3 2.55-2.24 3.88-5.27 5.27-8.26a34.08 34.08 0 0 1 1.68-3.56c1.86-3 3.77-5.92 5.77-8.8 2.8-4.06 5.69-8.06 8.58-12.07a5 5 0 0 1 3.74-2.08c5.1-.58 10.13-1.48 14.72-3.94 4.25-2.28 7.69-5.42 9.35-10 1.57-4.31 3.27-8.65 4-13.17 3.37-21-3.58-22.47-11.78-24.39m-46.77 115.23a3.23 3.23 0 0 0-.18.28 1.78 1.78 0 0 1-1.32 1.2h-.24a1.26 1.26 0 0 1-.44 0c-.25 0-1.39.4-1.59.44-.2.04-.66.11-1 .15-.07.07-3 .68-4.75 1.3-2.22.92-4.81.84-7.19.8a18.72 18.72 0 0 1-7-1.06c-.12 0-1.11-.52-2-1a11.23 11.23 0 0 0-3-1c-3.79-.72-5-2-7.88-5.48a7.83 7.83 0 0 0-6.85-3.08c-3.48.14-7 .22-10.39-.8-5.45-1.62-9.25-4.95-11-10.41a1.15 1.15 0 0 1 0-.37c.11-.1.47.2.61.39 3.16 4.65 6.91 7.81 12.18 8.58a9.1 9.1 0 0 0 2.84-.1 1.53 1.53 0 0 1 .86-.53 39.49 39.49 0 0 0 4.74-1.16c.68-.22 1.34-.43 2-.6l.41-.12a7.32 7.32 0 0 1 4.31-.33 5.22 5.22 0 0 1 3 3.27 18.77 18.77 0 0 1 1.46 1.5c3.1 3.7 7.26 5.11 11.78 5.69 3.15-.06 6.38-.52 9.5-.32a.72.72 0 0 1 .46.18 25.24 25.24 0 0 0 3.77-.18c1.27-.22 2.54-.49 3.8-.82a37.61 37.61 0 0 0 4.62-1.71.55.55 0 0 1 .76.53c-.06 1.93-2.25 4.74-2.23 4.71m2.42-14.13a5 5 0 0 1-1.44 5.81 11.42 11.42 0 0 1-3.83 2.11 42.75 42.75 0 0 1-13.74 1.7c-5.84-.18-11.22-1.36-15-6.27-.17-.22-.42-.38-.6-.6-2.73-3.34-6-4.59-10.39-3.38a21.33 21.33 0 0 1-8.94.7c-4.89-.73-9-2.57-11.57-7-.84-1.43-1.55-2.93-2.31-4.4-2.28-4.44-1.41-8.67 1.38-12.43a26.74 26.74 0 0 1 12.83-9.41c4.76-1.7 9.71-2 14.65-2.48a7 7 0 0 0 1-.25 3.84 3.84 0 0 0 2.38-2.11c.61-1.35 1.87-4.21 2-4.61 2.77-6.72 7.33-12.4 11.18-18.49 3.54-5.56 7.41-11.08 11.05-16.66 1.58-2.45 1.8-4.93-.31-7.44-4-4.72-3.9-9.64-3.17-15.66.46-3.83 1-7.52 3.92-10 6.14-5.27 13.22-7.59 21.27-6.18 7.29 1.29 12.42 3.41 12.18 10.72 0 .33-2.31.92-1.85 3.2.52 2.56 2 4.78 4.61 5 2.91.28 5.41-.59 8.31-.91a29.88 29.88 0 0 1 11.44.85 11.14 11.14 0 0 1 8 12.61 32.05 32.05 0 0 1-6.5 14.59c-4.25 5.28-10.26 7.61-16.93 8.21-3.24.29-7-1.21-9.74.54-2.43 1.55-2.93 7.59-4.39 10.13-5.2 9.1-10.43 18.187-15.69 27.26a8 8 0 0 1-1.08 1.32c-1.21 1.31-3.31 5.81-3.41 5.77-.46 1.83-3.69.46-2.72 3.12.212.39.46.757.74 1.1a61.19 61.19 0 0 1 3.43 5.68c1.22 2.56 2.14 5.26 3.2 7.9m54.17-78.37c-1.1 3.91-2.21 7.83-3.33 11.73-1.63 5.63-5.4 9.32-10.68 11.72a35.51 35.51 0 0 1-11.62 2.94 9 9 0 0 0-6.53 3.7c-1.92 2.68-9.59 10.39-19.74 28.65-.49.89-1.4 4.16-3.54 6.32a1.5 1.5 0 0 1-2.24-.1l-.5-.61a1.46 1.46 0 0 1-.19-1.62 24.94 24.94 0 0 1 1.39-2.16c.92-1.37 2-3.6 2.38-4.3.72-1.27 1.82-2.22 2.55-3.65 1.9-3.69 4.58-7 6.76-10.53 3.34-5.47 5.29-8.92 8.61-14.4 2.77-4.57 1.77-7 2.31-8.68.4-1.22 3-1.37 4.15-1.37 4.7 0 9.09.62 13.55-1.05 6.77-2.53 12.13-6.57 14.66-13.61a17.66 17.66 0 0 1 2.08-3.8 3.73 3.73 0 0 1-.07.82M145.61 119.46c-1.39-2-2.49-4.1-3.82-6.09a13.6 13.6 0 0 0-2.7-3.22 25.51 25.51 0 0 0-5.9-3.81c-4.75-1.9-9.65-3.41-14.5-5.07-1.11-.38-2.24-.74-2.89-1a11.18 11.18 0 0 0-.63-2.94 23 23 0 0 0-2.83-4.13c-4.19-4.62-8.46-9.16-12.73-13.7-.32-.34-.65-.68-1-1-2.73-4.49-6.46-10.66-7-11.38a3.48 3.48 0 0 1-.54-3.95 41.07 41.07 0 0 1 2.74-5.27 14.76 14.76 0 0 0 2.84-9.72c-.62-8.61-6.34-16-14.33-18.18-7.99-2.18-15.08-4.27-23.2-2.53-3 .64-6.23 4.57-7.48 7.37-.36.82-.71 1.64-1 2.47a5.8 5.8 0 0 1-6 4.14c-1.93 0-3.87 0-5.8-.2-5.93-.53-10.71 1.71-14.72 5.93-.442.437-.906.85-1.39 1.24-1 .87-2.36 1.55-3 2.63C16.42 56.4 14.8 62 18 68.16a42.88 42.88 0 0 1 1.81 3.89 18.5 18.5 0 0 0 6 7.84c4.73 3.66 9.88 6.29 15.93 6.85a2.36 2.36 0 0 1 1.44.69c4.7 5.7 9.367 11.427 14 17.18 2.89 3.61 6.66 6.53 8.46 11 .08.18.45 3.37.82 6.28-.16.74-.32 1.48-.5 2.22-1.63 6.76-3 13.52-1.38 20.5a4.22 4.22 0 0 1-.07 1.05 5.24 5.24 0 0 0 0 2.12 20.53 20.53 0 0 0 2.66 5.09c4.52 5.4 6 11.38 12.69 13.29 7.89 2.24 20.22-.16 28.13-2.42a12 12 0 0 0 7.52-5.56c1-1.77 2.11-2.3 3.92-1.94 5.28 1 11.39 1.86 16.41.3 4.42-1.37 7.18-5.54 9.28-9.89.91-1.88 1.7-3.82 2.49-5.76a25.29 25.29 0 0 0 .6-6.91c.257-.71.444-1.444.56-2.19a16.26 16.26 0 0 0-3.1-12.32m-79.39-6.29c-6.31-8.23-12.72-16.38-19.11-24.55-.47-.6-1-1.16-1.51-1.74l.36-.08c.05-.74.09-1.49.14-2.34.14-.06.48-.19.81-.34l1.23-.56c5.27 9.44 12.29 21.24 20.15 29.12-.26 1.24-.51 2.48-.75 3.72a.76.76 0 0 0-.46-.3c-.26-1-.25-2.22-.84-3m5.57 38.08a30.37 30.37 0 0 1-2.44-2.66 18.72 18.72 0 0 1-2.74-5c-1.34-4.93-.43-9.91.46-14.81.85-4.68 2-9.31 3-14v-.35l.1.09-.08-.25a6.13 6.13 0 0 0-.22-1.8.87.87 0 0 0-.39-.43c-.55-2.13-1.24-4.8-1.85-5.57-6.1-7.66-12.35-15.2-17.34-23.68A1.72 1.72 0 0 0 49 82c-2.43 0-4.86.37-7.28.34-5.48 0-10.41-1.47-13.93-6.11a31.45 31.45 0 0 0-2.68-3.08 11.37 11.37 0 0 1-3.37-7.63 52.56 52.56 0 0 1 0-7.53c.75-8.17 8.44-15.24 16.27-14.6 2.39.19 6.65 2.45 9 2.31 3.44-.21 4.56-.32 6.06-3.55.28-.62.27-5 .52-5.61a7.22 7.22 0 0 1 5.8-4.73 60.43 60.43 0 0 1 18.26-.36c6.68.84 11.56 4.23 14.3 10.36 2.13 4.76 2.88 9.59-.45 14.34a28.28 28.28 0 0 0-3.21 6.41c-.58 1.53.62 5 2.56 8.59-.25-.06-2.25-.07-2.48-.15.13.7 1.84 1.44 2.17 2a11.93 11.93 0 0 0 1.82 2.15c5.41 5.7 10.86 11.37 16.26 17.07 2 2.17 4.15 4.3 5.11 6.9-.58.77-1.5 1.46-1.41 2 .09.54 1 1.22 1.69 1.58.94.451 1.922.813 2.93 1.08 3.54 1.12 7.16 2 10.61 3.38a56.5 56.5 0 0 1 8.37 4.21c1.69 1 3 3 4.05 4.49 1.05 1.49 2.17 3.33 3.16 5a21.59 21.59 0 0 1 2.42 4.54c1 3.47 1.16 6.93-1.25 10-5.39 6.95-12.61 9.59-21.14 8.7-2.44-.25-4.81-1.34-7.2-2.08-3.61-1.14-5.48-.35-7.13 3-.14.28-.24.58-.39.86a17.41 17.41 0 0 1-6.9 7.53c-5.65 3-11.78 3.63-18.11 3.31a15.3 15.3 0 0 1-11.64-5.57m62.1 1.37a30.55 30.55 0 0 1-14.89 1.27 4.42 4.42 0 0 0-5.18 2.32 10.71 10.71 0 0 1-6.76 5.25 44.18 44.18 0 0 1-16.15 1.41 26 26 0 0 1-12.6-3.85 4.94 4.94 0 0 1-.7-.6 70.87 70.87 0 0 0 13 .62 35.87 35.87 0 0 0 10.59-2.59c5-2.06 8.18-6.2 10.21-11.17a1.83 1.83 0 0 1 2.31-1.3c1.27.28 5.15 3.09 6.37 3.54 9.88 3.61 17.65 1.52 23.77-7.71a7.08 7.08 0 0 1 1.06-1c-.58 2.13-1.08 4.07-1.35 4.94-1.54 5-5.17 7.5-9.74 9"/><path d="M170 182.85a5.12 5.12 0 0 0-.52-1.31 42.82 42.82 0 0 0-3.9-6.14c-1.19-1.39-7.41-7.46-12.54-.93a3.17 3.17 0 0 0-.19 3.6 17.68 17.68 0 0 0 12.73 9.75c3.43.73 5.4-1.68 4.42-5m-4.31 3a15.77 15.77 0 0 1-9.19-5.82c-3.75-4.8 2.57-4 3.79-6.29a4.37 4.37 0 0 1 2.75 1.74 49.59 49.59 0 0 1 5 7.75c1 2-.09 3.1-2.38 2.61"/><path d="M52.6 171.15a8.89 8.89 0 0 0-5.6-8.26c-.15-.48-.15-1.16-.48-1.4a79.81 79.81 0 0 0-7.44-5.3 61.44 61.44 0 0 1-11-8c-2.21-2.06-4.65-3.72-7.72-4.07A38.89 38.89 0 0 0 15 144a15.18 15.18 0 0 0-12.36 6.58A10.93 10.93 0 0 0 .79 155a33.32 33.32 0 0 0-.51 6.91 11.59 11.59 0 0 0 6 10c1.76 1.06 3.69 1.84 5.45 2.91a29.45 29.45 0 0 1 7.79 6.45c1.15 1.41 1.7 3.32 3.52 4.17.15.07.22.35.29.55a7.7 7.7 0 0 0 6 5 22.45 22.45 0 0 0 7.13.13c6-.94 10.49-4.54 14.13-9.16a10.2 10.2 0 0 0 1.72-4.5 37.67 37.67 0 0 0 .29-6.31zM24 179.8a1.67 1.67 0 0 1-2.91.74 42 42 0 0 0-2.92-3.18A44 44 0 0 0 8 169.54c-3.31-1.69-4.07-2.41-4.26-6.16-.07-1.2 0-4.49 0-5.69 0-5.46 1-8.45 5.95-10.57a22.13 22.13 0 0 1 5.44-1.28c3.94-.58 5 .55 8 3.32 2.17 2 6.65 4.46 9 6.16 3.81 2.77 8.07 4.37 12 7-1.1 0-2.17.09-2.44.06-6.45-.64-13.88 1.55-16.17 7.63-.74 1.95-.36 5-.88 7a77.7 77.7 0 0 1-.64 2.79zm26-2.9a7.06 7.06 0 0 1-2.28 4.91c-1.92 1.77-3.41 4.27-5.55 5.74-3.39 2.35-8.28 2.38-12.32 1.9-2.9-.35-4.86-3-4.46-5.21.77-4.25 1.38-8.56 3.12-12.58a11.48 11.48 0 0 1 8.26-6.91c1.15-.29 5.31-.23 8.15-.28l1.6 1.1c1.9 1.3 3.57 2.81 3.66 5.29.04 2.01-.1 4.03-.18 6.04z" fill-rule="nonzero"/><path d="M47.38 174.77a21.36 21.36 0 0 0-.51-3 6.89 6.89 0 0 0-1.41-3.18s-2.16-1.73-2.16-1.76c0-1-.85-1.16-1.66-1.2-4.92-.24-10.47 4-11.5 8.83a20.47 20.47 0 0 0 .21 8.43 4.19 4.19 0 0 0 2.54 3.05c2.87 1.3 8 .57 10.15-1.69 2.54-2.6 4.51-5.54 4.34-9.48zm-2.61 1.7c-1.22 5.58-3.3 9.54-8.79 8.71-1-.15-3.18-1.7-3.39-2.8a16.35 16.35 0 0 1 .55-7.62c.83-3.12 5.21-5.69 8-6.17 3.32-.47 3.86 3.17 3.83 3.52a39.41 39.41 0 0 1-.2 4.36z" fill-rule="nonzero"/><path d="M272.41 92c-3.55 7.09-5.09 14.8-5.61 22.74a3.71 3.71 0 0 0 2.07 3.68 43 43 0 0 1 5.61 3.68c5.9 4.94 11.71 10 17.51 15.06 2.49 2.18 5.37 3.07 8.46 4.27 9.17 3.54 13.63-4.53 14.38-5.12 3-2.32 2.85-5.77 4.25-9.32 1.4-3.55 0-9.54-2.8-11.92-2.52-2.13-5.13-4.16-7.79-6.1-4.47-3.27-10.17-7.57-13.45-12.17-2.84-4-3.93-7.6-8.37-10a8.89 8.89 0 0 0-3.84-1.2 10.89 10.89 0 0 0-10.42 6.4zm39.82 25.37c3.64 1.62 4.31 2.73 5.15 4.69a5.52 5.52 0 0 1-.72 5.07c-1.61 2.46-1.16 3-2.87 5.39-.61.84-2 3.5-2.61 4.33-1.64 1.66-2.29 1.29-4.16 2.71-.2-.05-4 .58-4.17.54-3-.6-4.85-.57-7.57-2.44A7.48 7.48 0 0 1 292 130c1.06-5.4 6.72-11.34 11.94-12.35a38.94 38.94 0 0 1 8.28-.35l.01.07zm-22.01-21.44a43.22 43.22 0 0 0 14.28 13.21c.8.48 1.58 1 2.32 1.51.74.51 1.59 1.2 2.43 1.85a1.37 1.37 0 0 1-.6 2.43c-1.76.25-3.42.49-5.06.8-6.11 1.18-12.61 8.2-13.41 14.42a18.05 18.05 0 0 0 0 2.44c-.21.18-4.4-6.29-6.62-8.26-1.53-1.37-4.09-3.09-5.72-4.33-2.33-1.75-5.19-1.92-7.61-3.56a2.66 2.66 0 0 1-1.19-2.49 25.68 25.68 0 0 1 .47-3.95c.92-3.76 2.8-14.25 6.28-19.22 1.37-2 2.09-2.91 7.62-1.12 2.73.91 5.12 3.69 6.85 6.34l-.04-.07z"/><path d="M308.92 121.19a5.42 5.42 0 0 0-1.32.52 44.64 44.64 0 0 0-6.14 3.9c-1.39 1.19-7.46 7.41-.93 12.55a3.19 3.19 0 0 0 3.6.19 17.76 17.76 0 0 0 9.76-12.73c.72-3.43-1.69-5.4-5-4.43m3 4.31a15.74 15.74 0 0 1-5.81 9.18c-4.8 3.76-4-2.57-6.29-3.78a4.39 4.39 0 0 1 1.74-2.76 50.81 50.81 0 0 1 7.75-5c2-1 3.1.09 2.61 2.38"/><path d="M308.92 121.19a5.42 5.42 0 0 0-1.32.52 44.64 44.64 0 0 0-6.14 3.9c-1.39 1.19-7.46 7.41-.93 12.55a3.19 3.19 0 0 0 3.6.19 17.76 17.76 0 0 0 9.76-12.73c.72-3.43-1.69-5.4-5-4.43m3 4.31a15.74 15.74 0 0 1-5.81 9.18c-4.8 3.76-4-2.57-6.29-3.78a4.39 4.39 0 0 1 1.74-2.76 50.81 50.81 0 0 1 7.75-5c2-1 3.1.09 2.61 2.38M162.76 69a2.64 2.64 0 0 0-2.76-2.17c-.95-.72-1.91-1.4-2-1.53a2.66 2.66 0 0 0-1.56-.61c-3.12-.32-6.7 1.84-8.22 4.91a5.44 5.44 0 0 0 .75 6.54 9.91 9.91 0 0 0 5.5 3.45 6.36 6.36 0 0 0 7-2.49 8.72 8.72 0 0 0 1.29-8.1m-1.86 4.09c-.55 2.84-2.36 4.7-4.78 4.72-2.77 0-4.05-.63-4.52-3 0-.13-1.47-2.42-1.48-2.56C150 69 154 65.74 157 66.88l2.78 1a1 1 0 0 0 .11.17 5.83 5.83 0 0 1 1.05 5m6.19-.64c-.49-2-1-3.94-1.44-5.93-.35-1.59-1.29-5.32-2-6.11a25.61 25.61 0 0 0-2.49-2.7c-2.89-2.54-5.43-5.63-8.73-7.55-7.76-4.54-8.08-8-12.08-12-3.5-3.53-7.6-4.83-12.55-1.53a18.35 18.35 0 0 0-7.21 9.64c-4.9 14.2 0 12.84 3.63 18.41a38.17 38.17 0 0 0 9.72 10c1.46 1.07 2.69 2.5 4.06 3.71.41.36 4.38 4.3 7.65 6.13 3.76 2.84 8.55 2.06 13.06 1.74a8.6 8.6 0 0 0 7.93-6.05 13.38 13.38 0 0 0 .4-7.8M136.55 74c-2.62-2.42-5.53-4.53-8-7.12A22.89 22.89 0 0 1 122.39 48a9.26 9.26 0 0 1 1-3.4 16.14 16.14 0 0 1 6.87-7c2.44-1.19 4.48-1.82 6.58-.21 1.36 1 2.25 4.9 3.44 6.15 5.17 5.44 10.88 9 16.94 13.36 1.25.91 2.39 2 3.58 3-4.27-.77-8.17.23-12 1.84a9.75 9.75 0 0 0-6.16 7.78 51.21 51.21 0 0 0-.59 5.66 8.31 8.31 0 0 0 1.13 4.8c-1.27-.72-2.25-1.28-2.31-1.35-1.43-1.57-2.83-3.17-4.38-4.6m28 5.64c-.93 3.23-3.9 4.75-9 4.61a13.09 13.09 0 0 1-9.15-3.56 6.81 6.81 0 0 1-2.34-5.44 48.86 48.86 0 0 1 .7-5.91 7.19 7.19 0 0 1 3.94-5.37c3.59-1.85 7.34-3 11.43-2.22.9.188 1.649.81 2 1.66 1.8 3.07 2 6.61 2.87 9.92a12.46 12.46 0 0 1-.43 6.24M199.23 146.35c-7.1-3.55-14.8-5.09-22.75-5.61a3.71 3.71 0 0 0-3.68 2.07 42 42 0 0 1-3.68 5.61c-4.94 5.9-10 11.71-15.05 17.51-2.18 2.49-3.08 5.37-4.27 8.46-3.55 9.17 4.53 13.63 5.11 14.38 2.32 3 5.77 2.85 9.32 4.25 3.55 1.4 9.54 0 11.93-2.8 2.13-2.52 4.15-5.13 6.1-7.79 3.26-4.47 7.56-10.17 12.17-13.45 4-2.85 7.59-3.93 9.94-8.37a8.75 8.75 0 0 0 1.2-3.84 10.87 10.87 0 0 0-6.34-10.42m-25.37 39.81c-1.63 3.65-2.74 4.32-4.69 5.16a5.51 5.51 0 0 1-5.07-.72c-2.47-1.61-3-1.16-5.4-2.87-.84-.61-3.5-2-4.33-2.61-1.66-1.64-1.29-2.29-2.71-4.16.05-.2-.58-4-.54-4.17.6-3 .57-4.85 2.44-7.57a7.48 7.48 0 0 1 7.59-3.27c5.4 1.06 11.35 6.72 12.35 11.94a39.1 39.1 0 0 1 .36 8.27m28.69-26c-2.61 3.54-8.92 4.27-12.45 6.77-4.57 3.23-6.35 9.49-9.6 13.9-.59.8-1.2 1.59-1.84 2.43a1.37 1.37 0 0 1-2.43-.6c-.25-1.76-.49-3.42-.81-5.06-1.18-6.11-8.2-12.61-14.42-13.41a18 18 0 0 0-2.44 0c-.17-.21 6.29-4.4 8.26-6.62 1.37-1.54 3.1-4.09 4.33-5.73 1.72-2.28 1.91-5.06 3.46-7.46a2.44 2.44 0 0 1 2.48-1.35 29 29 0 0 1 4.07.49c4.78 1.17 9.56 2.35 14.29 3.73a10.87 10.87 0 0 1 6 4.14c1.61 2.27 3.52 5.52 1.12 8.79"/><path d="M170 182.85a5.12 5.12 0 0 0-.52-1.31 42.82 42.82 0 0 0-3.9-6.14c-1.19-1.39-7.41-7.46-12.54-.93a3.17 3.17 0 0 0-.19 3.6 17.68 17.68 0 0 0 12.73 9.75c3.43.73 5.4-1.68 4.42-5m-4.31 3a15.77 15.77 0 0 1-9.19-5.82c-3.75-4.8 2.57-4 3.79-6.29a4.37 4.37 0 0 1 2.75 1.74 49.59 49.59 0 0 1 5 7.75c1 2-.09 3.1-2.38 2.61M291.63 19.12a88.7 88.7 0 0 0-10.69-1.34 69.79 69.79 0 0 0-7.37-.49c-1.3 0-1.94-.42-1.91-1.7a26.69 26.69 0 0 0-.27-3.68 10.41 10.41 0 0 0-5.23-8.21 21.1 21.1 0 0 0-3.83-1.92 27.37 27.37 0 0 0-30 8.58c-1.19 1.41-1.68 3.41-2.57 5-4.09 7.43-3.71 13.55 3.06 19.29 6.49 5.5-4.7 15.56-8.38 21.2-4.16 6.4-9 12.44-12.07 19.46-1 2.28-2.22 4.16-4.91 4.61-.18 0-.46.13-.49.25l-.09.35c-5.26.39-11.35 3.26-16.22 5.38a26.49 26.49 0 0 0-12.18 10c-2.68 4.26-3.89 9.11-2.38 14.22.26.91.46 1.84.76 2.74 1.05 3.24 2 6.58 4.2 9.27 4 4.75 9.23 6.88 15.34 7.15 2.15.1 4.32 0 6.44.21.324.045.642.122.95.23 3.13.34 4.31 2.72 6.26 5 .456.517.95.999 1.48 1.44a26.74 26.74 0 0 0 10.88 3.87 42.29 42.29 0 0 0 22.06-2.5c4.73-1.89 5.71-7.45 5.15-10.69a3.82 3.82 0 0 1 .11-1.87 7.78 7.78 0 0 0 0-5.56 37.15 37.15 0 0 0-2-5.12 6.37 6.37 0 0 1 .6-5.88c.54-.82 1.18-1.84 2-3 2.55-2.24 3.88-5.27 5.27-8.26a34.08 34.08 0 0 1 1.68-3.56c1.86-3 3.77-5.92 5.77-8.8 2.8-4.06 5.69-8.06 8.58-12.07a5 5 0 0 1 3.74-2.08c5.1-.58 10.13-1.48 14.72-3.94 4.25-2.28 7.69-5.42 9.35-10 1.57-4.31 3.27-8.65 4-13.17 3.37-21-3.58-22.47-11.78-24.39m-46.77 115.23a3.23 3.23 0 0 0-.18.28 1.78 1.78 0 0 1-1.32 1.2h-.24a1.26 1.26 0 0 1-.44 0c-.25 0-1.39.4-1.59.44-.2.04-.66.11-1 .15-.07.07-3 .68-4.75 1.3-2.22.92-4.81.84-7.19.8a18.72 18.72 0 0 1-7-1.06c-.12 0-1.11-.52-2-1a11.23 11.23 0 0 0-3-1c-3.79-.72-5-2-7.88-5.48a7.83 7.83 0 0 0-6.85-3.08c-3.48.14-7 .22-10.39-.8-5.45-1.62-9.25-4.95-11-10.41a1.15 1.15 0 0 1 0-.37c.11-.1.47.2.61.39 3.16 4.65 6.91 7.81 12.18 8.58a9.1 9.1 0 0 0 2.84-.1 1.53 1.53 0 0 1 .86-.53 39.49 39.49 0 0 0 4.74-1.16c.68-.22 1.34-.43 2-.6l.41-.12a7.32 7.32 0 0 1 4.31-.33 5.22 5.22 0 0 1 3 3.27 18.77 18.77 0 0 1 1.46 1.5c3.1 3.7 7.26 5.11 11.78 5.69 3.15-.06 6.38-.52 9.5-.32a.72.72 0 0 1 .46.18 25.24 25.24 0 0 0 3.77-.18c1.27-.22 2.54-.49 3.8-.82a37.61 37.61 0 0 0 4.62-1.71.55.55 0 0 1 .76.53c-.06 1.93-2.25 4.74-2.23 4.71m2.42-14.13a5 5 0 0 1-1.44 5.81 11.42 11.42 0 0 1-3.83 2.11 42.75 42.75 0 0 1-13.74 1.7c-5.84-.18-11.22-1.36-15-6.27-.17-.22-.42-.38-.6-.6-2.73-3.34-6-4.59-10.39-3.38a21.33 21.33 0 0 1-8.94.7c-4.89-.73-9-2.57-11.57-7-.84-1.43-1.55-2.93-2.31-4.4-2.28-4.44-1.41-8.67 1.38-12.43a26.74 26.74 0 0 1 12.83-9.41c4.76-1.7 9.71-2 14.65-2.48a7 7 0 0 0 1-.25 3.84 3.84 0 0 0 2.38-2.11c.61-1.35 1.87-4.21 2-4.61 2.77-6.72 7.33-12.4 11.18-18.49 3.54-5.56 7.41-11.08 11.05-16.66 1.58-2.45 1.8-4.93-.31-7.44-4-4.72-3.9-9.64-3.17-15.66.46-3.83 1-7.52 3.92-10 6.14-5.27 13.22-7.59 21.27-6.18 7.29 1.29 12.42 3.41 12.18 10.72 0 .33-2.31.92-1.85 3.2.52 2.56 2 4.78 4.61 5 2.91.28 5.41-.59 8.31-.91a29.88 29.88 0 0 1 11.44.85 11.14 11.14 0 0 1 8 12.61 32.05 32.05 0 0 1-6.5 14.59c-4.25 5.28-10.26 7.61-16.93 8.21-3.24.29-7-1.21-9.74.54-2.43 1.55-2.93 7.59-4.39 10.13-5.2 9.1-10.43 18.187-15.69 27.26a8 8 0 0 1-1.08 1.32c-1.21 1.31-3.31 5.81-3.41 5.77-.46 1.83-3.69.46-2.72 3.12.212.39.46.757.74 1.1a61.19 61.19 0 0 1 3.43 5.68c1.22 2.56 2.14 5.26 3.2 7.9m54.17-78.37c-1.1 3.91-2.21 7.83-3.33 11.73-1.63 5.63-5.4 9.32-10.68 11.72a35.51 35.51 0 0 1-11.62 2.94 9 9 0 0 0-6.53 3.7c-1.92 2.68-9.59 10.39-19.74 28.65-.49.89-1.4 4.16-3.54 6.32a1.5 1.5 0 0 1-2.24-.1l-.5-.61a1.46 1.46 0 0 1-.19-1.62 24.94 24.94 0 0 1 1.39-2.16c.92-1.37 2-3.6 2.38-4.3.72-1.27 1.82-2.22 2.55-3.65 1.9-3.69 4.58-7 6.76-10.53 3.34-5.47 5.29-8.92 8.61-14.4 2.77-4.57 1.77-7 2.31-8.68.4-1.22 3-1.37 4.15-1.37 4.7 0 9.09.62 13.55-1.05 6.77-2.53 12.13-6.57 14.66-13.61a17.66 17.66 0 0 1 2.08-3.8 3.73 3.73 0 0 1-.07.82M145.61 119.46c-1.39-2-2.49-4.1-3.82-6.09a13.6 13.6 0 0 0-2.7-3.22 25.51 25.51 0 0 0-5.9-3.81c-4.75-1.9-9.65-3.41-14.5-5.07-1.11-.38-2.24-.74-2.89-1a11.18 11.18 0 0 0-.63-2.94 23 23 0 0 0-2.83-4.13c-4.19-4.62-8.46-9.16-12.73-13.7-.32-.34-.65-.68-1-1-2.73-4.49-6.46-10.66-7-11.38a3.48 3.48 0 0 1-.54-3.95 41.07 41.07 0 0 1 2.74-5.27 14.76 14.76 0 0 0 2.84-9.72c-.62-8.61-6.34-16-14.33-18.18-7.99-2.18-15.08-4.27-23.2-2.53-3 .64-6.23 4.57-7.48 7.37-.36.82-.71 1.64-1 2.47a5.8 5.8 0 0 1-6 4.14c-1.93 0-3.87 0-5.8-.2-5.93-.53-10.71 1.71-14.72 5.93-.442.437-.906.85-1.39 1.24-1 .87-2.36 1.55-3 2.63C16.42 56.4 14.8 62 18 68.16a42.88 42.88 0 0 1 1.81 3.89 18.5 18.5 0 0 0 6 7.84c4.73 3.66 9.88 6.29 15.93 6.85a2.36 2.36 0 0 1 1.44.69c4.7 5.7 9.367 11.427 14 17.18 2.89 3.61 6.66 6.53 8.46 11 .08.18.45 3.37.82 6.28-.16.74-.32 1.48-.5 2.22-1.63 6.76-3 13.52-1.38 20.5a4.22 4.22 0 0 1-.07 1.05 5.24 5.24 0 0 0 0 2.12 20.53 20.53 0 0 0 2.66 5.09c4.52 5.4 6 11.38 12.69 13.29 7.89 2.24 20.22-.16 28.13-2.42a12 12 0 0 0 7.52-5.56c1-1.77 2.11-2.3 3.92-1.94 5.28 1 11.39 1.86 16.41.3 4.42-1.37 7.18-5.54 9.28-9.89.91-1.88 1.7-3.82 2.49-5.76a25.29 25.29 0 0 0 .6-6.91c.257-.71.444-1.444.56-2.19a16.26 16.26 0 0 0-3.1-12.32m-79.39-6.29c-6.31-8.23-12.72-16.38-19.11-24.55-.47-.6-1-1.16-1.51-1.74l.36-.08c.05-.74.09-1.49.14-2.34.14-.06.48-.19.81-.34l1.23-.56c5.27 9.44 12.29 21.24 20.15 29.12-.26 1.24-.51 2.48-.75 3.72a.76.76 0 0 0-.46-.3c-.26-1-.25-2.22-.84-3m5.57 38.08a30.37 30.37 0 0 1-2.44-2.66 18.72 18.72 0 0 1-2.74-5c-1.34-4.93-.43-9.91.46-14.81.85-4.68 2-9.31 3-14v-.35l.1.09-.08-.25a6.13 6.13 0 0 0-.22-1.8.87.87 0 0 0-.39-.43c-.55-2.13-1.24-4.8-1.85-5.57-6.1-7.66-12.35-15.2-17.34-23.68A1.72 1.72 0 0 0 49 82c-2.43 0-4.86.37-7.28.34-5.48 0-10.41-1.47-13.93-6.11a31.45 31.45 0 0 0-2.68-3.08 11.37 11.37 0 0 1-3.37-7.63 52.56 52.56 0 0 1 0-7.53c.75-8.17 8.44-15.24 16.27-14.6 2.39.19 6.65 2.45 9 2.31 3.44-.21 4.56-.32 6.06-3.55.28-.62.27-5 .52-5.61a7.22 7.22 0 0 1 5.8-4.73 60.43 60.43 0 0 1 18.26-.36c6.68.84 11.56 4.23 14.3 10.36 2.13 4.76 2.88 9.59-.45 14.34a28.28 28.28 0 0 0-3.21 6.41c-.58 1.53.62 5 2.56 8.59-.25-.06-2.25-.07-2.48-.15.13.7 1.84 1.44 2.17 2a11.93 11.93 0 0 0 1.82 2.15c5.41 5.7 10.86 11.37 16.26 17.07 2 2.17 4.15 4.3 5.11 6.9-.58.77-1.5 1.46-1.41 2 .09.54 1 1.22 1.69 1.58.94.451 1.922.813 2.93 1.08 3.54 1.12 7.16 2 10.61 3.38a56.5 56.5 0 0 1 8.37 4.21c1.69 1 3 3 4.05 4.49 1.05 1.49 2.17 3.33 3.16 5a21.59 21.59 0 0 1 2.42 4.54c1 3.47 1.16 6.93-1.25 10-5.39 6.95-12.61 9.59-21.14 8.7-2.44-.25-4.81-1.34-7.2-2.08-3.61-1.14-5.48-.35-7.13 3-.14.28-.24.58-.39.86a17.41 17.41 0 0 1-6.9 7.53c-5.65 3-11.78 3.63-18.11 3.31a15.3 15.3 0 0 1-11.64-5.57m62.1 1.37a30.55 30.55 0 0 1-14.89 1.27 4.42 4.42 0 0 0-5.18 2.32 10.71 10.71 0 0 1-6.76 5.25 44.18 44.18 0 0 1-16.15 1.41 26 26 0 0 1-12.6-3.85 4.94 4.94 0 0 1-.7-.6 70.87 70.87 0 0 0 13 .62 35.87 35.87 0 0 0 10.59-2.59c5-2.06 8.18-6.2 10.21-11.17a1.83 1.83 0 0 1 2.31-1.3c1.27.28 5.15 3.09 6.37 3.54 9.88 3.61 17.65 1.52 23.77-7.71a7.08 7.08 0 0 1 1.06-1c-.58 2.13-1.08 4.07-1.35 4.94-1.54 5-5.17 7.5-9.74 9"/><path d="M170 182.85a5.12 5.12 0 0 0-.52-1.31 42.82 42.82 0 0 0-3.9-6.14c-1.19-1.39-7.41-7.46-12.54-.93a3.17 3.17 0 0 0-.19 3.6 17.68 17.68 0 0 0 12.73 9.75c3.43.73 5.4-1.68 4.42-5m-4.31 3a15.77 15.77 0 0 1-9.19-5.82c-3.75-4.8 2.57-4 3.79-6.29a4.37 4.37 0 0 1 2.75 1.74 49.59 49.59 0 0 1 5 7.75c1 2-.09 3.1-2.38 2.61"/><path d="M52.6 171.15a8.89 8.89 0 0 0-5.6-8.26c-.15-.48-.15-1.16-.48-1.4a79.81 79.81 0 0 0-7.44-5.3 61.44 61.44 0 0 1-11-8c-2.21-2.06-4.65-3.72-7.72-4.07A38.89 38.89 0 0 0 15 144a15.18 15.18 0 0 0-12.36 6.58A10.93 10.93 0 0 0 .79 155a33.32 33.32 0 0 0-.51 6.91 11.59 11.59 0 0 0 6 10c1.76 1.06 3.69 1.84 5.45 2.91a29.45 29.45 0 0 1 7.79 6.45c1.15 1.41 1.7 3.32 3.52 4.17.15.07.22.35.29.55a7.7 7.7 0 0 0 6 5 22.45 22.45 0 0 0 7.13.13c6-.94 10.49-4.54 14.13-9.16a10.2 10.2 0 0 0 1.72-4.5 37.67 37.67 0 0 0 .29-6.31zM24 179.8a1.67 1.67 0 0 1-2.91.74 42 42 0 0 0-2.92-3.18A44 44 0 0 0 8 169.54c-3.31-1.69-4.07-2.41-4.26-6.16-.07-1.2 0-4.49 0-5.69 0-5.46 1-8.45 5.95-10.57a22.13 22.13 0 0 1 5.44-1.28c3.94-.58 5 .55 8 3.32 2.17 2 6.65 4.46 9 6.16 3.81 2.77 8.07 4.37 12 7-1.1 0-2.17.09-2.44.06-6.45-.64-13.88 1.55-16.17 7.63-.74 1.95-.36 5-.88 7a77.7 77.7 0 0 1-.64 2.79zm26-2.9a7.06 7.06 0 0 1-2.28 4.91c-1.92 1.77-3.41 4.27-5.55 5.74-3.39 2.35-8.28 2.38-12.32 1.9-2.9-.35-4.86-3-4.46-5.21.77-4.25 1.38-8.56 3.12-12.58a11.48 11.48 0 0 1 8.26-6.91c1.15-.29 5.31-.23 8.15-.28l1.6 1.1c1.9 1.3 3.57 2.81 3.66 5.29.04 2.01-.1 4.03-.18 6.04z" fill-rule="nonzero"/><path d="M47.38 174.77a21.36 21.36 0 0 0-.51-3 6.89 6.89 0 0 0-1.41-3.18s-2.16-1.73-2.16-1.76c0-1-.85-1.16-1.66-1.2-4.92-.24-10.47 4-11.5 8.83a20.47 20.47 0 0 0 .21 8.43 4.19 4.19 0 0 0 2.54 3.05c2.87 1.3 8 .57 10.15-1.69 2.54-2.6 4.51-5.54 4.34-9.48zm-2.61 1.7c-1.22 5.58-3.3 9.54-8.79 8.71-1-.15-3.18-1.7-3.39-2.8a16.35 16.35 0 0 1 .55-7.62c.83-3.12 5.21-5.69 8-6.17 3.32-.47 3.86 3.17 3.83 3.52a39.41 39.41 0 0 1-.2 4.36z" fill-rule="nonzero"/><path d="M272.41 92c-3.55 7.09-5.09 14.8-5.61 22.74a3.71 3.71 0 0 0 2.07 3.68 43 43 0 0 1 5.61 3.68c5.9 4.94 11.71 10 17.51 15.06 2.49 2.18 5.37 3.07 8.46 4.27 9.17 3.54 13.63-4.53 14.38-5.12 3-2.32 2.85-5.77 4.25-9.32 1.4-3.55 0-9.54-2.8-11.92-2.52-2.13-5.13-4.16-7.79-6.1-4.47-3.27-10.17-7.57-13.45-12.17-2.84-4-3.93-7.6-8.37-10a8.89 8.89 0 0 0-3.84-1.2 10.89 10.89 0 0 0-10.42 6.4zm39.82 25.37c3.64 1.62 4.31 2.73 5.15 4.69a5.52 5.52 0 0 1-.72 5.07c-1.61 2.46-1.16 3-2.87 5.39-.61.84-2 3.5-2.61 4.33-1.64 1.66-2.29 1.29-4.16 2.71-.2-.05-4 .58-4.17.54-3-.6-4.85-.57-7.57-2.44A7.48 7.48 0 0 1 292 130c1.06-5.4 6.72-11.34 11.94-12.35a38.94 38.94 0 0 1 8.28-.35l.01.07zm-22.01-21.44a43.22 43.22 0 0 0 14.28 13.21c.8.48 1.58 1 2.32 1.51.74.51 1.59 1.2 2.43 1.85a1.37 1.37 0 0 1-.6 2.43c-1.76.25-3.42.49-5.06.8-6.11 1.18-12.61 8.2-13.41 14.42a18.05 18.05 0 0 0 0 2.44c-.21.18-4.4-6.29-6.62-8.26-1.53-1.37-4.09-3.09-5.72-4.33-2.33-1.75-5.19-1.92-7.61-3.56a2.66 2.66 0 0 1-1.19-2.49 25.68 25.68 0 0 1 .47-3.95c.92-3.76 2.8-14.25 6.28-19.22 1.37-2 2.09-2.91 7.62-1.12 2.73.91 5.12 3.69 6.85 6.34l-.04-.07z"/><path d="M308.92 121.19a5.42 5.42 0 0 0-1.32.52 44.64 44.64 0 0 0-6.14 3.9c-1.39 1.19-7.46 7.41-.93 12.55a3.19 3.19 0 0 0 3.6.19 17.76 17.76 0 0 0 9.76-12.73c.72-3.43-1.69-5.4-5-4.43m3 4.31a15.74 15.74 0 0 1-5.81 9.18c-4.8 3.76-4-2.57-6.29-3.78a4.39 4.39 0 0 1 1.74-2.76 50.81 50.81 0 0 1 7.75-5c2-1 3.1.09 2.61 2.38"/><path d="M308.92 121.19a5.42 5.42 0 0 0-1.32.52 44.64 44.64 0 0 0-6.14 3.9c-1.39 1.19-7.46 7.41-.93 12.55a3.19 3.19 0 0 0 3.6.19 17.76 17.76 0 0 0 9.76-12.73c.72-3.43-1.69-5.4-5-4.43m3 4.31a15.74 15.74 0 0 1-5.81 9.18c-4.8 3.76-4-2.57-6.29-3.78a4.39 4.39 0 0 1 1.74-2.76 50.81 50.81 0 0 1 7.75-5c2-1 3.1.09 2.61 2.38M199.23 146.35c-7.1-3.55-14.8-5.09-22.75-5.61a3.71 3.71 0 0 0-3.68 2.07 42 42 0 0 1-3.68 5.61c-4.94 5.9-10 11.71-15.05 17.51-2.18 2.49-3.08 5.37-4.27 8.46-3.55 9.17 4.53 13.63 5.11 14.38 2.32 3 5.77 2.85 9.32 4.25 3.55 1.4 9.54 0 11.93-2.8 2.13-2.52 4.15-5.13 6.1-7.79 3.26-4.47 7.56-10.17 12.17-13.45 4-2.85 7.59-3.93 9.94-8.37a8.75 8.75 0 0 0 1.2-3.84 10.87 10.87 0 0 0-6.34-10.42m-25.37 39.81c-1.63 3.65-2.74 4.32-4.69 5.16a5.51 5.51 0 0 1-5.07-.72c-2.47-1.61-3-1.16-5.4-2.87-.84-.61-3.5-2-4.33-2.61-1.66-1.64-1.29-2.29-2.71-4.16.05-.2-.58-4-.54-4.17.6-3 .57-4.85 2.44-7.57a7.48 7.48 0 0 1 7.59-3.27c5.4 1.06 11.35 6.72 12.35 11.94a39.1 39.1 0 0 1 .36 8.27m28.69-26c-2.61 3.54-8.92 4.27-12.45 6.77-4.57 3.23-6.35 9.49-9.6 13.9-.59.8-1.2 1.59-1.84 2.43a1.37 1.37 0 0 1-2.43-.6c-.25-1.76-.49-3.42-.81-5.06-1.18-6.11-8.2-12.61-14.42-13.41a18 18 0 0 0-2.44 0c-.17-.21 6.29-4.4 8.26-6.62 1.37-1.54 3.1-4.09 4.33-5.73 1.72-2.28 1.91-5.06 3.46-7.46a2.44 2.44 0 0 1 2.48-1.35 29 29 0 0 1 4.07.49c4.78 1.17 9.56 2.35 14.29 3.73a10.87 10.87 0 0 1 6 4.14c1.61 2.27 3.52 5.52 1.12 8.79"/><path d="M170 182.85a5.12 5.12 0 0 0-.52-1.31 42.82 42.82 0 0 0-3.9-6.14c-1.19-1.39-7.41-7.46-12.54-.93a3.17 3.17 0 0 0-.19 3.6 17.68 17.68 0 0 0 12.73 9.75c3.43.73 5.4-1.68 4.42-5m-4.31 3a15.77 15.77 0 0 1-9.19-5.82c-3.75-4.8 2.57-4 3.79-6.29a4.37 4.37 0 0 1 2.75 1.74 49.59 49.59 0 0 1 5 7.75c1 2-.09 3.1-2.38 2.61M291.63 19.12a88.7 88.7 0 0 0-10.69-1.34 69.79 69.79 0 0 0-7.37-.49c-1.3 0-1.94-.42-1.91-1.7a26.69 26.69 0 0 0-.27-3.68 10.41 10.41 0 0 0-5.23-8.21 21.1 21.1 0 0 0-3.83-1.92 27.37 27.37 0 0 0-30 8.58c-1.19 1.41-1.68 3.41-2.57 5-4.09 7.43-3.71 13.55 3.06 19.29 6.49 5.5-4.7 15.56-8.38 21.2-4.16 6.4-9 12.44-12.07 19.46-1 2.28-2.22 4.16-4.91 4.61-.18 0-.46.13-.49.25l-.09.35c-5.26.39-11.35 3.26-16.22 5.38a26.49 26.49 0 0 0-12.18 10c-2.68 4.26-3.89 9.11-2.38 14.22.26.91.46 1.84.76 2.74 1.05 3.24 2 6.58 4.2 9.27 4 4.75 9.23 6.88 15.34 7.15 2.15.1 4.32 0 6.44.21.324.045.642.122.95.23 3.13.34 4.31 2.72 6.26 5 .456.517.95.999 1.48 1.44a26.74 26.74 0 0 0 10.88 3.87 42.29 42.29 0 0 0 22.06-2.5c4.73-1.89 5.71-7.45 5.15-10.69a3.82 3.82 0 0 1 .11-1.87 7.78 7.78 0 0 0 0-5.56 37.15 37.15 0 0 0-2-5.12 6.37 6.37 0 0 1 .6-5.88c.54-.82 1.18-1.84 2-3 2.55-2.24 3.88-5.27 5.27-8.26a34.08 34.08 0 0 1 1.68-3.56c1.86-3 3.77-5.92 5.77-8.8 2.8-4.06 5.69-8.06 8.58-12.07a5 5 0 0 1 3.74-2.08c5.1-.58 10.13-1.48 14.72-3.94 4.25-2.28 7.69-5.42 9.35-10 1.57-4.31 3.27-8.65 4-13.17 3.37-21-3.58-22.47-11.78-24.39m-46.77 115.23a3.23 3.23 0 0 0-.18.28 1.78 1.78 0 0 1-1.32 1.2h-.24a1.26 1.26 0 0 1-.44 0c-.25 0-1.39.4-1.59.44-.2.04-.66.11-1 .15-.07.07-3 .68-4.75 1.3-2.22.92-4.81.84-7.19.8a18.72 18.72 0 0 1-7-1.06c-.12 0-1.11-.52-2-1a11.23 11.23 0 0 0-3-1c-3.79-.72-5-2-7.88-5.48a7.83 7.83 0 0 0-6.85-3.08c-3.48.14-7 .22-10.39-.8-5.45-1.62-9.25-4.95-11-10.41a1.15 1.15 0 0 1 0-.37c.11-.1.47.2.61.39 3.16 4.65 6.91 7.81 12.18 8.58a9.1 9.1 0 0 0 2.84-.1 1.53 1.53 0 0 1 .86-.53 39.49 39.49 0 0 0 4.74-1.16c.68-.22 1.34-.43 2-.6l.41-.12a7.32 7.32 0 0 1 4.31-.33 5.22 5.22 0 0 1 3 3.27 18.77 18.77 0 0 1 1.46 1.5c3.1 3.7 7.26 5.11 11.78 5.69 3.15-.06 6.38-.52 9.5-.32a.72.72 0 0 1 .46.18 25.24 25.24 0 0 0 3.77-.18c1.27-.22 2.54-.49 3.8-.82a37.61 37.61 0 0 0 4.62-1.71.55.55 0 0 1 .76.53c-.06 1.93-2.25 4.74-2.23 4.71m2.42-14.13a5 5 0 0 1-1.44 5.81 11.42 11.42 0 0 1-3.83 2.11 42.75 42.75 0 0 1-13.74 1.7c-5.84-.18-11.22-1.36-15-6.27-.17-.22-.42-.38-.6-.6-2.73-3.34-6-4.59-10.39-3.38a21.33 21.33 0 0 1-8.94.7c-4.89-.73-9-2.57-11.57-7-.84-1.43-1.55-2.93-2.31-4.4-2.28-4.44-1.41-8.67 1.38-12.43a26.74 26.74 0 0 1 12.83-9.41c4.76-1.7 9.71-2 14.65-2.48a7 7 0 0 0 1-.25 3.84 3.84 0 0 0 2.38-2.11c.61-1.35 1.87-4.21 2-4.61 2.77-6.72 7.33-12.4 11.18-18.49 3.54-5.56 7.41-11.08 11.05-16.66 1.58-2.45 1.8-4.93-.31-7.44-4-4.72-3.9-9.64-3.17-15.66.46-3.83 1-7.52 3.92-10 6.14-5.27 13.22-7.59 21.27-6.18 7.29 1.29 12.42 3.41 12.18 10.72 0 .33-2.31.92-1.85 3.2.52 2.56 2 4.78 4.61 5 2.91.28 5.41-.59 8.31-.91a29.88 29.88 0 0 1 11.44.85 11.14 11.14 0 0 1 8 12.61 32.05 32.05 0 0 1-6.5 14.59c-4.25 5.28-10.26 7.61-16.93 8.21-3.24.29-7-1.21-9.74.54-2.43 1.55-2.93 7.59-4.39 10.13-5.2 9.1-10.43 18.187-15.69 27.26a8 8 0 0 1-1.08 1.32c-1.21 1.31-3.31 5.81-3.41 5.77-.46 1.83-3.69.46-2.72 3.12.212.39.46.757.74 1.1a61.19 61.19 0 0 1 3.43 5.68c1.22 2.56 2.14 5.26 3.2 7.9m54.17-78.37c-1.1 3.91-2.21 7.83-3.33 11.73-1.63 5.63-5.4 9.32-10.68 11.72a35.51 35.51 0 0 1-11.62 2.94 9 9 0 0 0-6.53 3.7c-1.92 2.68-9.59 10.39-19.74 28.65-.49.89-1.4 4.16-3.54 6.32a1.5 1.5 0 0 1-2.24-.1l-.5-.61a1.46 1.46 0 0 1-.19-1.62 24.94 24.94 0 0 1 1.39-2.16c.92-1.37 2-3.6 2.38-4.3.72-1.27 1.82-2.22 2.55-3.65 1.9-3.69 4.58-7 6.76-10.53 3.34-5.47 5.29-8.92 8.61-14.4 2.77-4.57 1.77-7 2.31-8.68.4-1.22 3-1.37 4.15-1.37 4.7 0 9.09.62 13.55-1.05 6.77-2.53 12.13-6.57 14.66-13.61a17.66 17.66 0 0 1 2.08-3.8 3.73 3.73 0 0 1-.07.82M145.61 119.46c-1.39-2-2.49-4.1-3.82-6.09a13.6 13.6 0 0 0-2.7-3.22 25.51 25.51 0 0 0-5.9-3.81c-4.75-1.9-9.65-3.41-14.5-5.07-1.11-.38-2.24-.74-2.89-1a11.18 11.18 0 0 0-.63-2.94 23 23 0 0 0-2.83-4.13c-4.19-4.62-8.46-9.16-12.73-13.7-.32-.34-.65-.68-1-1-2.73-4.49-6.46-10.66-7-11.38a3.48 3.48 0 0 1-.54-3.95 41.07 41.07 0 0 1 2.74-5.27 14.76 14.76 0 0 0 2.84-9.72c-.62-8.61-6.34-16-14.33-18.18-7.99-2.18-15.08-4.27-23.2-2.53-3 .64-6.23 4.57-7.48 7.37-.36.82-.71 1.64-1 2.47a5.8 5.8 0 0 1-6 4.14c-1.93 0-3.87 0-5.8-.2-5.93-.53-10.71 1.71-14.72 5.93-.442.437-.906.85-1.39 1.24-1 .87-2.36 1.55-3 2.63C16.42 56.4 14.8 62 18 68.16a42.88 42.88 0 0 1 1.81 3.89 18.5 18.5 0 0 0 6 7.84c4.73 3.66 9.88 6.29 15.93 6.85a2.36 2.36 0 0 1 1.44.69c4.7 5.7 9.367 11.427 14 17.18 2.89 3.61 6.66 6.53 8.46 11 .08.18.45 3.37.82 6.28-.16.74-.32 1.48-.5 2.22-1.63 6.76-3 13.52-1.38 20.5a4.22 4.22 0 0 1-.07 1.05 5.24 5.24 0 0 0 0 2.12 20.53 20.53 0 0 0 2.66 5.09c4.52 5.4 6 11.38 12.69 13.29 7.89 2.24 20.22-.16 28.13-2.42a12 12 0 0 0 7.52-5.56c1-1.77 2.11-2.3 3.92-1.94 5.28 1 11.39 1.86 16.41.3 4.42-1.37 7.18-5.54 9.28-9.89.91-1.88 1.7-3.82 2.49-5.76a25.29 25.29 0 0 0 .6-6.91c.257-.71.444-1.444.56-2.19a16.26 16.26 0 0 0-3.1-12.32m-79.39-6.29c-6.31-8.23-12.72-16.38-19.11-24.55-.47-.6-1-1.16-1.51-1.74l.36-.08c.05-.74.09-1.49.14-2.34.14-.06.48-.19.81-.34l1.23-.56c5.27 9.44 12.29 21.24 20.15 29.12-.26 1.24-.51 2.48-.75 3.72a.76.76 0 0 0-.46-.3c-.26-1-.25-2.22-.84-3m5.57 38.08a30.37 30.37 0 0 1-2.44-2.66 18.72 18.72 0 0 1-2.74-5c-1.34-4.93-.43-9.91.46-14.81.85-4.68 2-9.31 3-14v-.35l.1.09-.08-.25a6.13 6.13 0 0 0-.22-1.8.87.87 0 0 0-.39-.43c-.55-2.13-1.24-4.8-1.85-5.57-6.1-7.66-12.35-15.2-17.34-23.68A1.72 1.72 0 0 0 49 82c-2.43 0-4.86.37-7.28.34-5.48 0-10.41-1.47-13.93-6.11a31.45 31.45 0 0 0-2.68-3.08 11.37 11.37 0 0 1-3.37-7.63 52.56 52.56 0 0 1 0-7.53c.75-8.17 8.44-15.24 16.27-14.6 2.39.19 6.65 2.45 9 2.31 3.44-.21 4.56-.32 6.06-3.55.28-.62.27-5 .52-5.61a7.22 7.22 0 0 1 5.8-4.73 60.43 60.43 0 0 1 18.26-.36c6.68.84 11.56 4.23 14.3 10.36 2.13 4.76 2.88 9.59-.45 14.34a28.28 28.28 0 0 0-3.21 6.41c-.58 1.53.62 5 2.56 8.59-.25-.06-2.25-.07-2.48-.15.13.7 1.84 1.44 2.17 2a11.93 11.93 0 0 0 1.82 2.15c5.41 5.7 10.86 11.37 16.26 17.07 2 2.17 4.15 4.3 5.11 6.9-.58.77-1.5 1.46-1.41 2 .09.54 1 1.22 1.69 1.58.94.451 1.922.813 2.93 1.08 3.54 1.12 7.16 2 10.61 3.38a56.5 56.5 0 0 1 8.37 4.21c1.69 1 3 3 4.05 4.49 1.05 1.49 2.17 3.33 3.16 5a21.59 21.59 0 0 1 2.42 4.54c1 3.47 1.16 6.93-1.25 10-5.39 6.95-12.61 9.59-21.14 8.7-2.44-.25-4.81-1.34-7.2-2.08-3.61-1.14-5.48-.35-7.13 3-.14.28-.24.58-.39.86a17.41 17.41 0 0 1-6.9 7.53c-5.65 3-11.78 3.63-18.11 3.31a15.3 15.3 0 0 1-11.64-5.57m62.1 1.37a30.55 30.55 0 0 1-14.89 1.27 4.42 4.42 0 0 0-5.18 2.32 10.71 10.71 0 0 1-6.76 5.25 44.18 44.18 0 0 1-16.15 1.41 26 26 0 0 1-12.6-3.85 4.94 4.94 0 0 1-.7-.6 70.87 70.87 0 0 0 13 .62 35.87 35.87 0 0 0 10.59-2.59c5-2.06 8.18-6.2 10.21-11.17a1.83 1.83 0 0 1 2.31-1.3c1.27.28 5.15 3.09 6.37 3.54 9.88 3.61 17.65 1.52 23.77-7.71a7.08 7.08 0 0 1 1.06-1c-.58 2.13-1.08 4.07-1.35 4.94-1.54 5-5.17 7.5-9.74 9"/><path d="M170 182.85a5.12 5.12 0 0 0-.52-1.31 42.82 42.82 0 0 0-3.9-6.14c-1.19-1.39-7.41-7.46-12.54-.93a3.17 3.17 0 0 0-.19 3.6 17.68 17.68 0 0 0 12.73 9.75c3.43.73 5.4-1.68 4.42-5m-4.31 3a15.77 15.77 0 0 1-9.19-5.82c-3.75-4.8 2.57-4 3.79-6.29a4.37 4.37 0 0 1 2.75 1.74 49.59 49.59 0 0 1 5 7.75c1 2-.09 3.1-2.38 2.61"/><path d="M47.38 174.77a21.36 21.36 0 0 0-.51-3 6.89 6.89 0 0 0-1.41-3.18s-2.16-1.73-2.16-1.76c0-1-.85-1.16-1.66-1.2-4.92-.24-10.47 4-11.5 8.83a20.47 20.47 0 0 0 .21 8.43 4.19 4.19 0 0 0 2.54 3.05c2.87 1.3 8 .57 10.15-1.69 2.54-2.6 4.51-5.54 4.34-9.48zm-2.61 1.7c-1.22 5.58-3.3 9.54-8.79 8.71-1-.15-3.18-1.7-3.39-2.8a16.35 16.35 0 0 1 .55-7.62c.83-3.12 5.21-5.69 8-6.17 3.32-.47 3.86 3.17 3.83 3.52a39.41 39.41 0 0 1-.2 4.36z" fill-rule="nonzero"/><path d="M272.41 92c-3.55 7.09-5.09 14.8-5.61 22.74a3.71 3.71 0 0 0 2.07 3.68 43 43 0 0 1 5.61 3.68c5.9 4.94 11.71 10 17.51 15.06 2.49 2.18 5.37 3.07 8.46 4.27 9.17 3.54 13.63-4.53 14.38-5.12 3-2.32 2.85-5.77 4.25-9.32 1.4-3.55 0-9.54-2.8-11.92-2.52-2.13-5.13-4.16-7.79-6.1-4.47-3.27-10.17-7.57-13.45-12.17-2.84-4-3.93-7.6-8.37-10a8.89 8.89 0 0 0-3.84-1.2 10.89 10.89 0 0 0-10.42 6.4zm39.82 25.37c3.64 1.62 4.31 2.73 5.15 4.69a5.52 5.52 0 0 1-.72 5.07c-1.61 2.46-1.16 3-2.87 5.39-.61.84-2 3.5-2.61 4.33-1.64 1.66-2.29 1.29-4.16 2.71-.2-.05-4 .58-4.17.54-3-.6-4.85-.57-7.57-2.44A7.48 7.48 0 0 1 292 130c1.06-5.4 6.72-11.34 11.94-12.35a38.94 38.94 0 0 1 8.28-.35l.01.07zm-22.01-21.44a43.22 43.22 0 0 0 14.28 13.21c.8.48 1.58 1 2.32 1.51.74.51 1.59 1.2 2.43 1.85a1.37 1.37 0 0 1-.6 2.43c-1.76.25-3.42.49-5.06.8-6.11 1.18-12.61 8.2-13.41 14.42a18.05 18.05 0 0 0 0 2.44c-.21.18-4.4-6.29-6.62-8.26-1.53-1.37-4.09-3.09-5.72-4.33-2.33-1.75-5.19-1.92-7.61-3.56a2.66 2.66 0 0 1-1.19-2.49 25.68 25.68 0 0 1 .47-3.95c.92-3.76 2.8-14.25 6.28-19.22 1.37-2 2.09-2.91 7.62-1.12 2.73.91 5.12 3.69 6.85 6.34l-.04-.07z"/><path d="M308.92 121.19a5.42 5.42 0 0 0-1.32.52 44.64 44.64 0 0 0-6.14 3.9c-1.39 1.19-7.46 7.41-.93 12.55a3.19 3.19 0 0 0 3.6.19 17.76 17.76 0 0 0 9.76-12.73c.72-3.43-1.69-5.4-5-4.43m3 4.31a15.74 15.74 0 0 1-5.81 9.18c-4.8 3.76-4-2.57-6.29-3.78a4.39 4.39 0 0 1 1.74-2.76 50.81 50.81 0 0 1 7.75-5c2-1 3.1.09 2.61 2.38"/><path d="M308.92 121.19a5.42 5.42 0 0 0-1.32.52 44.64 44.64 0 0 0-6.14 3.9c-1.39 1.19-7.46 7.41-.93 12.55a3.19 3.19 0 0 0 3.6.19 17.76 17.76 0 0 0 9.76-12.73c.72-3.43-1.69-5.4-5-4.43m3 4.31a15.74 15.74 0 0 1-5.81 9.18c-4.8 3.76-4-2.57-6.29-3.78a4.39 4.39 0 0 1 1.74-2.76 50.81 50.81 0 0 1 7.75-5c2-1 3.1.09 2.61 2.38"/></g></svg>