<svg width="135" height="194" xmlns="http://www.w3.org/2000/svg"><g fill="none" fill-rule="evenodd"><path d="M132.51 128.23c-2.33-4.47-5.37-8.75-7.53-12.62a1.84 1.84 0 0 1-.21-.58l-.38-.56a41.27 41.27 0 0 0-22.53-8.16c-4-4.667-8.067-9.267-12.2-13.8a71.51 71.51 0 0 1-6.32-5.79c-2.79-2.87-5.86-6.53-7.55-10.58-.88-1.82-1.79-3.63-2.78-5.38a5.23 5.23 0 0 0-.41-3.16l.18-1a21.3 21.3 0 0 0 5.88-12.25 16.2 16.2 0 0 0-5.08-13.58c-4.43-4-9.94-5.51-15.68-6.11-5.45-.56-11.2-.62-15.8 3a18.11 18.11 0 0 0-4.89 6.1 6.1 6.1 0 0 1-3.72 3.1 15.39 15.39 0 0 1-4.49.89 29.62 29.62 0 0 0-12.78 1.55c-1 .73-2.74 1-3.64 1.78-2.52 2.34-4.91 3-5.7 9.14a26.67 26.67 0 0 0-.24 3.86c0 1.42-1 2.47-1.74 3.67a7.52 7.52 0 0 0-.38 5.92 14.06 14.06 0 0 0 6 7.84c1.8 1.16 3.64 2.32 4 2.53a21 21 0 0 0 6.07 2.46 12.42 12.42 0 0 0 4.72 1.24 134.3 134.3 0 0 0 11 13.41c4.52 6.61 8.74 13.47 13.41 20a53.46 53.46 0 0 0-2.23 12.3c-.66 12.21 4.78 26.28 16.33 31.13l.16.11c.83.8 1.758 1.491 2.76 2.06a43.82 43.82 0 0 0 11.21-.13c5.79-.91 10.8-3.8 15.66-7 2.8-1.87 5.77-3.65 9.09-4.26a29.07 29.07 0 0 1 9.26.12 65.64 65.64 0 0 0 8.71 1.11 12.23 12.23 0 0 0 4.07-.65c3.21-2.82 6.07-4 7-8.27 1-1.16 2.09-4.2 2.79-5.58-.74-4.35-.2-10.17-2-13.82M25 56.52a24.86 24.86 0 0 0-4.31-.07l-.13.12c-.642.47-1.31.904-2 1.3a1.1 1.1 0 0 1-.31.51 4.18 4.18 0 0 0-1.13 3.6A1.66 1.66 0 0 1 16 63.43c.155.495.418.95.77 1.33.83.9-.88 2.55-1.71 1.65-2.1-2.3-1.5-5.19.11-7.43a5.72 5.72 0 0 1 2.29-2.93c.067-.522.4-.973.88-1.19a18.34 18.34 0 0 1 7.56-.44c1.33.12.19 2.18-.88 2.1m93.16 85.38a1.07 1.07 0 0 1-.84.36 1.5 1.5 0 0 1-1.11 1 12.7 12.7 0 0 1-1.94.11c-2.7.1-5.6-.05-7.9-1.42-1.08-.64.38-2.51 1.33-1.94a8.21 8.21 0 0 0 1.2.57 1.08 1.08 0 0 1 .9-.26 9.73 9.73 0 0 0 5.3-.13 4.23 4.23 0 0 1 3-1.69.78.78 0 0 1 .26 0c.09-.2.18-.4.27-.56a3.89 3.89 0 0 1 .16-1.27 1.19 1.19 0 0 1 1.83-.64c1.52 1.42-1.56 4.92-2.47 5.87" fill="#ffe180"/><path d="M42.56 105.16s.57.8.6.84c1.7 2.13 2.55 2.64 4.29 4.75.39.28.87-.18 1-.56.13-.38-.64-1.26-.84-1.51l-3.48-4.47a1 1 0 0 0-1.37-.18.7.7 0 0 0-.2 1.13zM49.08 103.75a26.32 26.32 0 0 0-1.87-2.58.82.82 0 0 0-1.38.25 1 1 0 0 0 0 1.18c.87 1.21 1.76 2.4 2.66 3.55.42.54 1.62.2 2-.36.14-.19-.92-1.34-1.41-2.04zM33.81 94.56c1.76 2.16 2.67 3.23 4.43 5.39a1 1 0 0 0 1.62-.13v-.06a1 1 0 0 0-.08-1.1L35.2 92.8a1 1 0 0 0-1.54 0c-.75.86.34 1.69.15 1.76zM36.14 89.06c1.43 2.44 2.93 4.94 4.53 7.43a1 1 0 0 0 1.54.16c.252-.23.516-.447.79-.65a1 1 0 0 0 .19-1.37c-1.75-2.33-3.46-4.7-5.07-7.14a1 1 0 0 0-1.69.06c-.11.2-.22.4-.32.61a1 1 0 0 0 .03.9zM26.52 82.34a24.31 24.31 0 0 1-5-.52 1 1 0 0 0-1.16.65 11.12 11.12 0 0 1-.58 1.5 1 1 0 0 0 .53 1.36 25.48 25.48 0 0 0 6.29 1.41 2.34 2.34 0 0 1 1.44.69c.44.54.6.94 1.3 1.26 2.05-1-.72-2.32 0-3.78a6.09 6.09 0 0 1 2.13-2.15.35.35 0 0 0-.22-.63c-1.6.11-3.16.23-4.73.21zM11.43 74.49a1.24 1.24 0 0 0-.27-.29 9.22 9.22 0 0 1-1.2-1 1 1 0 0 0-1.49.16 6.06 6.06 0 0 1-.45.52A2.6 2.6 0 0 0 8 77.4a20 20 0 0 0 2.7 2.49c.81.63 1.64 1.23 2.48 1.8a1 1 0 0 0 1.49-.57c.141-.472.308-.936.5-1.39a1 1 0 0 0-.31-1.13 16 16 0 0 1-3.43-4.11zM4.79 62.35a1.07 1.07 0 0 0-1.32-.78l-.46.09A2 2 0 0 0 1.37 64a15.3 15.3 0 0 0 1.45 4.12c.15.27.28.55.42.82a2.07 2.07 0 0 0 1.47 1.13 1.15 1.15 0 0 0 1.35-1.34c-.32-1.66-.95-4.99-1.27-6.38zM9.09 48.88l-.23-.24a1 1 0 0 0-1.37-.14c-1 .84-2.29 1.51-2.94 2.56a31.83 31.83 0 0 0-1.61 3 1.94 1.94 0 0 0 1.77 2.73.9.9 0 0 0 .91-.73c.6-2.69 1.38-5.58 3.47-7.18zM21.82 41.2c-3.17.015-6.27.95-8.92 2.69a1 1 0 0 0-.25 1.52l.16.18a1 1 0 0 0 1.33.19 14.09 14.09 0 0 1 7.71-2.43 1 1 0 0 0 .94-.83 1.16 1.16 0 0 1 0-.18 1 1 0 0 0-.97-1.14zM52.34 117.72a15.64 15.64 0 0 1-.4-2.34 5 5 0 0 0-.86-2.21c-.24-.31-1.06-.39-1.25-.15a1 1 0 0 0-.08 1.09c.275.478.512.976.71 1.49a11.3 11.3 0 0 1 .78 6.45c-.14.66-.28 1.32-.44 2a1 1 0 0 0 1.22 1.18h.06a1 1 0 0 0 .7-.74c.7-3.23 1.47-6.44 2.14-9.67a1.57 1.57 0 0 0 .06-.51c.4-1.85-1.14-3.21-1.6-3.61a1.53 1.53 0 0 0-1.48-.41 1 1 0 0 0 .09 1.24c.45.48.41.39 1 1 .215.244.317.567.28.89-.27 1.47-.64 2.84-.93 4.3zM50.81 139a37.85 37.85 0 0 1 .58-7.19 1 1 0 0 0-.9-1.17h-.17a1 1 0 0 0-1.06.82 39.34 39.34 0 0 0-.55 7.66 1 1 0 0 0 1.4.88l.13-.06c.35-.183.57-.545.57-.94zM68.42 158.88a1 1 0 0 0 1.07-1c0-1-1-1-1-1.08a11.42 11.42 0 0 1-1.84-.18 28.69 28.69 0 0 1-3-.64 1 1 0 0 0-1.27.83c-.05.45-.09 1 1.26 1.46.15.08 2.82.47 4.78.61zM66.84 163a14.29 14.29 0 0 1-3.93-1.3 1.73 1.73 0 0 0-2.26.76c-.08.14-.16.28-.23.42a1 1 0 0 0 .27 1.26 11.5 11.5 0 0 0 4 2c1.173.322 2.37.55 3.58.68a1 1 0 0 0 1.11-1.1v-.11a2.9 2.9 0 0 0-2.54-2.61zM81.73 156.89a2.34 2.34 0 0 1 0-.26 1 1 0 0 0-1.25-.81 32.47 32.47 0 0 1-5.73.94 1 1 0 0 0-.92 1.1v.22a1 1 0 0 0 1.05.91l.65-.05A34.46 34.46 0 0 0 81 158a1 1 0 0 0 .73-1.11zM102.62 146s.36.13 1 .28a1.38 1.38 0 0 0 1.7-1.55 2.37 2.37 0 0 1 0-.41 1 1 0 0 0-.71-.94c-1.25-.41-2.48-.88-3.72-1.27-3.13-1-4.95-.52-6.45 1.81a1.71 1.71 0 0 0-.19 1.25c.21.65 1.82.84 2.14 0a1.83 1.83 0 0 1 2.31-1.3c1.2.29 2.7 1.65 3.92 2.13zM105.22 154.76a1 1 0 0 0-.83-.89l-.51-.08c-2.18-.41-2.54.21-4.35 1.52-.12.09-1.51 2.11-.44 3.38a.9.9 0 0 0 1.22-.52c.94-1.73 2.06-2.28 3.81-2a.93.93 0 0 0 1.14-1.1c-.02-.07-.03-.19-.04-.31zM110.66 147.42c2.46 1.48 6.82-.46 9.6-2a1.82 1.82 0 0 0 .9-2 1 1 0 0 0-1.35-.67 23.11 23.11 0 0 1-8.53 1.6c-.64 0-.59.69-1 1.21-.41.52.27 1.23.38 1.86zM129.36 122.81l-.1.12c.491.774.88 1.607 1.16 2.48a16.36 16.36 0 0 1 .66 3.53 1 1 0 0 0 .74.92c.197.049.388.12.57.21a7.24 7.24 0 0 1 1.28.81 15.93 15.93 0 0 0-1.37-8.31 1 1 0 0 0-1.36-.43 7.26 7.26 0 0 1-1.58.67zM96.7 92.83c-1.6-1.75-3.2-3.5-4.82-5.23a1 1 0 0 0-1.5.07l-.11.13a1 1 0 0 0 .07 1.29l3.23 3.4c.8.85 1.18 1.76 2.68 2.26 1.48-.1.81-1.52.45-1.92zM42.92 28.89c.32 1 .71 2.53 2.46 2.4 1.75-.13 2.21 0 3.89-.13a1 1 0 0 0 .9-1c0-.76-.06-1.52-.06-2.28a1 1 0 0 0-1-1 28.18 28.18 0 0 0-5.13.63c-.68.11-1.22.9-1.06 1.38zM36.38 38.84a1 1 0 0 0 1.86-.41 9.21 9.21 0 0 1 .21-1.89 8.3 8.3 0 0 1 1-1.91 1 1 0 0 0 .12-1l-.28-.6a1 1 0 0 0-1.71-.16 14.52 14.52 0 0 0-1.13 2c-.28.63-.55 1.27-.8 1.91a1 1 0 0 0 0 .81c.28.41.5.83.73 1.25zM29 44a7.74 7.74 0 0 0 5.43-1c-.3-.51-.59-1-.84-1.57a1 1 0 0 0-1.31-.46 6.58 6.58 0 0 1-2.52.49.91.91 0 0 0-1 1.16c.12.452.2.914.24 1.38zM54.27 28.24v1.68a1 1 0 0 0 1 1 37.39 37.39 0 0 1 5.59.22c.3 0 2 .5 2.63-.5.12-.83 0-.88-.53-1.57-.53-.69-2.25-.83-2.25-.84-1.85-.34-2.55-.61-5.27-1a1 1 0 0 0-1.17 1.01zM68.12 31.35c-.06.16-.12.31-.19.47a1 1 0 0 0 .52 1.29 16.15 16.15 0 0 1 3.65 2.29 1 1 0 0 0 1.38-.08 1.76 1.76 0 0 0 .24-1.13c-.88-1.91-2.35-2.58-4.32-3.41a1 1 0 0 0-1.28.57zM77.15 38.89a7.32 7.32 0 0 1-.66.59 1 1 0 0 0-.22 1.22c.18.36.37.73.54 1.11.6 1.34 1.44 3.66 3.19 3.88a.94.94 0 0 0 .9-1.2 21 21 0 0 0-2.18-5.38 1 1 0 0 0-1.57-.22zM79.29 50.62a1 1 0 0 0-.88.82c-.31 1.57-.13 1.94-1.22 3.5-.27.37-.89 2.23 0 2.78.62.37 1.65.53 2.4-1.25a14.23 14.23 0 0 0 1.32-4.63c.11-.7-.11-1.53-.81-1.37-.267.06-.537.11-.81.15zM75.56 64.19c0-.78.35-2.24-.5-2.6a1.4 1.4 0 0 0-1.92 1c-.58 1.53 0 4.94 2.24 8 .48.67 1.91 1.57 2.71.47.35-.47-.17-1.49-.09-1.5a16 16 0 0 0-1.54-2.43c-.99-1.25-.9-1.38-.9-2.94zM84.46 79.54c-.29-.32-.6-.63-.9-1a.76.76 0 0 1-.13-.17l-1.58-2.61a1 1 0 0 0-1.5-.22l-.7.61a1 1 0 0 0-.09 1.43c1.7 1.8 3.41 3.58 5.12 5.37a1 1 0 0 0 1.52-.1c.39-.85-.93-2.46-1.74-3.31zM103.55 101.27a11.71 11.71 0 0 0-3.34-1.19 1.47 1.47 0 0 0-1.11 2.48c.113.138.249.256.4.35a10.69 10.69 0 0 0 2.29.86c1.41.45 2.83.86 4.24 1.28a1 1 0 0 0 1.14-.46l.41-.7a1 1 0 0 0-.54-1.44l-3.49-1.18zM118 106.34c-1.32-.53-2.66-1-4-1.5a1 1 0 0 0-1.23.52 1.45 1.45 0 0 0 .94 2.06c2 .51 4.21 1.19 4.42 1.11a1 1 0 0 0 .69-1.86c-.247-.107-.52-.217-.82-.33zM126.64 113.37a11.9 11.9 0 0 0-2-2.56c-.19-.18-.54-.92-1.18-.78a1.2 1.2 0 0 0-.69.59 6.59 6.59 0 0 1-.51.75 1 1 0 0 0 .08 1.27c.92 1 1.756 2.073 2.5 3.21.54.77 1 1.55 1.54 2.35a1 1 0 0 0 1.36.31l.65-.38a1 1 0 0 0 .36-1.37c-.7-1.14-1.37-2.29-2.11-3.39zM128.88 139.12a14.43 14.43 0 0 0 1.12-2.5c.07-.29.75-1.06.19-1.46-.94-.69-1.92 1.09-2.07 1.28a11.19 11.19 0 0 1-2.47 2.56 1 1 0 0 0-.33 1l.33 1.2a1 1 0 0 0 1.72.36 24.78 24.78 0 0 0 1.51-2.44zM131.25 139.18c-.25.45-2.43 3.63-2.6 4.2a13 13 0 0 1-1.09 2.54 1 1 0 0 0-.06.89c.09.2.18.4.28.6a1 1 0 0 0 1.77 0l.53-1.06c.91-1.89 1.7-3.83 2.49-5.76a11.79 11.79 0 0 0 .41-2.2c.02-.32-.92-1.39-1.73.79zM111.89 156.44a.71.71 0 0 1 .14.1c1.4 1.21 4.69 0 6.24-.41a9.81 9.81 0 0 0 5.74-4c0-.17-.11-.34-.16-.51a1 1 0 0 0-1.41-.59 20.45 20.45 0 0 1-3.7 1.56 36.15 36.15 0 0 1-6.11 1.37 1 1 0 0 0-.87 1.08c.06.46.1.91.13 1.37v.03zM91.41 152.14c0-.19-.07-.38-.11-.56a1 1 0 0 0-1.66-.52 13.81 13.81 0 0 1-3.25 2.45 2.16 2.16 0 0 0-.18 1.53 1 1 0 0 0 1.43.56 16.44 16.44 0 0 0 3.49-2.54 1 1 0 0 0 .28-.92zM94.34 161.33a1 1 0 0 0-1.18-.39c-.4.15-.8.3-1.22.42-.81.25-1.62.45-2.44.63a1 1 0 0 0-.77 1.13c0 .16.05.32.07.48a1 1 0 0 0 1.23.87c1-.24 1.88-.49 2.75-.74.49-.14 1-.31 1.43-.49a1 1 0 0 0 .42-1.52c-.1-.12-.19-.25-.29-.39zM83.44 163.53c-.15-.4-.56-.78-1-.64a15.42 15.42 0 0 1-4.79.86c-3.1.31-2.8 1.33-2.7 2.27a1 1 0 0 0 1 .87 71.1 71.1 0 0 0 7.12-.93 1 1 0 0 0 .72-1.36c-.06-.35-.21-.71-.35-1.07zM53.79 151.48c-.21-.31-1.23-2.33-2-3.65a1.15 1.15 0 0 0-1.8-.19 1 1 0 0 0-.23 1.05 16.65 16.65 0 0 0 2.27 4.15 42.87 42.87 0 0 1 3 4.15 1 1 0 0 0 1.79-.33l.06-.25a2.53 2.53 0 0 0-.8-2.4 13.47 13.47 0 0 1-2.29-2.53z" fill="#E66C55"/><path d="M132.51 128.23c-2.33-4.47-5.37-8.75-7.53-12.62a1.84 1.84 0 0 1-.21-.58l-.38-.56a41.27 41.27 0 0 0-22.53-8.16c-4-4.667-8.067-9.267-12.2-13.8a71.51 71.51 0 0 1-6.32-5.79c-2.79-2.87-5.86-6.53-7.55-10.58-.88-1.82-1.79-3.63-2.78-5.38a5.23 5.23 0 0 0-.41-3.16l.18-1a21.3 21.3 0 0 0 5.88-12.25 16.2 16.2 0 0 0-5.08-13.58c-4.43-4-9.94-5.51-15.68-6.11-5.45-.56-11.2-.62-15.8 3a18.11 18.11 0 0 0-4.89 6.1 6.1 6.1 0 0 1-3.72 3.1 15.39 15.39 0 0 1-4.49.89 29.62 29.62 0 0 0-12.78 1.55c-1 .73-2.74 1-3.64 1.78-2.52 2.34-4.91 3-5.7 9.14a26.67 26.67 0 0 0-.24 3.86c0 1.42-1 2.47-1.74 3.67a7.52 7.52 0 0 0-.38 5.92 14.06 14.06 0 0 0 6 7.84c1.8 1.16 3.64 2.32 4 2.53a21 21 0 0 0 6.07 2.46 12.42 12.42 0 0 0 4.72 1.24 134.3 134.3 0 0 0 11 13.41c4.52 6.61 8.74 13.47 13.41 20a53.46 53.46 0 0 0-2.23 12.3c-.66 12.21 4.78 26.28 16.33 31.13l.16.11c.83.8 1.758 1.491 2.76 2.06a43.82 43.82 0 0 0 11.21-.13c5.79-.91 10.8-3.8 15.66-7 2.8-1.87 5.77-3.65 9.09-4.26a29.07 29.07 0 0 1 9.26.12 65.64 65.64 0 0 0 8.71 1.11 12.23 12.23 0 0 0 4.07-.65c3.21-2.82 6.07-4 7-8.27 1-1.16 2.09-4.2 2.79-5.58-.74-4.35-.2-10.17-2-13.82M25 56.52a24.86 24.86 0 0 0-4.31-.07l-.13.12c-.642.47-1.31.904-2 1.3a1.1 1.1 0 0 1-.31.51 4.18 4.18 0 0 0-1.13 3.6A1.66 1.66 0 0 1 16 63.43c.155.495.418.95.77 1.33.83.9-.88 2.55-1.71 1.65-2.1-2.3-1.5-5.19.11-7.43a5.72 5.72 0 0 1 2.29-2.93c.067-.522.4-.973.88-1.19a18.34 18.34 0 0 1 7.56-.44c1.33.12.19 2.18-.88 2.1m93.16 85.38a1.07 1.07 0 0 1-.84.36 1.5 1.5 0 0 1-1.11 1 12.7 12.7 0 0 1-1.94.11c-2.7.1-5.6-.05-7.9-1.42-1.08-.64.38-2.51 1.33-1.94a8.21 8.21 0 0 0 1.2.57 1.08 1.08 0 0 1 .9-.26 9.73 9.73 0 0 0 5.3-.13 4.23 4.23 0 0 1 3-1.69.78.78 0 0 1 .26 0c.09-.2.18-.4.27-.56a3.89 3.89 0 0 1 .16-1.27 1.19 1.19 0 0 1 1.83-.64c1.52 1.42-1.56 4.92-2.47 5.87" fill="#ffe180"/><path d="M42.56 105.16s.57.8.6.84c1.7 2.13 2.55 2.64 4.29 4.75.39.28.87-.18 1-.56.13-.38-.64-1.26-.84-1.51l-3.48-4.47a1 1 0 0 0-1.37-.18.7.7 0 0 0-.2 1.13zM49.08 103.75a26.32 26.32 0 0 0-1.87-2.58.82.82 0 0 0-1.38.25 1 1 0 0 0 0 1.18c.87 1.21 1.76 2.4 2.66 3.55.42.54 1.62.2 2-.36.14-.19-.92-1.34-1.41-2.04zM33.81 94.56c1.76 2.16 2.67 3.23 4.43 5.39a1 1 0 0 0 1.62-.13v-.06a1 1 0 0 0-.08-1.1L35.2 92.8a1 1 0 0 0-1.54 0c-.75.86.34 1.69.15 1.76zM36.14 89.06c1.43 2.44 2.93 4.94 4.53 7.43a1 1 0 0 0 1.54.16c.252-.23.516-.447.79-.65a1 1 0 0 0 .19-1.37c-1.75-2.33-3.46-4.7-5.07-7.14a1 1 0 0 0-1.69.06c-.11.2-.22.4-.32.61a1 1 0 0 0 .03.9zM26.52 82.34a24.31 24.31 0 0 1-5-.52 1 1 0 0 0-1.16.65 11.12 11.12 0 0 1-.58 1.5 1 1 0 0 0 .53 1.36 25.48 25.48 0 0 0 6.29 1.41 2.34 2.34 0 0 1 1.44.69c.44.54.6.94 1.3 1.26 2.05-1-.72-2.32 0-3.78a6.09 6.09 0 0 1 2.13-2.15.35.35 0 0 0-.22-.63c-1.6.11-3.16.23-4.73.21zM11.43 74.49a1.24 1.24 0 0 0-.27-.29 9.22 9.22 0 0 1-1.2-1 1 1 0 0 0-1.49.16 6.06 6.06 0 0 1-.45.52A2.6 2.6 0 0 0 8 77.4a20 20 0 0 0 2.7 2.49c.81.63 1.64 1.23 2.48 1.8a1 1 0 0 0 1.49-.57c.141-.472.308-.936.5-1.39a1 1 0 0 0-.31-1.13 16 16 0 0 1-3.43-4.11zM4.79 62.35a1.07 1.07 0 0 0-1.32-.78l-.46.09A2 2 0 0 0 1.37 64a15.3 15.3 0 0 0 1.45 4.12c.15.27.28.55.42.82a2.07 2.07 0 0 0 1.47 1.13 1.15 1.15 0 0 0 1.35-1.34c-.32-1.66-.95-4.99-1.27-6.38zM9.09 48.88l-.23-.24a1 1 0 0 0-1.37-.14c-1 .84-2.29 1.51-2.94 2.56a31.83 31.83 0 0 0-1.61 3 1.94 1.94 0 0 0 1.77 2.73.9.9 0 0 0 .91-.73c.6-2.69 1.38-5.58 3.47-7.18zM21.82 41.2c-3.17.015-6.27.95-8.92 2.69a1 1 0 0 0-.25 1.52l.16.18a1 1 0 0 0 1.33.19 14.09 14.09 0 0 1 7.71-2.43 1 1 0 0 0 .94-.83 1.16 1.16 0 0 1 0-.18 1 1 0 0 0-.97-1.14zM52.34 117.72a15.64 15.64 0 0 1-.4-2.34 5 5 0 0 0-.86-2.21c-.24-.31-1.06-.39-1.25-.15a1 1 0 0 0-.08 1.09c.275.478.512.976.71 1.49a11.3 11.3 0 0 1 .78 6.45c-.14.66-.28 1.32-.44 2a1 1 0 0 0 1.22 1.18h.06a1 1 0 0 0 .7-.74c.7-3.23 1.47-6.44 2.14-9.67a1.57 1.57 0 0 0 .06-.51c.4-1.85-1.14-3.21-1.6-3.61a1.53 1.53 0 0 0-1.48-.41 1 1 0 0 0 .09 1.24c.45.48.41.39 1 1 .215.244.317.567.28.89-.27 1.47-.64 2.84-.93 4.3zM50.81 139a37.85 37.85 0 0 1 .58-7.19 1 1 0 0 0-.9-1.17h-.17a1 1 0 0 0-1.06.82 39.34 39.34 0 0 0-.55 7.66 1 1 0 0 0 1.4.88l.13-.06c.35-.183.57-.545.57-.94zM68.42 158.88a1 1 0 0 0 1.07-1c0-1-1-1-1-1.08a11.42 11.42 0 0 1-1.84-.18 28.69 28.69 0 0 1-3-.64 1 1 0 0 0-1.27.83c-.05.45-.09 1 1.26 1.46.15.08 2.82.47 4.78.61zM66.84 163a14.29 14.29 0 0 1-3.93-1.3 1.73 1.73 0 0 0-2.26.76c-.08.14-.16.28-.23.42a1 1 0 0 0 .27 1.26 11.5 11.5 0 0 0 4 2c1.173.322 2.37.55 3.58.68a1 1 0 0 0 1.11-1.1v-.11a2.9 2.9 0 0 0-2.54-2.61zM81.73 156.89a2.34 2.34 0 0 1 0-.26 1 1 0 0 0-1.25-.81 32.47 32.47 0 0 1-5.73.94 1 1 0 0 0-.92 1.1v.22a1 1 0 0 0 1.05.91l.65-.05A34.46 34.46 0 0 0 81 158a1 1 0 0 0 .73-1.11zM102.62 146s.36.13 1 .28a1.38 1.38 0 0 0 1.7-1.55 2.37 2.37 0 0 1 0-.41 1 1 0 0 0-.71-.94c-1.25-.41-2.48-.88-3.72-1.27-3.13-1-4.95-.52-6.45 1.81a1.71 1.71 0 0 0-.19 1.25c.21.65 1.82.84 2.14 0a1.83 1.83 0 0 1 2.31-1.3c1.2.29 2.7 1.65 3.92 2.13zM105.22 154.76a1 1 0 0 0-.83-.89l-.51-.08c-2.18-.41-2.54.21-4.35 1.52-.12.09-1.51 2.11-.44 3.38a.9.9 0 0 0 1.22-.52c.94-1.73 2.06-2.28 3.81-2a.93.93 0 0 0 1.14-1.1c-.02-.07-.03-.19-.04-.31zM110.66 147.42c2.46 1.48 6.82-.46 9.6-2a1.82 1.82 0 0 0 .9-2 1 1 0 0 0-1.35-.67 23.11 23.11 0 0 1-8.53 1.6c-.64 0-.59.69-1 1.21-.41.52.27 1.23.38 1.86zM129.36 122.81l-.1.12c.491.774.88 1.607 1.16 2.48a16.36 16.36 0 0 1 .66 3.53 1 1 0 0 0 .74.92c.197.049.388.12.57.21a7.24 7.24 0 0 1 1.28.81 15.93 15.93 0 0 0-1.37-8.31 1 1 0 0 0-1.36-.43 7.26 7.26 0 0 1-1.58.67zM96.7 92.83c-1.6-1.75-3.2-3.5-4.82-5.23a1 1 0 0 0-1.5.07l-.11.13a1 1 0 0 0 .07 1.29l3.23 3.4c.8.85 1.18 1.76 2.68 2.26 1.48-.1.81-1.52.45-1.92zM42.92 28.89c.32 1 .71 2.53 2.46 2.4 1.75-.13 2.21 0 3.89-.13a1 1 0 0 0 .9-1c0-.76-.06-1.52-.06-2.28a1 1 0 0 0-1-1 28.18 28.18 0 0 0-5.13.63c-.68.11-1.22.9-1.06 1.38zM36.38 38.84a1 1 0 0 0 1.86-.41 9.21 9.21 0 0 1 .21-1.89 8.3 8.3 0 0 1 1-1.91 1 1 0 0 0 .12-1l-.28-.6a1 1 0 0 0-1.71-.16 14.52 14.52 0 0 0-1.13 2c-.28.63-.55 1.27-.8 1.91a1 1 0 0 0 0 .81c.28.41.5.83.73 1.25zM29 44a7.74 7.74 0 0 0 5.43-1c-.3-.51-.59-1-.84-1.57a1 1 0 0 0-1.31-.46 6.58 6.58 0 0 1-2.52.49.91.91 0 0 0-1 1.16c.12.452.2.914.24 1.38zM54.27 28.24v1.68a1 1 0 0 0 1 1 37.39 37.39 0 0 1 5.59.22c.3 0 2 .5 2.63-.5.12-.83 0-.88-.53-1.57-.53-.69-2.25-.83-2.25-.84-1.85-.34-2.55-.61-5.27-1a1 1 0 0 0-1.17 1.01zM68.12 31.35c-.06.16-.12.31-.19.47a1 1 0 0 0 .52 1.29 16.15 16.15 0 0 1 3.65 2.29 1 1 0 0 0 1.38-.08 1.76 1.76 0 0 0 .24-1.13c-.88-1.91-2.35-2.58-4.32-3.41a1 1 0 0 0-1.28.57zM77.15 38.89a7.32 7.32 0 0 1-.66.59 1 1 0 0 0-.22 1.22c.18.36.37.73.54 1.11.6 1.34 1.44 3.66 3.19 3.88a.94.94 0 0 0 .9-1.2 21 21 0 0 0-2.18-5.38 1 1 0 0 0-1.57-.22zM79.29 50.62a1 1 0 0 0-.88.82c-.31 1.57-.13 1.94-1.22 3.5-.27.37-.89 2.23 0 2.78.62.37 1.65.53 2.4-1.25a14.23 14.23 0 0 0 1.32-4.63c.11-.7-.11-1.53-.81-1.37-.267.06-.537.11-.81.15zM75.56 64.19c0-.78.35-2.24-.5-2.6a1.4 1.4 0 0 0-1.92 1c-.58 1.53 0 4.94 2.24 8 .48.67 1.91 1.57 2.71.47.35-.47-.17-1.49-.09-1.5a16 16 0 0 0-1.54-2.43c-.99-1.25-.9-1.38-.9-2.94zM84.46 79.54c-.29-.32-.6-.63-.9-1a.76.76 0 0 1-.13-.17l-1.58-2.61a1 1 0 0 0-1.5-.22l-.7.61a1 1 0 0 0-.09 1.43c1.7 1.8 3.41 3.58 5.12 5.37a1 1 0 0 0 1.52-.1c.39-.85-.93-2.46-1.74-3.31zM103.55 101.27a11.71 11.71 0 0 0-3.34-1.19 1.47 1.47 0 0 0-1.11 2.48c.113.138.249.256.4.35a10.69 10.69 0 0 0 2.29.86c1.41.45 2.83.86 4.24 1.28a1 1 0 0 0 1.14-.46l.41-.7a1 1 0 0 0-.54-1.44l-3.49-1.18zM118 106.34c-1.32-.53-2.66-1-4-1.5a1 1 0 0 0-1.23.52 1.45 1.45 0 0 0 .94 2.06c2 .51 4.21 1.19 4.42 1.11a1 1 0 0 0 .69-1.86c-.247-.107-.52-.217-.82-.33zM126.64 113.37a11.9 11.9 0 0 0-2-2.56c-.19-.18-.54-.92-1.18-.78a1.2 1.2 0 0 0-.69.59 6.59 6.59 0 0 1-.51.75 1 1 0 0 0 .08 1.27c.92 1 1.756 2.073 2.5 3.21.54.77 1 1.55 1.54 2.35a1 1 0 0 0 1.36.31l.65-.38a1 1 0 0 0 .36-1.37c-.7-1.14-1.37-2.29-2.11-3.39zM128.88 139.12a14.43 14.43 0 0 0 1.12-2.5c.07-.29.75-1.06.19-1.46-.94-.69-1.92 1.09-2.07 1.28a11.19 11.19 0 0 1-2.47 2.56 1 1 0 0 0-.33 1l.33 1.2a1 1 0 0 0 1.72.36 24.78 24.78 0 0 0 1.51-2.44zM131.25 139.18c-.25.45-2.43 3.63-2.6 4.2a13 13 0 0 1-1.09 2.54 1 1 0 0 0-.06.89c.09.2.18.4.28.6a1 1 0 0 0 1.77 0l.53-1.06c.91-1.89 1.7-3.83 2.49-5.76a11.79 11.79 0 0 0 .41-2.2c.02-.32-.92-1.39-1.73.79zM111.89 156.44a.71.71 0 0 1 .14.1c1.4 1.21 4.69 0 6.24-.41a9.81 9.81 0 0 0 5.74-4c0-.17-.11-.34-.16-.51a1 1 0 0 0-1.41-.59 20.45 20.45 0 0 1-3.7 1.56 36.15 36.15 0 0 1-6.11 1.37 1 1 0 0 0-.87 1.08c.06.46.1.91.13 1.37v.03zM91.41 152.14c0-.19-.07-.38-.11-.56a1 1 0 0 0-1.66-.52 13.81 13.81 0 0 1-3.25 2.45 2.16 2.16 0 0 0-.18 1.53 1 1 0 0 0 1.43.56 16.44 16.44 0 0 0 3.49-2.54 1 1 0 0 0 .28-.92zM94.34 161.33a1 1 0 0 0-1.18-.39c-.4.15-.8.3-1.22.42-.81.25-1.62.45-2.44.63a1 1 0 0 0-.77 1.13c0 .16.05.32.07.48a1 1 0 0 0 1.23.87c1-.24 1.88-.49 2.75-.74.49-.14 1-.31 1.43-.49a1 1 0 0 0 .42-1.52c-.1-.12-.19-.25-.29-.39zM83.44 163.53c-.15-.4-.56-.78-1-.64a15.42 15.42 0 0 1-4.79.86c-3.1.31-2.8 1.33-2.7 2.27a1 1 0 0 0 1 .87 71.1 71.1 0 0 0 7.12-.93 1 1 0 0 0 .72-1.36c-.06-.35-.21-.71-.35-1.07zM53.79 151.48c-.21-.31-1.23-2.33-2-3.65a1.15 1.15 0 0 0-1.8-.19 1 1 0 0 0-.23 1.05 16.65 16.65 0 0 0 2.27 4.15 42.87 42.87 0 0 1 3 4.15 1 1 0 0 0 1.79-.33l.06-.25a2.53 2.53 0 0 0-.8-2.4 13.47 13.47 0 0 1-2.29-2.53z" fill="#E66C55"/></g></svg>