<svg width="280" height="223" xmlns="http://www.w3.org/2000/svg"><g fill="#E66C55" fill-rule="nonzero"><path d="M35.828 214.708a24.22 24.22 0 0 1 5.115-1.393c1.163-.233 2.093-.233 2.558-1.394a4.642 4.642 0 0 0 .697-3.95 11.196 11.196 0 0 0-3.487-5.11c-.698-.696-1.628-1.161-2.325-1.858a2.439 2.439 0 0 1-1.163-2.09c0-1.859-.232-3.485-.232-5.343a27.365 27.365 0 0 1 1.627-9.524c.698-2.555 1.395-5.343 2.093-7.898.185-.487.418-.954.697-1.394a35.026 35.026 0 0 1 5.348-4.878c.232-.232.697-.465.93-.697 1.89-1.804 4-3.364 6.277-4.646a.232.232 0 0 0 .233-.232c3.487-3.252 7.905-5.343 11.392-8.595.93-.929 1.86-1.626 2.79-2.555l1.163-1.161A34.088 34.088 0 0 0 78.608 142a23.659 23.659 0 0 0 3.255-7.898c.465-2.09 1.163-4.181 1.628-6.272.329-1.532.562-3.084.697-4.646v-12.079c.403-.06.814.022 1.163.233a27.268 27.268 0 0 0 7.44 2.09c.962.204 1.898.516 2.79.93 3.952 1.625 7.672 3.484 11.625 4.877a50.191 50.191 0 0 1 7.905 3.95c.465.232.697.464 1.162.696 1.86.697 3.953 1.394 5.813 2.09 1.508.44 2.984.983 4.417 1.627 3.953 1.858 7.673 3.949 11.625 5.807.233.233.465.233.93.465a28.449 28.449 0 0 1 5.58 2.323 4.654 4.654 0 0 0 2.558.464 44.213 44.213 0 0 1 9.532.93c.6.19 1.231.27 1.86.232a12.66 12.66 0 0 1 4.185 0c1.004.116 2.019.116 3.023 0 1.86 0 3.72.232 5.58.232a6.98 6.98 0 0 0 3.022-.464 27.395 27.395 0 0 0 4.418-2.556c.44-.278.907-.512 1.395-.697.258.424.417.9.465 1.394.232 4.414.697 8.595.697 13.008 0 4.414-.232 9.524-.93 14.17a26.643 26.643 0 0 0-.232 4.414 52.335 52.335 0 0 1 0 6.04c-.008 3.11.226 6.216.697 9.291 0 .465.233.93.233 1.394 0 3.02-.233 6.04-.465 9.06v4.645c-.038.705.04 1.411.232 2.09a52.233 52.233 0 0 0 1.86 5.576 15.158 15.158 0 0 1 1.395 5.575c0 .929.698 1.858.465 3.02 0 .232.233.696.465.696l2.093 1.394 3.487 1.394a12.61 12.61 0 0 0 5.813 1.394 38.047 38.047 0 0 0 5.115-.465.86.86 0 0 0 .697-.232c.698-.233.93-.697.698-1.626 0-.233-.233-.465-.465-.93.697-.464 1.395-1.161 2.092-1.626a5.713 5.713 0 0 0 .465-8.362 29.041 29.041 0 0 0-2.79-1.858c-.232-.233-.465-.233-.93-.465-2.092-.93-2.557-1.858-2.092-4.413l.697-4.182c.193-.994.271-2.007.233-3.02v-10.917c.232-3.02.697-5.808.93-8.827a31.1 31.1 0 0 0 .232-4.646c.233-2.555.698-5.343.93-7.898.465-3.252.93-6.737 1.628-9.989.197-1.645.508-3.275.93-4.878a71.118 71.118 0 0 0 2.325-11.847c.27-2.236.426-4.484.465-6.736a6.778 6.778 0 0 0-.465-2.09c.232-.233.465-.698.697-.93a25.555 25.555 0 0 0 6.51-8.362c.698-1.162 1.163-2.323 1.86-3.485a8.845 8.845 0 0 0 1.163-3.484c.232-2.555.697-4.878.93-7.433a58.931 58.931 0 0 1 2.325-12.776c.232-1.394.697-2.556.93-3.95a39.23 39.23 0 0 1 2.79-10.22c1.86-4.182 3.487-8.595 5.115-13.009a100.97 100.97 0 0 1 5.812-14.634c.465-.93 1.163-1.858 1.628-2.788.93-.464 1.627 0 2.557 0 1.395.233 2.79.465 4.418.697.327-.034.657.048.93.233 3.952 1.393 7.905.697 11.625.697 2.325 0 4.65-.233 6.975-.465a4.652 4.652 0 0 0 3.72-1.626c.465-.465.93-1.162 1.395-1.626a60.25 60.25 0 0 0 5.812-9.06c.526-1.029.917-2.122 1.163-3.252a2.809 2.809 0 0 0-.233-2.323 8.444 8.444 0 0 1-1.627-.696c-.465-.233-.93-.697-1.395-.93a17.348 17.348 0 0 0-2.79-1.626c-.93-.464-2.093-1.161-3.023-1.626-.232-.232-.697-.232-1.162-.464a16.144 16.144 0 0 0-3.023-1.162 3.304 3.304 0 0 0-1.395-.464 9.724 9.724 0 0 1-2.325-.93c-.93-.464-1.86-.929-3.022-1.625a3.345 3.345 0 0 0-1.86-3.02l-1.395-1.394c-1.163-.93-2.558-2.09-3.953-3.02-.232-.232-.465-.232-.697-.464a33.302 33.302 0 0 0-4.883-2.788A31.55 31.55 0 0 0 232.5 3.323a6.98 6.98 0 0 0-3.72.465c-1.824.46-3.698.694-5.58.696a13.264 13.264 0 0 0-3.022.233 10.445 10.445 0 0 0-4.185 1.626 9.419 9.419 0 0 1-2.093 1.161 14.175 14.175 0 0 0-6.278 6.504c-.93 1.859-1.395 3.717-2.325 5.575a26.473 26.473 0 0 1-2.325 4.414c-.93 1.626-1.86 3.252-2.79 5.11-.291.318-.457.73-.464 1.162a14.558 14.558 0 0 1-3.023 6.969 21.205 21.205 0 0 0-1.86 3.02 134.863 134.863 0 0 1-9.998 14.634 10.046 10.046 0 0 1-6.742 3.949 37.88 37.88 0 0 0-6.975 1.626c-.357.187-.76.268-1.162.232-1.393.217-2.733.69-3.953 1.394a8.606 8.606 0 0 1-2.558 1.161c-.697.232-1.394.697-2.092.93a32.333 32.333 0 0 1-6.51 2.787 35.832 35.832 0 0 1-8.602 2.09c-1.026.147-2.037.38-3.023.697-2.093.465-4.185.697-6.51 1.162-1.86.232-3.72.697-5.58.929a12.706 12.706 0 0 1-4.185.232c-1.245-.038-2.49.04-3.72.233-3.487.464-6.975.929-10.23 1.626-.718.043-1.424.2-2.093.464-1.811.54-3.73.62-5.58.232a23.899 23.899 0 0 0-5.812-.232 7.912 7.912 0 0 1-2.325-.232 31.811 31.811 0 0 0-8.138 0c-1.86.232-3.952.232-5.812.464a45.997 45.997 0 0 0-15.578 4.414c-2.79 1.394-5.58 2.555-8.37 3.717a17.3 17.3 0 0 0-5.114 3.252 12.508 12.508 0 0 1-2.79 2.09.511.511 0 0 0-.466.465 6.017 6.017 0 0 1-2.557 3.252 29.93 29.93 0 0 0-3.72 3.949c-.236.44-.552.834-.93 1.161a50.714 50.714 0 0 0-6.045 7.898 48.393 48.393 0 0 0-5.58 10.918c-.698 2.09-1.628 4.181-2.325 6.272a26.87 26.87 0 0 1-3.255 5.575c-1.395 2.09-3.255 4.181-4.65 6.272a45.346 45.346 0 0 1-3.953 5.343c-.287.264-.523.58-.697.929a11.296 11.296 0 0 1-3.952 3.484 3.304 3.304 0 0 1-1.396.465 3.813 3.813 0 0 0-2.557 1.626c-.232.232-.465.464-.465.697-1.395 1.393-2.558 3.252-4.65 3.716a9.419 9.419 0 0 0-2.092 1.162 1.323 1.323 0 0 0-.466 1.626c.465 1.161 1.86 1.626 2.558.929a3.046 3.046 0 0 1 4.417-.465c.466.233.93.233 1.163.465l4.185-3.484 1.163-1.162a23.244 23.244 0 0 1 5.114-4.413c1.628-.93 3.023-2.091 4.65-3.02 2.326-1.626 4.418-3.02 6.743-4.414.698-.464 1.162-.929 1.86-1.394 1.395-1.393 2.79-2.555 3.953-3.949 1.162-1.393 2.557-2.555 3.72-3.948a35.739 35.739 0 0 1 2.79-3.02c.697.232.465.697.465 1.161a34.628 34.628 0 0 1-.465 4.878 39.993 39.993 0 0 1-2.093 10.221c-.233.465-.233.93-.465 1.394-1.395 2.555-2.79 5.343-4.417 7.898-1.163 1.858-2.326 3.484-3.72 5.343-2.093 3.02-4.185 5.807-6.278 8.827a40.452 40.452 0 0 1-2.79 3.252c-2.325 2.555-3.953 5.342-6.045 7.898a20.093 20.093 0 0 0-1.628 2.323 9.287 9.287 0 0 0-2.092 5.11c-.232 3.02-.93 6.04-.93 9.06 0 3.02-.232 6.503-.232 9.988a43.31 43.31 0 0 0 .93 5.807 10.358 10.358 0 0 0 3.022 5.343 3.228 3.228 0 0 1 1.163 2.323l-1.395.697a1.324 1.324 0 0 0 0 2.323c.493.473 1.2.65 1.86.464a15.242 15.242 0 0 1 3.255 0c.902-.02 1.79.222 2.557.697.75.506 1.677.674 2.558.465a3.234 3.234 0 0 1 2.092 0c1.86.232 3.023-.93 3.487-2.788 2.581-.883 2.814-1.812 3.046-3.02zm167.865-181.42c1.163.465 2.093.93 3.023 1.394 4.417 1.626 8.835 3.02 13.252 4.646.357.188.76.269 1.163.232 3.255.93 5.115 0 6.742-3.716.262-.506.42-1.059.465-1.626v-5.343c-.232-2.555-.697-4.878-.93-7.433a13.23 13.23 0 0 1-.232-3.02 2.113 2.113 0 0 0-.93-1.858c-.698-.465-1.395-.465-1.628.464-.182.839-.26 1.697-.232 2.555a45.977 45.977 0 0 0 .697 9.757c.233 1.617.233 3.26 0 4.878a3.53 3.53 0 0 1-1.627 2.787l-2.325-.697c-2.79-.929-5.348-1.858-8.138-2.555a63.197 63.197 0 0 1-8.137-3.717c.465-.696.697-1.393 1.162-2.09a59.372 59.372 0 0 0 2.558-5.575c.697-1.626 1.162-3.252 1.86-4.878a9.291 9.291 0 0 1 2.325-3.485c1.627-1.626 3.72-2.555 5.347-4.18a10.538 10.538 0 0 1 5.092-1.86 45.772 45.772 0 0 0 5.58-.696 12.636 12.636 0 0 1 5.115 0c3.455.544 6.82 1.56 9.998 3.02a22.786 22.786 0 0 1 6.277 4.18c.85.901 1.88 1.613 3.023 2.092.464.232.697.464 1.162.696 0 1.859 0 1.859 1.163 2.556a37.217 37.217 0 0 0 5.347 2.323 12.98 12.98 0 0 1 3.72 1.626c-.232.464-.465.696-.697 1.161-.465.93-.233 1.626.93 2.09.363.169.762.248 1.162.233a3.32 3.32 0 0 1 .697 2.323c-.032.676.33 1.31.93 1.626a5.669 5.669 0 0 1 2.093 2.555 5.294 5.294 0 0 1-1.395 2.788c-.697 1.161-1.627 2.09-2.325 3.252-.465.464-.697.929-1.163 1.393a2.326 2.326 0 0 1-2.092.93c-3.255 0-6.743 0-9.998.232h-3.255a9.54 9.54 0 0 1-2.557-.232l-4.417-.697a30.105 30.105 0 0 1-6.046-1.859 40.085 40.085 0 0 0-4.882-1.626.861.861 0 0 0-1.162.465 1.485 1.485 0 0 0 0 1.394l.697.697c.465.232.93.696 1.395.929-.232.464-.232.929-.465 1.394-.232.464-.697 1.161-.93 1.626-2.557 5.11-4.417 10.453-6.51 15.795 0 .233-.232.465-.232.697-.465 1.162-.698 2.555-1.163 3.717-.93 2.323-2.093 4.413-3.255 6.736a34.45 34.45 0 0 0-3.72 11.383 31.474 31.474 0 0 1-1.395 6.736 20.308 20.308 0 0 0-.465 3.717 6.429 6.429 0 0 1-.233 2.09c-.232 1.162-.232 2.556-.465 3.717-.465 2.788-.697 5.807-1.162 8.595-.232.929-.697 2.09-.93 3.02a40.297 40.297 0 0 1-4.882 7.898 11.016 11.016 0 0 1-2.326 2.322c-.677.56-1.3 1.182-1.86 1.859-.465.464-.697.929-1.162 1.394a24.451 24.451 0 0 0-6.045 12.543c-.233.697-.233 1.626-.465 2.323a4.435 4.435 0 0 1-1.162 2.323 2.322 2.322 0 0 0-.93 1.626 42.962 42.962 0 0 0-1.628 9.524 7.891 7.891 0 0 1-.233 2.323 11.86 11.86 0 0 0-.697 4.878 6.429 6.429 0 0 1-.233 2.09 16.06 16.06 0 0 0-.232 5.808 15.55 15.55 0 0 1 0 4.646c-.039 1.707.04 3.414.232 5.11l.698 10.453a19.96 19.96 0 0 1-.233 3.717 53.1 53.1 0 0 0-.232 8.595 13.12 13.12 0 0 0 4.882 10.22c.233.233.698.465.93.698 1.163 1.393 2.558 2.555 2.093 4.878-.465.232-.93.232-1.395.464a3.513 3.513 0 0 1-4.185.233 35.8 35.8 0 0 0-4.417-1.859 3.486 3.486 0 0 1-2.558-2.787c-.232-.697-.697-1.394-.93-2.09a11.816 11.816 0 0 1-1.395-4.879 32.84 32.84 0 0 0-.465-6.736v-1.162a9.725 9.725 0 0 0-.233-3.716 22.536 22.536 0 0 1 0-7.898c.698-5.11.465-10.221.698-15.332 0-2.555.232-5.11.465-7.665.429-3.546.506-7.125.232-10.686-.465-4.646-.93-9.291-.93-13.937a28.826 28.826 0 0 0-.93-7.666 23.998 23.998 0 0 1-.697-9.988c.27-2.08.426-4.175.465-6.272 0-2.788-.232-5.575-.232-8.363a17.569 17.569 0 0 0-.233-3.484 29.85 29.85 0 0 0-.93-4.414c-.232-.697-.465-1.161-1.162-1.393a1.49 1.49 0 0 0-1.395 0 .86.86 0 0 0-.465 1.161c0 .465.232.93.232 1.394.193.994.27 2.007.233 3.02v2.555c0 5.343.464 10.685 0 16.26-.039.782.04 1.565.232 2.323a21.562 21.562 0 0 1 1.395 8.595c0 .464-.233.697-.233 1.161-.697.233-1.394.233-1.86.697-1.86 1.162-3.952 1.162-5.58 2.09-.439.19-.918.27-1.394.233a39.56 39.56 0 0 1-9.068-.232h-1.162a10.076 10.076 0 0 1-3.72-.232 36.837 36.837 0 0 0-8.836-.697 5.003 5.003 0 0 1-2.557-.465 15.63 15.63 0 0 0-2.79-1.394 34.516 34.516 0 0 1-7.207-3.484 60.987 60.987 0 0 0-10.463-4.878c-2.093-.697-3.953-1.394-5.813-2.09a8.162 8.162 0 0 1-1.86-1.162 27.395 27.395 0 0 0-4.417-2.555c-2.558-1.162-5.347-2.323-7.905-3.485a51.508 51.508 0 0 0-12.787-4.181 13.446 13.446 0 0 1-3.255-1.161 10.447 10.447 0 0 0-4.418-1.162 9.89 9.89 0 0 1-2.558-.465 1.558 1.558 0 0 0-1.86.697l-.697 1.394a4.458 4.458 0 0 1 1.395 3.949v1.626c.233 4.646 0 9.524-.232 14.17a8.333 8.333 0 0 1-.465 2.555c-.93 3.02-1.86 5.807-3.023 8.827-.232.465-.232.697-.465 1.162a40.427 40.427 0 0 1-6.975 8.362 42.264 42.264 0 0 1-8.137 6.272c-.466.232-.93.697-1.396.93-2.557 2.09-5.347 3.948-8.137 6.039-2.79 2.09-5.813 4.413-8.602 6.736-2.325 1.859-4.185 3.95-6.51 5.575a13.94 13.94 0 0 0-3.72 4.414 17.724 17.724 0 0 1-1.86 2.555c-1.163 1.394-2.325 3.02-3.488 4.413-.232.465-.465.697-.697 1.162a46.751 46.751 0 0 0-2.325 8.13 15.527 15.527 0 0 0 0 4.646c.232 1.394.697 3.02.93 4.414a5.155 5.155 0 0 0 1.162 2.555c1.86 2.323 3.72 4.646 5.58 6.736a1.81 1.81 0 0 1 .233 2.323c-.19.73-.876 1.22-1.628 1.162a5.794 5.794 0 0 1-3.953-.697 16.028 16.028 0 0 0-1.86-.697c-.697-.232-1.394-.465-1.627-1.162a6.507 6.507 0 0 0-3.72-3.716 2.323 2.323 0 0 1-1.395-2.323v-15.1c0-.928.232-2.09.232-3.019l.698-6.272a8.335 8.335 0 0 1 1.627-4.181 81.84 81.84 0 0 1 6.278-8.595c2.325-2.787 4.65-5.575 6.742-8.595.93-1.161 1.86-2.555 2.79-3.949a14.1 14.1 0 0 1 1.628-2.323c1.395-2.09 3.023-3.948 4.185-6.04 1.163-1.625 2.093-3.716 3.023-5.342a26.857 26.857 0 0 0 2.79-10.453c0-.93.232-1.858.232-2.555.27-1.613.425-3.243.465-4.878l.697-6.969c.233-1.394.233-2.788.465-3.949.233-1.161.233-2.323.465-3.484a9.283 9.283 0 0 0 0-2.556c0-.696 0-1.393-.697-1.626-.698-.232-.93.465-1.163 1.394a8.844 8.844 0 0 1-.697 2.323 3.459 3.459 0 0 0-.465 2.09 2.995 2.995 0 0 1-.93 2.788c-.697.93-1.395 2.09-2.093 3.252a45.467 45.467 0 0 1-7.904 9.756 38.477 38.477 0 0 1-7.905 5.808c-.465.232-1.163.464-1.628.697.97-1.9 2.14-3.69 3.488-5.343a29.45 29.45 0 0 0 4.184-6.737 48.614 48.614 0 0 0 3.023-8.13 42.076 42.076 0 0 1 5.115-10.22c2.325-3.485 5.115-6.737 7.672-10.221l.698-.697c1.395-1.394 2.558-2.788 3.953-3.95a27.899 27.899 0 0 1 7.904-5.806l4.185-2.091a33.357 33.357 0 0 1 7.906-3.252 18.286 18.286 0 0 1 6.044-1.859 18.15 18.15 0 0 1 5.115-.696c1.395 0 2.558-.233 3.953-.233a20.361 20.361 0 0 1 3.72-.464 81.842 81.842 0 0 1 13.02.929 16.29 16.29 0 0 0 5.813-.232 58.453 58.453 0 0 1 6.277-.93 35.3 35.3 0 0 0 4.882-.696 26.528 26.528 0 0 1 6.046-.465c1.09.038 2.18-.04 3.255-.232a24.546 24.546 0 0 0 4.417-1.162 5.12 5.12 0 0 1 1.86-.232c2.024.309 4.092.15 6.045-.465.465-.232 1.163-.232 1.628-.464a57.959 57.959 0 0 0 8.602-2.09 43.802 43.802 0 0 0 9.067-3.718l1.395-.696c1.163-.465 2.093-.93 3.256-1.394a7.398 7.398 0 0 1 2.092-.697 57.237 57.237 0 0 0 10.463-2.555 13.485 13.485 0 0 0 6.277-4.414c1.86-2.09 3.488-4.413 5.348-6.736 1.162-1.394 1.86-3.02 3.022-4.646a69.929 69.929 0 0 0 4.65-7.898 20.639 20.639 0 0 1 2.348-6.69v-.046zm-3.255 178.865c-1.627-1.626-3.022-3.252-4.65-4.646a5.202 5.202 0 0 1-1.86-3.484 53.38 53.38 0 0 1-.465-8.595 3.946 3.946 0 0 1 .233-1.626 15.04 15.04 0 0 0 .465-4.646c-.233-3.716-.465-7.433-.465-11.15 0-1.626-.233-3.252-.233-4.878-.232-2.787-.232-5.343-.465-8.13a17.453 17.453 0 0 1 0-3.484 13.113 13.113 0 0 0 0-3.02 31.1 31.1 0 0 1 .233-4.646c.193-1.151.27-2.318.232-3.484a12.86 12.86 0 0 1 1.395-6.272c.405.52.874.989 1.395 1.393.379-.327.694-.72.93-1.161.233-.697.465-1.626.698-2.555.465-1.859.93-3.485 1.395-5.343a23.704 23.704 0 0 1 2.557-6.736c.233-.465.465-.93 1.163-.697 0 .232.232.464.232.929a30.636 30.636 0 0 1-.465 6.504 28.826 28.826 0 0 0-.93 7.666c0 .464-.232.929-.232 1.393 0 .465-.233 1.626-.465 2.323-.233 3.717-.233 7.434-.233 11.15a9.609 9.609 0 0 1-.465 3.717 45.983 45.983 0 0 0-1.86 7.666 70.418 70.418 0 0 1-1.395 9.756 7.891 7.891 0 0 0-.232 2.323c0 4.878-.233 9.988-.233 14.866-.049.859.03 1.72.233 2.556a5.663 5.663 0 0 1 0 2.787c-.233.465 0 .697-.233 1.162a7.744 7.744 0 0 0 2.325 1.393 15.487 15.487 0 0 1 4.65 2.788 1.649 1.649 0 0 1 .233 2.555c-1.395.976-2.093 1.673-3.488 1.673v-.047zM36.991 178.935a1.021 1.021 0 0 1 0 1.394c-.698 2.788-1.628 5.807-2.558 8.595a22.768 22.768 0 0 0-.697 11.15 4.97 4.97 0 0 0 2.325 3.717 16.016 16.016 0 0 1 3.022 2.555 9.684 9.684 0 0 1 2.093 3.716 20.938 20.938 0 0 1-6.045 2.091 2.116 2.116 0 0 1-1.86-.929 36.839 36.839 0 0 1-4.185-6.272.859.859 0 0 1-.233-.697 28.57 28.57 0 0 1-.93-8.827 15.973 15.973 0 0 1 3.488-9.524c1.627-1.858 3.022-3.949 4.65-6.04 0-.185.465-.65.93-.882v-.047z"/><path d="M158.588 128.342a4.644 4.644 0 0 0 1.395-3.252V123c0-3.485 0-6.97.233-10.454v-5.575c0-1.626.232-3.252.232-5.11 0-1.161-.232-2.555-.232-3.717a1.464 1.464 0 0 0-1.163-1.393 1.721 1.721 0 0 0-2.092.929 6.802 6.802 0 0 0-.698 2.323c-.232 3.484-.232 6.968-.232 10.685 0 5.11.232 10.221.232 15.331 0 1.626 0 1.626 2.325 2.323zM136.036 94.66a2.718 2.718 0 0 0-2.093 2.555c-.232 1.626-.232 3.252-.465 5.11-.232 1.859-.232 3.95-.232 6.04-.038.935.04 1.872.232 2.788.465 3.484 1.163 6.736 1.86 10.22.233 1.394.698 2.556.93 3.95.233.464.465.929.93.929.458-.088.87-.335 1.163-.697.203-.597.282-1.23.232-1.859-.232-3.948-.465-7.897-.93-11.846-.465-3.95-.232-7.434-.232-11.15v-3.717a2.834 2.834 0 0 0-1.395-2.323zM140.918 107.854c-.037 4.2.274 8.396.93 12.544.193 1.385.271 2.783.233 4.181.044.642.201 1.271.465 1.859a1.302 1.302 0 0 0 2.557-.233c.116-.925.116-1.862 0-2.787 0-1.394-.465-2.788-.465-3.95a148.534 148.534 0 0 1-.232-17.653V98.33a1.277 1.277 0 0 0-.698-1.161 1.047 1.047 0 0 0-1.395.464 2.647 2.647 0 0 0-.697 1.859 32.98 32.98 0 0 0-.698 8.362zM163.006 111.153c0 2.555.232 4.878.232 7.433 0 1.626-.232 3.252-.232 5.11v2.323c0 .233.465.465.697.697.233.233.698 0 .698-.232s.465-.697.697-1.161c.233-.93.465-2.091.698-3.02.465-4.414.93-8.827 1.395-13.473a52.8 52.8 0 0 0 .465-6.04v-1.161a1.302 1.302 0 0 0-1.395-1.162c-1.163-.232-2.093.465-2.325 1.859-.233 1.393-.233 2.787-.465 4.18-.233 1.395-.233 3.02-.465 4.647zM167.888 119.98v2.09c0 .465.233.697.233 1.162a1.558 1.558 0 0 0 1.627.929c.698 0 .93-.465 1.163-.93.19-.438.269-.916.232-1.393.55-3.848.86-7.727.93-11.614a7.891 7.891 0 0 1 .233-2.323 17.198 17.198 0 0 0-.233-4.879c-.232-.929-.93-1.161-1.86-.464a4.644 4.644 0 0 0-1.395 3.02c0 .929-.232 1.858-.232 2.555-.233 4.181-.465 8.13-.698 11.847zM151.846 121.792c0-1.859-.233-3.717-.233-5.575a39.455 39.455 0 0 1 .233-9.06c.232-3.02.232-5.807.465-8.827a3.946 3.946 0 0 0-.233-1.626c0-.464-.697-.464-.93-.464-.697.232-.93.929-1.162 1.626a16.432 16.432 0 0 0-.233 3.252 53.38 53.38 0 0 0 .465 8.595 13.531 13.531 0 0 1-.465 7.433v.464c-.232 3.02-.465 6.272-.465 9.292v.465c.233.929.465 1.161 1.163 1.161.697 0 1.395-.464 1.395-.929s.232-.93.232-1.394a9.47 9.47 0 0 1-.232-4.413zM88.838 103.022a.859.859 0 0 0 .233.697 31.244 31.244 0 0 0 3.255 2.556 27.358 27.358 0 0 0 4.65 1.626 19.212 19.212 0 0 1 6.975 3.252c.489.395 1.038.709 1.627.929 1.372.4 2.697.945 3.953 1.626.598.203 1.23.282 1.86.232.232 0 .697-.232.697-.464a1.393 1.393 0 0 0-.232-.93 19.25 19.25 0 0 0-3.488-2.555 20.09 20.09 0 0 1-3.72-2.323 8.165 8.165 0 0 0-3.255-1.393c-2.092-.697-4.185-1.394-6.51-2.091l-4.185-1.394c-.465 0-1.162-.464-1.86.232zM128.13 111.85a4.875 4.875 0 0 0 .93-2.556c.281-1.69.437-3.397.466-5.11V97.68c0-1.626-1.163-2.09-2.325-1.394a1.742 1.742 0 0 0-1.163 1.626 4.015 4.015 0 0 0-.232 2.323c0 2.555.232 5.343.465 7.898.012.897.252 1.776.697 2.555-.232.697.233 1.162 1.163 1.162zM119.296 102.558c0 1.161.232 2.787.232 4.646.233 1.394.698 1.626 1.86 1.858a1.395 1.395 0 0 0 1.395-.697c.233-.697.465-1.626.698-2.323 0-2.323.232-4.646 0-6.968a10.933 10.933 0 0 0-.93-3.717c-.233-.93-1.163-.93-1.86-.465-.637.6-.977 1.45-.93 2.323a30.172 30.172 0 0 0-.465 5.343zM65.588 124.626v.929a1.091 1.091 0 0 0 1.163 1.161c.697.233.93-.232 1.395-.697a19.827 19.827 0 0 0 2.092-5.575c.441-1.99.752-4.008.93-6.04v-.928a1.091 1.091 0 0 0-1.162-1.162 1.768 1.768 0 0 0-2.325 1.394c-.233 1.394-.698 2.787-.93 4.181-.233 1.394-.698 3.02-.93 4.414a7.148 7.148 0 0 1-.233 2.323zM196.253 74.218a6.164 6.164 0 0 1 5.115 1.859 14.837 14.837 0 0 0 3.255 1.858c.465 0 .698.232 1.163.232.465 0 .93 0 1.162-.464a2.53 2.53 0 0 0-.232-1.162 4.089 4.089 0 0 0-.93-1.161 14.819 14.819 0 0 0-12.323-3.95.86.86 0 0 0-.697.233c-.363.293-.61.704-.698 1.162.058.349.22.673.465.929a7.167 7.167 0 0 0 3.72.464zM85.816 96.518a7.315 7.315 0 0 0 1.86-3.484c.345-1.451.579-2.927.697-4.414 0-.232-.232-.464-.465-.696a5.93 5.93 0 0 0-2.79 1.858 28.325 28.325 0 0 0-1.627 3.949c-.465 1.626-.233 2.09 1.395 2.555.282.162.604.242.93.232zM116.97 95.357a4.017 4.017 0 0 0-1.394 2.787c0 .697-.233 1.394-.233 2.091a5.106 5.106 0 0 0 .233 3.252c.232.232.465.697.697.93.93.696 1.628.232 1.86-.698 0-.464.233-.929.233-1.393 0-1.859-.233-3.485-.233-5.343a9.826 9.826 0 0 0-1.162-1.626zM242.986 21.488a2.742 2.742 0 0 0 2.557-2.555c0-.232 0-.232-.232-.465a3.024 3.024 0 0 0-3.72-1.393c-.634.193-1.255.426-1.86.696-.93.465-1.163 1.162-.233 2.091.93.93 2.558 1.162 3.488 1.626zM247.636 34.496c.697 0 .93-.232 1.162-.929a1.114 1.114 0 0 0-.465-1.393 8.725 8.725 0 0 0-6.277-1.394c-.465 0-.93.232-.93.697-.036.401.044.804.232 1.161.233.232.698.465.93.697l4.883 1.394c.232-.233.232-.233.465-.233z"/></g></svg>